<?xml version="1.0" encoding="utf-8" standalone="no"?>
<!DOCTYPE svg PUBLIC "-//W3C//DTD SVG 1.1//EN"
  "http://www.w3.org/Graphics/SVG/1.1/DTD/svg11.dtd">
<svg xmlns:xlink="http://www.w3.org/1999/xlink" width="423.31825pt" height="279.754375pt" viewBox="0 0 423.31825 279.754375" xmlns="http://www.w3.org/2000/svg" version="1.1">
 <metadata>
  <rdf:RDF xmlns:dc="http://purl.org/dc/elements/1.1/" xmlns:cc="http://creativecommons.org/ns#" xmlns:rdf="http://www.w3.org/1999/02/22-rdf-syntax-ns#">
   <cc:Work>
    <dc:type rdf:resource="http://purl.org/dc/dcmitype/StillImage"/>
    <dc:date>2026-05-13T21:19:41.942677</dc:date>
    <dc:format>image/svg+xml</dc:format>
    <dc:creator>
     <cc:Agent>
      <dc:title>Matplotlib v3.10.9, https://matplotlib.org/</dc:title>
     </cc:Agent>
    </dc:creator>
   </cc:Work>
  </rdf:RDF>
 </metadata>
 <defs>
  <style type="text/css">*{stroke-linejoin: round; stroke-linecap: butt}</style>
 </defs>
 <g id="figure_1">
  <g id="patch_1">
   <path d="M 0 279.754375 
L 423.31825 279.754375 
L 423.31825 0 
L 0 0 
z
" style="fill: #ffffff"/>
  </g>
  <g id="axes_1">
   <g id="patch_2">
    <path d="M 43.78125 242.198125 
L 416.11825 242.198125 
L 416.11825 22.318125 
L 43.78125 22.318125 
z
" style="fill: #ffffff"/>
   </g>
   <g id="matplotlib.axis_1">
    <g id="xtick_1">
     <g id="line2d_1">
      <defs>
       <path id="m74d286b11b" d="M 0 0 
L 0 3.5 
" style="stroke: #000000; stroke-width: 0.8"/>
      </defs>
      <g>
       <use xlink:href="#m74d286b11b" x="60.705659" y="242.198125" style="stroke: #000000; stroke-width: 0.8"/>
      </g>
     </g>
     <g id="text_1">
      <!-- −8 -->
      <g transform="translate(53.334565 256.796563) scale(0.1 -0.1)">
       <defs>
        <path id="DejaVuSans-2212" d="M 678 2272 
L 4684 2272 
L 4684 1741 
L 678 1741 
L 678 2272 
z
" transform="scale(0.015625)"/>
        <path id="DejaVuSans-38" d="M 2034 2216 
Q 1584 2216 1326 1975 
Q 1069 1734 1069 1313 
Q 1069 891 1326 650 
Q 1584 409 2034 409 
Q 2484 409 2743 651 
Q 3003 894 3003 1313 
Q 3003 1734 2745 1975 
Q 2488 2216 2034 2216 
z
M 1403 2484 
Q 997 2584 770 2862 
Q 544 3141 544 3541 
Q 544 4100 942 4425 
Q 1341 4750 2034 4750 
Q 2731 4750 3128 4425 
Q 3525 4100 3525 3541 
Q 3525 3141 3298 2862 
Q 3072 2584 2669 2484 
Q 3125 2378 3379 2068 
Q 3634 1759 3634 1313 
Q 3634 634 3220 271 
Q 2806 -91 2034 -91 
Q 1263 -91 848 271 
Q 434 634 434 1313 
Q 434 1759 690 2068 
Q 947 2378 1403 2484 
z
M 1172 3481 
Q 1172 3119 1398 2916 
Q 1625 2713 2034 2713 
Q 2441 2713 2670 2916 
Q 2900 3119 2900 3481 
Q 2900 3844 2670 4047 
Q 2441 4250 2034 4250 
Q 1625 4250 1398 4047 
Q 1172 3844 1172 3481 
z
" transform="scale(0.015625)"/>
       </defs>
       <use xlink:href="#DejaVuSans-2212"/>
       <use xlink:href="#DejaVuSans-38" transform="translate(83.789062 0)"/>
      </g>
     </g>
    </g>
    <g id="xtick_2">
     <g id="line2d_2">
      <g>
       <use xlink:href="#m74d286b11b" x="103.016682" y="242.198125" style="stroke: #000000; stroke-width: 0.8"/>
      </g>
     </g>
     <g id="text_2">
      <!-- −6 -->
      <g transform="translate(95.645588 256.796563) scale(0.1 -0.1)">
       <defs>
        <path id="DejaVuSans-36" d="M 2113 2584 
Q 1688 2584 1439 2293 
Q 1191 2003 1191 1497 
Q 1191 994 1439 701 
Q 1688 409 2113 409 
Q 2538 409 2786 701 
Q 3034 994 3034 1497 
Q 3034 2003 2786 2293 
Q 2538 2584 2113 2584 
z
M 3366 4563 
L 3366 3988 
Q 3128 4100 2886 4159 
Q 2644 4219 2406 4219 
Q 1781 4219 1451 3797 
Q 1122 3375 1075 2522 
Q 1259 2794 1537 2939 
Q 1816 3084 2150 3084 
Q 2853 3084 3261 2657 
Q 3669 2231 3669 1497 
Q 3669 778 3244 343 
Q 2819 -91 2113 -91 
Q 1303 -91 875 529 
Q 447 1150 447 2328 
Q 447 3434 972 4092 
Q 1497 4750 2381 4750 
Q 2619 4750 2861 4703 
Q 3103 4656 3366 4563 
z
" transform="scale(0.015625)"/>
       </defs>
       <use xlink:href="#DejaVuSans-2212"/>
       <use xlink:href="#DejaVuSans-36" transform="translate(83.789062 0)"/>
      </g>
     </g>
    </g>
    <g id="xtick_3">
     <g id="line2d_3">
      <g>
       <use xlink:href="#m74d286b11b" x="145.327705" y="242.198125" style="stroke: #000000; stroke-width: 0.8"/>
      </g>
     </g>
     <g id="text_3">
      <!-- −4 -->
      <g transform="translate(137.956611 256.796563) scale(0.1 -0.1)">
       <defs>
        <path id="DejaVuSans-34" d="M 2419 4116 
L 825 1625 
L 2419 1625 
L 2419 4116 
z
M 2253 4666 
L 3047 4666 
L 3047 1625 
L 3713 1625 
L 3713 1100 
L 3047 1100 
L 3047 0 
L 2419 0 
L 2419 1100 
L 313 1100 
L 313 1709 
L 2253 4666 
z
" transform="scale(0.015625)"/>
       </defs>
       <use xlink:href="#DejaVuSans-2212"/>
       <use xlink:href="#DejaVuSans-34" transform="translate(83.789062 0)"/>
      </g>
     </g>
    </g>
    <g id="xtick_4">
     <g id="line2d_4">
      <g>
       <use xlink:href="#m74d286b11b" x="187.638727" y="242.198125" style="stroke: #000000; stroke-width: 0.8"/>
      </g>
     </g>
     <g id="text_4">
      <!-- −2 -->
      <g transform="translate(180.267634 256.796563) scale(0.1 -0.1)">
       <defs>
        <path id="DejaVuSans-32" d="M 1228 531 
L 3431 531 
L 3431 0 
L 469 0 
L 469 531 
Q 828 903 1448 1529 
Q 2069 2156 2228 2338 
Q 2531 2678 2651 2914 
Q 2772 3150 2772 3378 
Q 2772 3750 2511 3984 
Q 2250 4219 1831 4219 
Q 1534 4219 1204 4116 
Q 875 4013 500 3803 
L 500 4441 
Q 881 4594 1212 4672 
Q 1544 4750 1819 4750 
Q 2544 4750 2975 4387 
Q 3406 4025 3406 3419 
Q 3406 3131 3298 2873 
Q 3191 2616 2906 2266 
Q 2828 2175 2409 1742 
Q 1991 1309 1228 531 
z
" transform="scale(0.015625)"/>
       </defs>
       <use xlink:href="#DejaVuSans-2212"/>
       <use xlink:href="#DejaVuSans-32" transform="translate(83.789062 0)"/>
      </g>
     </g>
    </g>
    <g id="xtick_5">
     <g id="line2d_5">
      <g>
       <use xlink:href="#m74d286b11b" x="229.94975" y="242.198125" style="stroke: #000000; stroke-width: 0.8"/>
      </g>
     </g>
     <g id="text_5">
      <!-- 0 -->
      <g transform="translate(226.7685 256.796563) scale(0.1 -0.1)">
       <defs>
        <path id="DejaVuSans-30" d="M 2034 4250 
Q 1547 4250 1301 3770 
Q 1056 3291 1056 2328 
Q 1056 1369 1301 889 
Q 1547 409 2034 409 
Q 2525 409 2770 889 
Q 3016 1369 3016 2328 
Q 3016 3291 2770 3770 
Q 2525 4250 2034 4250 
z
M 2034 4750 
Q 2819 4750 3233 4129 
Q 3647 3509 3647 2328 
Q 3647 1150 3233 529 
Q 2819 -91 2034 -91 
Q 1250 -91 836 529 
Q 422 1150 422 2328 
Q 422 3509 836 4129 
Q 1250 4750 2034 4750 
z
" transform="scale(0.015625)"/>
       </defs>
       <use xlink:href="#DejaVuSans-30"/>
      </g>
     </g>
    </g>
    <g id="xtick_6">
     <g id="line2d_6">
      <g>
       <use xlink:href="#m74d286b11b" x="272.260773" y="242.198125" style="stroke: #000000; stroke-width: 0.8"/>
      </g>
     </g>
     <g id="text_6">
      <!-- 2 -->
      <g transform="translate(269.079523 256.796563) scale(0.1 -0.1)">
       <use xlink:href="#DejaVuSans-32"/>
      </g>
     </g>
    </g>
    <g id="xtick_7">
     <g id="line2d_7">
      <g>
       <use xlink:href="#m74d286b11b" x="314.571795" y="242.198125" style="stroke: #000000; stroke-width: 0.8"/>
      </g>
     </g>
     <g id="text_7">
      <!-- 4 -->
      <g transform="translate(311.390545 256.796563) scale(0.1 -0.1)">
       <use xlink:href="#DejaVuSans-34"/>
      </g>
     </g>
    </g>
    <g id="xtick_8">
     <g id="line2d_8">
      <g>
       <use xlink:href="#m74d286b11b" x="356.882818" y="242.198125" style="stroke: #000000; stroke-width: 0.8"/>
      </g>
     </g>
     <g id="text_8">
      <!-- 6 -->
      <g transform="translate(353.701568 256.796563) scale(0.1 -0.1)">
       <use xlink:href="#DejaVuSans-36"/>
      </g>
     </g>
    </g>
    <g id="xtick_9">
     <g id="line2d_9">
      <g>
       <use xlink:href="#m74d286b11b" x="399.193841" y="242.198125" style="stroke: #000000; stroke-width: 0.8"/>
      </g>
     </g>
     <g id="text_9">
      <!-- 8 -->
      <g transform="translate(396.012591 256.796563) scale(0.1 -0.1)">
       <use xlink:href="#DejaVuSans-38"/>
      </g>
     </g>
    </g>
    <g id="text_10">
     <!-- x -->
     <g transform="translate(226.990375 270.474688) scale(0.1 -0.1)">
      <defs>
       <path id="DejaVuSans-78" d="M 3513 3500 
L 2247 1797 
L 3578 0 
L 2900 0 
L 1881 1375 
L 863 0 
L 184 0 
L 1544 1831 
L 300 3500 
L 978 3500 
L 1906 2253 
L 2834 3500 
L 3513 3500 
z
" transform="scale(0.015625)"/>
      </defs>
      <use xlink:href="#DejaVuSans-78"/>
     </g>
    </g>
   </g>
   <g id="matplotlib.axis_2">
    <g id="ytick_1">
     <g id="line2d_10">
      <defs>
       <path id="mdd330bfa93" d="M 0 0 
L -3.5 0 
" style="stroke: #000000; stroke-width: 0.8"/>
      </defs>
      <g>
       <use xlink:href="#mdd330bfa93" x="43.78125" y="232.20358" style="stroke: #000000; stroke-width: 0.8"/>
      </g>
     </g>
     <g id="text_11">
      <!-- 0.0 -->
      <g transform="translate(20.878125 236.002799) scale(0.1 -0.1)">
       <defs>
        <path id="DejaVuSans-2e" d="M 684 794 
L 1344 794 
L 1344 0 
L 684 0 
L 684 794 
z
" transform="scale(0.015625)"/>
       </defs>
       <use xlink:href="#DejaVuSans-30"/>
       <use xlink:href="#DejaVuSans-2e" transform="translate(63.623047 0)"/>
       <use xlink:href="#DejaVuSans-30" transform="translate(95.410156 0)"/>
      </g>
     </g>
    </g>
    <g id="ytick_2">
     <g id="line2d_11">
      <g>
       <use xlink:href="#mdd330bfa93" x="43.78125" y="192.225398" style="stroke: #000000; stroke-width: 0.8"/>
      </g>
     </g>
     <g id="text_12">
      <!-- 0.2 -->
      <g transform="translate(20.878125 196.024617) scale(0.1 -0.1)">
       <use xlink:href="#DejaVuSans-30"/>
       <use xlink:href="#DejaVuSans-2e" transform="translate(63.623047 0)"/>
       <use xlink:href="#DejaVuSans-32" transform="translate(95.410156 0)"/>
      </g>
     </g>
    </g>
    <g id="ytick_3">
     <g id="line2d_12">
      <g>
       <use xlink:href="#mdd330bfa93" x="43.78125" y="152.247216" style="stroke: #000000; stroke-width: 0.8"/>
      </g>
     </g>
     <g id="text_13">
      <!-- 0.4 -->
      <g transform="translate(20.878125 156.046435) scale(0.1 -0.1)">
       <use xlink:href="#DejaVuSans-30"/>
       <use xlink:href="#DejaVuSans-2e" transform="translate(63.623047 0)"/>
       <use xlink:href="#DejaVuSans-34" transform="translate(95.410156 0)"/>
      </g>
     </g>
    </g>
    <g id="ytick_4">
     <g id="line2d_13">
      <g>
       <use xlink:href="#mdd330bfa93" x="43.78125" y="112.269034" style="stroke: #000000; stroke-width: 0.8"/>
      </g>
     </g>
     <g id="text_14">
      <!-- 0.6 -->
      <g transform="translate(20.878125 116.068253) scale(0.1 -0.1)">
       <use xlink:href="#DejaVuSans-30"/>
       <use xlink:href="#DejaVuSans-2e" transform="translate(63.623047 0)"/>
       <use xlink:href="#DejaVuSans-36" transform="translate(95.410156 0)"/>
      </g>
     </g>
    </g>
    <g id="ytick_5">
     <g id="line2d_14">
      <g>
       <use xlink:href="#mdd330bfa93" x="43.78125" y="72.290852" style="stroke: #000000; stroke-width: 0.8"/>
      </g>
     </g>
     <g id="text_15">
      <!-- 0.8 -->
      <g transform="translate(20.878125 76.090071) scale(0.1 -0.1)">
       <use xlink:href="#DejaVuSans-30"/>
       <use xlink:href="#DejaVuSans-2e" transform="translate(63.623047 0)"/>
       <use xlink:href="#DejaVuSans-38" transform="translate(95.410156 0)"/>
      </g>
     </g>
    </g>
    <g id="ytick_6">
     <g id="line2d_15">
      <g>
       <use xlink:href="#mdd330bfa93" x="43.78125" y="32.31267" style="stroke: #000000; stroke-width: 0.8"/>
      </g>
     </g>
     <g id="text_16">
      <!-- 1.0 -->
      <g transform="translate(20.878125 36.111889) scale(0.1 -0.1)">
       <defs>
        <path id="DejaVuSans-31" d="M 794 531 
L 1825 531 
L 1825 4091 
L 703 3866 
L 703 4441 
L 1819 4666 
L 2450 4666 
L 2450 531 
L 3481 531 
L 3481 0 
L 794 0 
L 794 531 
z
" transform="scale(0.015625)"/>
       </defs>
       <use xlink:href="#DejaVuSans-31"/>
       <use xlink:href="#DejaVuSans-2e" transform="translate(63.623047 0)"/>
       <use xlink:href="#DejaVuSans-30" transform="translate(95.410156 0)"/>
      </g>
     </g>
    </g>
    <g id="text_17">
     <!-- $\sigma(\theta_0 + \theta_1 x)$ -->
     <g transform="translate(14.798438 159.308125) rotate(-90) scale(0.1 -0.1)">
      <defs>
       <path id="DejaVuSans-Oblique-3c3" d="M 2219 3044 
Q 1744 3044 1422 2700 
Q 1081 2341 969 1747 
Q 844 1119 1044 756 
Q 1241 397 1706 397 
Q 2166 397 2503 759 
Q 2844 1122 2966 1747 
Q 3075 2319 2881 2700 
Q 2700 3044 2219 3044 
z
M 2309 3503 
L 4219 3500 
L 4106 2925 
L 3463 2925 
Q 3706 2438 3575 1747 
Q 3406 888 2884 400 
Q 2359 -91 1609 -91 
Q 856 -91 525 400 
Q 194 888 363 1747 
Q 528 2609 1050 3097 
Q 1484 3503 2309 3503 
z
" transform="scale(0.015625)"/>
       <path id="DejaVuSans-28" d="M 1984 4856 
Q 1566 4138 1362 3434 
Q 1159 2731 1159 2009 
Q 1159 1288 1364 580 
Q 1569 -128 1984 -844 
L 1484 -844 
Q 1016 -109 783 600 
Q 550 1309 550 2009 
Q 550 2706 781 3412 
Q 1013 4119 1484 4856 
L 1984 4856 
z
" transform="scale(0.015625)"/>
       <path id="DejaVuSans-Oblique-3b8" d="M 2913 2219 
L 925 2219 
Q 791 1284 928 888 
Q 1100 400 1566 400 
Q 2034 400 2391 891 
Q 2703 1322 2913 2219 
z
M 3009 2750 
Q 3094 3638 2984 3950 
Q 2813 4444 2353 4444 
Q 1875 4444 1525 3956 
Q 1250 3563 1034 2750 
L 3009 2750 
z
M 2444 4913 
Q 3194 4913 3494 4250 
Q 3794 3591 3566 2422 
Q 3341 1256 2781 594 
Q 2225 -72 1475 -72 
Q 722 -72 425 594 
Q 128 1256 353 2422 
Q 581 3591 1134 4250 
Q 1691 4913 2444 4913 
z
" transform="scale(0.015625)"/>
       <path id="DejaVuSans-2b" d="M 2944 4013 
L 2944 2272 
L 4684 2272 
L 4684 1741 
L 2944 1741 
L 2944 0 
L 2419 0 
L 2419 1741 
L 678 1741 
L 678 2272 
L 2419 2272 
L 2419 4013 
L 2944 4013 
z
" transform="scale(0.015625)"/>
       <path id="DejaVuSans-Oblique-78" d="M 3841 3500 
L 2234 1784 
L 3219 0 
L 2559 0 
L 1819 1388 
L 531 0 
L -166 0 
L 1556 1844 
L 641 3500 
L 1300 3500 
L 1972 2234 
L 3144 3500 
L 3841 3500 
z
" transform="scale(0.015625)"/>
       <path id="DejaVuSans-29" d="M 513 4856 
L 1013 4856 
Q 1481 4119 1714 3412 
Q 1947 2706 1947 2009 
Q 1947 1309 1714 600 
Q 1481 -109 1013 -844 
L 513 -844 
Q 928 -128 1133 580 
Q 1338 1288 1338 2009 
Q 1338 2731 1133 3434 
Q 928 4138 513 4856 
z
" transform="scale(0.015625)"/>
      </defs>
      <use xlink:href="#DejaVuSans-Oblique-3c3" transform="translate(0 0.234375)"/>
      <use xlink:href="#DejaVuSans-28" transform="translate(63.378906 0.234375)"/>
      <use xlink:href="#DejaVuSans-Oblique-3b8" transform="translate(102.392578 0.234375)"/>
      <use xlink:href="#DejaVuSans-30" transform="translate(163.574219 -16.171875) scale(0.7)"/>
      <use xlink:href="#DejaVuSans-2b" transform="translate(230.327148 0.234375)"/>
      <use xlink:href="#DejaVuSans-Oblique-3b8" transform="translate(333.598633 0.234375)"/>
      <use xlink:href="#DejaVuSans-31" transform="translate(394.780273 -16.171875) scale(0.7)"/>
      <use xlink:href="#DejaVuSans-Oblique-78" transform="translate(442.050781 0.234375)"/>
      <use xlink:href="#DejaVuSans-29" transform="translate(501.230469 0.234375)"/>
     </g>
    </g>
   </g>
   <g id="line2d_16">
    <path d="M 60.705659 232.136547 
L 90.397605 231.931071 
L 106.51609 231.620677 
L 118.392868 231.183914 
L 127.724622 230.623061 
L 135.359694 229.943896 
L 142.146425 229.10247 
L 148.084814 228.118068 
L 153.174862 227.035484 
L 157.416568 225.924133 
L 161.658275 224.583149 
L 165.899981 222.969454 
L 169.293346 221.449321 
L 172.686712 219.695359 
L 176.080077 217.677306 
L 179.473442 215.362926 
L 182.866807 212.718571 
L 186.260173 209.710016 
L 188.805197 207.194295 
L 191.35022 204.441243 
L 193.895244 201.438446 
L 197.28861 197.027798 
L 200.681975 192.134627 
L 204.07534 186.748625 
L 207.468705 180.871176 
L 210.862071 174.517625 
L 214.255436 167.719028 
L 218.497142 158.66915 
L 223.58719 147.175246 
L 232.070603 127.252519 
L 238.857334 111.52242 
L 243.09904 102.160176 
L 247.340747 93.344879 
L 250.734112 86.763894 
L 254.127477 80.645527 
L 257.520843 75.012804 
L 260.914208 69.873832 
L 264.307573 65.223846 
L 267.700938 61.047617 
L 271.094303 57.321955 
L 274.487669 54.018089 
L 277.881034 51.103784 
L 281.274399 48.545125 
L 284.667764 46.307938 
L 288.06113 44.358861 
L 291.454495 42.666107 
L 294.84786 41.199969 
L 299.089567 39.644553 
L 303.331273 38.35275 
L 307.57298 37.282675 
L 312.663028 36.240749 
L 317.753075 35.41378 
L 323.691465 34.663722 
L 330.478195 34.024039 
L 338.961608 33.461936 
L 349.141704 33.024525 
L 362.715165 32.688057 
L 381.378673 32.468202 
L 399.193841 32.379703 
L 399.193841 32.379703 
" clip-path="url(#p8019999c1b)" style="fill: none; stroke: #1f77b4; stroke-width: 2; stroke-linecap: square"/>
   </g>
   <g id="line2d_17">
    <path d="M 60.705659 232.20358 
L 165.899981 232.10044 
L 176.080077 231.860524 
L 182.018466 231.512742 
L 186.260173 231.065713 
L 189.653538 230.509137 
L 192.198562 229.921389 
L 194.743586 229.132928 
L 197.28861 228.077754 
L 198.985292 227.184757 
L 200.681975 226.1045 
L 202.378657 224.800561 
L 204.07534 223.230757 
L 205.772023 221.346852 
L 207.468705 219.094567 
L 209.165388 216.414062 
L 210.862071 213.241097 
L 212.558753 209.509114 
L 214.255436 205.152458 
L 215.952118 200.110929 
L 217.648801 194.335665 
L 219.345484 187.796155 
L 221.042166 180.487787 
L 223.58719 168.156161 
L 226.132214 154.427496 
L 230.373921 129.753751 
L 234.615627 105.381724 
L 237.160651 92.077286 
L 239.705675 80.279099 
L 241.402358 73.353826 
L 243.09904 67.198812 
L 244.795723 61.79555 
L 246.492406 57.103427 
L 248.189088 53.067096 
L 249.885771 49.622976 
L 251.582453 46.704477 
L 253.279136 44.245874 
L 254.975819 42.184929 
L 256.672501 40.464487 
L 258.369184 39.033262 
L 260.065866 37.846068 
L 261.762549 36.863651 
L 264.307573 35.701626 
L 266.852597 34.83248 
L 269.397621 34.184116 
L 272.790986 33.569769 
L 277.032693 33.076077 
L 282.12274 32.73173 
L 289.757812 32.482875 
L 302.482932 32.350531 
L 337.264925 32.313291 
L 399.193841 32.31267 
L 399.193841 32.31267 
" clip-path="url(#p8019999c1b)" style="fill: none; stroke: #ff7f0e; stroke-width: 2; stroke-linecap: square"/>
   </g>
   <g id="line2d_18">
    <path d="M 60.705659 232.200241 
L 137.056377 232.080365 
L 159.961592 231.840204 
L 174.383394 231.486372 
L 185.411831 230.998601 
L 193.895244 230.409495 
L 200.681975 229.739279 
L 206.620364 228.953684 
L 211.710412 228.087869 
L 216.80046 226.997495 
L 221.042166 225.878241 
L 225.283873 224.527845 
L 229.525579 222.903006 
L 232.918945 221.372555 
L 236.31231 219.606907 
L 239.705675 217.575697 
L 243.09904 215.246609 
L 246.492406 212.585947 
L 249.885771 209.559485 
L 252.430795 207.029317 
L 254.975819 204.261007 
L 257.520843 201.242222 
L 260.914208 196.809329 
L 264.307573 191.893205 
L 267.700938 186.484035 
L 271.094303 180.583808 
L 274.487669 174.208575 
L 277.881034 167.390156 
L 282.12274 158.319307 
L 287.212788 146.807677 
L 295.696201 126.877799 
L 302.482932 111.16314 
L 306.724638 101.818904 
L 310.966345 93.026569 
L 314.35971 86.466521 
L 317.753075 80.370527 
L 321.146441 74.760877 
L 324.539806 69.645024 
L 327.933171 65.017657 
L 331.326536 60.863118 
L 334.719902 57.157905 
L 338.113267 53.873039 
L 341.506632 50.976169 
L 344.899997 48.43334 
L 348.293362 46.210394 
L 351.686728 44.274027 
L 355.080093 42.592542 
L 358.473458 41.136336 
L 362.715165 39.591632 
L 366.956871 38.308863 
L 371.198578 37.246366 
L 376.288626 36.2119 
L 382.227015 35.271704 
L 388.165404 34.555617 
L 395.800476 33.881443 
L 399.193841 33.65051 
L 399.193841 33.65051 
" clip-path="url(#p8019999c1b)" style="fill: none; stroke: #2ca02c; stroke-width: 2; stroke-linecap: square"/>
   </g>
   <g id="line2d_19">
    <path d="M 60.705659 32.313898 
L 124.331257 32.424418 
L 140.449742 32.662662 
L 150.629838 33.031672 
L 157.416568 33.473448 
L 163.354957 34.07583 
L 168.445005 34.83248 
L 172.686712 35.701626 
L 176.080077 36.603681 
L 179.473442 37.739209 
L 182.866807 39.164705 
L 185.411831 40.464487 
L 187.956855 41.998456 
L 190.501879 43.803781 
L 193.046903 45.921524 
L 195.591927 48.396235 
L 198.136951 51.275153 
L 200.681975 54.606885 
L 203.226999 58.439475 
L 205.772023 62.817755 
L 208.317047 67.77998 
L 210.862071 73.353826 
L 213.407094 79.551961 
L 215.952118 86.367624 
L 218.497142 93.770743 
L 221.890508 104.45475 
L 226.132214 118.813657 
L 238.008992 160.0615 
L 241.402358 170.745507 
L 243.947382 178.148626 
L 246.492406 184.964289 
L 249.037429 191.162424 
L 251.582453 196.73627 
L 254.127477 201.698495 
L 256.672501 206.076775 
L 259.217525 209.909365 
L 261.762549 213.241097 
L 264.307573 216.120015 
L 266.852597 218.594726 
L 269.397621 220.712469 
L 271.942645 222.517794 
L 274.487669 224.051763 
L 277.032693 225.351545 
L 279.577717 226.450299 
L 282.971082 227.652599 
L 286.364447 228.6083 
L 290.606154 229.529641 
L 294.84786 230.217265 
L 299.937908 230.814844 
L 305.876297 231.289894 
L 313.511369 231.670833 
L 323.691465 231.944377 
L 339.809949 232.120845 
L 372.046919 232.195163 
L 399.193841 232.202352 
L 399.193841 232.202352 
" clip-path="url(#p8019999c1b)" style="fill: none; stroke: #d62728; stroke-width: 2; stroke-linecap: square"/>
   </g>
   <g id="line2d_20">
    <path d="M 43.78125 132.258125 
L 416.11825 132.258125 
" clip-path="url(#p8019999c1b)" style="fill: none; stroke-dasharray: 1.48,0.64; stroke-dashoffset: 0; stroke: #000000; stroke-width: 0.4"/>
   </g>
   <g id="line2d_21">
    <path d="M 43.78125 232.20358 
L 416.11825 232.20358 
" clip-path="url(#p8019999c1b)" style="fill: none; stroke: #000000; stroke-width: 0.4; stroke-linecap: square"/>
   </g>
   <g id="line2d_22">
    <path d="M 43.78125 32.31267 
L 416.11825 32.31267 
" clip-path="url(#p8019999c1b)" style="fill: none; stroke: #000000; stroke-width: 0.4; stroke-linecap: square"/>
   </g>
   <g id="patch_3">
    <path d="M 43.78125 242.198125 
L 43.78125 22.318125 
" style="fill: none; stroke: #000000; stroke-width: 0.8; stroke-linejoin: miter; stroke-linecap: square"/>
   </g>
   <g id="patch_4">
    <path d="M 416.11825 242.198125 
L 416.11825 22.318125 
" style="fill: none; stroke: #000000; stroke-width: 0.8; stroke-linejoin: miter; stroke-linecap: square"/>
   </g>
   <g id="patch_5">
    <path d="M 43.78125 242.198125 
L 416.11825 242.198125 
" style="fill: none; stroke: #000000; stroke-width: 0.8; stroke-linejoin: miter; stroke-linecap: square"/>
   </g>
   <g id="patch_6">
    <path d="M 43.78125 22.318125 
L 416.11825 22.318125 
" style="fill: none; stroke: #000000; stroke-width: 0.8; stroke-linejoin: miter; stroke-linecap: square"/>
   </g>
   <g id="text_18">
    <!-- The sigmoid family: slope sets sharpness, bias sets midpoint -->
    <g transform="translate(47.848813 16.318125) scale(0.12 -0.12)">
     <defs>
      <path id="DejaVuSans-54" d="M -19 4666 
L 3928 4666 
L 3928 4134 
L 2272 4134 
L 2272 0 
L 1638 0 
L 1638 4134 
L -19 4134 
L -19 4666 
z
" transform="scale(0.015625)"/>
      <path id="DejaVuSans-68" d="M 3513 2113 
L 3513 0 
L 2938 0 
L 2938 2094 
Q 2938 2591 2744 2837 
Q 2550 3084 2163 3084 
Q 1697 3084 1428 2787 
Q 1159 2491 1159 1978 
L 1159 0 
L 581 0 
L 581 4863 
L 1159 4863 
L 1159 2956 
Q 1366 3272 1645 3428 
Q 1925 3584 2291 3584 
Q 2894 3584 3203 3211 
Q 3513 2838 3513 2113 
z
" transform="scale(0.015625)"/>
      <path id="DejaVuSans-65" d="M 3597 1894 
L 3597 1613 
L 953 1613 
Q 991 1019 1311 708 
Q 1631 397 2203 397 
Q 2534 397 2845 478 
Q 3156 559 3463 722 
L 3463 178 
Q 3153 47 2828 -22 
Q 2503 -91 2169 -91 
Q 1331 -91 842 396 
Q 353 884 353 1716 
Q 353 2575 817 3079 
Q 1281 3584 2069 3584 
Q 2775 3584 3186 3129 
Q 3597 2675 3597 1894 
z
M 3022 2063 
Q 3016 2534 2758 2815 
Q 2500 3097 2075 3097 
Q 1594 3097 1305 2825 
Q 1016 2553 972 2059 
L 3022 2063 
z
" transform="scale(0.015625)"/>
      <path id="DejaVuSans-20" transform="scale(0.015625)"/>
      <path id="DejaVuSans-73" d="M 2834 3397 
L 2834 2853 
Q 2591 2978 2328 3040 
Q 2066 3103 1784 3103 
Q 1356 3103 1142 2972 
Q 928 2841 928 2578 
Q 928 2378 1081 2264 
Q 1234 2150 1697 2047 
L 1894 2003 
Q 2506 1872 2764 1633 
Q 3022 1394 3022 966 
Q 3022 478 2636 193 
Q 2250 -91 1575 -91 
Q 1294 -91 989 -36 
Q 684 19 347 128 
L 347 722 
Q 666 556 975 473 
Q 1284 391 1588 391 
Q 1994 391 2212 530 
Q 2431 669 2431 922 
Q 2431 1156 2273 1281 
Q 2116 1406 1581 1522 
L 1381 1569 
Q 847 1681 609 1914 
Q 372 2147 372 2553 
Q 372 3047 722 3315 
Q 1072 3584 1716 3584 
Q 2034 3584 2315 3537 
Q 2597 3491 2834 3397 
z
" transform="scale(0.015625)"/>
      <path id="DejaVuSans-69" d="M 603 3500 
L 1178 3500 
L 1178 0 
L 603 0 
L 603 3500 
z
M 603 4863 
L 1178 4863 
L 1178 4134 
L 603 4134 
L 603 4863 
z
" transform="scale(0.015625)"/>
      <path id="DejaVuSans-67" d="M 2906 1791 
Q 2906 2416 2648 2759 
Q 2391 3103 1925 3103 
Q 1463 3103 1205 2759 
Q 947 2416 947 1791 
Q 947 1169 1205 825 
Q 1463 481 1925 481 
Q 2391 481 2648 825 
Q 2906 1169 2906 1791 
z
M 3481 434 
Q 3481 -459 3084 -895 
Q 2688 -1331 1869 -1331 
Q 1566 -1331 1297 -1286 
Q 1028 -1241 775 -1147 
L 775 -588 
Q 1028 -725 1275 -790 
Q 1522 -856 1778 -856 
Q 2344 -856 2625 -561 
Q 2906 -266 2906 331 
L 2906 616 
Q 2728 306 2450 153 
Q 2172 0 1784 0 
Q 1141 0 747 490 
Q 353 981 353 1791 
Q 353 2603 747 3093 
Q 1141 3584 1784 3584 
Q 2172 3584 2450 3431 
Q 2728 3278 2906 2969 
L 2906 3500 
L 3481 3500 
L 3481 434 
z
" transform="scale(0.015625)"/>
      <path id="DejaVuSans-6d" d="M 3328 2828 
Q 3544 3216 3844 3400 
Q 4144 3584 4550 3584 
Q 5097 3584 5394 3201 
Q 5691 2819 5691 2113 
L 5691 0 
L 5113 0 
L 5113 2094 
Q 5113 2597 4934 2840 
Q 4756 3084 4391 3084 
Q 3944 3084 3684 2787 
Q 3425 2491 3425 1978 
L 3425 0 
L 2847 0 
L 2847 2094 
Q 2847 2600 2669 2842 
Q 2491 3084 2119 3084 
Q 1678 3084 1418 2786 
Q 1159 2488 1159 1978 
L 1159 0 
L 581 0 
L 581 3500 
L 1159 3500 
L 1159 2956 
Q 1356 3278 1631 3431 
Q 1906 3584 2284 3584 
Q 2666 3584 2933 3390 
Q 3200 3197 3328 2828 
z
" transform="scale(0.015625)"/>
      <path id="DejaVuSans-6f" d="M 1959 3097 
Q 1497 3097 1228 2736 
Q 959 2375 959 1747 
Q 959 1119 1226 758 
Q 1494 397 1959 397 
Q 2419 397 2687 759 
Q 2956 1122 2956 1747 
Q 2956 2369 2687 2733 
Q 2419 3097 1959 3097 
z
M 1959 3584 
Q 2709 3584 3137 3096 
Q 3566 2609 3566 1747 
Q 3566 888 3137 398 
Q 2709 -91 1959 -91 
Q 1206 -91 779 398 
Q 353 888 353 1747 
Q 353 2609 779 3096 
Q 1206 3584 1959 3584 
z
" transform="scale(0.015625)"/>
      <path id="DejaVuSans-64" d="M 2906 2969 
L 2906 4863 
L 3481 4863 
L 3481 0 
L 2906 0 
L 2906 525 
Q 2725 213 2448 61 
Q 2172 -91 1784 -91 
Q 1150 -91 751 415 
Q 353 922 353 1747 
Q 353 2572 751 3078 
Q 1150 3584 1784 3584 
Q 2172 3584 2448 3432 
Q 2725 3281 2906 2969 
z
M 947 1747 
Q 947 1113 1208 752 
Q 1469 391 1925 391 
Q 2381 391 2643 752 
Q 2906 1113 2906 1747 
Q 2906 2381 2643 2742 
Q 2381 3103 1925 3103 
Q 1469 3103 1208 2742 
Q 947 2381 947 1747 
z
" transform="scale(0.015625)"/>
      <path id="DejaVuSans-66" d="M 2375 4863 
L 2375 4384 
L 1825 4384 
Q 1516 4384 1395 4259 
Q 1275 4134 1275 3809 
L 1275 3500 
L 2222 3500 
L 2222 3053 
L 1275 3053 
L 1275 0 
L 697 0 
L 697 3053 
L 147 3053 
L 147 3500 
L 697 3500 
L 697 3744 
Q 697 4328 969 4595 
Q 1241 4863 1831 4863 
L 2375 4863 
z
" transform="scale(0.015625)"/>
      <path id="DejaVuSans-61" d="M 2194 1759 
Q 1497 1759 1228 1600 
Q 959 1441 959 1056 
Q 959 750 1161 570 
Q 1363 391 1709 391 
Q 2188 391 2477 730 
Q 2766 1069 2766 1631 
L 2766 1759 
L 2194 1759 
z
M 3341 1997 
L 3341 0 
L 2766 0 
L 2766 531 
Q 2569 213 2275 61 
Q 1981 -91 1556 -91 
Q 1019 -91 701 211 
Q 384 513 384 1019 
Q 384 1609 779 1909 
Q 1175 2209 1959 2209 
L 2766 2209 
L 2766 2266 
Q 2766 2663 2505 2880 
Q 2244 3097 1772 3097 
Q 1472 3097 1187 3025 
Q 903 2953 641 2809 
L 641 3341 
Q 956 3463 1253 3523 
Q 1550 3584 1831 3584 
Q 2591 3584 2966 3190 
Q 3341 2797 3341 1997 
z
" transform="scale(0.015625)"/>
      <path id="DejaVuSans-6c" d="M 603 4863 
L 1178 4863 
L 1178 0 
L 603 0 
L 603 4863 
z
" transform="scale(0.015625)"/>
      <path id="DejaVuSans-79" d="M 2059 -325 
Q 1816 -950 1584 -1140 
Q 1353 -1331 966 -1331 
L 506 -1331 
L 506 -850 
L 844 -850 
Q 1081 -850 1212 -737 
Q 1344 -625 1503 -206 
L 1606 56 
L 191 3500 
L 800 3500 
L 1894 763 
L 2988 3500 
L 3597 3500 
L 2059 -325 
z
" transform="scale(0.015625)"/>
      <path id="DejaVuSans-3a" d="M 750 794 
L 1409 794 
L 1409 0 
L 750 0 
L 750 794 
z
M 750 3309 
L 1409 3309 
L 1409 2516 
L 750 2516 
L 750 3309 
z
" transform="scale(0.015625)"/>
      <path id="DejaVuSans-70" d="M 1159 525 
L 1159 -1331 
L 581 -1331 
L 581 3500 
L 1159 3500 
L 1159 2969 
Q 1341 3281 1617 3432 
Q 1894 3584 2278 3584 
Q 2916 3584 3314 3078 
Q 3713 2572 3713 1747 
Q 3713 922 3314 415 
Q 2916 -91 2278 -91 
Q 1894 -91 1617 61 
Q 1341 213 1159 525 
z
M 3116 1747 
Q 3116 2381 2855 2742 
Q 2594 3103 2138 3103 
Q 1681 3103 1420 2742 
Q 1159 2381 1159 1747 
Q 1159 1113 1420 752 
Q 1681 391 2138 391 
Q 2594 391 2855 752 
Q 3116 1113 3116 1747 
z
" transform="scale(0.015625)"/>
      <path id="DejaVuSans-74" d="M 1172 4494 
L 1172 3500 
L 2356 3500 
L 2356 3053 
L 1172 3053 
L 1172 1153 
Q 1172 725 1289 603 
Q 1406 481 1766 481 
L 2356 481 
L 2356 0 
L 1766 0 
Q 1100 0 847 248 
Q 594 497 594 1153 
L 594 3053 
L 172 3053 
L 172 3500 
L 594 3500 
L 594 4494 
L 1172 4494 
z
" transform="scale(0.015625)"/>
      <path id="DejaVuSans-72" d="M 2631 2963 
Q 2534 3019 2420 3045 
Q 2306 3072 2169 3072 
Q 1681 3072 1420 2755 
Q 1159 2438 1159 1844 
L 1159 0 
L 581 0 
L 581 3500 
L 1159 3500 
L 1159 2956 
Q 1341 3275 1631 3429 
Q 1922 3584 2338 3584 
Q 2397 3584 2469 3576 
Q 2541 3569 2628 3553 
L 2631 2963 
z
" transform="scale(0.015625)"/>
      <path id="DejaVuSans-6e" d="M 3513 2113 
L 3513 0 
L 2938 0 
L 2938 2094 
Q 2938 2591 2744 2837 
Q 2550 3084 2163 3084 
Q 1697 3084 1428 2787 
Q 1159 2491 1159 1978 
L 1159 0 
L 581 0 
L 581 3500 
L 1159 3500 
L 1159 2956 
Q 1366 3272 1645 3428 
Q 1925 3584 2291 3584 
Q 2894 3584 3203 3211 
Q 3513 2838 3513 2113 
z
" transform="scale(0.015625)"/>
      <path id="DejaVuSans-2c" d="M 750 794 
L 1409 794 
L 1409 256 
L 897 -744 
L 494 -744 
L 750 256 
L 750 794 
z
" transform="scale(0.015625)"/>
      <path id="DejaVuSans-62" d="M 3116 1747 
Q 3116 2381 2855 2742 
Q 2594 3103 2138 3103 
Q 1681 3103 1420 2742 
Q 1159 2381 1159 1747 
Q 1159 1113 1420 752 
Q 1681 391 2138 391 
Q 2594 391 2855 752 
Q 3116 1113 3116 1747 
z
M 1159 2969 
Q 1341 3281 1617 3432 
Q 1894 3584 2278 3584 
Q 2916 3584 3314 3078 
Q 3713 2572 3713 1747 
Q 3713 922 3314 415 
Q 2916 -91 2278 -91 
Q 1894 -91 1617 61 
Q 1341 213 1159 525 
L 1159 0 
L 581 0 
L 581 4863 
L 1159 4863 
L 1159 2969 
z
" transform="scale(0.015625)"/>
     </defs>
     <use xlink:href="#DejaVuSans-54"/>
     <use xlink:href="#DejaVuSans-68" transform="translate(61.083984 0)"/>
     <use xlink:href="#DejaVuSans-65" transform="translate(124.462891 0)"/>
     <use xlink:href="#DejaVuSans-20" transform="translate(185.986328 0)"/>
     <use xlink:href="#DejaVuSans-73" transform="translate(217.773438 0)"/>
     <use xlink:href="#DejaVuSans-69" transform="translate(269.873047 0)"/>
     <use xlink:href="#DejaVuSans-67" transform="translate(297.65625 0)"/>
     <use xlink:href="#DejaVuSans-6d" transform="translate(361.132812 0)"/>
     <use xlink:href="#DejaVuSans-6f" transform="translate(458.544922 0)"/>
     <use xlink:href="#DejaVuSans-69" transform="translate(519.726562 0)"/>
     <use xlink:href="#DejaVuSans-64" transform="translate(547.509766 0)"/>
     <use xlink:href="#DejaVuSans-20" transform="translate(610.986328 0)"/>
     <use xlink:href="#DejaVuSans-66" transform="translate(642.773438 0)"/>
     <use xlink:href="#DejaVuSans-61" transform="translate(677.978516 0)"/>
     <use xlink:href="#DejaVuSans-6d" transform="translate(739.257812 0)"/>
     <use xlink:href="#DejaVuSans-69" transform="translate(836.669922 0)"/>
     <use xlink:href="#DejaVuSans-6c" transform="translate(864.453125 0)"/>
     <use xlink:href="#DejaVuSans-79" transform="translate(892.236328 0)"/>
     <use xlink:href="#DejaVuSans-3a" transform="translate(944.166016 0)"/>
     <use xlink:href="#DejaVuSans-20" transform="translate(977.857422 0)"/>
     <use xlink:href="#DejaVuSans-73" transform="translate(1009.644531 0)"/>
     <use xlink:href="#DejaVuSans-6c" transform="translate(1061.744141 0)"/>
     <use xlink:href="#DejaVuSans-6f" transform="translate(1089.527344 0)"/>
     <use xlink:href="#DejaVuSans-70" transform="translate(1150.708984 0)"/>
     <use xlink:href="#DejaVuSans-65" transform="translate(1214.185547 0)"/>
     <use xlink:href="#DejaVuSans-20" transform="translate(1275.708984 0)"/>
     <use xlink:href="#DejaVuSans-73" transform="translate(1307.496094 0)"/>
     <use xlink:href="#DejaVuSans-65" transform="translate(1359.595703 0)"/>
     <use xlink:href="#DejaVuSans-74" transform="translate(1421.119141 0)"/>
     <use xlink:href="#DejaVuSans-73" transform="translate(1460.328125 0)"/>
     <use xlink:href="#DejaVuSans-20" transform="translate(1512.427734 0)"/>
     <use xlink:href="#DejaVuSans-73" transform="translate(1544.214844 0)"/>
     <use xlink:href="#DejaVuSans-68" transform="translate(1596.314453 0)"/>
     <use xlink:href="#DejaVuSans-61" transform="translate(1659.693359 0)"/>
     <use xlink:href="#DejaVuSans-72" transform="translate(1720.972656 0)"/>
     <use xlink:href="#DejaVuSans-70" transform="translate(1762.085938 0)"/>
     <use xlink:href="#DejaVuSans-6e" transform="translate(1825.5625 0)"/>
     <use xlink:href="#DejaVuSans-65" transform="translate(1888.941406 0)"/>
     <use xlink:href="#DejaVuSans-73" transform="translate(1950.464844 0)"/>
     <use xlink:href="#DejaVuSans-73" transform="translate(2002.564453 0)"/>
     <use xlink:href="#DejaVuSans-2c" transform="translate(2054.664062 0)"/>
     <use xlink:href="#DejaVuSans-20" transform="translate(2086.451172 0)"/>
     <use xlink:href="#DejaVuSans-62" transform="translate(2118.238281 0)"/>
     <use xlink:href="#DejaVuSans-69" transform="translate(2181.714844 0)"/>
     <use xlink:href="#DejaVuSans-61" transform="translate(2209.498047 0)"/>
     <use xlink:href="#DejaVuSans-73" transform="translate(2270.777344 0)"/>
     <use xlink:href="#DejaVuSans-20" transform="translate(2322.876953 0)"/>
     <use xlink:href="#DejaVuSans-73" transform="translate(2354.664062 0)"/>
     <use xlink:href="#DejaVuSans-65" transform="translate(2406.763672 0)"/>
     <use xlink:href="#DejaVuSans-74" transform="translate(2468.287109 0)"/>
     <use xlink:href="#DejaVuSans-73" transform="translate(2507.496094 0)"/>
     <use xlink:href="#DejaVuSans-20" transform="translate(2559.595703 0)"/>
     <use xlink:href="#DejaVuSans-6d" transform="translate(2591.382812 0)"/>
     <use xlink:href="#DejaVuSans-69" transform="translate(2688.794922 0)"/>
     <use xlink:href="#DejaVuSans-64" transform="translate(2716.578125 0)"/>
     <use xlink:href="#DejaVuSans-70" transform="translate(2780.054688 0)"/>
     <use xlink:href="#DejaVuSans-6f" transform="translate(2843.53125 0)"/>
     <use xlink:href="#DejaVuSans-69" transform="translate(2904.712891 0)"/>
     <use xlink:href="#DejaVuSans-6e" transform="translate(2932.496094 0)"/>
     <use xlink:href="#DejaVuSans-74" transform="translate(2995.875 0)"/>
    </g>
   </g>
   <g id="legend_1">
    <g id="patch_7">
     <path d="M 316.67825 156.943125 
L 410.51825 156.943125 
Q 412.11825 156.943125 412.11825 155.343125 
L 412.11825 109.173125 
Q 412.11825 107.573125 410.51825 107.573125 
L 316.67825 107.573125 
Q 315.07825 107.573125 315.07825 109.173125 
L 315.07825 155.343125 
Q 315.07825 156.943125 316.67825 156.943125 
z
" style="fill: #ffffff; opacity: 0.8; stroke: #cccccc; stroke-linejoin: miter"/>
    </g>
    <g id="line2d_23">
     <path d="M 318.27825 114.051875 
L 326.27825 114.051875 
L 334.27825 114.051875 
" style="fill: none; stroke: #1f77b4; stroke-width: 2; stroke-linecap: square"/>
    </g>
    <g id="text_19">
     <!-- $\theta_0=0,\ \theta_1=1$ -->
     <g transform="translate(340.67825 116.851875) scale(0.08 -0.08)">
      <defs>
       <path id="DejaVuSans-3d" d="M 678 2906 
L 4684 2906 
L 4684 2381 
L 678 2381 
L 678 2906 
z
M 678 1631 
L 4684 1631 
L 4684 1100 
L 678 1100 
L 678 1631 
z
" transform="scale(0.015625)"/>
      </defs>
      <use xlink:href="#DejaVuSans-Oblique-3b8" transform="translate(0 0.234375)"/>
      <use xlink:href="#DejaVuSans-30" transform="translate(61.181641 -16.171875) scale(0.7)"/>
      <use xlink:href="#DejaVuSans-3d" transform="translate(127.93457 0.234375)"/>
      <use xlink:href="#DejaVuSans-30" transform="translate(231.206055 0.234375)"/>
      <use xlink:href="#DejaVuSans-2c" transform="translate(294.829102 0.234375)"/>
      <use xlink:href="#DejaVuSans-Oblique-3b8" transform="translate(378.569011 0.234375)"/>
      <use xlink:href="#DejaVuSans-31" transform="translate(439.750652 -16.171875) scale(0.7)"/>
      <use xlink:href="#DejaVuSans-3d" transform="translate(506.503582 0.234375)"/>
      <use xlink:href="#DejaVuSans-31" transform="translate(609.775066 0.234375)"/>
     </g>
    </g>
    <g id="line2d_24">
     <path d="M 318.27825 125.794375 
L 326.27825 125.794375 
L 334.27825 125.794375 
" style="fill: none; stroke: #ff7f0e; stroke-width: 2; stroke-linecap: square"/>
    </g>
    <g id="text_20">
     <!-- $\theta_0=0,\ \theta_1=2.5$ -->
     <g transform="translate(340.67825 128.594375) scale(0.08 -0.08)">
      <defs>
       <path id="DejaVuSans-35" d="M 691 4666 
L 3169 4666 
L 3169 4134 
L 1269 4134 
L 1269 2991 
Q 1406 3038 1543 3061 
Q 1681 3084 1819 3084 
Q 2600 3084 3056 2656 
Q 3513 2228 3513 1497 
Q 3513 744 3044 326 
Q 2575 -91 1722 -91 
Q 1428 -91 1123 -41 
Q 819 9 494 109 
L 494 744 
Q 775 591 1075 516 
Q 1375 441 1709 441 
Q 2250 441 2565 725 
Q 2881 1009 2881 1497 
Q 2881 1984 2565 2268 
Q 2250 2553 1709 2553 
Q 1456 2553 1204 2497 
Q 953 2441 691 2322 
L 691 4666 
z
" transform="scale(0.015625)"/>
      </defs>
      <use xlink:href="#DejaVuSans-Oblique-3b8" transform="translate(0 0.234375)"/>
      <use xlink:href="#DejaVuSans-30" transform="translate(61.181641 -16.171875) scale(0.7)"/>
      <use xlink:href="#DejaVuSans-3d" transform="translate(127.93457 0.234375)"/>
      <use xlink:href="#DejaVuSans-30" transform="translate(231.206055 0.234375)"/>
      <use xlink:href="#DejaVuSans-2c" transform="translate(294.829102 0.234375)"/>
      <use xlink:href="#DejaVuSans-Oblique-3b8" transform="translate(378.569011 0.234375)"/>
      <use xlink:href="#DejaVuSans-31" transform="translate(439.750652 -16.171875) scale(0.7)"/>
      <use xlink:href="#DejaVuSans-3d" transform="translate(506.503582 0.234375)"/>
      <use xlink:href="#DejaVuSans-32" transform="translate(609.775066 0.234375)"/>
      <use xlink:href="#DejaVuSans-2e" transform="translate(673.398113 0.234375)"/>
      <use xlink:href="#DejaVuSans-35" transform="translate(705.185222 0.234375)"/>
     </g>
    </g>
    <g id="line2d_25">
     <path d="M 318.27825 137.536875 
L 326.27825 137.536875 
L 334.27825 137.536875 
" style="fill: none; stroke: #2ca02c; stroke-width: 2; stroke-linecap: square"/>
    </g>
    <g id="text_21">
     <!-- $\theta_0=-3,\ \theta_1=1$ -->
     <g transform="translate(340.67825 140.336875) scale(0.08 -0.08)">
      <defs>
       <path id="DejaVuSans-33" d="M 2597 2516 
Q 3050 2419 3304 2112 
Q 3559 1806 3559 1356 
Q 3559 666 3084 287 
Q 2609 -91 1734 -91 
Q 1441 -91 1130 -33 
Q 819 25 488 141 
L 488 750 
Q 750 597 1062 519 
Q 1375 441 1716 441 
Q 2309 441 2620 675 
Q 2931 909 2931 1356 
Q 2931 1769 2642 2001 
Q 2353 2234 1838 2234 
L 1294 2234 
L 1294 2753 
L 1863 2753 
Q 2328 2753 2575 2939 
Q 2822 3125 2822 3475 
Q 2822 3834 2567 4026 
Q 2313 4219 1838 4219 
Q 1578 4219 1281 4162 
Q 984 4106 628 3988 
L 628 4550 
Q 988 4650 1302 4700 
Q 1616 4750 1894 4750 
Q 2613 4750 3031 4423 
Q 3450 4097 3450 3541 
Q 3450 3153 3228 2886 
Q 3006 2619 2597 2516 
z
" transform="scale(0.015625)"/>
      </defs>
      <use xlink:href="#DejaVuSans-Oblique-3b8" transform="translate(0 0.234375)"/>
      <use xlink:href="#DejaVuSans-30" transform="translate(61.181641 -16.171875) scale(0.7)"/>
      <use xlink:href="#DejaVuSans-3d" transform="translate(127.93457 0.234375)"/>
      <use xlink:href="#DejaVuSans-2212" transform="translate(231.206055 0.234375)"/>
      <use xlink:href="#DejaVuSans-33" transform="translate(314.995117 0.234375)"/>
      <use xlink:href="#DejaVuSans-2c" transform="translate(378.618164 0.234375)"/>
      <use xlink:href="#DejaVuSans-Oblique-3b8" transform="translate(462.358074 0.234375)"/>
      <use xlink:href="#DejaVuSans-31" transform="translate(523.539714 -16.171875) scale(0.7)"/>
      <use xlink:href="#DejaVuSans-3d" transform="translate(590.292644 0.234375)"/>
      <use xlink:href="#DejaVuSans-31" transform="translate(693.564128 0.234375)"/>
     </g>
    </g>
    <g id="line2d_26">
     <path d="M 318.27825 149.279375 
L 326.27825 149.279375 
L 334.27825 149.279375 
" style="fill: none; stroke: #d62728; stroke-width: 2; stroke-linecap: square"/>
    </g>
    <g id="text_22">
     <!-- $\theta_0=0,\ \theta_1=-1.5$ -->
     <g transform="translate(340.67825 152.079375) scale(0.08 -0.08)">
      <use xlink:href="#DejaVuSans-Oblique-3b8" transform="translate(0 0.234375)"/>
      <use xlink:href="#DejaVuSans-30" transform="translate(61.181641 -16.171875) scale(0.7)"/>
      <use xlink:href="#DejaVuSans-3d" transform="translate(127.93457 0.234375)"/>
      <use xlink:href="#DejaVuSans-30" transform="translate(231.206055 0.234375)"/>
      <use xlink:href="#DejaVuSans-2c" transform="translate(294.829102 0.234375)"/>
      <use xlink:href="#DejaVuSans-Oblique-3b8" transform="translate(378.569011 0.234375)"/>
      <use xlink:href="#DejaVuSans-31" transform="translate(439.750652 -16.171875) scale(0.7)"/>
      <use xlink:href="#DejaVuSans-3d" transform="translate(506.503582 0.234375)"/>
      <use xlink:href="#DejaVuSans-2212" transform="translate(609.775066 0.234375)"/>
      <use xlink:href="#DejaVuSans-31" transform="translate(693.564128 0.234375)"/>
      <use xlink:href="#DejaVuSans-2e" transform="translate(757.187175 0.234375)"/>
      <use xlink:href="#DejaVuSans-35" transform="translate(788.974285 0.234375)"/>
     </g>
    </g>
   </g>
  </g>
 </g>
 <defs>
  <clipPath id="p8019999c1b">
   <rect x="43.78125" y="22.318125" width="372.337" height="219.88"/>
  </clipPath>
 </defs>
</svg>
