<?xml version="1.0" encoding="utf-8" standalone="no"?>
<!DOCTYPE svg PUBLIC "-//W3C//DTD SVG 1.1//EN"
  "http://www.w3.org/Graphics/SVG/1.1/DTD/svg11.dtd">
<svg xmlns:xlink="http://www.w3.org/1999/xlink" width="640.8pt" height="251.04pt" viewBox="0 0 640.8 251.04" xmlns="http://www.w3.org/2000/svg" version="1.1">
 <metadata>
  <rdf:RDF xmlns:dc="http://purl.org/dc/elements/1.1/" xmlns:cc="http://creativecommons.org/ns#" xmlns:rdf="http://www.w3.org/1999/02/22-rdf-syntax-ns#">
   <cc:Work>
    <dc:type rdf:resource="http://purl.org/dc/dcmitype/StillImage"/>
    <dc:date>2026-05-13T21:42:25.970453</dc:date>
    <dc:format>image/svg+xml</dc:format>
    <dc:creator>
     <cc:Agent>
      <dc:title>Matplotlib v3.10.9, https://matplotlib.org/</dc:title>
     </cc:Agent>
    </dc:creator>
   </cc:Work>
  </rdf:RDF>
 </metadata>
 <defs>
  <style type="text/css">*{stroke-linejoin: round; stroke-linecap: butt}</style>
 </defs>
 <g id="figure_1">
  <g id="patch_1">
   <path d="M 0 251.04 
L 640.8 251.04 
L 640.8 0 
L 0 0 
z
" style="fill: #ffffff"/>
  </g>
  <g id="axes_1">
   <g id="patch_2">
    <path d="M 126.136709 149.3248 
C 130.762925 149.3248 135.200286 147.613145 138.471515 144.566808 
C 141.742744 141.520471 143.580759 137.388171 143.580759 133.08 
C 143.580759 128.771829 141.742744 124.639529 138.471515 121.593192 
C 135.200286 118.546855 130.762925 116.8352 126.136709 116.8352 
C 121.510493 116.8352 117.073131 118.546855 113.801902 121.593192 
C 110.530673 124.639529 108.692658 128.771829 108.692658 133.08 
C 108.692658 137.388171 110.530673 141.520471 113.801902 144.566808 
C 117.073131 147.613145 121.510493 149.3248 126.136709 149.3248 
z
" clip-path="url(#p4c37afdecd)" style="fill: #bcd2ff; stroke: #000000; stroke-width: 1.2; stroke-linejoin: miter"/>
   </g>
   <g id="patch_3">
    <path d="M 126.136709 212.8272 
C 129.921795 212.8272 133.552363 211.426755 136.228823 208.934298 
C 138.905283 206.44184 140.409114 203.060867 140.409114 199.536 
C 140.409114 196.011133 138.905283 192.63016 136.228823 190.137702 
C 133.552363 187.645245 129.921795 186.2448 126.136709 186.2448 
C 122.351623 186.2448 118.721054 187.645245 116.044594 190.137702 
C 113.368134 192.63016 111.864304 196.011133 111.864304 199.536 
C 111.864304 203.060867 113.368134 206.44184 116.044594 208.934298 
C 118.721054 211.426755 122.351623 212.8272 126.136709 212.8272 
z
" clip-path="url(#p4c37afdecd)" style="fill: #ffe2b0; stroke: #000000; stroke-width: 1.2; stroke-linejoin: miter"/>
   </g>
   <g id="patch_4">
    <path d="M 126.136709 79.9152 
C 129.921795 79.9152 133.552363 78.514755 136.228823 76.022298 
C 138.905283 73.52984 140.409114 70.148867 140.409114 66.624 
C 140.409114 63.099133 138.905283 59.71816 136.228823 57.225702 
C 133.552363 54.733245 129.921795 53.3328 126.136709 53.3328 
C 122.351623 53.3328 118.721054 54.733245 116.044594 57.225702 
C 113.368134 59.71816 111.864304 63.099133 111.864304 66.624 
C 111.864304 70.148867 113.368134 73.52984 116.044594 76.022298 
C 118.721054 78.514755 122.351623 79.9152 126.136709 79.9152 
z
" clip-path="url(#p4c37afdecd)" style="fill: #c5f0c5; stroke: #000000; stroke-width: 1.2; stroke-linejoin: miter"/>
   </g>
   <g id="patch_5">
    <path d="M 126.136709 181.288542 
Q 126.136709 166.307489 126.136709 152.44447 
" clip-path="url(#p4c37afdecd)" style="fill: none; stroke: #000000; stroke-linecap: round"/>
    <path d="M 123.736709 157.24447 
L 126.136709 152.44447 
L 128.536709 157.24447 
" clip-path="url(#p4c37afdecd)" style="fill: none; stroke: #000000; stroke-linecap: round"/>
   </g>
   <g id="patch_6">
    <path d="M 126.136709 114.832542 
Q 126.136709 99.851489 126.136709 85.98847 
" clip-path="url(#p4c37afdecd)" style="fill: none; stroke: #000000; stroke-linecap: round"/>
    <path d="M 123.736709 90.78847 
L 126.136709 85.98847 
L 128.536709 90.78847 
" clip-path="url(#p4c37afdecd)" style="fill: none; stroke: #000000; stroke-linecap: round"/>
   </g>
   <g id="patch_7">
    <path d="M 253.002532 149.3248 
C 257.628748 149.3248 262.066109 147.613145 265.337338 144.566808 
C 268.608567 141.520471 270.446582 137.388171 270.446582 133.08 
C 270.446582 128.771829 268.608567 124.639529 265.337338 121.593192 
C 262.066109 118.546855 257.628748 116.8352 253.002532 116.8352 
C 248.376315 116.8352 243.938954 118.546855 240.667725 121.593192 
C 237.396496 124.639529 235.558481 128.771829 235.558481 133.08 
C 235.558481 137.388171 237.396496 141.520471 240.667725 144.566808 
C 243.938954 147.613145 248.376315 149.3248 253.002532 149.3248 
z
" clip-path="url(#p4c37afdecd)" style="fill: #bcd2ff; stroke: #000000; stroke-width: 1.2; stroke-linejoin: miter"/>
   </g>
   <g id="patch_8">
    <path d="M 253.002532 212.8272 
C 256.787618 212.8272 260.418186 211.426755 263.094646 208.934298 
C 265.771106 206.44184 267.274937 203.060867 267.274937 199.536 
C 267.274937 196.011133 265.771106 192.63016 263.094646 190.137702 
C 260.418186 187.645245 256.787618 186.2448 253.002532 186.2448 
C 249.217446 186.2448 245.586877 187.645245 242.910417 190.137702 
C 240.233957 192.63016 238.730127 196.011133 238.730127 199.536 
C 238.730127 203.060867 240.233957 206.44184 242.910417 208.934298 
C 245.586877 211.426755 249.217446 212.8272 253.002532 212.8272 
z
" clip-path="url(#p4c37afdecd)" style="fill: #ffe2b0; stroke: #000000; stroke-width: 1.2; stroke-linejoin: miter"/>
   </g>
   <g id="patch_9">
    <path d="M 253.002532 79.9152 
C 256.787618 79.9152 260.418186 78.514755 263.094646 76.022298 
C 265.771106 73.52984 267.274937 70.148867 267.274937 66.624 
C 267.274937 63.099133 265.771106 59.71816 263.094646 57.225702 
C 260.418186 54.733245 256.787618 53.3328 253.002532 53.3328 
C 249.217446 53.3328 245.586877 54.733245 242.910417 57.225702 
C 240.233957 59.71816 238.730127 63.099133 238.730127 66.624 
C 238.730127 70.148867 240.233957 73.52984 242.910417 76.022298 
C 245.586877 78.514755 249.217446 79.9152 253.002532 79.9152 
z
" clip-path="url(#p4c37afdecd)" style="fill: #c5f0c5; stroke: #000000; stroke-width: 1.2; stroke-linejoin: miter"/>
   </g>
   <g id="patch_10">
    <path d="M 253.002532 181.288542 
Q 253.002532 166.307489 253.002532 152.44447 
" clip-path="url(#p4c37afdecd)" style="fill: none; stroke: #000000; stroke-linecap: round"/>
    <path d="M 250.602532 157.24447 
L 253.002532 152.44447 
L 255.402532 157.24447 
" clip-path="url(#p4c37afdecd)" style="fill: none; stroke: #000000; stroke-linecap: round"/>
   </g>
   <g id="patch_11">
    <path d="M 253.002532 114.832542 
Q 253.002532 99.851489 253.002532 85.98847 
" clip-path="url(#p4c37afdecd)" style="fill: none; stroke: #000000; stroke-linecap: round"/>
    <path d="M 250.602532 90.78847 
L 253.002532 85.98847 
L 255.402532 90.78847 
" clip-path="url(#p4c37afdecd)" style="fill: none; stroke: #000000; stroke-linecap: round"/>
   </g>
   <g id="patch_12">
    <path d="M 145.582106 133.08 
Q 189.569427 133.08 232.438714 133.08 
" clip-path="url(#p4c37afdecd)" style="fill: none; stroke: #000000; stroke-linecap: round"/>
    <path d="M 227.638714 130.68 
L 232.438714 133.08 
L 227.638714 135.48 
" clip-path="url(#p4c37afdecd)" style="fill: none; stroke: #000000; stroke-linecap: round"/>
   </g>
   <g id="patch_13">
    <path d="M 379.868354 149.3248 
C 384.494571 149.3248 388.931932 147.613145 392.203161 144.566808 
C 395.47439 141.520471 397.312405 137.388171 397.312405 133.08 
C 397.312405 128.771829 395.47439 124.639529 392.203161 121.593192 
C 388.931932 118.546855 384.494571 116.8352 379.868354 116.8352 
C 375.242138 116.8352 370.804777 118.546855 367.533548 121.593192 
C 364.262319 124.639529 362.424304 128.771829 362.424304 133.08 
C 362.424304 137.388171 364.262319 141.520471 367.533548 144.566808 
C 370.804777 147.613145 375.242138 149.3248 379.868354 149.3248 
z
" clip-path="url(#p4c37afdecd)" style="fill: #bcd2ff; stroke: #000000; stroke-width: 1.2; stroke-linejoin: miter"/>
   </g>
   <g id="patch_14">
    <path d="M 379.868354 212.8272 
C 383.65344 212.8272 387.284009 211.426755 389.960469 208.934298 
C 392.636929 206.44184 394.140759 203.060867 394.140759 199.536 
C 394.140759 196.011133 392.636929 192.63016 389.960469 190.137702 
C 387.284009 187.645245 383.65344 186.2448 379.868354 186.2448 
C 376.083268 186.2448 372.4527 187.645245 369.77624 190.137702 
C 367.09978 192.63016 365.595949 196.011133 365.595949 199.536 
C 365.595949 203.060867 367.09978 206.44184 369.77624 208.934298 
C 372.4527 211.426755 376.083268 212.8272 379.868354 212.8272 
z
" clip-path="url(#p4c37afdecd)" style="fill: #ffe2b0; stroke: #000000; stroke-width: 1.2; stroke-linejoin: miter"/>
   </g>
   <g id="patch_15">
    <path d="M 379.868354 79.9152 
C 383.65344 79.9152 387.284009 78.514755 389.960469 76.022298 
C 392.636929 73.52984 394.140759 70.148867 394.140759 66.624 
C 394.140759 63.099133 392.636929 59.71816 389.960469 57.225702 
C 387.284009 54.733245 383.65344 53.3328 379.868354 53.3328 
C 376.083268 53.3328 372.4527 54.733245 369.77624 57.225702 
C 367.09978 59.71816 365.595949 63.099133 365.595949 66.624 
C 365.595949 70.148867 367.09978 73.52984 369.77624 76.022298 
C 372.4527 78.514755 376.083268 79.9152 379.868354 79.9152 
z
" clip-path="url(#p4c37afdecd)" style="fill: #c5f0c5; stroke: #000000; stroke-width: 1.2; stroke-linejoin: miter"/>
   </g>
   <g id="patch_16">
    <path d="M 379.868354 181.288542 
Q 379.868354 166.307489 379.868354 152.44447 
" clip-path="url(#p4c37afdecd)" style="fill: none; stroke: #000000; stroke-linecap: round"/>
    <path d="M 377.468354 157.24447 
L 379.868354 152.44447 
L 382.268354 157.24447 
" clip-path="url(#p4c37afdecd)" style="fill: none; stroke: #000000; stroke-linecap: round"/>
   </g>
   <g id="patch_17">
    <path d="M 379.868354 114.832542 
Q 379.868354 99.851489 379.868354 85.98847 
" clip-path="url(#p4c37afdecd)" style="fill: none; stroke: #000000; stroke-linecap: round"/>
    <path d="M 377.468354 90.78847 
L 379.868354 85.98847 
L 382.268354 90.78847 
" clip-path="url(#p4c37afdecd)" style="fill: none; stroke: #000000; stroke-linecap: round"/>
   </g>
   <g id="patch_18">
    <path d="M 272.447929 133.08 
Q 316.43525 133.08 359.304537 133.08 
" clip-path="url(#p4c37afdecd)" style="fill: none; stroke: #000000; stroke-linecap: round"/>
    <path d="M 354.504537 130.68 
L 359.304537 133.08 
L 354.504537 135.48 
" clip-path="url(#p4c37afdecd)" style="fill: none; stroke: #000000; stroke-linecap: round"/>
   </g>
   <g id="patch_19">
    <path d="M 506.734177 149.3248 
C 511.360394 149.3248 515.797755 147.613145 519.068984 144.566808 
C 522.340213 141.520471 524.178228 137.388171 524.178228 133.08 
C 524.178228 128.771829 522.340213 124.639529 519.068984 121.593192 
C 515.797755 118.546855 511.360394 116.8352 506.734177 116.8352 
C 502.107961 116.8352 497.6706 118.546855 494.399371 121.593192 
C 491.128142 124.639529 489.290127 128.771829 489.290127 133.08 
C 489.290127 137.388171 491.128142 141.520471 494.399371 144.566808 
C 497.6706 147.613145 502.107961 149.3248 506.734177 149.3248 
z
" clip-path="url(#p4c37afdecd)" style="fill: #bcd2ff; stroke: #000000; stroke-width: 1.2; stroke-linejoin: miter"/>
   </g>
   <g id="patch_20">
    <path d="M 506.734177 212.8272 
C 510.519263 212.8272 514.149832 211.426755 516.826292 208.934298 
C 519.502752 206.44184 521.006582 203.060867 521.006582 199.536 
C 521.006582 196.011133 519.502752 192.63016 516.826292 190.137702 
C 514.149832 187.645245 510.519263 186.2448 506.734177 186.2448 
C 502.949091 186.2448 499.318523 187.645245 496.642063 190.137702 
C 493.965603 192.63016 492.461772 196.011133 492.461772 199.536 
C 492.461772 203.060867 493.965603 206.44184 496.642063 208.934298 
C 499.318523 211.426755 502.949091 212.8272 506.734177 212.8272 
z
" clip-path="url(#p4c37afdecd)" style="fill: #ffe2b0; stroke: #000000; stroke-width: 1.2; stroke-linejoin: miter"/>
   </g>
   <g id="patch_21">
    <path d="M 506.734177 79.9152 
C 510.519263 79.9152 514.149832 78.514755 516.826292 76.022298 
C 519.502752 73.52984 521.006582 70.148867 521.006582 66.624 
C 521.006582 63.099133 519.502752 59.71816 516.826292 57.225702 
C 514.149832 54.733245 510.519263 53.3328 506.734177 53.3328 
C 502.949091 53.3328 499.318523 54.733245 496.642063 57.225702 
C 493.965603 59.71816 492.461772 63.099133 492.461772 66.624 
C 492.461772 70.148867 493.965603 73.52984 496.642063 76.022298 
C 499.318523 78.514755 502.949091 79.9152 506.734177 79.9152 
z
" clip-path="url(#p4c37afdecd)" style="fill: #c5f0c5; stroke: #000000; stroke-width: 1.2; stroke-linejoin: miter"/>
   </g>
   <g id="patch_22">
    <path d="M 506.734177 181.288542 
Q 506.734177 166.307489 506.734177 152.44447 
" clip-path="url(#p4c37afdecd)" style="fill: none; stroke: #000000; stroke-linecap: round"/>
    <path d="M 504.334177 157.24447 
L 506.734177 152.44447 
L 509.134177 157.24447 
" clip-path="url(#p4c37afdecd)" style="fill: none; stroke: #000000; stroke-linecap: round"/>
   </g>
   <g id="patch_23">
    <path d="M 506.734177 114.832542 
Q 506.734177 99.851489 506.734177 85.98847 
" clip-path="url(#p4c37afdecd)" style="fill: none; stroke: #000000; stroke-linecap: round"/>
    <path d="M 504.334177 90.78847 
L 506.734177 85.98847 
L 509.134177 90.78847 
" clip-path="url(#p4c37afdecd)" style="fill: none; stroke: #000000; stroke-linecap: round"/>
   </g>
   <g id="patch_24">
    <path d="M 399.313751 133.08 
Q 443.301073 133.08 486.17036 133.08 
" clip-path="url(#p4c37afdecd)" style="fill: none; stroke: #000000; stroke-linecap: round"/>
    <path d="M 481.37036 130.68 
L 486.17036 133.08 
L 481.37036 135.48 
" clip-path="url(#p4c37afdecd)" style="fill: none; stroke: #000000; stroke-linecap: round"/>
   </g>
   <g id="patch_25">
    <path d="M 60.73628 133.08 
Q 83.71489 133.08 105.575466 133.08 
" clip-path="url(#p4c37afdecd)" style="fill: none; stroke: #000000; stroke-linecap: round"/>
    <path d="M 100.775466 130.68 
L 105.575466 133.08 
L 100.775466 135.48 
" clip-path="url(#p4c37afdecd)" style="fill: none; stroke: #000000; stroke-linecap: round"/>
   </g>
   <g id="text_1">
    <!-- $h_1$ -->
    <g transform="translate(120.031709 136.115312) scale(0.11 -0.11)">
     <defs>
      <path id="DejaVuSans-Oblique-68" d="M 3566 2113 
L 3156 0 
L 2578 0 
L 2988 2091 
Q 3016 2238 3031 2350 
Q 3047 2463 3047 2528 
Q 3047 2791 2881 2937 
Q 2716 3084 2419 3084 
Q 1956 3084 1617 2771 
Q 1278 2459 1178 1941 
L 800 0 
L 225 0 
L 1172 4863 
L 1747 4863 
L 1375 2950 
Q 1594 3244 1934 3414 
Q 2275 3584 2650 3584 
Q 3113 3584 3367 3334 
Q 3622 3084 3622 2631 
Q 3622 2519 3608 2391 
Q 3594 2263 3566 2113 
z
" transform="scale(0.015625)"/>
      <path id="DejaVuSans-31" d="M 794 531 
L 1825 531 
L 1825 4091 
L 703 3866 
L 703 4441 
L 1819 4666 
L 2450 4666 
L 2450 531 
L 3481 531 
L 3481 0 
L 794 0 
L 794 531 
z
" transform="scale(0.015625)"/>
     </defs>
     <use xlink:href="#DejaVuSans-Oblique-68" transform="translate(0 0.015625)"/>
     <use xlink:href="#DejaVuSans-31" transform="translate(63.378906 -16.390625) scale(0.7)"/>
    </g>
   </g>
   <g id="text_2">
    <!-- $x_1$ -->
    <g transform="translate(120.786709 202.295375) scale(0.1 -0.1)">
     <defs>
      <path id="DejaVuSans-Oblique-78" d="M 3841 3500 
L 2234 1784 
L 3219 0 
L 2559 0 
L 1819 1388 
L 531 0 
L -166 0 
L 1556 1844 
L 641 3500 
L 1300 3500 
L 1972 2234 
L 3144 3500 
L 3841 3500 
z
" transform="scale(0.015625)"/>
     </defs>
     <use xlink:href="#DejaVuSans-Oblique-78" transform="translate(0 0.3125)"/>
     <use xlink:href="#DejaVuSans-31" transform="translate(59.179688 -16.09375) scale(0.7)"/>
    </g>
   </g>
   <g id="text_3">
    <!-- $y_1$ -->
    <g transform="translate(120.786709 69.363062) scale(0.1 -0.1)">
     <defs>
      <path id="DejaVuSans-Oblique-79" d="M 1588 -325 
Q 1188 -997 936 -1164 
Q 684 -1331 294 -1331 
L -159 -1331 
L -63 -850 
L 269 -850 
Q 509 -850 678 -719 
Q 847 -588 1056 -206 
L 1234 128 
L 459 3500 
L 1069 3500 
L 1650 819 
L 3256 3500 
L 3859 3500 
L 1588 -325 
z
" transform="scale(0.015625)"/>
     </defs>
     <use xlink:href="#DejaVuSans-Oblique-79" transform="translate(0 0.3125)"/>
     <use xlink:href="#DejaVuSans-31" transform="translate(59.179688 -16.09375) scale(0.7)"/>
    </g>
   </g>
   <g id="text_4">
    <!-- $h_2$ -->
    <g transform="translate(246.897532 136.115312) scale(0.11 -0.11)">
     <defs>
      <path id="DejaVuSans-32" d="M 1228 531 
L 3431 531 
L 3431 0 
L 469 0 
L 469 531 
Q 828 903 1448 1529 
Q 2069 2156 2228 2338 
Q 2531 2678 2651 2914 
Q 2772 3150 2772 3378 
Q 2772 3750 2511 3984 
Q 2250 4219 1831 4219 
Q 1534 4219 1204 4116 
Q 875 4013 500 3803 
L 500 4441 
Q 881 4594 1212 4672 
Q 1544 4750 1819 4750 
Q 2544 4750 2975 4387 
Q 3406 4025 3406 3419 
Q 3406 3131 3298 2873 
Q 3191 2616 2906 2266 
Q 2828 2175 2409 1742 
Q 1991 1309 1228 531 
z
" transform="scale(0.015625)"/>
     </defs>
     <use xlink:href="#DejaVuSans-Oblique-68" transform="translate(0 0.015625)"/>
     <use xlink:href="#DejaVuSans-32" transform="translate(63.378906 -16.390625) scale(0.7)"/>
    </g>
   </g>
   <g id="text_5">
    <!-- $x_2$ -->
    <g transform="translate(247.652532 202.295375) scale(0.1 -0.1)">
     <use xlink:href="#DejaVuSans-Oblique-78" transform="translate(0 0.3125)"/>
     <use xlink:href="#DejaVuSans-32" transform="translate(59.179688 -16.09375) scale(0.7)"/>
    </g>
   </g>
   <g id="text_6">
    <!-- $y_2$ -->
    <g transform="translate(247.652532 69.363062) scale(0.1 -0.1)">
     <use xlink:href="#DejaVuSans-Oblique-79" transform="translate(0 0.3125)"/>
     <use xlink:href="#DejaVuSans-32" transform="translate(59.179688 -16.09375) scale(0.7)"/>
    </g>
   </g>
   <g id="text_7">
    <!-- $W_h$ -->
    <g transform="translate(182.99962 123.4808) scale(0.09 -0.09)">
     <defs>
      <path id="DejaVuSans-Oblique-57" d="M 616 4666 
L 1228 4666 
L 1453 697 
L 3213 4666 
L 3916 4666 
L 4147 697 
L 5888 4666 
L 6528 4666 
L 4453 0 
L 3659 0 
L 3444 3891 
L 1697 0 
L 903 0 
L 616 4666 
z
" transform="scale(0.015625)"/>
     </defs>
     <use xlink:href="#DejaVuSans-Oblique-57" transform="translate(0 0.09375)"/>
     <use xlink:href="#DejaVuSans-Oblique-68" transform="translate(98.876953 -16.3125) scale(0.7)"/>
    </g>
   </g>
   <g id="text_8">
    <!-- $h_3$ -->
    <g transform="translate(373.763354 136.115312) scale(0.11 -0.11)">
     <defs>
      <path id="DejaVuSans-33" d="M 2597 2516 
Q 3050 2419 3304 2112 
Q 3559 1806 3559 1356 
Q 3559 666 3084 287 
Q 2609 -91 1734 -91 
Q 1441 -91 1130 -33 
Q 819 25 488 141 
L 488 750 
Q 750 597 1062 519 
Q 1375 441 1716 441 
Q 2309 441 2620 675 
Q 2931 909 2931 1356 
Q 2931 1769 2642 2001 
Q 2353 2234 1838 2234 
L 1294 2234 
L 1294 2753 
L 1863 2753 
Q 2328 2753 2575 2939 
Q 2822 3125 2822 3475 
Q 2822 3834 2567 4026 
Q 2313 4219 1838 4219 
Q 1578 4219 1281 4162 
Q 984 4106 628 3988 
L 628 4550 
Q 988 4650 1302 4700 
Q 1616 4750 1894 4750 
Q 2613 4750 3031 4423 
Q 3450 4097 3450 3541 
Q 3450 3153 3228 2886 
Q 3006 2619 2597 2516 
z
" transform="scale(0.015625)"/>
     </defs>
     <use xlink:href="#DejaVuSans-Oblique-68" transform="translate(0 0.015625)"/>
     <use xlink:href="#DejaVuSans-33" transform="translate(63.378906 -16.390625) scale(0.7)"/>
    </g>
   </g>
   <g id="text_9">
    <!-- $x_3$ -->
    <g transform="translate(374.518354 202.295375) scale(0.1 -0.1)">
     <use xlink:href="#DejaVuSans-Oblique-78" transform="translate(0 0.3125)"/>
     <use xlink:href="#DejaVuSans-33" transform="translate(59.179688 -16.09375) scale(0.7)"/>
    </g>
   </g>
   <g id="text_10">
    <!-- $y_3$ -->
    <g transform="translate(374.518354 69.363062) scale(0.1 -0.1)">
     <use xlink:href="#DejaVuSans-Oblique-79" transform="translate(0 0.3125)"/>
     <use xlink:href="#DejaVuSans-33" transform="translate(59.179688 -16.09375) scale(0.7)"/>
    </g>
   </g>
   <g id="text_11">
    <!-- $W_h$ -->
    <g transform="translate(309.865443 123.4808) scale(0.09 -0.09)">
     <use xlink:href="#DejaVuSans-Oblique-57" transform="translate(0 0.09375)"/>
     <use xlink:href="#DejaVuSans-Oblique-68" transform="translate(98.876953 -16.3125) scale(0.7)"/>
    </g>
   </g>
   <g id="text_12">
    <!-- $h_4$ -->
    <g transform="translate(500.629177 136.115312) scale(0.11 -0.11)">
     <defs>
      <path id="DejaVuSans-34" d="M 2419 4116 
L 825 1625 
L 2419 1625 
L 2419 4116 
z
M 2253 4666 
L 3047 4666 
L 3047 1625 
L 3713 1625 
L 3713 1100 
L 3047 1100 
L 3047 0 
L 2419 0 
L 2419 1100 
L 313 1100 
L 313 1709 
L 2253 4666 
z
" transform="scale(0.015625)"/>
     </defs>
     <use xlink:href="#DejaVuSans-Oblique-68" transform="translate(0 0.015625)"/>
     <use xlink:href="#DejaVuSans-34" transform="translate(63.378906 -16.390625) scale(0.7)"/>
    </g>
   </g>
   <g id="text_13">
    <!-- $x_4$ -->
    <g transform="translate(501.384177 202.295375) scale(0.1 -0.1)">
     <use xlink:href="#DejaVuSans-Oblique-78" transform="translate(0 0.3125)"/>
     <use xlink:href="#DejaVuSans-34" transform="translate(59.179688 -16.09375) scale(0.7)"/>
    </g>
   </g>
   <g id="text_14">
    <!-- $y_4$ -->
    <g transform="translate(501.384177 69.363062) scale(0.1 -0.1)">
     <use xlink:href="#DejaVuSans-Oblique-79" transform="translate(0 0.3125)"/>
     <use xlink:href="#DejaVuSans-34" transform="translate(59.179688 -16.09375) scale(0.7)"/>
    </g>
   </g>
   <g id="text_15">
    <!-- $W_h$ -->
    <g transform="translate(436.731266 123.4808) scale(0.09 -0.09)">
     <use xlink:href="#DejaVuSans-Oblique-57" transform="translate(0 0.09375)"/>
     <use xlink:href="#DejaVuSans-Oblique-68" transform="translate(98.876953 -16.3125) scale(0.7)"/>
    </g>
   </g>
   <g id="text_16">
    <!-- $h_0$ -->
    <g transform="translate(40.74057 136.115312) scale(0.11 -0.11)">
     <defs>
      <path id="DejaVuSans-30" d="M 2034 4250 
Q 1547 4250 1301 3770 
Q 1056 3291 1056 2328 
Q 1056 1369 1301 889 
Q 1547 409 2034 409 
Q 2525 409 2770 889 
Q 3016 1369 3016 2328 
Q 3016 3291 2770 3770 
Q 2525 4250 2034 4250 
z
M 2034 4750 
Q 2819 4750 3233 4129 
Q 3647 3509 3647 2328 
Q 3647 1150 3233 529 
Q 2819 -91 2034 -91 
Q 1250 -91 836 529 
Q 422 1150 422 2328 
Q 422 3509 836 4129 
Q 1250 4750 2034 4750 
z
" transform="scale(0.015625)"/>
     </defs>
     <use xlink:href="#DejaVuSans-Oblique-68" transform="translate(0 0.015625)"/>
     <use xlink:href="#DejaVuSans-30" transform="translate(63.378906 -16.390625) scale(0.7)"/>
    </g>
   </g>
   <g id="text_17">
    <!-- $W_h$ -->
    <g transform="translate(75.956582 123.4808) scale(0.09 -0.09)">
     <use xlink:href="#DejaVuSans-Oblique-57" transform="translate(0 0.09375)"/>
     <use xlink:href="#DejaVuSans-Oblique-68" transform="translate(98.876953 -16.3125) scale(0.7)"/>
    </g>
   </g>
   <g id="text_18">
    <!-- Unrolled Elman RNN over $T$ time steps -->
    <g transform="translate(205.14 16.32) scale(0.12 -0.12)">
     <defs>
      <path id="DejaVuSans-55" d="M 556 4666 
L 1191 4666 
L 1191 1831 
Q 1191 1081 1462 751 
Q 1734 422 2344 422 
Q 2950 422 3222 751 
Q 3494 1081 3494 1831 
L 3494 4666 
L 4128 4666 
L 4128 1753 
Q 4128 841 3676 375 
Q 3225 -91 2344 -91 
Q 1459 -91 1007 375 
Q 556 841 556 1753 
L 556 4666 
z
" transform="scale(0.015625)"/>
      <path id="DejaVuSans-6e" d="M 3513 2113 
L 3513 0 
L 2938 0 
L 2938 2094 
Q 2938 2591 2744 2837 
Q 2550 3084 2163 3084 
Q 1697 3084 1428 2787 
Q 1159 2491 1159 1978 
L 1159 0 
L 581 0 
L 581 3500 
L 1159 3500 
L 1159 2956 
Q 1366 3272 1645 3428 
Q 1925 3584 2291 3584 
Q 2894 3584 3203 3211 
Q 3513 2838 3513 2113 
z
" transform="scale(0.015625)"/>
      <path id="DejaVuSans-72" d="M 2631 2963 
Q 2534 3019 2420 3045 
Q 2306 3072 2169 3072 
Q 1681 3072 1420 2755 
Q 1159 2438 1159 1844 
L 1159 0 
L 581 0 
L 581 3500 
L 1159 3500 
L 1159 2956 
Q 1341 3275 1631 3429 
Q 1922 3584 2338 3584 
Q 2397 3584 2469 3576 
Q 2541 3569 2628 3553 
L 2631 2963 
z
" transform="scale(0.015625)"/>
      <path id="DejaVuSans-6f" d="M 1959 3097 
Q 1497 3097 1228 2736 
Q 959 2375 959 1747 
Q 959 1119 1226 758 
Q 1494 397 1959 397 
Q 2419 397 2687 759 
Q 2956 1122 2956 1747 
Q 2956 2369 2687 2733 
Q 2419 3097 1959 3097 
z
M 1959 3584 
Q 2709 3584 3137 3096 
Q 3566 2609 3566 1747 
Q 3566 888 3137 398 
Q 2709 -91 1959 -91 
Q 1206 -91 779 398 
Q 353 888 353 1747 
Q 353 2609 779 3096 
Q 1206 3584 1959 3584 
z
" transform="scale(0.015625)"/>
      <path id="DejaVuSans-6c" d="M 603 4863 
L 1178 4863 
L 1178 0 
L 603 0 
L 603 4863 
z
" transform="scale(0.015625)"/>
      <path id="DejaVuSans-65" d="M 3597 1894 
L 3597 1613 
L 953 1613 
Q 991 1019 1311 708 
Q 1631 397 2203 397 
Q 2534 397 2845 478 
Q 3156 559 3463 722 
L 3463 178 
Q 3153 47 2828 -22 
Q 2503 -91 2169 -91 
Q 1331 -91 842 396 
Q 353 884 353 1716 
Q 353 2575 817 3079 
Q 1281 3584 2069 3584 
Q 2775 3584 3186 3129 
Q 3597 2675 3597 1894 
z
M 3022 2063 
Q 3016 2534 2758 2815 
Q 2500 3097 2075 3097 
Q 1594 3097 1305 2825 
Q 1016 2553 972 2059 
L 3022 2063 
z
" transform="scale(0.015625)"/>
      <path id="DejaVuSans-64" d="M 2906 2969 
L 2906 4863 
L 3481 4863 
L 3481 0 
L 2906 0 
L 2906 525 
Q 2725 213 2448 61 
Q 2172 -91 1784 -91 
Q 1150 -91 751 415 
Q 353 922 353 1747 
Q 353 2572 751 3078 
Q 1150 3584 1784 3584 
Q 2172 3584 2448 3432 
Q 2725 3281 2906 2969 
z
M 947 1747 
Q 947 1113 1208 752 
Q 1469 391 1925 391 
Q 2381 391 2643 752 
Q 2906 1113 2906 1747 
Q 2906 2381 2643 2742 
Q 2381 3103 1925 3103 
Q 1469 3103 1208 2742 
Q 947 2381 947 1747 
z
" transform="scale(0.015625)"/>
      <path id="DejaVuSans-20" transform="scale(0.015625)"/>
      <path id="DejaVuSans-45" d="M 628 4666 
L 3578 4666 
L 3578 4134 
L 1259 4134 
L 1259 2753 
L 3481 2753 
L 3481 2222 
L 1259 2222 
L 1259 531 
L 3634 531 
L 3634 0 
L 628 0 
L 628 4666 
z
" transform="scale(0.015625)"/>
      <path id="DejaVuSans-6d" d="M 3328 2828 
Q 3544 3216 3844 3400 
Q 4144 3584 4550 3584 
Q 5097 3584 5394 3201 
Q 5691 2819 5691 2113 
L 5691 0 
L 5113 0 
L 5113 2094 
Q 5113 2597 4934 2840 
Q 4756 3084 4391 3084 
Q 3944 3084 3684 2787 
Q 3425 2491 3425 1978 
L 3425 0 
L 2847 0 
L 2847 2094 
Q 2847 2600 2669 2842 
Q 2491 3084 2119 3084 
Q 1678 3084 1418 2786 
Q 1159 2488 1159 1978 
L 1159 0 
L 581 0 
L 581 3500 
L 1159 3500 
L 1159 2956 
Q 1356 3278 1631 3431 
Q 1906 3584 2284 3584 
Q 2666 3584 2933 3390 
Q 3200 3197 3328 2828 
z
" transform="scale(0.015625)"/>
      <path id="DejaVuSans-61" d="M 2194 1759 
Q 1497 1759 1228 1600 
Q 959 1441 959 1056 
Q 959 750 1161 570 
Q 1363 391 1709 391 
Q 2188 391 2477 730 
Q 2766 1069 2766 1631 
L 2766 1759 
L 2194 1759 
z
M 3341 1997 
L 3341 0 
L 2766 0 
L 2766 531 
Q 2569 213 2275 61 
Q 1981 -91 1556 -91 
Q 1019 -91 701 211 
Q 384 513 384 1019 
Q 384 1609 779 1909 
Q 1175 2209 1959 2209 
L 2766 2209 
L 2766 2266 
Q 2766 2663 2505 2880 
Q 2244 3097 1772 3097 
Q 1472 3097 1187 3025 
Q 903 2953 641 2809 
L 641 3341 
Q 956 3463 1253 3523 
Q 1550 3584 1831 3584 
Q 2591 3584 2966 3190 
Q 3341 2797 3341 1997 
z
" transform="scale(0.015625)"/>
      <path id="DejaVuSans-52" d="M 2841 2188 
Q 3044 2119 3236 1894 
Q 3428 1669 3622 1275 
L 4263 0 
L 3584 0 
L 2988 1197 
Q 2756 1666 2539 1819 
Q 2322 1972 1947 1972 
L 1259 1972 
L 1259 0 
L 628 0 
L 628 4666 
L 2053 4666 
Q 2853 4666 3247 4331 
Q 3641 3997 3641 3322 
Q 3641 2881 3436 2590 
Q 3231 2300 2841 2188 
z
M 1259 4147 
L 1259 2491 
L 2053 2491 
Q 2509 2491 2742 2702 
Q 2975 2913 2975 3322 
Q 2975 3731 2742 3939 
Q 2509 4147 2053 4147 
L 1259 4147 
z
" transform="scale(0.015625)"/>
      <path id="DejaVuSans-4e" d="M 628 4666 
L 1478 4666 
L 3547 763 
L 3547 4666 
L 4159 4666 
L 4159 0 
L 3309 0 
L 1241 3903 
L 1241 0 
L 628 0 
L 628 4666 
z
" transform="scale(0.015625)"/>
      <path id="DejaVuSans-76" d="M 191 3500 
L 800 3500 
L 1894 563 
L 2988 3500 
L 3597 3500 
L 2284 0 
L 1503 0 
L 191 3500 
z
" transform="scale(0.015625)"/>
      <path id="DejaVuSans-Oblique-54" d="M 378 4666 
L 4325 4666 
L 4225 4134 
L 2559 4134 
L 1759 0 
L 1125 0 
L 1925 4134 
L 275 4134 
L 378 4666 
z
" transform="scale(0.015625)"/>
      <path id="DejaVuSans-74" d="M 1172 4494 
L 1172 3500 
L 2356 3500 
L 2356 3053 
L 1172 3053 
L 1172 1153 
Q 1172 725 1289 603 
Q 1406 481 1766 481 
L 2356 481 
L 2356 0 
L 1766 0 
Q 1100 0 847 248 
Q 594 497 594 1153 
L 594 3053 
L 172 3053 
L 172 3500 
L 594 3500 
L 594 4494 
L 1172 4494 
z
" transform="scale(0.015625)"/>
      <path id="DejaVuSans-69" d="M 603 3500 
L 1178 3500 
L 1178 0 
L 603 0 
L 603 3500 
z
M 603 4863 
L 1178 4863 
L 1178 4134 
L 603 4134 
L 603 4863 
z
" transform="scale(0.015625)"/>
      <path id="DejaVuSans-73" d="M 2834 3397 
L 2834 2853 
Q 2591 2978 2328 3040 
Q 2066 3103 1784 3103 
Q 1356 3103 1142 2972 
Q 928 2841 928 2578 
Q 928 2378 1081 2264 
Q 1234 2150 1697 2047 
L 1894 2003 
Q 2506 1872 2764 1633 
Q 3022 1394 3022 966 
Q 3022 478 2636 193 
Q 2250 -91 1575 -91 
Q 1294 -91 989 -36 
Q 684 19 347 128 
L 347 722 
Q 666 556 975 473 
Q 1284 391 1588 391 
Q 1994 391 2212 530 
Q 2431 669 2431 922 
Q 2431 1156 2273 1281 
Q 2116 1406 1581 1522 
L 1381 1569 
Q 847 1681 609 1914 
Q 372 2147 372 2553 
Q 372 3047 722 3315 
Q 1072 3584 1716 3584 
Q 2034 3584 2315 3537 
Q 2597 3491 2834 3397 
z
" transform="scale(0.015625)"/>
      <path id="DejaVuSans-70" d="M 1159 525 
L 1159 -1331 
L 581 -1331 
L 581 3500 
L 1159 3500 
L 1159 2969 
Q 1341 3281 1617 3432 
Q 1894 3584 2278 3584 
Q 2916 3584 3314 3078 
Q 3713 2572 3713 1747 
Q 3713 922 3314 415 
Q 2916 -91 2278 -91 
Q 1894 -91 1617 61 
Q 1341 213 1159 525 
z
M 3116 1747 
Q 3116 2381 2855 2742 
Q 2594 3103 2138 3103 
Q 1681 3103 1420 2742 
Q 1159 2381 1159 1747 
Q 1159 1113 1420 752 
Q 1681 391 2138 391 
Q 2594 391 2855 752 
Q 3116 1113 3116 1747 
z
" transform="scale(0.015625)"/>
     </defs>
     <use xlink:href="#DejaVuSans-55" transform="translate(0 0.015625)"/>
     <use xlink:href="#DejaVuSans-6e" transform="translate(73.193359 0.015625)"/>
     <use xlink:href="#DejaVuSans-72" transform="translate(136.572266 0.015625)"/>
     <use xlink:href="#DejaVuSans-6f" transform="translate(177.685547 0.015625)"/>
     <use xlink:href="#DejaVuSans-6c" transform="translate(238.867188 0.015625)"/>
     <use xlink:href="#DejaVuSans-6c" transform="translate(266.650391 0.015625)"/>
     <use xlink:href="#DejaVuSans-65" transform="translate(294.433594 0.015625)"/>
     <use xlink:href="#DejaVuSans-64" transform="translate(355.957031 0.015625)"/>
     <use xlink:href="#DejaVuSans-20" transform="translate(419.433594 0.015625)"/>
     <use xlink:href="#DejaVuSans-45" transform="translate(451.220703 0.015625)"/>
     <use xlink:href="#DejaVuSans-6c" transform="translate(514.404297 0.015625)"/>
     <use xlink:href="#DejaVuSans-6d" transform="translate(542.1875 0.015625)"/>
     <use xlink:href="#DejaVuSans-61" transform="translate(639.599609 0.015625)"/>
     <use xlink:href="#DejaVuSans-6e" transform="translate(700.878906 0.015625)"/>
     <use xlink:href="#DejaVuSans-20" transform="translate(764.257812 0.015625)"/>
     <use xlink:href="#DejaVuSans-52" transform="translate(796.044922 0.015625)"/>
     <use xlink:href="#DejaVuSans-4e" transform="translate(865.527344 0.015625)"/>
     <use xlink:href="#DejaVuSans-4e" transform="translate(940.332031 0.015625)"/>
     <use xlink:href="#DejaVuSans-20" transform="translate(1015.136719 0.015625)"/>
     <use xlink:href="#DejaVuSans-6f" transform="translate(1046.923828 0.015625)"/>
     <use xlink:href="#DejaVuSans-76" transform="translate(1108.105469 0.015625)"/>
     <use xlink:href="#DejaVuSans-65" transform="translate(1167.285156 0.015625)"/>
     <use xlink:href="#DejaVuSans-72" transform="translate(1228.808594 0.015625)"/>
     <use xlink:href="#DejaVuSans-20" transform="translate(1269.921875 0.015625)"/>
     <use xlink:href="#DejaVuSans-Oblique-54" transform="translate(1301.708984 0.015625)"/>
     <use xlink:href="#DejaVuSans-20" transform="translate(1362.792969 0.015625)"/>
     <use xlink:href="#DejaVuSans-74" transform="translate(1394.580078 0.015625)"/>
     <use xlink:href="#DejaVuSans-69" transform="translate(1433.789062 0.015625)"/>
     <use xlink:href="#DejaVuSans-6d" transform="translate(1461.572266 0.015625)"/>
     <use xlink:href="#DejaVuSans-65" transform="translate(1558.984375 0.015625)"/>
     <use xlink:href="#DejaVuSans-20" transform="translate(1620.507812 0.015625)"/>
     <use xlink:href="#DejaVuSans-73" transform="translate(1652.294922 0.015625)"/>
     <use xlink:href="#DejaVuSans-74" transform="translate(1704.394531 0.015625)"/>
     <use xlink:href="#DejaVuSans-65" transform="translate(1743.603516 0.015625)"/>
     <use xlink:href="#DejaVuSans-70" transform="translate(1805.126953 0.015625)"/>
     <use xlink:href="#DejaVuSans-73" transform="translate(1868.603516 0.015625)"/>
    </g>
   </g>
  </g>
 </g>
 <defs>
  <clipPath id="p4c37afdecd">
   <rect x="7.2" y="22.32" width="626.4" height="221.52"/>
  </clipPath>
 </defs>
</svg>
