<?xml version="1.0" encoding="utf-8" standalone="no"?>
<!DOCTYPE svg PUBLIC "-//W3C//DTD SVG 1.1//EN"
  "http://www.w3.org/Graphics/SVG/1.1/DTD/svg11.dtd">
<svg xmlns:xlink="http://www.w3.org/1999/xlink" width="496.602321pt" height="315.99625pt" viewBox="0 0 496.602321 315.99625" xmlns="http://www.w3.org/2000/svg" version="1.1">
 <metadata>
  <rdf:RDF xmlns:dc="http://purl.org/dc/elements/1.1/" xmlns:cc="http://creativecommons.org/ns#" xmlns:rdf="http://www.w3.org/1999/02/22-rdf-syntax-ns#">
   <cc:Work>
    <dc:type rdf:resource="http://purl.org/dc/dcmitype/StillImage"/>
    <dc:date>2026-05-13T21:41:46.350950</dc:date>
    <dc:format>image/svg+xml</dc:format>
    <dc:creator>
     <cc:Agent>
      <dc:title>Matplotlib v3.10.9, https://matplotlib.org/</dc:title>
     </cc:Agent>
    </dc:creator>
   </cc:Work>
  </rdf:RDF>
 </metadata>
 <defs>
  <style type="text/css">*{stroke-linejoin: round; stroke-linecap: butt}</style>
 </defs>
 <g id="figure_1">
  <g id="patch_1">
   <path d="M 0 315.99625 
L 496.602321 315.99625 
L 496.602321 0 
L 0 0 
z
" style="fill: #ffffff"/>
  </g>
  <g id="axes_1">
   <g id="patch_2">
    <path d="M 51.378125 278.44 
L 489.402321 278.44 
L 489.402321 7.2 
L 51.378125 7.2 
z
" style="fill: #ffffff"/>
   </g>
   <g id="matplotlib.axis_1">
    <g id="xtick_1">
     <g id="line2d_1">
      <path d="M 102.725459 278.44 
L 102.725459 7.2 
" clip-path="url(#p93729efd84)" style="fill: none; stroke: #b0b0b0; stroke-opacity: 0.3; stroke-width: 0.8; stroke-linecap: square"/>
     </g>
     <g id="line2d_2">
      <defs>
       <path id="m1f9c8d774e" d="M 0 0 
L 0 3.5 
" style="stroke: #000000; stroke-width: 0.8"/>
      </defs>
      <g>
       <use xlink:href="#m1f9c8d774e" x="102.725459" y="278.44" style="stroke: #000000; stroke-width: 0.8"/>
      </g>
     </g>
     <g id="text_1">
      <!-- 2.5 -->
      <g transform="translate(94.773896 293.038437) scale(0.1 -0.1)">
       <defs>
        <path id="DejaVuSans-32" d="M 1228 531 
L 3431 531 
L 3431 0 
L 469 0 
L 469 531 
Q 828 903 1448 1529 
Q 2069 2156 2228 2338 
Q 2531 2678 2651 2914 
Q 2772 3150 2772 3378 
Q 2772 3750 2511 3984 
Q 2250 4219 1831 4219 
Q 1534 4219 1204 4116 
Q 875 4013 500 3803 
L 500 4441 
Q 881 4594 1212 4672 
Q 1544 4750 1819 4750 
Q 2544 4750 2975 4387 
Q 3406 4025 3406 3419 
Q 3406 3131 3298 2873 
Q 3191 2616 2906 2266 
Q 2828 2175 2409 1742 
Q 1991 1309 1228 531 
z
" transform="scale(0.015625)"/>
        <path id="DejaVuSans-2e" d="M 684 794 
L 1344 794 
L 1344 0 
L 684 0 
L 684 794 
z
" transform="scale(0.015625)"/>
        <path id="DejaVuSans-35" d="M 691 4666 
L 3169 4666 
L 3169 4134 
L 1269 4134 
L 1269 2991 
Q 1406 3038 1543 3061 
Q 1681 3084 1819 3084 
Q 2600 3084 3056 2656 
Q 3513 2228 3513 1497 
Q 3513 744 3044 326 
Q 2575 -91 1722 -91 
Q 1428 -91 1123 -41 
Q 819 9 494 109 
L 494 744 
Q 775 591 1075 516 
Q 1375 441 1709 441 
Q 2250 441 2565 725 
Q 2881 1009 2881 1497 
Q 2881 1984 2565 2268 
Q 2250 2553 1709 2553 
Q 1456 2553 1204 2497 
Q 953 2441 691 2322 
L 691 4666 
z
" transform="scale(0.015625)"/>
       </defs>
       <use xlink:href="#DejaVuSans-32"/>
       <use xlink:href="#DejaVuSans-2e" transform="translate(63.623047 0)"/>
       <use xlink:href="#DejaVuSans-35" transform="translate(95.410156 0)"/>
      </g>
     </g>
    </g>
    <g id="xtick_2">
     <g id="line2d_3">
      <path d="M 155.120698 278.44 
L 155.120698 7.2 
" clip-path="url(#p93729efd84)" style="fill: none; stroke: #b0b0b0; stroke-opacity: 0.3; stroke-width: 0.8; stroke-linecap: square"/>
     </g>
     <g id="line2d_4">
      <g>
       <use xlink:href="#m1f9c8d774e" x="155.120698" y="278.44" style="stroke: #000000; stroke-width: 0.8"/>
      </g>
     </g>
     <g id="text_2">
      <!-- 5.0 -->
      <g transform="translate(147.169135 293.038437) scale(0.1 -0.1)">
       <defs>
        <path id="DejaVuSans-30" d="M 2034 4250 
Q 1547 4250 1301 3770 
Q 1056 3291 1056 2328 
Q 1056 1369 1301 889 
Q 1547 409 2034 409 
Q 2525 409 2770 889 
Q 3016 1369 3016 2328 
Q 3016 3291 2770 3770 
Q 2525 4250 2034 4250 
z
M 2034 4750 
Q 2819 4750 3233 4129 
Q 3647 3509 3647 2328 
Q 3647 1150 3233 529 
Q 2819 -91 2034 -91 
Q 1250 -91 836 529 
Q 422 1150 422 2328 
Q 422 3509 836 4129 
Q 1250 4750 2034 4750 
z
" transform="scale(0.015625)"/>
       </defs>
       <use xlink:href="#DejaVuSans-35"/>
       <use xlink:href="#DejaVuSans-2e" transform="translate(63.623047 0)"/>
       <use xlink:href="#DejaVuSans-30" transform="translate(95.410156 0)"/>
      </g>
     </g>
    </g>
    <g id="xtick_3">
     <g id="line2d_5">
      <path d="M 207.515937 278.44 
L 207.515937 7.2 
" clip-path="url(#p93729efd84)" style="fill: none; stroke: #b0b0b0; stroke-opacity: 0.3; stroke-width: 0.8; stroke-linecap: square"/>
     </g>
     <g id="line2d_6">
      <g>
       <use xlink:href="#m1f9c8d774e" x="207.515937" y="278.44" style="stroke: #000000; stroke-width: 0.8"/>
      </g>
     </g>
     <g id="text_3">
      <!-- 7.5 -->
      <g transform="translate(199.564374 293.038437) scale(0.1 -0.1)">
       <defs>
        <path id="DejaVuSans-37" d="M 525 4666 
L 3525 4666 
L 3525 4397 
L 1831 0 
L 1172 0 
L 2766 4134 
L 525 4134 
L 525 4666 
z
" transform="scale(0.015625)"/>
       </defs>
       <use xlink:href="#DejaVuSans-37"/>
       <use xlink:href="#DejaVuSans-2e" transform="translate(63.623047 0)"/>
       <use xlink:href="#DejaVuSans-35" transform="translate(95.410156 0)"/>
      </g>
     </g>
    </g>
    <g id="xtick_4">
     <g id="line2d_7">
      <path d="M 259.911175 278.44 
L 259.911175 7.2 
" clip-path="url(#p93729efd84)" style="fill: none; stroke: #b0b0b0; stroke-opacity: 0.3; stroke-width: 0.8; stroke-linecap: square"/>
     </g>
     <g id="line2d_8">
      <g>
       <use xlink:href="#m1f9c8d774e" x="259.911175" y="278.44" style="stroke: #000000; stroke-width: 0.8"/>
      </g>
     </g>
     <g id="text_4">
      <!-- 10.0 -->
      <g transform="translate(248.778363 293.038437) scale(0.1 -0.1)">
       <defs>
        <path id="DejaVuSans-31" d="M 794 531 
L 1825 531 
L 1825 4091 
L 703 3866 
L 703 4441 
L 1819 4666 
L 2450 4666 
L 2450 531 
L 3481 531 
L 3481 0 
L 794 0 
L 794 531 
z
" transform="scale(0.015625)"/>
       </defs>
       <use xlink:href="#DejaVuSans-31"/>
       <use xlink:href="#DejaVuSans-30" transform="translate(63.623047 0)"/>
       <use xlink:href="#DejaVuSans-2e" transform="translate(127.246094 0)"/>
       <use xlink:href="#DejaVuSans-30" transform="translate(159.033203 0)"/>
      </g>
     </g>
    </g>
    <g id="xtick_5">
     <g id="line2d_9">
      <path d="M 312.306414 278.44 
L 312.306414 7.2 
" clip-path="url(#p93729efd84)" style="fill: none; stroke: #b0b0b0; stroke-opacity: 0.3; stroke-width: 0.8; stroke-linecap: square"/>
     </g>
     <g id="line2d_10">
      <g>
       <use xlink:href="#m1f9c8d774e" x="312.306414" y="278.44" style="stroke: #000000; stroke-width: 0.8"/>
      </g>
     </g>
     <g id="text_5">
      <!-- 12.5 -->
      <g transform="translate(301.173602 293.038437) scale(0.1 -0.1)">
       <use xlink:href="#DejaVuSans-31"/>
       <use xlink:href="#DejaVuSans-32" transform="translate(63.623047 0)"/>
       <use xlink:href="#DejaVuSans-2e" transform="translate(127.246094 0)"/>
       <use xlink:href="#DejaVuSans-35" transform="translate(159.033203 0)"/>
      </g>
     </g>
    </g>
    <g id="xtick_6">
     <g id="line2d_11">
      <path d="M 364.701653 278.44 
L 364.701653 7.2 
" clip-path="url(#p93729efd84)" style="fill: none; stroke: #b0b0b0; stroke-opacity: 0.3; stroke-width: 0.8; stroke-linecap: square"/>
     </g>
     <g id="line2d_12">
      <g>
       <use xlink:href="#m1f9c8d774e" x="364.701653" y="278.44" style="stroke: #000000; stroke-width: 0.8"/>
      </g>
     </g>
     <g id="text_6">
      <!-- 15.0 -->
      <g transform="translate(353.56884 293.038437) scale(0.1 -0.1)">
       <use xlink:href="#DejaVuSans-31"/>
       <use xlink:href="#DejaVuSans-35" transform="translate(63.623047 0)"/>
       <use xlink:href="#DejaVuSans-2e" transform="translate(127.246094 0)"/>
       <use xlink:href="#DejaVuSans-30" transform="translate(159.033203 0)"/>
      </g>
     </g>
    </g>
    <g id="xtick_7">
     <g id="line2d_13">
      <path d="M 417.096892 278.44 
L 417.096892 7.2 
" clip-path="url(#p93729efd84)" style="fill: none; stroke: #b0b0b0; stroke-opacity: 0.3; stroke-width: 0.8; stroke-linecap: square"/>
     </g>
     <g id="line2d_14">
      <g>
       <use xlink:href="#m1f9c8d774e" x="417.096892" y="278.44" style="stroke: #000000; stroke-width: 0.8"/>
      </g>
     </g>
     <g id="text_7">
      <!-- 17.5 -->
      <g transform="translate(405.964079 293.038437) scale(0.1 -0.1)">
       <use xlink:href="#DejaVuSans-31"/>
       <use xlink:href="#DejaVuSans-37" transform="translate(63.623047 0)"/>
       <use xlink:href="#DejaVuSans-2e" transform="translate(127.246094 0)"/>
       <use xlink:href="#DejaVuSans-35" transform="translate(159.033203 0)"/>
      </g>
     </g>
    </g>
    <g id="xtick_8">
     <g id="line2d_15">
      <path d="M 469.49213 278.44 
L 469.49213 7.2 
" clip-path="url(#p93729efd84)" style="fill: none; stroke: #b0b0b0; stroke-opacity: 0.3; stroke-width: 0.8; stroke-linecap: square"/>
     </g>
     <g id="line2d_16">
      <g>
       <use xlink:href="#m1f9c8d774e" x="469.49213" y="278.44" style="stroke: #000000; stroke-width: 0.8"/>
      </g>
     </g>
     <g id="text_8">
      <!-- 20.0 -->
      <g transform="translate(458.359318 293.038437) scale(0.1 -0.1)">
       <use xlink:href="#DejaVuSans-32"/>
       <use xlink:href="#DejaVuSans-30" transform="translate(63.623047 0)"/>
       <use xlink:href="#DejaVuSans-2e" transform="translate(127.246094 0)"/>
       <use xlink:href="#DejaVuSans-30" transform="translate(159.033203 0)"/>
      </g>
     </g>
    </g>
    <g id="text_9">
     <!-- Depth (number of conv layers) -->
     <g transform="translate(193.483192 306.716562) scale(0.1 -0.1)">
      <defs>
       <path id="DejaVuSans-44" d="M 1259 4147 
L 1259 519 
L 2022 519 
Q 2988 519 3436 956 
Q 3884 1394 3884 2338 
Q 3884 3275 3436 3711 
Q 2988 4147 2022 4147 
L 1259 4147 
z
M 628 4666 
L 1925 4666 
Q 3281 4666 3915 4102 
Q 4550 3538 4550 2338 
Q 4550 1131 3912 565 
Q 3275 0 1925 0 
L 628 0 
L 628 4666 
z
" transform="scale(0.015625)"/>
       <path id="DejaVuSans-65" d="M 3597 1894 
L 3597 1613 
L 953 1613 
Q 991 1019 1311 708 
Q 1631 397 2203 397 
Q 2534 397 2845 478 
Q 3156 559 3463 722 
L 3463 178 
Q 3153 47 2828 -22 
Q 2503 -91 2169 -91 
Q 1331 -91 842 396 
Q 353 884 353 1716 
Q 353 2575 817 3079 
Q 1281 3584 2069 3584 
Q 2775 3584 3186 3129 
Q 3597 2675 3597 1894 
z
M 3022 2063 
Q 3016 2534 2758 2815 
Q 2500 3097 2075 3097 
Q 1594 3097 1305 2825 
Q 1016 2553 972 2059 
L 3022 2063 
z
" transform="scale(0.015625)"/>
       <path id="DejaVuSans-70" d="M 1159 525 
L 1159 -1331 
L 581 -1331 
L 581 3500 
L 1159 3500 
L 1159 2969 
Q 1341 3281 1617 3432 
Q 1894 3584 2278 3584 
Q 2916 3584 3314 3078 
Q 3713 2572 3713 1747 
Q 3713 922 3314 415 
Q 2916 -91 2278 -91 
Q 1894 -91 1617 61 
Q 1341 213 1159 525 
z
M 3116 1747 
Q 3116 2381 2855 2742 
Q 2594 3103 2138 3103 
Q 1681 3103 1420 2742 
Q 1159 2381 1159 1747 
Q 1159 1113 1420 752 
Q 1681 391 2138 391 
Q 2594 391 2855 752 
Q 3116 1113 3116 1747 
z
" transform="scale(0.015625)"/>
       <path id="DejaVuSans-74" d="M 1172 4494 
L 1172 3500 
L 2356 3500 
L 2356 3053 
L 1172 3053 
L 1172 1153 
Q 1172 725 1289 603 
Q 1406 481 1766 481 
L 2356 481 
L 2356 0 
L 1766 0 
Q 1100 0 847 248 
Q 594 497 594 1153 
L 594 3053 
L 172 3053 
L 172 3500 
L 594 3500 
L 594 4494 
L 1172 4494 
z
" transform="scale(0.015625)"/>
       <path id="DejaVuSans-68" d="M 3513 2113 
L 3513 0 
L 2938 0 
L 2938 2094 
Q 2938 2591 2744 2837 
Q 2550 3084 2163 3084 
Q 1697 3084 1428 2787 
Q 1159 2491 1159 1978 
L 1159 0 
L 581 0 
L 581 4863 
L 1159 4863 
L 1159 2956 
Q 1366 3272 1645 3428 
Q 1925 3584 2291 3584 
Q 2894 3584 3203 3211 
Q 3513 2838 3513 2113 
z
" transform="scale(0.015625)"/>
       <path id="DejaVuSans-20" transform="scale(0.015625)"/>
       <path id="DejaVuSans-28" d="M 1984 4856 
Q 1566 4138 1362 3434 
Q 1159 2731 1159 2009 
Q 1159 1288 1364 580 
Q 1569 -128 1984 -844 
L 1484 -844 
Q 1016 -109 783 600 
Q 550 1309 550 2009 
Q 550 2706 781 3412 
Q 1013 4119 1484 4856 
L 1984 4856 
z
" transform="scale(0.015625)"/>
       <path id="DejaVuSans-6e" d="M 3513 2113 
L 3513 0 
L 2938 0 
L 2938 2094 
Q 2938 2591 2744 2837 
Q 2550 3084 2163 3084 
Q 1697 3084 1428 2787 
Q 1159 2491 1159 1978 
L 1159 0 
L 581 0 
L 581 3500 
L 1159 3500 
L 1159 2956 
Q 1366 3272 1645 3428 
Q 1925 3584 2291 3584 
Q 2894 3584 3203 3211 
Q 3513 2838 3513 2113 
z
" transform="scale(0.015625)"/>
       <path id="DejaVuSans-75" d="M 544 1381 
L 544 3500 
L 1119 3500 
L 1119 1403 
Q 1119 906 1312 657 
Q 1506 409 1894 409 
Q 2359 409 2629 706 
Q 2900 1003 2900 1516 
L 2900 3500 
L 3475 3500 
L 3475 0 
L 2900 0 
L 2900 538 
Q 2691 219 2414 64 
Q 2138 -91 1772 -91 
Q 1169 -91 856 284 
Q 544 659 544 1381 
z
M 1991 3584 
L 1991 3584 
z
" transform="scale(0.015625)"/>
       <path id="DejaVuSans-6d" d="M 3328 2828 
Q 3544 3216 3844 3400 
Q 4144 3584 4550 3584 
Q 5097 3584 5394 3201 
Q 5691 2819 5691 2113 
L 5691 0 
L 5113 0 
L 5113 2094 
Q 5113 2597 4934 2840 
Q 4756 3084 4391 3084 
Q 3944 3084 3684 2787 
Q 3425 2491 3425 1978 
L 3425 0 
L 2847 0 
L 2847 2094 
Q 2847 2600 2669 2842 
Q 2491 3084 2119 3084 
Q 1678 3084 1418 2786 
Q 1159 2488 1159 1978 
L 1159 0 
L 581 0 
L 581 3500 
L 1159 3500 
L 1159 2956 
Q 1356 3278 1631 3431 
Q 1906 3584 2284 3584 
Q 2666 3584 2933 3390 
Q 3200 3197 3328 2828 
z
" transform="scale(0.015625)"/>
       <path id="DejaVuSans-62" d="M 3116 1747 
Q 3116 2381 2855 2742 
Q 2594 3103 2138 3103 
Q 1681 3103 1420 2742 
Q 1159 2381 1159 1747 
Q 1159 1113 1420 752 
Q 1681 391 2138 391 
Q 2594 391 2855 752 
Q 3116 1113 3116 1747 
z
M 1159 2969 
Q 1341 3281 1617 3432 
Q 1894 3584 2278 3584 
Q 2916 3584 3314 3078 
Q 3713 2572 3713 1747 
Q 3713 922 3314 415 
Q 2916 -91 2278 -91 
Q 1894 -91 1617 61 
Q 1341 213 1159 525 
L 1159 0 
L 581 0 
L 581 4863 
L 1159 4863 
L 1159 2969 
z
" transform="scale(0.015625)"/>
       <path id="DejaVuSans-72" d="M 2631 2963 
Q 2534 3019 2420 3045 
Q 2306 3072 2169 3072 
Q 1681 3072 1420 2755 
Q 1159 2438 1159 1844 
L 1159 0 
L 581 0 
L 581 3500 
L 1159 3500 
L 1159 2956 
Q 1341 3275 1631 3429 
Q 1922 3584 2338 3584 
Q 2397 3584 2469 3576 
Q 2541 3569 2628 3553 
L 2631 2963 
z
" transform="scale(0.015625)"/>
       <path id="DejaVuSans-6f" d="M 1959 3097 
Q 1497 3097 1228 2736 
Q 959 2375 959 1747 
Q 959 1119 1226 758 
Q 1494 397 1959 397 
Q 2419 397 2687 759 
Q 2956 1122 2956 1747 
Q 2956 2369 2687 2733 
Q 2419 3097 1959 3097 
z
M 1959 3584 
Q 2709 3584 3137 3096 
Q 3566 2609 3566 1747 
Q 3566 888 3137 398 
Q 2709 -91 1959 -91 
Q 1206 -91 779 398 
Q 353 888 353 1747 
Q 353 2609 779 3096 
Q 1206 3584 1959 3584 
z
" transform="scale(0.015625)"/>
       <path id="DejaVuSans-66" d="M 2375 4863 
L 2375 4384 
L 1825 4384 
Q 1516 4384 1395 4259 
Q 1275 4134 1275 3809 
L 1275 3500 
L 2222 3500 
L 2222 3053 
L 1275 3053 
L 1275 0 
L 697 0 
L 697 3053 
L 147 3053 
L 147 3500 
L 697 3500 
L 697 3744 
Q 697 4328 969 4595 
Q 1241 4863 1831 4863 
L 2375 4863 
z
" transform="scale(0.015625)"/>
       <path id="DejaVuSans-63" d="M 3122 3366 
L 3122 2828 
Q 2878 2963 2633 3030 
Q 2388 3097 2138 3097 
Q 1578 3097 1268 2742 
Q 959 2388 959 1747 
Q 959 1106 1268 751 
Q 1578 397 2138 397 
Q 2388 397 2633 464 
Q 2878 531 3122 666 
L 3122 134 
Q 2881 22 2623 -34 
Q 2366 -91 2075 -91 
Q 1284 -91 818 406 
Q 353 903 353 1747 
Q 353 2603 823 3093 
Q 1294 3584 2113 3584 
Q 2378 3584 2631 3529 
Q 2884 3475 3122 3366 
z
" transform="scale(0.015625)"/>
       <path id="DejaVuSans-76" d="M 191 3500 
L 800 3500 
L 1894 563 
L 2988 3500 
L 3597 3500 
L 2284 0 
L 1503 0 
L 191 3500 
z
" transform="scale(0.015625)"/>
       <path id="DejaVuSans-6c" d="M 603 4863 
L 1178 4863 
L 1178 0 
L 603 0 
L 603 4863 
z
" transform="scale(0.015625)"/>
       <path id="DejaVuSans-61" d="M 2194 1759 
Q 1497 1759 1228 1600 
Q 959 1441 959 1056 
Q 959 750 1161 570 
Q 1363 391 1709 391 
Q 2188 391 2477 730 
Q 2766 1069 2766 1631 
L 2766 1759 
L 2194 1759 
z
M 3341 1997 
L 3341 0 
L 2766 0 
L 2766 531 
Q 2569 213 2275 61 
Q 1981 -91 1556 -91 
Q 1019 -91 701 211 
Q 384 513 384 1019 
Q 384 1609 779 1909 
Q 1175 2209 1959 2209 
L 2766 2209 
L 2766 2266 
Q 2766 2663 2505 2880 
Q 2244 3097 1772 3097 
Q 1472 3097 1187 3025 
Q 903 2953 641 2809 
L 641 3341 
Q 956 3463 1253 3523 
Q 1550 3584 1831 3584 
Q 2591 3584 2966 3190 
Q 3341 2797 3341 1997 
z
" transform="scale(0.015625)"/>
       <path id="DejaVuSans-79" d="M 2059 -325 
Q 1816 -950 1584 -1140 
Q 1353 -1331 966 -1331 
L 506 -1331 
L 506 -850 
L 844 -850 
Q 1081 -850 1212 -737 
Q 1344 -625 1503 -206 
L 1606 56 
L 191 3500 
L 800 3500 
L 1894 763 
L 2988 3500 
L 3597 3500 
L 2059 -325 
z
" transform="scale(0.015625)"/>
       <path id="DejaVuSans-73" d="M 2834 3397 
L 2834 2853 
Q 2591 2978 2328 3040 
Q 2066 3103 1784 3103 
Q 1356 3103 1142 2972 
Q 928 2841 928 2578 
Q 928 2378 1081 2264 
Q 1234 2150 1697 2047 
L 1894 2003 
Q 2506 1872 2764 1633 
Q 3022 1394 3022 966 
Q 3022 478 2636 193 
Q 2250 -91 1575 -91 
Q 1294 -91 989 -36 
Q 684 19 347 128 
L 347 722 
Q 666 556 975 473 
Q 1284 391 1588 391 
Q 1994 391 2212 530 
Q 2431 669 2431 922 
Q 2431 1156 2273 1281 
Q 2116 1406 1581 1522 
L 1381 1569 
Q 847 1681 609 1914 
Q 372 2147 372 2553 
Q 372 3047 722 3315 
Q 1072 3584 1716 3584 
Q 2034 3584 2315 3537 
Q 2597 3491 2834 3397 
z
" transform="scale(0.015625)"/>
       <path id="DejaVuSans-29" d="M 513 4856 
L 1013 4856 
Q 1481 4119 1714 3412 
Q 1947 2706 1947 2009 
Q 1947 1309 1714 600 
Q 1481 -109 1013 -844 
L 513 -844 
Q 928 -128 1133 580 
Q 1338 1288 1338 2009 
Q 1338 2731 1133 3434 
Q 928 4138 513 4856 
z
" transform="scale(0.015625)"/>
      </defs>
      <use xlink:href="#DejaVuSans-44"/>
      <use xlink:href="#DejaVuSans-65" transform="translate(77.001953 0)"/>
      <use xlink:href="#DejaVuSans-70" transform="translate(138.525391 0)"/>
      <use xlink:href="#DejaVuSans-74" transform="translate(202.001953 0)"/>
      <use xlink:href="#DejaVuSans-68" transform="translate(241.210938 0)"/>
      <use xlink:href="#DejaVuSans-20" transform="translate(304.589844 0)"/>
      <use xlink:href="#DejaVuSans-28" transform="translate(336.376953 0)"/>
      <use xlink:href="#DejaVuSans-6e" transform="translate(375.390625 0)"/>
      <use xlink:href="#DejaVuSans-75" transform="translate(438.769531 0)"/>
      <use xlink:href="#DejaVuSans-6d" transform="translate(502.148438 0)"/>
      <use xlink:href="#DejaVuSans-62" transform="translate(599.560547 0)"/>
      <use xlink:href="#DejaVuSans-65" transform="translate(663.037109 0)"/>
      <use xlink:href="#DejaVuSans-72" transform="translate(724.560547 0)"/>
      <use xlink:href="#DejaVuSans-20" transform="translate(765.673828 0)"/>
      <use xlink:href="#DejaVuSans-6f" transform="translate(797.460938 0)"/>
      <use xlink:href="#DejaVuSans-66" transform="translate(858.642578 0)"/>
      <use xlink:href="#DejaVuSans-20" transform="translate(893.847656 0)"/>
      <use xlink:href="#DejaVuSans-63" transform="translate(925.634766 0)"/>
      <use xlink:href="#DejaVuSans-6f" transform="translate(980.615234 0)"/>
      <use xlink:href="#DejaVuSans-6e" transform="translate(1041.796875 0)"/>
      <use xlink:href="#DejaVuSans-76" transform="translate(1105.175781 0)"/>
      <use xlink:href="#DejaVuSans-20" transform="translate(1164.355469 0)"/>
      <use xlink:href="#DejaVuSans-6c" transform="translate(1196.142578 0)"/>
      <use xlink:href="#DejaVuSans-61" transform="translate(1223.925781 0)"/>
      <use xlink:href="#DejaVuSans-79" transform="translate(1285.205078 0)"/>
      <use xlink:href="#DejaVuSans-65" transform="translate(1344.384766 0)"/>
      <use xlink:href="#DejaVuSans-72" transform="translate(1405.908203 0)"/>
      <use xlink:href="#DejaVuSans-73" transform="translate(1447.021484 0)"/>
      <use xlink:href="#DejaVuSans-29" transform="translate(1499.121094 0)"/>
     </g>
    </g>
   </g>
   <g id="matplotlib.axis_2">
    <g id="ytick_1">
     <g id="line2d_17">
      <path d="M 51.378125 221.372641 
L 489.402321 221.372641 
" clip-path="url(#p93729efd84)" style="fill: none; stroke: #b0b0b0; stroke-opacity: 0.3; stroke-width: 0.8; stroke-linecap: square"/>
     </g>
     <g id="line2d_18">
      <defs>
       <path id="mbab48ebac6" d="M 0 0 
L -3.5 0 
" style="stroke: #000000; stroke-width: 0.8"/>
      </defs>
      <g>
       <use xlink:href="#mbab48ebac6" x="51.378125" y="221.372641" style="stroke: #000000; stroke-width: 0.8"/>
      </g>
     </g>
     <g id="text_10">
      <!-- $\mathdefault{10^{-3}}$ -->
      <g transform="translate(20.878125 225.171859) scale(0.1 -0.1)">
       <defs>
        <path id="DejaVuSans-2212" d="M 678 2272 
L 4684 2272 
L 4684 1741 
L 678 1741 
L 678 2272 
z
" transform="scale(0.015625)"/>
        <path id="DejaVuSans-33" d="M 2597 2516 
Q 3050 2419 3304 2112 
Q 3559 1806 3559 1356 
Q 3559 666 3084 287 
Q 2609 -91 1734 -91 
Q 1441 -91 1130 -33 
Q 819 25 488 141 
L 488 750 
Q 750 597 1062 519 
Q 1375 441 1716 441 
Q 2309 441 2620 675 
Q 2931 909 2931 1356 
Q 2931 1769 2642 2001 
Q 2353 2234 1838 2234 
L 1294 2234 
L 1294 2753 
L 1863 2753 
Q 2328 2753 2575 2939 
Q 2822 3125 2822 3475 
Q 2822 3834 2567 4026 
Q 2313 4219 1838 4219 
Q 1578 4219 1281 4162 
Q 984 4106 628 3988 
L 628 4550 
Q 988 4650 1302 4700 
Q 1616 4750 1894 4750 
Q 2613 4750 3031 4423 
Q 3450 4097 3450 3541 
Q 3450 3153 3228 2886 
Q 3006 2619 2597 2516 
z
" transform="scale(0.015625)"/>
       </defs>
       <use xlink:href="#DejaVuSans-31" transform="translate(0 0.765625)"/>
       <use xlink:href="#DejaVuSans-30" transform="translate(63.623047 0.765625)"/>
       <use xlink:href="#DejaVuSans-2212" transform="translate(128.203125 39.046875) scale(0.7)"/>
       <use xlink:href="#DejaVuSans-33" transform="translate(186.855469 39.046875) scale(0.7)"/>
      </g>
     </g>
    </g>
    <g id="ytick_2">
     <g id="line2d_19">
      <path d="M 51.378125 153.377993 
L 489.402321 153.377993 
" clip-path="url(#p93729efd84)" style="fill: none; stroke: #b0b0b0; stroke-opacity: 0.3; stroke-width: 0.8; stroke-linecap: square"/>
     </g>
     <g id="line2d_20">
      <g>
       <use xlink:href="#mbab48ebac6" x="51.378125" y="153.377993" style="stroke: #000000; stroke-width: 0.8"/>
      </g>
     </g>
     <g id="text_11">
      <!-- $\mathdefault{10^{-2}}$ -->
      <g transform="translate(20.878125 157.177212) scale(0.1 -0.1)">
       <use xlink:href="#DejaVuSans-31" transform="translate(0 0.765625)"/>
       <use xlink:href="#DejaVuSans-30" transform="translate(63.623047 0.765625)"/>
       <use xlink:href="#DejaVuSans-2212" transform="translate(128.203125 39.046875) scale(0.7)"/>
       <use xlink:href="#DejaVuSans-32" transform="translate(186.855469 39.046875) scale(0.7)"/>
      </g>
     </g>
    </g>
    <g id="ytick_3">
     <g id="line2d_21">
      <path d="M 51.378125 85.383346 
L 489.402321 85.383346 
" clip-path="url(#p93729efd84)" style="fill: none; stroke: #b0b0b0; stroke-opacity: 0.3; stroke-width: 0.8; stroke-linecap: square"/>
     </g>
     <g id="line2d_22">
      <g>
       <use xlink:href="#mbab48ebac6" x="51.378125" y="85.383346" style="stroke: #000000; stroke-width: 0.8"/>
      </g>
     </g>
     <g id="text_12">
      <!-- $\mathdefault{10^{-1}}$ -->
      <g transform="translate(20.878125 89.182565) scale(0.1 -0.1)">
       <use xlink:href="#DejaVuSans-31" transform="translate(0 0.684375)"/>
       <use xlink:href="#DejaVuSans-30" transform="translate(63.623047 0.684375)"/>
       <use xlink:href="#DejaVuSans-2212" transform="translate(128.203125 38.965625) scale(0.7)"/>
       <use xlink:href="#DejaVuSans-31" transform="translate(186.855469 38.965625) scale(0.7)"/>
      </g>
     </g>
    </g>
    <g id="ytick_4">
     <g id="line2d_23">
      <path d="M 51.378125 17.388698 
L 489.402321 17.388698 
" clip-path="url(#p93729efd84)" style="fill: none; stroke: #b0b0b0; stroke-opacity: 0.3; stroke-width: 0.8; stroke-linecap: square"/>
     </g>
     <g id="line2d_24">
      <g>
       <use xlink:href="#mbab48ebac6" x="51.378125" y="17.388698" style="stroke: #000000; stroke-width: 0.8"/>
      </g>
     </g>
     <g id="text_13">
      <!-- $\mathdefault{10^{0}}$ -->
      <g transform="translate(26.778125 21.187917) scale(0.1 -0.1)">
       <use xlink:href="#DejaVuSans-31" transform="translate(0 0.765625)"/>
       <use xlink:href="#DejaVuSans-30" transform="translate(63.623047 0.765625)"/>
       <use xlink:href="#DejaVuSans-30" transform="translate(128.203125 39.046875) scale(0.7)"/>
      </g>
     </g>
    </g>
    <g id="ytick_5">
     <g id="line2d_25">
      <path d="M 51.378125 268.89886 
L 489.402321 268.89886 
" clip-path="url(#p93729efd84)" style="fill: none; stroke: #b0b0b0; stroke-opacity: 0.3; stroke-width: 0.8; stroke-linecap: square"/>
     </g>
     <g id="line2d_26">
      <defs>
       <path id="m4d7bca5def" d="M 0 0 
L -2 0 
" style="stroke: #000000; stroke-width: 0.6"/>
      </defs>
      <g>
       <use xlink:href="#m4d7bca5def" x="51.378125" y="268.89886" style="stroke: #000000; stroke-width: 0.6"/>
      </g>
     </g>
    </g>
    <g id="ytick_6">
     <g id="line2d_27">
      <path d="M 51.378125 256.925597 
L 489.402321 256.925597 
" clip-path="url(#p93729efd84)" style="fill: none; stroke: #b0b0b0; stroke-opacity: 0.3; stroke-width: 0.8; stroke-linecap: square"/>
     </g>
     <g id="line2d_28">
      <g>
       <use xlink:href="#m4d7bca5def" x="51.378125" y="256.925597" style="stroke: #000000; stroke-width: 0.6"/>
      </g>
     </g>
    </g>
    <g id="ytick_7">
     <g id="line2d_29">
      <path d="M 51.378125 248.430431 
L 489.402321 248.430431 
" clip-path="url(#p93729efd84)" style="fill: none; stroke: #b0b0b0; stroke-opacity: 0.3; stroke-width: 0.8; stroke-linecap: square"/>
     </g>
     <g id="line2d_30">
      <g>
       <use xlink:href="#m4d7bca5def" x="51.378125" y="248.430431" style="stroke: #000000; stroke-width: 0.6"/>
      </g>
     </g>
    </g>
    <g id="ytick_8">
     <g id="line2d_31">
      <path d="M 51.378125 241.841069 
L 489.402321 241.841069 
" clip-path="url(#p93729efd84)" style="fill: none; stroke: #b0b0b0; stroke-opacity: 0.3; stroke-width: 0.8; stroke-linecap: square"/>
     </g>
     <g id="line2d_32">
      <g>
       <use xlink:href="#m4d7bca5def" x="51.378125" y="241.841069" style="stroke: #000000; stroke-width: 0.6"/>
      </g>
     </g>
    </g>
    <g id="ytick_9">
     <g id="line2d_33">
      <path d="M 51.378125 236.457168 
L 489.402321 236.457168 
" clip-path="url(#p93729efd84)" style="fill: none; stroke: #b0b0b0; stroke-opacity: 0.3; stroke-width: 0.8; stroke-linecap: square"/>
     </g>
     <g id="line2d_34">
      <g>
       <use xlink:href="#m4d7bca5def" x="51.378125" y="236.457168" style="stroke: #000000; stroke-width: 0.6"/>
      </g>
     </g>
    </g>
    <g id="ytick_10">
     <g id="line2d_35">
      <path d="M 51.378125 231.905145 
L 489.402321 231.905145 
" clip-path="url(#p93729efd84)" style="fill: none; stroke: #b0b0b0; stroke-opacity: 0.3; stroke-width: 0.8; stroke-linecap: square"/>
     </g>
     <g id="line2d_36">
      <g>
       <use xlink:href="#m4d7bca5def" x="51.378125" y="231.905145" style="stroke: #000000; stroke-width: 0.6"/>
      </g>
     </g>
    </g>
    <g id="ytick_11">
     <g id="line2d_37">
      <path d="M 51.378125 227.962003 
L 489.402321 227.962003 
" clip-path="url(#p93729efd84)" style="fill: none; stroke: #b0b0b0; stroke-opacity: 0.3; stroke-width: 0.8; stroke-linecap: square"/>
     </g>
     <g id="line2d_38">
      <g>
       <use xlink:href="#m4d7bca5def" x="51.378125" y="227.962003" style="stroke: #000000; stroke-width: 0.6"/>
      </g>
     </g>
    </g>
    <g id="ytick_12">
     <g id="line2d_39">
      <path d="M 51.378125 224.483905 
L 489.402321 224.483905 
" clip-path="url(#p93729efd84)" style="fill: none; stroke: #b0b0b0; stroke-opacity: 0.3; stroke-width: 0.8; stroke-linecap: square"/>
     </g>
     <g id="line2d_40">
      <g>
       <use xlink:href="#m4d7bca5def" x="51.378125" y="224.483905" style="stroke: #000000; stroke-width: 0.6"/>
      </g>
     </g>
    </g>
    <g id="ytick_13">
     <g id="line2d_41">
      <path d="M 51.378125 200.904212 
L 489.402321 200.904212 
" clip-path="url(#p93729efd84)" style="fill: none; stroke: #b0b0b0; stroke-opacity: 0.3; stroke-width: 0.8; stroke-linecap: square"/>
     </g>
     <g id="line2d_42">
      <g>
       <use xlink:href="#m4d7bca5def" x="51.378125" y="200.904212" style="stroke: #000000; stroke-width: 0.6"/>
      </g>
     </g>
    </g>
    <g id="ytick_14">
     <g id="line2d_43">
      <path d="M 51.378125 188.930949 
L 489.402321 188.930949 
" clip-path="url(#p93729efd84)" style="fill: none; stroke: #b0b0b0; stroke-opacity: 0.3; stroke-width: 0.8; stroke-linecap: square"/>
     </g>
     <g id="line2d_44">
      <g>
       <use xlink:href="#m4d7bca5def" x="51.378125" y="188.930949" style="stroke: #000000; stroke-width: 0.6"/>
      </g>
     </g>
    </g>
    <g id="ytick_15">
     <g id="line2d_45">
      <path d="M 51.378125 180.435784 
L 489.402321 180.435784 
" clip-path="url(#p93729efd84)" style="fill: none; stroke: #b0b0b0; stroke-opacity: 0.3; stroke-width: 0.8; stroke-linecap: square"/>
     </g>
     <g id="line2d_46">
      <g>
       <use xlink:href="#m4d7bca5def" x="51.378125" y="180.435784" style="stroke: #000000; stroke-width: 0.6"/>
      </g>
     </g>
    </g>
    <g id="ytick_16">
     <g id="line2d_47">
      <path d="M 51.378125 173.846422 
L 489.402321 173.846422 
" clip-path="url(#p93729efd84)" style="fill: none; stroke: #b0b0b0; stroke-opacity: 0.3; stroke-width: 0.8; stroke-linecap: square"/>
     </g>
     <g id="line2d_48">
      <g>
       <use xlink:href="#m4d7bca5def" x="51.378125" y="173.846422" style="stroke: #000000; stroke-width: 0.6"/>
      </g>
     </g>
    </g>
    <g id="ytick_17">
     <g id="line2d_49">
      <path d="M 51.378125 168.462521 
L 489.402321 168.462521 
" clip-path="url(#p93729efd84)" style="fill: none; stroke: #b0b0b0; stroke-opacity: 0.3; stroke-width: 0.8; stroke-linecap: square"/>
     </g>
     <g id="line2d_50">
      <g>
       <use xlink:href="#m4d7bca5def" x="51.378125" y="168.462521" style="stroke: #000000; stroke-width: 0.6"/>
      </g>
     </g>
    </g>
    <g id="ytick_18">
     <g id="line2d_51">
      <path d="M 51.378125 163.910497 
L 489.402321 163.910497 
" clip-path="url(#p93729efd84)" style="fill: none; stroke: #b0b0b0; stroke-opacity: 0.3; stroke-width: 0.8; stroke-linecap: square"/>
     </g>
     <g id="line2d_52">
      <g>
       <use xlink:href="#m4d7bca5def" x="51.378125" y="163.910497" style="stroke: #000000; stroke-width: 0.6"/>
      </g>
     </g>
    </g>
    <g id="ytick_19">
     <g id="line2d_53">
      <path d="M 51.378125 159.967355 
L 489.402321 159.967355 
" clip-path="url(#p93729efd84)" style="fill: none; stroke: #b0b0b0; stroke-opacity: 0.3; stroke-width: 0.8; stroke-linecap: square"/>
     </g>
     <g id="line2d_54">
      <g>
       <use xlink:href="#m4d7bca5def" x="51.378125" y="159.967355" style="stroke: #000000; stroke-width: 0.6"/>
      </g>
     </g>
    </g>
    <g id="ytick_20">
     <g id="line2d_55">
      <path d="M 51.378125 156.489258 
L 489.402321 156.489258 
" clip-path="url(#p93729efd84)" style="fill: none; stroke: #b0b0b0; stroke-opacity: 0.3; stroke-width: 0.8; stroke-linecap: square"/>
     </g>
     <g id="line2d_56">
      <g>
       <use xlink:href="#m4d7bca5def" x="51.378125" y="156.489258" style="stroke: #000000; stroke-width: 0.6"/>
      </g>
     </g>
    </g>
    <g id="ytick_21">
     <g id="line2d_57">
      <path d="M 51.378125 132.909565 
L 489.402321 132.909565 
" clip-path="url(#p93729efd84)" style="fill: none; stroke: #b0b0b0; stroke-opacity: 0.3; stroke-width: 0.8; stroke-linecap: square"/>
     </g>
     <g id="line2d_58">
      <g>
       <use xlink:href="#m4d7bca5def" x="51.378125" y="132.909565" style="stroke: #000000; stroke-width: 0.6"/>
      </g>
     </g>
    </g>
    <g id="ytick_22">
     <g id="line2d_59">
      <path d="M 51.378125 120.936302 
L 489.402321 120.936302 
" clip-path="url(#p93729efd84)" style="fill: none; stroke: #b0b0b0; stroke-opacity: 0.3; stroke-width: 0.8; stroke-linecap: square"/>
     </g>
     <g id="line2d_60">
      <g>
       <use xlink:href="#m4d7bca5def" x="51.378125" y="120.936302" style="stroke: #000000; stroke-width: 0.6"/>
      </g>
     </g>
    </g>
    <g id="ytick_23">
     <g id="line2d_61">
      <path d="M 51.378125 112.441136 
L 489.402321 112.441136 
" clip-path="url(#p93729efd84)" style="fill: none; stroke: #b0b0b0; stroke-opacity: 0.3; stroke-width: 0.8; stroke-linecap: square"/>
     </g>
     <g id="line2d_62">
      <g>
       <use xlink:href="#m4d7bca5def" x="51.378125" y="112.441136" style="stroke: #000000; stroke-width: 0.6"/>
      </g>
     </g>
    </g>
    <g id="ytick_24">
     <g id="line2d_63">
      <path d="M 51.378125 105.851774 
L 489.402321 105.851774 
" clip-path="url(#p93729efd84)" style="fill: none; stroke: #b0b0b0; stroke-opacity: 0.3; stroke-width: 0.8; stroke-linecap: square"/>
     </g>
     <g id="line2d_64">
      <g>
       <use xlink:href="#m4d7bca5def" x="51.378125" y="105.851774" style="stroke: #000000; stroke-width: 0.6"/>
      </g>
     </g>
    </g>
    <g id="ytick_25">
     <g id="line2d_65">
      <path d="M 51.378125 100.467873 
L 489.402321 100.467873 
" clip-path="url(#p93729efd84)" style="fill: none; stroke: #b0b0b0; stroke-opacity: 0.3; stroke-width: 0.8; stroke-linecap: square"/>
     </g>
     <g id="line2d_66">
      <g>
       <use xlink:href="#m4d7bca5def" x="51.378125" y="100.467873" style="stroke: #000000; stroke-width: 0.6"/>
      </g>
     </g>
    </g>
    <g id="ytick_26">
     <g id="line2d_67">
      <path d="M 51.378125 95.91585 
L 489.402321 95.91585 
" clip-path="url(#p93729efd84)" style="fill: none; stroke: #b0b0b0; stroke-opacity: 0.3; stroke-width: 0.8; stroke-linecap: square"/>
     </g>
     <g id="line2d_68">
      <g>
       <use xlink:href="#m4d7bca5def" x="51.378125" y="95.91585" style="stroke: #000000; stroke-width: 0.6"/>
      </g>
     </g>
    </g>
    <g id="ytick_27">
     <g id="line2d_69">
      <path d="M 51.378125 91.972708 
L 489.402321 91.972708 
" clip-path="url(#p93729efd84)" style="fill: none; stroke: #b0b0b0; stroke-opacity: 0.3; stroke-width: 0.8; stroke-linecap: square"/>
     </g>
     <g id="line2d_70">
      <g>
       <use xlink:href="#m4d7bca5def" x="51.378125" y="91.972708" style="stroke: #000000; stroke-width: 0.6"/>
      </g>
     </g>
    </g>
    <g id="ytick_28">
     <g id="line2d_71">
      <path d="M 51.378125 88.49461 
L 489.402321 88.49461 
" clip-path="url(#p93729efd84)" style="fill: none; stroke: #b0b0b0; stroke-opacity: 0.3; stroke-width: 0.8; stroke-linecap: square"/>
     </g>
     <g id="line2d_72">
      <g>
       <use xlink:href="#m4d7bca5def" x="51.378125" y="88.49461" style="stroke: #000000; stroke-width: 0.6"/>
      </g>
     </g>
    </g>
    <g id="ytick_29">
     <g id="line2d_73">
      <path d="M 51.378125 64.914917 
L 489.402321 64.914917 
" clip-path="url(#p93729efd84)" style="fill: none; stroke: #b0b0b0; stroke-opacity: 0.3; stroke-width: 0.8; stroke-linecap: square"/>
     </g>
     <g id="line2d_74">
      <g>
       <use xlink:href="#m4d7bca5def" x="51.378125" y="64.914917" style="stroke: #000000; stroke-width: 0.6"/>
      </g>
     </g>
    </g>
    <g id="ytick_30">
     <g id="line2d_75">
      <path d="M 51.378125 52.941654 
L 489.402321 52.941654 
" clip-path="url(#p93729efd84)" style="fill: none; stroke: #b0b0b0; stroke-opacity: 0.3; stroke-width: 0.8; stroke-linecap: square"/>
     </g>
     <g id="line2d_76">
      <g>
       <use xlink:href="#m4d7bca5def" x="51.378125" y="52.941654" style="stroke: #000000; stroke-width: 0.6"/>
      </g>
     </g>
    </g>
    <g id="ytick_31">
     <g id="line2d_77">
      <path d="M 51.378125 44.446489 
L 489.402321 44.446489 
" clip-path="url(#p93729efd84)" style="fill: none; stroke: #b0b0b0; stroke-opacity: 0.3; stroke-width: 0.8; stroke-linecap: square"/>
     </g>
     <g id="line2d_78">
      <g>
       <use xlink:href="#m4d7bca5def" x="51.378125" y="44.446489" style="stroke: #000000; stroke-width: 0.6"/>
      </g>
     </g>
    </g>
    <g id="ytick_32">
     <g id="line2d_79">
      <path d="M 51.378125 37.857127 
L 489.402321 37.857127 
" clip-path="url(#p93729efd84)" style="fill: none; stroke: #b0b0b0; stroke-opacity: 0.3; stroke-width: 0.8; stroke-linecap: square"/>
     </g>
     <g id="line2d_80">
      <g>
       <use xlink:href="#m4d7bca5def" x="51.378125" y="37.857127" style="stroke: #000000; stroke-width: 0.6"/>
      </g>
     </g>
    </g>
    <g id="ytick_33">
     <g id="line2d_81">
      <path d="M 51.378125 32.473226 
L 489.402321 32.473226 
" clip-path="url(#p93729efd84)" style="fill: none; stroke: #b0b0b0; stroke-opacity: 0.3; stroke-width: 0.8; stroke-linecap: square"/>
     </g>
     <g id="line2d_82">
      <g>
       <use xlink:href="#m4d7bca5def" x="51.378125" y="32.473226" style="stroke: #000000; stroke-width: 0.6"/>
      </g>
     </g>
    </g>
    <g id="ytick_34">
     <g id="line2d_83">
      <path d="M 51.378125 27.921203 
L 489.402321 27.921203 
" clip-path="url(#p93729efd84)" style="fill: none; stroke: #b0b0b0; stroke-opacity: 0.3; stroke-width: 0.8; stroke-linecap: square"/>
     </g>
     <g id="line2d_84">
      <g>
       <use xlink:href="#m4d7bca5def" x="51.378125" y="27.921203" style="stroke: #000000; stroke-width: 0.6"/>
      </g>
     </g>
    </g>
    <g id="ytick_35">
     <g id="line2d_85">
      <path d="M 51.378125 23.978061 
L 489.402321 23.978061 
" clip-path="url(#p93729efd84)" style="fill: none; stroke: #b0b0b0; stroke-opacity: 0.3; stroke-width: 0.8; stroke-linecap: square"/>
     </g>
     <g id="line2d_86">
      <g>
       <use xlink:href="#m4d7bca5def" x="51.378125" y="23.978061" style="stroke: #000000; stroke-width: 0.6"/>
      </g>
     </g>
    </g>
    <g id="ytick_36">
     <g id="line2d_87">
      <path d="M 51.378125 20.499963 
L 489.402321 20.499963 
" clip-path="url(#p93729efd84)" style="fill: none; stroke: #b0b0b0; stroke-opacity: 0.3; stroke-width: 0.8; stroke-linecap: square"/>
     </g>
     <g id="line2d_88">
      <g>
       <use xlink:href="#m4d7bca5def" x="51.378125" y="20.499963" style="stroke: #000000; stroke-width: 0.6"/>
      </g>
     </g>
    </g>
    <g id="text_14">
     <!-- RMS activation -->
     <g transform="translate(14.798438 180.134844) rotate(-90) scale(0.1 -0.1)">
      <defs>
       <path id="DejaVuSans-52" d="M 2841 2188 
Q 3044 2119 3236 1894 
Q 3428 1669 3622 1275 
L 4263 0 
L 3584 0 
L 2988 1197 
Q 2756 1666 2539 1819 
Q 2322 1972 1947 1972 
L 1259 1972 
L 1259 0 
L 628 0 
L 628 4666 
L 2053 4666 
Q 2853 4666 3247 4331 
Q 3641 3997 3641 3322 
Q 3641 2881 3436 2590 
Q 3231 2300 2841 2188 
z
M 1259 4147 
L 1259 2491 
L 2053 2491 
Q 2509 2491 2742 2702 
Q 2975 2913 2975 3322 
Q 2975 3731 2742 3939 
Q 2509 4147 2053 4147 
L 1259 4147 
z
" transform="scale(0.015625)"/>
       <path id="DejaVuSans-4d" d="M 628 4666 
L 1569 4666 
L 2759 1491 
L 3956 4666 
L 4897 4666 
L 4897 0 
L 4281 0 
L 4281 4097 
L 3078 897 
L 2444 897 
L 1241 4097 
L 1241 0 
L 628 0 
L 628 4666 
z
" transform="scale(0.015625)"/>
       <path id="DejaVuSans-53" d="M 3425 4513 
L 3425 3897 
Q 3066 4069 2747 4153 
Q 2428 4238 2131 4238 
Q 1616 4238 1336 4038 
Q 1056 3838 1056 3469 
Q 1056 3159 1242 3001 
Q 1428 2844 1947 2747 
L 2328 2669 
Q 3034 2534 3370 2195 
Q 3706 1856 3706 1288 
Q 3706 609 3251 259 
Q 2797 -91 1919 -91 
Q 1588 -91 1214 -16 
Q 841 59 441 206 
L 441 856 
Q 825 641 1194 531 
Q 1563 422 1919 422 
Q 2459 422 2753 634 
Q 3047 847 3047 1241 
Q 3047 1584 2836 1778 
Q 2625 1972 2144 2069 
L 1759 2144 
Q 1053 2284 737 2584 
Q 422 2884 422 3419 
Q 422 4038 858 4394 
Q 1294 4750 2059 4750 
Q 2388 4750 2728 4690 
Q 3069 4631 3425 4513 
z
" transform="scale(0.015625)"/>
       <path id="DejaVuSans-69" d="M 603 3500 
L 1178 3500 
L 1178 0 
L 603 0 
L 603 3500 
z
M 603 4863 
L 1178 4863 
L 1178 4134 
L 603 4134 
L 603 4863 
z
" transform="scale(0.015625)"/>
      </defs>
      <use xlink:href="#DejaVuSans-52"/>
      <use xlink:href="#DejaVuSans-4d" transform="translate(69.482422 0)"/>
      <use xlink:href="#DejaVuSans-53" transform="translate(155.761719 0)"/>
      <use xlink:href="#DejaVuSans-20" transform="translate(219.238281 0)"/>
      <use xlink:href="#DejaVuSans-61" transform="translate(251.025391 0)"/>
      <use xlink:href="#DejaVuSans-63" transform="translate(312.304688 0)"/>
      <use xlink:href="#DejaVuSans-74" transform="translate(367.285156 0)"/>
      <use xlink:href="#DejaVuSans-69" transform="translate(406.494141 0)"/>
      <use xlink:href="#DejaVuSans-76" transform="translate(434.277344 0)"/>
      <use xlink:href="#DejaVuSans-61" transform="translate(493.457031 0)"/>
      <use xlink:href="#DejaVuSans-74" transform="translate(554.736328 0)"/>
      <use xlink:href="#DejaVuSans-69" transform="translate(593.945312 0)"/>
      <use xlink:href="#DejaVuSans-6f" transform="translate(621.728516 0)"/>
      <use xlink:href="#DejaVuSans-6e" transform="translate(682.910156 0)"/>
     </g>
    </g>
   </g>
   <g id="line2d_89">
    <path d="M 71.288316 36.064487 
L 92.246411 38.658496 
L 113.204507 34.36435 
L 134.162602 35.98974 
L 155.120698 33.779833 
L 176.078793 34.819662 
L 197.036889 36.30618 
L 217.994984 35.187494 
L 238.95308 38.209786 
L 259.911175 37.546519 
L 280.869271 34.852298 
L 301.827366 42.539722 
L 322.785462 37.559025 
L 343.743557 39.17277 
L 364.701653 34.026179 
L 385.659748 36.553546 
L 406.617844 36.298753 
L 427.575939 38.16221 
L 448.534035 34.345623 
L 469.49213 40.065512 
" clip-path="url(#p93729efd84)" style="fill: none; stroke: #1f77b4; stroke-width: 1.5; stroke-linecap: square"/>
    <defs>
     <path id="m06ca7be434" d="M 0 2 
C 0.530406 2 1.03916 1.789267 1.414214 1.414214 
C 1.789267 1.03916 2 0.530406 2 0 
C 2 -0.530406 1.789267 -1.03916 1.414214 -1.414214 
C 1.03916 -1.789267 0.530406 -2 0 -2 
C -0.530406 -2 -1.03916 -1.789267 -1.414214 -1.414214 
C -1.789267 -1.03916 -2 -0.530406 -2 0 
C -2 0.530406 -1.789267 1.03916 -1.414214 1.414214 
C -1.03916 1.789267 -0.530406 2 0 2 
z
" style="stroke: #1f77b4"/>
    </defs>
    <g clip-path="url(#p93729efd84)">
     <use xlink:href="#m06ca7be434" x="71.288316" y="36.064487" style="fill: #1f77b4; stroke: #1f77b4"/>
     <use xlink:href="#m06ca7be434" x="92.246411" y="38.658496" style="fill: #1f77b4; stroke: #1f77b4"/>
     <use xlink:href="#m06ca7be434" x="113.204507" y="34.36435" style="fill: #1f77b4; stroke: #1f77b4"/>
     <use xlink:href="#m06ca7be434" x="134.162602" y="35.98974" style="fill: #1f77b4; stroke: #1f77b4"/>
     <use xlink:href="#m06ca7be434" x="155.120698" y="33.779833" style="fill: #1f77b4; stroke: #1f77b4"/>
     <use xlink:href="#m06ca7be434" x="176.078793" y="34.819662" style="fill: #1f77b4; stroke: #1f77b4"/>
     <use xlink:href="#m06ca7be434" x="197.036889" y="36.30618" style="fill: #1f77b4; stroke: #1f77b4"/>
     <use xlink:href="#m06ca7be434" x="217.994984" y="35.187494" style="fill: #1f77b4; stroke: #1f77b4"/>
     <use xlink:href="#m06ca7be434" x="238.95308" y="38.209786" style="fill: #1f77b4; stroke: #1f77b4"/>
     <use xlink:href="#m06ca7be434" x="259.911175" y="37.546519" style="fill: #1f77b4; stroke: #1f77b4"/>
     <use xlink:href="#m06ca7be434" x="280.869271" y="34.852298" style="fill: #1f77b4; stroke: #1f77b4"/>
     <use xlink:href="#m06ca7be434" x="301.827366" y="42.539722" style="fill: #1f77b4; stroke: #1f77b4"/>
     <use xlink:href="#m06ca7be434" x="322.785462" y="37.559025" style="fill: #1f77b4; stroke: #1f77b4"/>
     <use xlink:href="#m06ca7be434" x="343.743557" y="39.17277" style="fill: #1f77b4; stroke: #1f77b4"/>
     <use xlink:href="#m06ca7be434" x="364.701653" y="34.026179" style="fill: #1f77b4; stroke: #1f77b4"/>
     <use xlink:href="#m06ca7be434" x="385.659748" y="36.553546" style="fill: #1f77b4; stroke: #1f77b4"/>
     <use xlink:href="#m06ca7be434" x="406.617844" y="36.298753" style="fill: #1f77b4; stroke: #1f77b4"/>
     <use xlink:href="#m06ca7be434" x="427.575939" y="38.16221" style="fill: #1f77b4; stroke: #1f77b4"/>
     <use xlink:href="#m06ca7be434" x="448.534035" y="34.345623" style="fill: #1f77b4; stroke: #1f77b4"/>
     <use xlink:href="#m06ca7be434" x="469.49213" y="40.065512" style="fill: #1f77b4; stroke: #1f77b4"/>
    </g>
   </g>
   <g id="line2d_90">
    <path d="M 71.288316 29.153325 
L 92.246411 38.020258 
L 113.204507 65.414588 
L 134.162602 39.686601 
L 155.120698 97.159444 
L 176.078793 88.479276 
L 197.036889 97.274371 
L 217.994984 149.642323 
L 238.95308 108.555562 
L 259.911175 206.786815 
L 280.869271 152.649234 
L 301.827366 99.402118 
L 322.785462 178.36245 
L 343.743557 222.134101 
L 364.701653 180.059953 
L 385.659748 218.346675 
L 406.617844 246.258995 
L 427.575939 266.110909 
L 448.534035 245.035485 
L 469.49213 246.827384 
" clip-path="url(#p93729efd84)" style="fill: none; stroke: #ff7f0e; stroke-width: 1.5; stroke-linecap: square"/>
    <defs>
     <path id="me37eae5744" d="M 0 2 
C 0.530406 2 1.03916 1.789267 1.414214 1.414214 
C 1.789267 1.03916 2 0.530406 2 0 
C 2 -0.530406 1.789267 -1.03916 1.414214 -1.414214 
C 1.03916 -1.789267 0.530406 -2 0 -2 
C -0.530406 -2 -1.03916 -1.789267 -1.414214 -1.414214 
C -1.789267 -1.03916 -2 -0.530406 -2 0 
C -2 0.530406 -1.789267 1.03916 -1.414214 1.414214 
C -1.03916 1.789267 -0.530406 2 0 2 
z
" style="stroke: #ff7f0e"/>
    </defs>
    <g clip-path="url(#p93729efd84)">
     <use xlink:href="#me37eae5744" x="71.288316" y="29.153325" style="fill: #ff7f0e; stroke: #ff7f0e"/>
     <use xlink:href="#me37eae5744" x="92.246411" y="38.020258" style="fill: #ff7f0e; stroke: #ff7f0e"/>
     <use xlink:href="#me37eae5744" x="113.204507" y="65.414588" style="fill: #ff7f0e; stroke: #ff7f0e"/>
     <use xlink:href="#me37eae5744" x="134.162602" y="39.686601" style="fill: #ff7f0e; stroke: #ff7f0e"/>
     <use xlink:href="#me37eae5744" x="155.120698" y="97.159444" style="fill: #ff7f0e; stroke: #ff7f0e"/>
     <use xlink:href="#me37eae5744" x="176.078793" y="88.479276" style="fill: #ff7f0e; stroke: #ff7f0e"/>
     <use xlink:href="#me37eae5744" x="197.036889" y="97.274371" style="fill: #ff7f0e; stroke: #ff7f0e"/>
     <use xlink:href="#me37eae5744" x="217.994984" y="149.642323" style="fill: #ff7f0e; stroke: #ff7f0e"/>
     <use xlink:href="#me37eae5744" x="238.95308" y="108.555562" style="fill: #ff7f0e; stroke: #ff7f0e"/>
     <use xlink:href="#me37eae5744" x="259.911175" y="206.786815" style="fill: #ff7f0e; stroke: #ff7f0e"/>
     <use xlink:href="#me37eae5744" x="280.869271" y="152.649234" style="fill: #ff7f0e; stroke: #ff7f0e"/>
     <use xlink:href="#me37eae5744" x="301.827366" y="99.402118" style="fill: #ff7f0e; stroke: #ff7f0e"/>
     <use xlink:href="#me37eae5744" x="322.785462" y="178.36245" style="fill: #ff7f0e; stroke: #ff7f0e"/>
     <use xlink:href="#me37eae5744" x="343.743557" y="222.134101" style="fill: #ff7f0e; stroke: #ff7f0e"/>
     <use xlink:href="#me37eae5744" x="364.701653" y="180.059953" style="fill: #ff7f0e; stroke: #ff7f0e"/>
     <use xlink:href="#me37eae5744" x="385.659748" y="218.346675" style="fill: #ff7f0e; stroke: #ff7f0e"/>
     <use xlink:href="#me37eae5744" x="406.617844" y="246.258995" style="fill: #ff7f0e; stroke: #ff7f0e"/>
     <use xlink:href="#me37eae5744" x="427.575939" y="266.110909" style="fill: #ff7f0e; stroke: #ff7f0e"/>
     <use xlink:href="#me37eae5744" x="448.534035" y="245.035485" style="fill: #ff7f0e; stroke: #ff7f0e"/>
     <use xlink:href="#me37eae5744" x="469.49213" y="246.827384" style="fill: #ff7f0e; stroke: #ff7f0e"/>
    </g>
   </g>
   <g id="line2d_91">
    <path d="M 71.288316 19.529091 
L 92.246411 30.970176 
L 113.204507 23.80294 
L 134.162602 48.554365 
L 155.120698 43.685039 
L 176.078793 50.590676 
L 197.036889 35.672492 
L 217.994984 32.999735 
L 238.95308 27.344027 
L 259.911175 54.477761 
L 280.869271 56.040252 
L 301.827366 53.935277 
L 322.785462 77.777898 
L 343.743557 81.072209 
L 364.701653 48.122827 
L 385.659748 91.789405 
L 406.617844 37.849557 
L 427.575939 108.640048 
L 448.534035 86.863052 
L 469.49213 51.726577 
" clip-path="url(#p93729efd84)" style="fill: none; stroke: #2ca02c; stroke-width: 1.5; stroke-linecap: square"/>
    <defs>
     <path id="m60461043b9" d="M 0 2 
C 0.530406 2 1.03916 1.789267 1.414214 1.414214 
C 1.789267 1.03916 2 0.530406 2 0 
C 2 -0.530406 1.789267 -1.03916 1.414214 -1.414214 
C 1.03916 -1.789267 0.530406 -2 0 -2 
C -0.530406 -2 -1.03916 -1.789267 -1.414214 -1.414214 
C -1.789267 -1.03916 -2 -0.530406 -2 0 
C -2 0.530406 -1.789267 1.03916 -1.414214 1.414214 
C -1.03916 1.789267 -0.530406 2 0 2 
z
" style="stroke: #2ca02c"/>
    </defs>
    <g clip-path="url(#p93729efd84)">
     <use xlink:href="#m60461043b9" x="71.288316" y="19.529091" style="fill: #2ca02c; stroke: #2ca02c"/>
     <use xlink:href="#m60461043b9" x="92.246411" y="30.970176" style="fill: #2ca02c; stroke: #2ca02c"/>
     <use xlink:href="#m60461043b9" x="113.204507" y="23.80294" style="fill: #2ca02c; stroke: #2ca02c"/>
     <use xlink:href="#m60461043b9" x="134.162602" y="48.554365" style="fill: #2ca02c; stroke: #2ca02c"/>
     <use xlink:href="#m60461043b9" x="155.120698" y="43.685039" style="fill: #2ca02c; stroke: #2ca02c"/>
     <use xlink:href="#m60461043b9" x="176.078793" y="50.590676" style="fill: #2ca02c; stroke: #2ca02c"/>
     <use xlink:href="#m60461043b9" x="197.036889" y="35.672492" style="fill: #2ca02c; stroke: #2ca02c"/>
     <use xlink:href="#m60461043b9" x="217.994984" y="32.999735" style="fill: #2ca02c; stroke: #2ca02c"/>
     <use xlink:href="#m60461043b9" x="238.95308" y="27.344027" style="fill: #2ca02c; stroke: #2ca02c"/>
     <use xlink:href="#m60461043b9" x="259.911175" y="54.477761" style="fill: #2ca02c; stroke: #2ca02c"/>
     <use xlink:href="#m60461043b9" x="280.869271" y="56.040252" style="fill: #2ca02c; stroke: #2ca02c"/>
     <use xlink:href="#m60461043b9" x="301.827366" y="53.935277" style="fill: #2ca02c; stroke: #2ca02c"/>
     <use xlink:href="#m60461043b9" x="322.785462" y="77.777898" style="fill: #2ca02c; stroke: #2ca02c"/>
     <use xlink:href="#m60461043b9" x="343.743557" y="81.072209" style="fill: #2ca02c; stroke: #2ca02c"/>
     <use xlink:href="#m60461043b9" x="364.701653" y="48.122827" style="fill: #2ca02c; stroke: #2ca02c"/>
     <use xlink:href="#m60461043b9" x="385.659748" y="91.789405" style="fill: #2ca02c; stroke: #2ca02c"/>
     <use xlink:href="#m60461043b9" x="406.617844" y="37.849557" style="fill: #2ca02c; stroke: #2ca02c"/>
     <use xlink:href="#m60461043b9" x="427.575939" y="108.640048" style="fill: #2ca02c; stroke: #2ca02c"/>
     <use xlink:href="#m60461043b9" x="448.534035" y="86.863052" style="fill: #2ca02c; stroke: #2ca02c"/>
     <use xlink:href="#m60461043b9" x="469.49213" y="51.726577" style="fill: #2ca02c; stroke: #2ca02c"/>
    </g>
   </g>
   <g id="patch_3">
    <path d="M 51.378125 278.44 
L 51.378125 7.2 
" style="fill: none; stroke: #000000; stroke-width: 0.8; stroke-linejoin: miter; stroke-linecap: square"/>
   </g>
   <g id="patch_4">
    <path d="M 489.402321 278.44 
L 489.402321 7.2 
" style="fill: none; stroke: #000000; stroke-width: 0.8; stroke-linejoin: miter; stroke-linecap: square"/>
   </g>
   <g id="patch_5">
    <path d="M 51.378125 278.44 
L 489.402321 278.44 
" style="fill: none; stroke: #000000; stroke-width: 0.8; stroke-linejoin: miter; stroke-linecap: square"/>
   </g>
   <g id="patch_6">
    <path d="M 51.378125 7.2 
L 489.402321 7.2 
" style="fill: none; stroke: #000000; stroke-width: 0.8; stroke-linejoin: miter; stroke-linecap: square"/>
   </g>
   <g id="legend_1">
    <g id="patch_7">
     <path d="M 58.378125 273.44 
L 199.154688 273.44 
Q 201.154688 273.44 201.154688 271.44 
L 201.154688 227.849375 
Q 201.154688 225.849375 199.154688 225.849375 
L 58.378125 225.849375 
Q 56.378125 225.849375 56.378125 227.849375 
L 56.378125 271.44 
Q 56.378125 273.44 58.378125 273.44 
z
" style="fill: #ffffff; opacity: 0.8; stroke: #cccccc; stroke-linejoin: miter"/>
    </g>
    <g id="line2d_92">
     <path d="M 60.378125 233.947812 
L 70.378125 233.947812 
L 80.378125 233.947812 
" style="fill: none; stroke: #1f77b4; stroke-width: 1.5; stroke-linecap: square"/>
     <g>
      <use xlink:href="#m06ca7be434" x="70.378125" y="233.947812" style="fill: #1f77b4; stroke: #1f77b4"/>
     </g>
    </g>
    <g id="text_15">
     <!-- Naive sigma=0.1 -->
     <g transform="translate(88.378125 237.447812) scale(0.1 -0.1)">
      <defs>
       <path id="DejaVuSans-4e" d="M 628 4666 
L 1478 4666 
L 3547 763 
L 3547 4666 
L 4159 4666 
L 4159 0 
L 3309 0 
L 1241 3903 
L 1241 0 
L 628 0 
L 628 4666 
z
" transform="scale(0.015625)"/>
       <path id="DejaVuSans-67" d="M 2906 1791 
Q 2906 2416 2648 2759 
Q 2391 3103 1925 3103 
Q 1463 3103 1205 2759 
Q 947 2416 947 1791 
Q 947 1169 1205 825 
Q 1463 481 1925 481 
Q 2391 481 2648 825 
Q 2906 1169 2906 1791 
z
M 3481 434 
Q 3481 -459 3084 -895 
Q 2688 -1331 1869 -1331 
Q 1566 -1331 1297 -1286 
Q 1028 -1241 775 -1147 
L 775 -588 
Q 1028 -725 1275 -790 
Q 1522 -856 1778 -856 
Q 2344 -856 2625 -561 
Q 2906 -266 2906 331 
L 2906 616 
Q 2728 306 2450 153 
Q 2172 0 1784 0 
Q 1141 0 747 490 
Q 353 981 353 1791 
Q 353 2603 747 3093 
Q 1141 3584 1784 3584 
Q 2172 3584 2450 3431 
Q 2728 3278 2906 2969 
L 2906 3500 
L 3481 3500 
L 3481 434 
z
" transform="scale(0.015625)"/>
       <path id="DejaVuSans-3d" d="M 678 2906 
L 4684 2906 
L 4684 2381 
L 678 2381 
L 678 2906 
z
M 678 1631 
L 4684 1631 
L 4684 1100 
L 678 1100 
L 678 1631 
z
" transform="scale(0.015625)"/>
      </defs>
      <use xlink:href="#DejaVuSans-4e"/>
      <use xlink:href="#DejaVuSans-61" transform="translate(74.804688 0)"/>
      <use xlink:href="#DejaVuSans-69" transform="translate(136.083984 0)"/>
      <use xlink:href="#DejaVuSans-76" transform="translate(163.867188 0)"/>
      <use xlink:href="#DejaVuSans-65" transform="translate(223.046875 0)"/>
      <use xlink:href="#DejaVuSans-20" transform="translate(284.570312 0)"/>
      <use xlink:href="#DejaVuSans-73" transform="translate(316.357422 0)"/>
      <use xlink:href="#DejaVuSans-69" transform="translate(368.457031 0)"/>
      <use xlink:href="#DejaVuSans-67" transform="translate(396.240234 0)"/>
      <use xlink:href="#DejaVuSans-6d" transform="translate(459.716797 0)"/>
      <use xlink:href="#DejaVuSans-61" transform="translate(557.128906 0)"/>
      <use xlink:href="#DejaVuSans-3d" transform="translate(618.408203 0)"/>
      <use xlink:href="#DejaVuSans-30" transform="translate(702.197266 0)"/>
      <use xlink:href="#DejaVuSans-2e" transform="translate(765.820312 0)"/>
      <use xlink:href="#DejaVuSans-31" transform="translate(797.607422 0)"/>
     </g>
    </g>
    <g id="line2d_93">
     <path d="M 60.378125 248.625937 
L 70.378125 248.625937 
L 80.378125 248.625937 
" style="fill: none; stroke: #ff7f0e; stroke-width: 1.5; stroke-linecap: square"/>
     <g>
      <use xlink:href="#me37eae5744" x="70.378125" y="248.625937" style="fill: #ff7f0e; stroke: #ff7f0e"/>
     </g>
    </g>
    <g id="text_16">
     <!-- Glorot (1/sqrt(fan_in)) -->
     <g transform="translate(88.378125 252.125937) scale(0.1 -0.1)">
      <defs>
       <path id="DejaVuSans-47" d="M 3809 666 
L 3809 1919 
L 2778 1919 
L 2778 2438 
L 4434 2438 
L 4434 434 
Q 4069 175 3628 42 
Q 3188 -91 2688 -91 
Q 1594 -91 976 548 
Q 359 1188 359 2328 
Q 359 3472 976 4111 
Q 1594 4750 2688 4750 
Q 3144 4750 3555 4637 
Q 3966 4525 4313 4306 
L 4313 3634 
Q 3963 3931 3569 4081 
Q 3175 4231 2741 4231 
Q 1884 4231 1454 3753 
Q 1025 3275 1025 2328 
Q 1025 1384 1454 906 
Q 1884 428 2741 428 
Q 3075 428 3337 486 
Q 3600 544 3809 666 
z
" transform="scale(0.015625)"/>
       <path id="DejaVuSans-2f" d="M 1625 4666 
L 2156 4666 
L 531 -594 
L 0 -594 
L 1625 4666 
z
" transform="scale(0.015625)"/>
       <path id="DejaVuSans-71" d="M 947 1747 
Q 947 1113 1208 752 
Q 1469 391 1925 391 
Q 2381 391 2643 752 
Q 2906 1113 2906 1747 
Q 2906 2381 2643 2742 
Q 2381 3103 1925 3103 
Q 1469 3103 1208 2742 
Q 947 2381 947 1747 
z
M 2906 525 
Q 2725 213 2448 61 
Q 2172 -91 1784 -91 
Q 1150 -91 751 415 
Q 353 922 353 1747 
Q 353 2572 751 3078 
Q 1150 3584 1784 3584 
Q 2172 3584 2448 3432 
Q 2725 3281 2906 2969 
L 2906 3500 
L 3481 3500 
L 3481 -1331 
L 2906 -1331 
L 2906 525 
z
" transform="scale(0.015625)"/>
       <path id="DejaVuSans-5f" d="M 3263 -1063 
L 3263 -1509 
L -63 -1509 
L -63 -1063 
L 3263 -1063 
z
" transform="scale(0.015625)"/>
      </defs>
      <use xlink:href="#DejaVuSans-47"/>
      <use xlink:href="#DejaVuSans-6c" transform="translate(77.490234 0)"/>
      <use xlink:href="#DejaVuSans-6f" transform="translate(105.273438 0)"/>
      <use xlink:href="#DejaVuSans-72" transform="translate(166.455078 0)"/>
      <use xlink:href="#DejaVuSans-6f" transform="translate(205.318359 0)"/>
      <use xlink:href="#DejaVuSans-74" transform="translate(266.5 0)"/>
      <use xlink:href="#DejaVuSans-20" transform="translate(305.708984 0)"/>
      <use xlink:href="#DejaVuSans-28" transform="translate(337.496094 0)"/>
      <use xlink:href="#DejaVuSans-31" transform="translate(376.509766 0)"/>
      <use xlink:href="#DejaVuSans-2f" transform="translate(440.132812 0)"/>
      <use xlink:href="#DejaVuSans-73" transform="translate(473.824219 0)"/>
      <use xlink:href="#DejaVuSans-71" transform="translate(525.923828 0)"/>
      <use xlink:href="#DejaVuSans-72" transform="translate(589.400391 0)"/>
      <use xlink:href="#DejaVuSans-74" transform="translate(630.513672 0)"/>
      <use xlink:href="#DejaVuSans-28" transform="translate(669.722656 0)"/>
      <use xlink:href="#DejaVuSans-66" transform="translate(708.736328 0)"/>
      <use xlink:href="#DejaVuSans-61" transform="translate(743.941406 0)"/>
      <use xlink:href="#DejaVuSans-6e" transform="translate(805.220703 0)"/>
      <use xlink:href="#DejaVuSans-5f" transform="translate(868.599609 0)"/>
      <use xlink:href="#DejaVuSans-69" transform="translate(918.599609 0)"/>
      <use xlink:href="#DejaVuSans-6e" transform="translate(946.382812 0)"/>
      <use xlink:href="#DejaVuSans-29" transform="translate(1009.761719 0)"/>
      <use xlink:href="#DejaVuSans-29" transform="translate(1048.775391 0)"/>
     </g>
    </g>
    <g id="line2d_94">
     <path d="M 60.378125 263.582187 
L 70.378125 263.582187 
L 80.378125 263.582187 
" style="fill: none; stroke: #2ca02c; stroke-width: 1.5; stroke-linecap: square"/>
     <g>
      <use xlink:href="#m60461043b9" x="70.378125" y="263.582187" style="fill: #2ca02c; stroke: #2ca02c"/>
     </g>
    </g>
    <g id="text_17">
     <!-- He (sqrt(2/fan_in)) -->
     <g transform="translate(88.378125 267.082187) scale(0.1 -0.1)">
      <defs>
       <path id="DejaVuSans-48" d="M 628 4666 
L 1259 4666 
L 1259 2753 
L 3553 2753 
L 3553 4666 
L 4184 4666 
L 4184 0 
L 3553 0 
L 3553 2222 
L 1259 2222 
L 1259 0 
L 628 0 
L 628 4666 
z
" transform="scale(0.015625)"/>
      </defs>
      <use xlink:href="#DejaVuSans-48"/>
      <use xlink:href="#DejaVuSans-65" transform="translate(75.195312 0)"/>
      <use xlink:href="#DejaVuSans-20" transform="translate(136.71875 0)"/>
      <use xlink:href="#DejaVuSans-28" transform="translate(168.505859 0)"/>
      <use xlink:href="#DejaVuSans-73" transform="translate(207.519531 0)"/>
      <use xlink:href="#DejaVuSans-71" transform="translate(259.619141 0)"/>
      <use xlink:href="#DejaVuSans-72" transform="translate(323.095703 0)"/>
      <use xlink:href="#DejaVuSans-74" transform="translate(364.208984 0)"/>
      <use xlink:href="#DejaVuSans-28" transform="translate(403.417969 0)"/>
      <use xlink:href="#DejaVuSans-32" transform="translate(442.431641 0)"/>
      <use xlink:href="#DejaVuSans-2f" transform="translate(506.054688 0)"/>
      <use xlink:href="#DejaVuSans-66" transform="translate(539.746094 0)"/>
      <use xlink:href="#DejaVuSans-61" transform="translate(574.951172 0)"/>
      <use xlink:href="#DejaVuSans-6e" transform="translate(636.230469 0)"/>
      <use xlink:href="#DejaVuSans-5f" transform="translate(699.609375 0)"/>
      <use xlink:href="#DejaVuSans-69" transform="translate(749.609375 0)"/>
      <use xlink:href="#DejaVuSans-6e" transform="translate(777.392578 0)"/>
      <use xlink:href="#DejaVuSans-29" transform="translate(840.771484 0)"/>
      <use xlink:href="#DejaVuSans-29" transform="translate(879.785156 0)"/>
     </g>
    </g>
   </g>
  </g>
 </g>
 <defs>
  <clipPath id="p93729efd84">
   <rect x="51.378125" y="7.2" width="438.024196" height="271.24"/>
  </clipPath>
 </defs>
</svg>
