<?xml version="1.0" encoding="utf-8" standalone="no"?>
<!DOCTYPE svg PUBLIC "-//W3C//DTD SVG 1.1//EN"
  "http://www.w3.org/Graphics/SVG/1.1/DTD/svg11.dtd">
<svg xmlns:xlink="http://www.w3.org/1999/xlink" width="423.026875pt" height="277.838125pt" viewBox="0 0 423.026875 277.838125" xmlns="http://www.w3.org/2000/svg" version="1.1">
 <metadata>
  <rdf:RDF xmlns:dc="http://purl.org/dc/elements/1.1/" xmlns:cc="http://creativecommons.org/ns#" xmlns:rdf="http://www.w3.org/1999/02/22-rdf-syntax-ns#">
   <cc:Work>
    <dc:type rdf:resource="http://purl.org/dc/dcmitype/StillImage"/>
    <dc:date>2026-05-13T19:05:10.264610</dc:date>
    <dc:format>image/svg+xml</dc:format>
    <dc:creator>
     <cc:Agent>
      <dc:title>Matplotlib v3.10.9, https://matplotlib.org/</dc:title>
     </cc:Agent>
    </dc:creator>
   </cc:Work>
  </rdf:RDF>
 </metadata>
 <defs>
  <style type="text/css">*{stroke-linejoin: round; stroke-linecap: butt}</style>
 </defs>
 <g id="figure_1">
  <g id="patch_1">
   <path d="M 0 277.838125 
L 423.026875 277.838125 
L 423.026875 0 
L 0 0 
z
" style="fill: #ffffff"/>
  </g>
  <g id="axes_1">
   <g id="patch_2">
    <path d="M 52.282813 240.16 
L 407.875312 240.16 
L 407.875312 22.44 
L 52.282813 22.44 
z
" style="fill: #ffffff"/>
   </g>
   <g id="matplotlib.axis_1">
    <g id="xtick_1">
     <g id="line2d_1">
      <defs>
       <path id="m6a30a8f68e" d="M 0 0 
L 0 3.5 
" style="stroke: #000000; stroke-width: 0.8"/>
      </defs>
      <g>
       <use xlink:href="#m6a30a8f68e" x="52.282813" y="240.16" style="stroke: #000000; stroke-width: 0.8"/>
      </g>
     </g>
     <g id="text_1">
      <!-- −1.0 -->
      <g transform="translate(40.141406 254.758437) scale(0.1 -0.1)">
       <defs>
        <path id="DejaVuSans-2212" d="M 678 2272 
L 4684 2272 
L 4684 1741 
L 678 1741 
L 678 2272 
z
" transform="scale(0.015625)"/>
        <path id="DejaVuSans-31" d="M 794 531 
L 1825 531 
L 1825 4091 
L 703 3866 
L 703 4441 
L 1819 4666 
L 2450 4666 
L 2450 531 
L 3481 531 
L 3481 0 
L 794 0 
L 794 531 
z
" transform="scale(0.015625)"/>
        <path id="DejaVuSans-2e" d="M 684 794 
L 1344 794 
L 1344 0 
L 684 0 
L 684 794 
z
" transform="scale(0.015625)"/>
        <path id="DejaVuSans-30" d="M 2034 4250 
Q 1547 4250 1301 3770 
Q 1056 3291 1056 2328 
Q 1056 1369 1301 889 
Q 1547 409 2034 409 
Q 2525 409 2770 889 
Q 3016 1369 3016 2328 
Q 3016 3291 2770 3770 
Q 2525 4250 2034 4250 
z
M 2034 4750 
Q 2819 4750 3233 4129 
Q 3647 3509 3647 2328 
Q 3647 1150 3233 529 
Q 2819 -91 2034 -91 
Q 1250 -91 836 529 
Q 422 1150 422 2328 
Q 422 3509 836 4129 
Q 1250 4750 2034 4750 
z
" transform="scale(0.015625)"/>
       </defs>
       <use xlink:href="#DejaVuSans-2212"/>
       <use xlink:href="#DejaVuSans-31" transform="translate(83.789062 0)"/>
       <use xlink:href="#DejaVuSans-2e" transform="translate(147.412109 0)"/>
       <use xlink:href="#DejaVuSans-30" transform="translate(179.199219 0)"/>
      </g>
     </g>
    </g>
    <g id="xtick_2">
     <g id="line2d_2">
      <g>
       <use xlink:href="#m6a30a8f68e" x="96.731875" y="240.16" style="stroke: #000000; stroke-width: 0.8"/>
      </g>
     </g>
     <g id="text_2">
      <!-- −0.5 -->
      <g transform="translate(84.590469 254.758437) scale(0.1 -0.1)">
       <defs>
        <path id="DejaVuSans-35" d="M 691 4666 
L 3169 4666 
L 3169 4134 
L 1269 4134 
L 1269 2991 
Q 1406 3038 1543 3061 
Q 1681 3084 1819 3084 
Q 2600 3084 3056 2656 
Q 3513 2228 3513 1497 
Q 3513 744 3044 326 
Q 2575 -91 1722 -91 
Q 1428 -91 1123 -41 
Q 819 9 494 109 
L 494 744 
Q 775 591 1075 516 
Q 1375 441 1709 441 
Q 2250 441 2565 725 
Q 2881 1009 2881 1497 
Q 2881 1984 2565 2268 
Q 2250 2553 1709 2553 
Q 1456 2553 1204 2497 
Q 953 2441 691 2322 
L 691 4666 
z
" transform="scale(0.015625)"/>
       </defs>
       <use xlink:href="#DejaVuSans-2212"/>
       <use xlink:href="#DejaVuSans-30" transform="translate(83.789062 0)"/>
       <use xlink:href="#DejaVuSans-2e" transform="translate(147.412109 0)"/>
       <use xlink:href="#DejaVuSans-35" transform="translate(179.199219 0)"/>
      </g>
     </g>
    </g>
    <g id="xtick_3">
     <g id="line2d_3">
      <g>
       <use xlink:href="#m6a30a8f68e" x="141.180937" y="240.16" style="stroke: #000000; stroke-width: 0.8"/>
      </g>
     </g>
     <g id="text_3">
      <!-- 0.0 -->
      <g transform="translate(133.229375 254.758437) scale(0.1 -0.1)">
       <use xlink:href="#DejaVuSans-30"/>
       <use xlink:href="#DejaVuSans-2e" transform="translate(63.623047 0)"/>
       <use xlink:href="#DejaVuSans-30" transform="translate(95.410156 0)"/>
      </g>
     </g>
    </g>
    <g id="xtick_4">
     <g id="line2d_4">
      <g>
       <use xlink:href="#m6a30a8f68e" x="185.63" y="240.16" style="stroke: #000000; stroke-width: 0.8"/>
      </g>
     </g>
     <g id="text_4">
      <!-- 0.5 -->
      <g transform="translate(177.678438 254.758437) scale(0.1 -0.1)">
       <use xlink:href="#DejaVuSans-30"/>
       <use xlink:href="#DejaVuSans-2e" transform="translate(63.623047 0)"/>
       <use xlink:href="#DejaVuSans-35" transform="translate(95.410156 0)"/>
      </g>
     </g>
    </g>
    <g id="xtick_5">
     <g id="line2d_5">
      <g>
       <use xlink:href="#m6a30a8f68e" x="230.079062" y="240.16" style="stroke: #000000; stroke-width: 0.8"/>
      </g>
     </g>
     <g id="text_5">
      <!-- 1.0 -->
      <g transform="translate(222.1275 254.758437) scale(0.1 -0.1)">
       <use xlink:href="#DejaVuSans-31"/>
       <use xlink:href="#DejaVuSans-2e" transform="translate(63.623047 0)"/>
       <use xlink:href="#DejaVuSans-30" transform="translate(95.410156 0)"/>
      </g>
     </g>
    </g>
    <g id="xtick_6">
     <g id="line2d_6">
      <g>
       <use xlink:href="#m6a30a8f68e" x="274.528125" y="240.16" style="stroke: #000000; stroke-width: 0.8"/>
      </g>
     </g>
     <g id="text_6">
      <!-- 1.5 -->
      <g transform="translate(266.576562 254.758437) scale(0.1 -0.1)">
       <use xlink:href="#DejaVuSans-31"/>
       <use xlink:href="#DejaVuSans-2e" transform="translate(63.623047 0)"/>
       <use xlink:href="#DejaVuSans-35" transform="translate(95.410156 0)"/>
      </g>
     </g>
    </g>
    <g id="xtick_7">
     <g id="line2d_7">
      <g>
       <use xlink:href="#m6a30a8f68e" x="318.977188" y="240.16" style="stroke: #000000; stroke-width: 0.8"/>
      </g>
     </g>
     <g id="text_7">
      <!-- 2.0 -->
      <g transform="translate(311.025625 254.758437) scale(0.1 -0.1)">
       <defs>
        <path id="DejaVuSans-32" d="M 1228 531 
L 3431 531 
L 3431 0 
L 469 0 
L 469 531 
Q 828 903 1448 1529 
Q 2069 2156 2228 2338 
Q 2531 2678 2651 2914 
Q 2772 3150 2772 3378 
Q 2772 3750 2511 3984 
Q 2250 4219 1831 4219 
Q 1534 4219 1204 4116 
Q 875 4013 500 3803 
L 500 4441 
Q 881 4594 1212 4672 
Q 1544 4750 1819 4750 
Q 2544 4750 2975 4387 
Q 3406 4025 3406 3419 
Q 3406 3131 3298 2873 
Q 3191 2616 2906 2266 
Q 2828 2175 2409 1742 
Q 1991 1309 1228 531 
z
" transform="scale(0.015625)"/>
       </defs>
       <use xlink:href="#DejaVuSans-32"/>
       <use xlink:href="#DejaVuSans-2e" transform="translate(63.623047 0)"/>
       <use xlink:href="#DejaVuSans-30" transform="translate(95.410156 0)"/>
      </g>
     </g>
    </g>
    <g id="xtick_8">
     <g id="line2d_8">
      <g>
       <use xlink:href="#m6a30a8f68e" x="363.42625" y="240.16" style="stroke: #000000; stroke-width: 0.8"/>
      </g>
     </g>
     <g id="text_8">
      <!-- 2.5 -->
      <g transform="translate(355.474687 254.758437) scale(0.1 -0.1)">
       <use xlink:href="#DejaVuSans-32"/>
       <use xlink:href="#DejaVuSans-2e" transform="translate(63.623047 0)"/>
       <use xlink:href="#DejaVuSans-35" transform="translate(95.410156 0)"/>
      </g>
     </g>
    </g>
    <g id="xtick_9">
     <g id="line2d_9">
      <g>
       <use xlink:href="#m6a30a8f68e" x="407.875312" y="240.16" style="stroke: #000000; stroke-width: 0.8"/>
      </g>
     </g>
     <g id="text_9">
      <!-- 3.0 -->
      <g transform="translate(399.92375 254.758437) scale(0.1 -0.1)">
       <defs>
        <path id="DejaVuSans-33" d="M 2597 2516 
Q 3050 2419 3304 2112 
Q 3559 1806 3559 1356 
Q 3559 666 3084 287 
Q 2609 -91 1734 -91 
Q 1441 -91 1130 -33 
Q 819 25 488 141 
L 488 750 
Q 750 597 1062 519 
Q 1375 441 1716 441 
Q 2309 441 2620 675 
Q 2931 909 2931 1356 
Q 2931 1769 2642 2001 
Q 2353 2234 1838 2234 
L 1294 2234 
L 1294 2753 
L 1863 2753 
Q 2328 2753 2575 2939 
Q 2822 3125 2822 3475 
Q 2822 3834 2567 4026 
Q 2313 4219 1838 4219 
Q 1578 4219 1281 4162 
Q 984 4106 628 3988 
L 628 4550 
Q 988 4650 1302 4700 
Q 1616 4750 1894 4750 
Q 2613 4750 3031 4423 
Q 3450 4097 3450 3541 
Q 3450 3153 3228 2886 
Q 3006 2619 2597 2516 
z
" transform="scale(0.015625)"/>
       </defs>
       <use xlink:href="#DejaVuSans-33"/>
       <use xlink:href="#DejaVuSans-2e" transform="translate(63.623047 0)"/>
       <use xlink:href="#DejaVuSans-30" transform="translate(95.410156 0)"/>
      </g>
     </g>
    </g>
    <g id="text_10">
     <!-- $\theta_0$ (intercept) -->
     <g transform="translate(196.529062 268.538125) scale(0.1 -0.1)">
      <defs>
       <path id="DejaVuSans-Oblique-3b8" d="M 2913 2219 
L 925 2219 
Q 791 1284 928 888 
Q 1100 400 1566 400 
Q 2034 400 2391 891 
Q 2703 1322 2913 2219 
z
M 3009 2750 
Q 3094 3638 2984 3950 
Q 2813 4444 2353 4444 
Q 1875 4444 1525 3956 
Q 1250 3563 1034 2750 
L 3009 2750 
z
M 2444 4913 
Q 3194 4913 3494 4250 
Q 3794 3591 3566 2422 
Q 3341 1256 2781 594 
Q 2225 -72 1475 -72 
Q 722 -72 425 594 
Q 128 1256 353 2422 
Q 581 3591 1134 4250 
Q 1691 4913 2444 4913 
z
" transform="scale(0.015625)"/>
       <path id="DejaVuSans-20" transform="scale(0.015625)"/>
       <path id="DejaVuSans-28" d="M 1984 4856 
Q 1566 4138 1362 3434 
Q 1159 2731 1159 2009 
Q 1159 1288 1364 580 
Q 1569 -128 1984 -844 
L 1484 -844 
Q 1016 -109 783 600 
Q 550 1309 550 2009 
Q 550 2706 781 3412 
Q 1013 4119 1484 4856 
L 1984 4856 
z
" transform="scale(0.015625)"/>
       <path id="DejaVuSans-69" d="M 603 3500 
L 1178 3500 
L 1178 0 
L 603 0 
L 603 3500 
z
M 603 4863 
L 1178 4863 
L 1178 4134 
L 603 4134 
L 603 4863 
z
" transform="scale(0.015625)"/>
       <path id="DejaVuSans-6e" d="M 3513 2113 
L 3513 0 
L 2938 0 
L 2938 2094 
Q 2938 2591 2744 2837 
Q 2550 3084 2163 3084 
Q 1697 3084 1428 2787 
Q 1159 2491 1159 1978 
L 1159 0 
L 581 0 
L 581 3500 
L 1159 3500 
L 1159 2956 
Q 1366 3272 1645 3428 
Q 1925 3584 2291 3584 
Q 2894 3584 3203 3211 
Q 3513 2838 3513 2113 
z
" transform="scale(0.015625)"/>
       <path id="DejaVuSans-74" d="M 1172 4494 
L 1172 3500 
L 2356 3500 
L 2356 3053 
L 1172 3053 
L 1172 1153 
Q 1172 725 1289 603 
Q 1406 481 1766 481 
L 2356 481 
L 2356 0 
L 1766 0 
Q 1100 0 847 248 
Q 594 497 594 1153 
L 594 3053 
L 172 3053 
L 172 3500 
L 594 3500 
L 594 4494 
L 1172 4494 
z
" transform="scale(0.015625)"/>
       <path id="DejaVuSans-65" d="M 3597 1894 
L 3597 1613 
L 953 1613 
Q 991 1019 1311 708 
Q 1631 397 2203 397 
Q 2534 397 2845 478 
Q 3156 559 3463 722 
L 3463 178 
Q 3153 47 2828 -22 
Q 2503 -91 2169 -91 
Q 1331 -91 842 396 
Q 353 884 353 1716 
Q 353 2575 817 3079 
Q 1281 3584 2069 3584 
Q 2775 3584 3186 3129 
Q 3597 2675 3597 1894 
z
M 3022 2063 
Q 3016 2534 2758 2815 
Q 2500 3097 2075 3097 
Q 1594 3097 1305 2825 
Q 1016 2553 972 2059 
L 3022 2063 
z
" transform="scale(0.015625)"/>
       <path id="DejaVuSans-72" d="M 2631 2963 
Q 2534 3019 2420 3045 
Q 2306 3072 2169 3072 
Q 1681 3072 1420 2755 
Q 1159 2438 1159 1844 
L 1159 0 
L 581 0 
L 581 3500 
L 1159 3500 
L 1159 2956 
Q 1341 3275 1631 3429 
Q 1922 3584 2338 3584 
Q 2397 3584 2469 3576 
Q 2541 3569 2628 3553 
L 2631 2963 
z
" transform="scale(0.015625)"/>
       <path id="DejaVuSans-63" d="M 3122 3366 
L 3122 2828 
Q 2878 2963 2633 3030 
Q 2388 3097 2138 3097 
Q 1578 3097 1268 2742 
Q 959 2388 959 1747 
Q 959 1106 1268 751 
Q 1578 397 2138 397 
Q 2388 397 2633 464 
Q 2878 531 3122 666 
L 3122 134 
Q 2881 22 2623 -34 
Q 2366 -91 2075 -91 
Q 1284 -91 818 406 
Q 353 903 353 1747 
Q 353 2603 823 3093 
Q 1294 3584 2113 3584 
Q 2378 3584 2631 3529 
Q 2884 3475 3122 3366 
z
" transform="scale(0.015625)"/>
       <path id="DejaVuSans-70" d="M 1159 525 
L 1159 -1331 
L 581 -1331 
L 581 3500 
L 1159 3500 
L 1159 2969 
Q 1341 3281 1617 3432 
Q 1894 3584 2278 3584 
Q 2916 3584 3314 3078 
Q 3713 2572 3713 1747 
Q 3713 922 3314 415 
Q 2916 -91 2278 -91 
Q 1894 -91 1617 61 
Q 1341 213 1159 525 
z
M 3116 1747 
Q 3116 2381 2855 2742 
Q 2594 3103 2138 3103 
Q 1681 3103 1420 2742 
Q 1159 2381 1159 1747 
Q 1159 1113 1420 752 
Q 1681 391 2138 391 
Q 2594 391 2855 752 
Q 3116 1113 3116 1747 
z
" transform="scale(0.015625)"/>
       <path id="DejaVuSans-29" d="M 513 4856 
L 1013 4856 
Q 1481 4119 1714 3412 
Q 1947 2706 1947 2009 
Q 1947 1309 1714 600 
Q 1481 -109 1013 -844 
L 513 -844 
Q 928 -128 1133 580 
Q 1338 1288 1338 2009 
Q 1338 2731 1133 3434 
Q 928 4138 513 4856 
z
" transform="scale(0.015625)"/>
      </defs>
      <use xlink:href="#DejaVuSans-Oblique-3b8" transform="translate(0 0.234375)"/>
      <use xlink:href="#DejaVuSans-30" transform="translate(61.181641 -16.171875) scale(0.7)"/>
      <use xlink:href="#DejaVuSans-20" transform="translate(108.452148 0.234375)"/>
      <use xlink:href="#DejaVuSans-28" transform="translate(140.239258 0.234375)"/>
      <use xlink:href="#DejaVuSans-69" transform="translate(179.25293 0.234375)"/>
      <use xlink:href="#DejaVuSans-6e" transform="translate(207.036133 0.234375)"/>
      <use xlink:href="#DejaVuSans-74" transform="translate(270.415039 0.234375)"/>
      <use xlink:href="#DejaVuSans-65" transform="translate(309.624023 0.234375)"/>
      <use xlink:href="#DejaVuSans-72" transform="translate(371.147461 0.234375)"/>
      <use xlink:href="#DejaVuSans-63" transform="translate(412.260742 0.234375)"/>
      <use xlink:href="#DejaVuSans-65" transform="translate(467.241211 0.234375)"/>
      <use xlink:href="#DejaVuSans-70" transform="translate(528.764648 0.234375)"/>
      <use xlink:href="#DejaVuSans-74" transform="translate(592.241211 0.234375)"/>
      <use xlink:href="#DejaVuSans-29" transform="translate(631.450195 0.234375)"/>
     </g>
    </g>
   </g>
   <g id="matplotlib.axis_2">
    <g id="ytick_1">
     <g id="line2d_10">
      <defs>
       <path id="mf21283da9b" d="M 0 0 
L -3.5 0 
" style="stroke: #000000; stroke-width: 0.8"/>
      </defs>
      <g>
       <use xlink:href="#mf21283da9b" x="52.282813" y="240.16" style="stroke: #000000; stroke-width: 0.8"/>
      </g>
     </g>
     <g id="text_11">
      <!-- −0.2 -->
      <g transform="translate(21 243.959219) scale(0.1 -0.1)">
       <use xlink:href="#DejaVuSans-2212"/>
       <use xlink:href="#DejaVuSans-30" transform="translate(83.789062 0)"/>
       <use xlink:href="#DejaVuSans-2e" transform="translate(147.412109 0)"/>
       <use xlink:href="#DejaVuSans-32" transform="translate(179.199219 0)"/>
      </g>
     </g>
    </g>
    <g id="ytick_2">
     <g id="line2d_11">
      <g>
       <use xlink:href="#mf21283da9b" x="52.282813" y="215.968889" style="stroke: #000000; stroke-width: 0.8"/>
      </g>
     </g>
     <g id="text_12">
      <!-- 0.0 -->
      <g transform="translate(29.379688 219.768108) scale(0.1 -0.1)">
       <use xlink:href="#DejaVuSans-30"/>
       <use xlink:href="#DejaVuSans-2e" transform="translate(63.623047 0)"/>
       <use xlink:href="#DejaVuSans-30" transform="translate(95.410156 0)"/>
      </g>
     </g>
    </g>
    <g id="ytick_3">
     <g id="line2d_12">
      <g>
       <use xlink:href="#mf21283da9b" x="52.282813" y="191.777778" style="stroke: #000000; stroke-width: 0.8"/>
      </g>
     </g>
     <g id="text_13">
      <!-- 0.2 -->
      <g transform="translate(29.379688 195.576997) scale(0.1 -0.1)">
       <use xlink:href="#DejaVuSans-30"/>
       <use xlink:href="#DejaVuSans-2e" transform="translate(63.623047 0)"/>
       <use xlink:href="#DejaVuSans-32" transform="translate(95.410156 0)"/>
      </g>
     </g>
    </g>
    <g id="ytick_4">
     <g id="line2d_13">
      <g>
       <use xlink:href="#mf21283da9b" x="52.282813" y="167.586667" style="stroke: #000000; stroke-width: 0.8"/>
      </g>
     </g>
     <g id="text_14">
      <!-- 0.4 -->
      <g transform="translate(29.379688 171.385885) scale(0.1 -0.1)">
       <defs>
        <path id="DejaVuSans-34" d="M 2419 4116 
L 825 1625 
L 2419 1625 
L 2419 4116 
z
M 2253 4666 
L 3047 4666 
L 3047 1625 
L 3713 1625 
L 3713 1100 
L 3047 1100 
L 3047 0 
L 2419 0 
L 2419 1100 
L 313 1100 
L 313 1709 
L 2253 4666 
z
" transform="scale(0.015625)"/>
       </defs>
       <use xlink:href="#DejaVuSans-30"/>
       <use xlink:href="#DejaVuSans-2e" transform="translate(63.623047 0)"/>
       <use xlink:href="#DejaVuSans-34" transform="translate(95.410156 0)"/>
      </g>
     </g>
    </g>
    <g id="ytick_5">
     <g id="line2d_14">
      <g>
       <use xlink:href="#mf21283da9b" x="52.282813" y="143.395556" style="stroke: #000000; stroke-width: 0.8"/>
      </g>
     </g>
     <g id="text_15">
      <!-- 0.6 -->
      <g transform="translate(29.379688 147.194774) scale(0.1 -0.1)">
       <defs>
        <path id="DejaVuSans-36" d="M 2113 2584 
Q 1688 2584 1439 2293 
Q 1191 2003 1191 1497 
Q 1191 994 1439 701 
Q 1688 409 2113 409 
Q 2538 409 2786 701 
Q 3034 994 3034 1497 
Q 3034 2003 2786 2293 
Q 2538 2584 2113 2584 
z
M 3366 4563 
L 3366 3988 
Q 3128 4100 2886 4159 
Q 2644 4219 2406 4219 
Q 1781 4219 1451 3797 
Q 1122 3375 1075 2522 
Q 1259 2794 1537 2939 
Q 1816 3084 2150 3084 
Q 2853 3084 3261 2657 
Q 3669 2231 3669 1497 
Q 3669 778 3244 343 
Q 2819 -91 2113 -91 
Q 1303 -91 875 529 
Q 447 1150 447 2328 
Q 447 3434 972 4092 
Q 1497 4750 2381 4750 
Q 2619 4750 2861 4703 
Q 3103 4656 3366 4563 
z
" transform="scale(0.015625)"/>
       </defs>
       <use xlink:href="#DejaVuSans-30"/>
       <use xlink:href="#DejaVuSans-2e" transform="translate(63.623047 0)"/>
       <use xlink:href="#DejaVuSans-36" transform="translate(95.410156 0)"/>
      </g>
     </g>
    </g>
    <g id="ytick_6">
     <g id="line2d_15">
      <g>
       <use xlink:href="#mf21283da9b" x="52.282813" y="119.204444" style="stroke: #000000; stroke-width: 0.8"/>
      </g>
     </g>
     <g id="text_16">
      <!-- 0.8 -->
      <g transform="translate(29.379688 123.003663) scale(0.1 -0.1)">
       <defs>
        <path id="DejaVuSans-38" d="M 2034 2216 
Q 1584 2216 1326 1975 
Q 1069 1734 1069 1313 
Q 1069 891 1326 650 
Q 1584 409 2034 409 
Q 2484 409 2743 651 
Q 3003 894 3003 1313 
Q 3003 1734 2745 1975 
Q 2488 2216 2034 2216 
z
M 1403 2484 
Q 997 2584 770 2862 
Q 544 3141 544 3541 
Q 544 4100 942 4425 
Q 1341 4750 2034 4750 
Q 2731 4750 3128 4425 
Q 3525 4100 3525 3541 
Q 3525 3141 3298 2862 
Q 3072 2584 2669 2484 
Q 3125 2378 3379 2068 
Q 3634 1759 3634 1313 
Q 3634 634 3220 271 
Q 2806 -91 2034 -91 
Q 1263 -91 848 271 
Q 434 634 434 1313 
Q 434 1759 690 2068 
Q 947 2378 1403 2484 
z
M 1172 3481 
Q 1172 3119 1398 2916 
Q 1625 2713 2034 2713 
Q 2441 2713 2670 2916 
Q 2900 3119 2900 3481 
Q 2900 3844 2670 4047 
Q 2441 4250 2034 4250 
Q 1625 4250 1398 4047 
Q 1172 3844 1172 3481 
z
" transform="scale(0.015625)"/>
       </defs>
       <use xlink:href="#DejaVuSans-30"/>
       <use xlink:href="#DejaVuSans-2e" transform="translate(63.623047 0)"/>
       <use xlink:href="#DejaVuSans-38" transform="translate(95.410156 0)"/>
      </g>
     </g>
    </g>
    <g id="ytick_7">
     <g id="line2d_16">
      <g>
       <use xlink:href="#mf21283da9b" x="52.282813" y="95.013333" style="stroke: #000000; stroke-width: 0.8"/>
      </g>
     </g>
     <g id="text_17">
      <!-- 1.0 -->
      <g transform="translate(29.379688 98.812552) scale(0.1 -0.1)">
       <use xlink:href="#DejaVuSans-31"/>
       <use xlink:href="#DejaVuSans-2e" transform="translate(63.623047 0)"/>
       <use xlink:href="#DejaVuSans-30" transform="translate(95.410156 0)"/>
      </g>
     </g>
    </g>
    <g id="ytick_8">
     <g id="line2d_17">
      <g>
       <use xlink:href="#mf21283da9b" x="52.282813" y="70.822222" style="stroke: #000000; stroke-width: 0.8"/>
      </g>
     </g>
     <g id="text_18">
      <!-- 1.2 -->
      <g transform="translate(29.379688 74.621441) scale(0.1 -0.1)">
       <use xlink:href="#DejaVuSans-31"/>
       <use xlink:href="#DejaVuSans-2e" transform="translate(63.623047 0)"/>
       <use xlink:href="#DejaVuSans-32" transform="translate(95.410156 0)"/>
      </g>
     </g>
    </g>
    <g id="ytick_9">
     <g id="line2d_18">
      <g>
       <use xlink:href="#mf21283da9b" x="52.282813" y="46.631111" style="stroke: #000000; stroke-width: 0.8"/>
      </g>
     </g>
     <g id="text_19">
      <!-- 1.4 -->
      <g transform="translate(29.379688 50.43033) scale(0.1 -0.1)">
       <use xlink:href="#DejaVuSans-31"/>
       <use xlink:href="#DejaVuSans-2e" transform="translate(63.623047 0)"/>
       <use xlink:href="#DejaVuSans-34" transform="translate(95.410156 0)"/>
      </g>
     </g>
    </g>
    <g id="ytick_10">
     <g id="line2d_19">
      <g>
       <use xlink:href="#mf21283da9b" x="52.282813" y="22.44" style="stroke: #000000; stroke-width: 0.8"/>
      </g>
     </g>
     <g id="text_20">
      <!-- 1.6 -->
      <g transform="translate(29.379688 26.239219) scale(0.1 -0.1)">
       <use xlink:href="#DejaVuSans-31"/>
       <use xlink:href="#DejaVuSans-2e" transform="translate(63.623047 0)"/>
       <use xlink:href="#DejaVuSans-36" transform="translate(95.410156 0)"/>
      </g>
     </g>
    </g>
    <g id="text_21">
     <!-- $\theta_1$ (slope) -->
     <g transform="translate(14.9 155.55) rotate(-90) scale(0.1 -0.1)">
      <defs>
       <path id="DejaVuSans-73" d="M 2834 3397 
L 2834 2853 
Q 2591 2978 2328 3040 
Q 2066 3103 1784 3103 
Q 1356 3103 1142 2972 
Q 928 2841 928 2578 
Q 928 2378 1081 2264 
Q 1234 2150 1697 2047 
L 1894 2003 
Q 2506 1872 2764 1633 
Q 3022 1394 3022 966 
Q 3022 478 2636 193 
Q 2250 -91 1575 -91 
Q 1294 -91 989 -36 
Q 684 19 347 128 
L 347 722 
Q 666 556 975 473 
Q 1284 391 1588 391 
Q 1994 391 2212 530 
Q 2431 669 2431 922 
Q 2431 1156 2273 1281 
Q 2116 1406 1581 1522 
L 1381 1569 
Q 847 1681 609 1914 
Q 372 2147 372 2553 
Q 372 3047 722 3315 
Q 1072 3584 1716 3584 
Q 2034 3584 2315 3537 
Q 2597 3491 2834 3397 
z
" transform="scale(0.015625)"/>
       <path id="DejaVuSans-6c" d="M 603 4863 
L 1178 4863 
L 1178 0 
L 603 0 
L 603 4863 
z
" transform="scale(0.015625)"/>
       <path id="DejaVuSans-6f" d="M 1959 3097 
Q 1497 3097 1228 2736 
Q 959 2375 959 1747 
Q 959 1119 1226 758 
Q 1494 397 1959 397 
Q 2419 397 2687 759 
Q 2956 1122 2956 1747 
Q 2956 2369 2687 2733 
Q 2419 3097 1959 3097 
z
M 1959 3584 
Q 2709 3584 3137 3096 
Q 3566 2609 3566 1747 
Q 3566 888 3137 398 
Q 2709 -91 1959 -91 
Q 1206 -91 779 398 
Q 353 888 353 1747 
Q 353 2609 779 3096 
Q 1206 3584 1959 3584 
z
" transform="scale(0.015625)"/>
      </defs>
      <use xlink:href="#DejaVuSans-Oblique-3b8" transform="translate(0 0.234375)"/>
      <use xlink:href="#DejaVuSans-31" transform="translate(61.181641 -16.171875) scale(0.7)"/>
      <use xlink:href="#DejaVuSans-20" transform="translate(108.452148 0.234375)"/>
      <use xlink:href="#DejaVuSans-28" transform="translate(140.239258 0.234375)"/>
      <use xlink:href="#DejaVuSans-73" transform="translate(179.25293 0.234375)"/>
      <use xlink:href="#DejaVuSans-6c" transform="translate(231.352539 0.234375)"/>
      <use xlink:href="#DejaVuSans-6f" transform="translate(259.135742 0.234375)"/>
      <use xlink:href="#DejaVuSans-70" transform="translate(320.317383 0.234375)"/>
      <use xlink:href="#DejaVuSans-65" transform="translate(383.793945 0.234375)"/>
      <use xlink:href="#DejaVuSans-29" transform="translate(445.317383 0.234375)"/>
     </g>
    </g>
   </g>
   <g id="QuadContourSet_1">
    <path d="M 213.103541 128.564824 
L 213.103541 128.564824 
L 213.103541 128.564824 
L 213.103541 128.564824 
L 213.103541 128.564824 
z
" clip-path="url(#p0641d902bf)" style="fill: none; stroke: #440154; stroke-width: 1.5"/>
    <path d="M 407.875312 179.534327 
L 400.727725 179.636508 
L 391.79324 179.478149 
L 382.858755 179.096078 
L 372.137373 178.402877 
L 359.629094 177.354668 
L 345.333918 175.902811 
L 332.825639 174.451405 
L 314.956669 172.119827 
L 295.300802 169.266057 
L 279.977227 166.857286 
L 257.775966 163.094518 
L 238.120099 159.525507 
L 222.038026 156.441293 
L 203.115519 152.634372 
L 177.365601 147.125559 
L 152.349044 141.399855 
L 132.693177 136.626547 
L 118.200476 132.941106 
L 96.955237 127.225181 
L 80.873164 122.619611 
L 68.364885 118.840381 
L 59.4304 116.001418 
L 52.282813 113.640606 
M 52.282813 79.281935 
L 63.004194 80.065391 
L 75.512473 81.194373 
L 88.900725 82.613869 
L 105.889722 84.687565 
L 120.184898 86.629417 
L 136.266971 88.994468 
L 151.303313 91.366432 
L 173.791807 95.18872 
L 191.660777 98.434503 
L 211.316644 102.209334 
L 227.398717 105.461105 
L 243.560948 108.871558 
L 268.497348 114.432224 
L 291.727008 119.952593 
L 313.169772 125.370871 
L 333.187723 130.752965 
L 352.481506 136.300368 
L 368.563579 141.266815 
L 377.498064 144.190534 
L 388.219446 147.905237 
L 395.367034 150.532369 
L 404.301519 154.068191 
L 407.875312 155.577777 
L 407.875312 155.577777 
" clip-path="url(#p0641d902bf)" style="fill: none; stroke: #481467; stroke-width: 1.5"/>
    <path d="M 407.875312 196.235504 
L 389.473448 194.209045 
L 368.563579 191.612162 
L 347.515281 188.738693 
L 325.37263 185.456482 
L 298.874596 181.217495 
L 278.780993 177.79799 
L 250.628378 172.718684 
L 230.972511 168.988915 
L 202.382159 163.28585 
L 177.365601 158.036198 
L 148.77525 151.724405 
L 130.90628 147.60489 
L 113.03731 143.34593 
L 93.061158 138.411457 
L 66.577988 131.544409 
L 52.282813 127.673197 
M 52.282813 65.25518 
L 73.725576 68.068253 
L 91.594546 70.606879 
L 116.611104 74.441507 
L 138.053868 77.955435 
L 157.709735 81.351571 
L 177.365601 84.907963 
L 205.955953 90.357656 
L 234.546305 96.131508 
L 258.505414 101.213065 
L 288.153215 107.827559 
L 315.831545 114.34191 
L 342.304973 120.906332 
L 367.418206 127.470754 
L 391.79324 134.206425 
L 407.875312 138.880514 
L 407.875312 138.880514 
" clip-path="url(#p0641d902bf)" style="fill: none; stroke: #482576; stroke-width: 1.5"/>
    <path d="M 407.875312 206.305007 
L 388.219446 203.688337 
L 364.989785 200.371876 
L 341.760124 196.831255 
L 318.530463 193.086599 
L 288.153215 187.891893 
L 266.710451 184.036612 
L 239.304359 178.89206 
L 207.74285 172.662642 
L 184.862321 167.951357 
L 154.135941 161.35423 
L 123.758692 154.520211 
L 96.955237 148.226041 
L 68.364885 141.209142 
L 52.282813 137.119822 
M 52.282813 55.810726 
L 73.725576 58.953989 
L 98.742134 62.852366 
L 120.184898 66.383442 
L 148.77525 71.342845 
L 170.218014 75.242283 
L 198.808365 80.67517 
L 227.398717 86.371805 
L 252.415275 91.569306 
L 281.78411 97.930854 
L 313.169772 105.054635 
L 334.612536 110.118035 
L 361.415991 116.693872 
L 386.432549 123.094598 
L 407.875312 128.810402 
L 407.875312 128.810402 
" clip-path="url(#p0641d902bf)" style="fill: none; stroke: #453781; stroke-width: 1.5"/>
    <path d="M 407.875312 214.248298 
L 386.432549 211.151072 
L 361.415991 207.334134 
L 331.038742 202.414205 
L 306.022184 198.149585 
L 277.781069 193.114975 
L 247.054584 187.373575 
L 216.677335 181.439417 
L 193.31331 176.70392 
L 159.496632 169.574079 
L 134.480074 164.092943 
L 109.463516 158.429304 
L 88.020752 153.423323 
L 61.217297 146.960251 
L 52.282813 144.752247 
M 52.282813 48.177874 
L 77.29937 52.064388 
L 107.676619 57.061088 
L 130.90628 61.071276 
L 159.496632 66.221969 
L 193.447674 72.643582 
L 216.677335 77.221388 
L 248.841481 83.807669 
L 281.005627 90.685078 
L 308.683238 96.836784 
L 341.777934 104.495276 
L 373.92427 112.268218 
L 402.514622 119.47983 
L 407.875312 120.862954 
L 407.875312 120.862954 
" clip-path="url(#p0641d902bf)" style="fill: none; stroke: #404688; stroke-width: 1.5"/>
    <path d="M 407.875312 221.025706 
L 382.572188 217.184523 
L 350.694609 212.067876 
L 325.678051 207.853611 
L 297.797006 202.961608 
L 264.923554 196.930378 
L 236.333202 191.46532 
L 207.74285 185.797362 
L 182.726292 180.671084 
L 153.635847 174.515779 
L 118.398001 166.768123 
L 84.446958 158.993368 
L 53.130453 151.540302 
L 52.282813 151.333311 
M 52.282813 41.596787 
L 79.086267 45.910368 
L 107.676619 50.732173 
L 133.423267 55.262111 
L 166.64422 61.36345 
L 193.447674 66.486699 
L 225.61182 72.869913 
L 259.562863 79.889203 
L 287.581358 85.89608 
L 322.104257 93.577617 
L 356.0553 101.444281 
L 386.432549 108.756758 
L 407.875312 114.087033 
L 407.875312 114.087033 
" clip-path="url(#p0641d902bf)" style="fill: none; stroke: #39558c; stroke-width: 1.5"/>
    <path d="M 407.875312 227.038588 
L 382.858755 223.117912 
L 356.0553 218.735985 
L 327.464948 213.864174 
L 291.727008 207.493153 
L 264.923554 202.518111 
L 234.546305 196.682417 
L 207.74285 191.358616 
L 178.928168 185.456482 
L 141.627662 177.530441 
L 108.131213 170.139497 
L 73.725576 162.263497 
L 52.282813 157.205456 
M 52.282813 35.723343 
L 84.446958 41.039661 
L 120.184898 47.251408 
L 146.988353 52.107451 
L 181.18055 58.544322 
L 218.464232 65.869353 
L 245.267687 71.328506 
L 272.983245 77.143518 
L 309.595978 85.100911 
L 342.238074 92.460503 
L 377.498064 100.710731 
L 402.514622 106.757282 
L 407.875312 108.07688 
L 407.875312 108.07688 
" clip-path="url(#p0641d902bf)" style="fill: none; stroke: #33638d; stroke-width: 1.5"/>
    <path d="M 407.875312 232.494864 
L 373.92427 227.018872 
L 338.18633 220.958727 
L 309.595978 215.905867 
L 273.858039 209.338106 
L 238.120099 202.497539 
L 205.955953 196.112826 
L 172.00491 189.137285 
L 143.414559 183.075363 
L 109.28752 175.609849 
L 71.938679 167.141574 
L 52.282813 162.558591 
M 52.282813 30.371554 
L 84.446958 35.777435 
L 118.398001 41.739329 
L 146.988353 46.955397 
L 179.378894 53.07397 
L 218.357947 60.732462 
L 255.809489 68.390955 
L 291.891508 76.049447 
L 329.251845 84.276905 
L 357.842197 90.780692 
L 386.432549 97.472915 
L 407.875312 102.6205 
L 407.875312 102.6205 
" clip-path="url(#p0641d902bf)" style="fill: none; stroke: #2d718e; stroke-width: 1.5"/>
    <path d="M 407.875312 237.524924 
L 375.711167 232.256356 
L 341.760124 226.449332 
L 311.382875 221.049453 
L 278.510299 214.996382 
L 239.906996 207.610213 
L 210.889766 201.867538 
L 172.00491 193.910022 
L 137.263643 186.550553 
L 98.742134 178.103718 
L 70.151782 171.637166 
L 52.282813 167.50736 
M 52.282813 25.421334 
L 80.873164 30.277994 
L 117.012456 36.662915 
L 154.135941 43.501158 
L 189.87388 50.34256 
L 222.038026 56.713776 
L 255.989069 63.65923 
L 284.579421 69.683748 
L 320.31736 77.445533 
L 354.268403 85.061055 
L 388.219446 92.921848 
L 407.875312 97.588384 
L 407.875312 97.588384 
" clip-path="url(#p0641d902bf)" style="fill: none; stroke: #287d8e; stroke-width: 1.5"/>
    <path d="M 395.312205 240.16 
L 357.842197 233.819775 
L 327.464948 228.474736 
L 297.087699 222.951873 
L 266.337382 217.184523 
L 226.888826 209.52603 
L 186.300086 201.344186 
L 154.135941 194.645219 
L 123.758692 188.140457 
L 91.669703 181.080201 
L 53.111883 172.327638 
L 52.282813 172.135313 
M 61.982551 22.44 
L 99.595691 29.004422 
L 138.053868 36.001563 
L 172.00491 42.409149 
L 207.74285 49.386345 
L 238.120099 55.501807 
L 275.644936 63.293151 
L 309.649619 70.579095 
L 349.192856 79.331658 
L 388.219446 88.273118 
L 407.875312 92.894768 
L 407.875312 92.894768 
" clip-path="url(#p0641d902bf)" style="fill: none; stroke: #238a8d; stroke-width: 1.5"/>
    <path d="M 369.448019 240.16 
L 331.038742 233.406551 
L 293.513905 226.5477 
L 259.562863 220.125935 
L 222.114929 212.808241 
L 182.726292 204.842964 
L 145.201456 197.00178 
L 111.250413 189.692696 
L 71.938679 180.966763 
L 52.282813 176.495303 
M 86.848969 22.44 
L 125.545589 29.4284 
L 161.283529 36.120634 
L 195.234571 42.68754 
L 229.185614 49.45649 
L 259.562863 55.684687 
L 295.300802 63.219983 
L 331.038742 70.984368 
L 364.989785 78.576639 
L 398.940828 86.386746 
L 407.875312 88.479001 
L 407.875312 88.479001 
" clip-path="url(#p0641d902bf)" style="fill: none; stroke: #1f968b; stroke-width: 1.5"/>
    <path d="M 345.981792 240.16 
L 306.022184 232.917585 
L 273.858039 226.891181 
L 234.546305 219.287817 
L 193.447674 211.060894 
L 159.496632 204.05419 
L 116.611104 194.921762 
L 80.873164 187.071231 
L 52.282813 180.629177 
M 109.562727 22.44 
L 150.825382 30.098492 
L 191.660777 37.96219 
L 230.972511 45.795877 
L 266.710451 53.140048 
L 307.809081 61.853071 
L 348.907712 70.857025 
L 386.432549 79.335351 
L 407.875312 84.297291 
L 407.875312 84.297291 
" clip-path="url(#p0641d902bf)" style="fill: none; stroke: #20a386; stroke-width: 1.5"/>
    <path d="M 324.350021 240.16 
L 283.104847 232.501508 
L 241.693893 224.533701 
L 202.382159 216.716252 
L 166.64422 209.395989 
L 125.545589 200.722631 
L 84.446958 191.771755 
L 52.282813 184.5705 
M 130.599686 22.44 
L 172.00491 30.293249 
L 211.316644 38.004042 
L 250.628378 45.962466 
L 286.366318 53.411965 
L 323.891154 61.457257 
L 356.0553 68.537351 
L 395.367034 77.429859 
L 407.875312 80.314592 
L 407.875312 80.314592 
" clip-path="url(#p0641d902bf)" style="fill: none; stroke: #29af7f; stroke-width: 1.5"/>
    <path d="M 304.179287 240.16 
L 261.34976 232.041401 
L 223.824923 224.697395 
L 181.191062 216.090452 
L 139.196636 207.337889 
L 96.955237 198.255308 
L 58.903503 189.832764 
L 52.282813 188.34183 
M 150.285629 22.44 
L 191.660777 30.430758 
L 230.972511 38.266274 
L 266.710451 45.594813 
L 307.809081 54.267545 
L 348.907712 63.206601 
L 386.739531 71.673166 
L 407.875312 76.50797 
L 407.875312 76.50797 
" clip-path="url(#p0641d902bf)" style="fill: none; stroke: #3dbc74; stroke-width: 1.5"/>
    <path d="M 285.210474 240.16 
L 241.693893 231.769532 
L 206.811913 224.843015 
L 163.070426 215.900364 
L 121.971795 207.239163 
L 79.086267 197.927737 
L 52.282813 191.965977 
M 168.85093 22.44 
L 213.428812 31.192563 
L 257.775966 40.192949 
L 298.874596 48.793744 
L 341.760124 58.041321 
L 377.498064 65.961955 
L 407.875313 72.852186 
L 407.875313 72.852186 
" clip-path="url(#p0641d902bf)" style="fill: none; stroke: #56c667; stroke-width: 1.5"/>
    <path d="M 267.249014 240.16 
L 223.824923 231.66539 
L 188.086983 224.472319 
L 147.537191 216.090452 
L 104.102825 206.84611 
L 66.335844 198.585327 
L 52.282813 195.455985 
M 186.468486 22.44 
L 230.972511 31.295951 
L 273.858039 40.097963 
L 316.743566 49.165686 
L 354.866526 57.450251 
L 398.940828 67.300125 
L 407.875312 69.333708 
L 407.875312 69.333708 
" clip-path="url(#p0641d902bf)" style="fill: none; stroke: #75d054; stroke-width: 1.5"/>
    <path d="M 250.150465 240.16 
L 204.169056 231.041452 
L 163.070426 222.645406 
L 116.611104 212.869063 
L 80.873164 205.141991 
L 52.282813 198.827191 
M 203.26853 22.44 
L 248.841481 31.620191 
L 288.993219 39.945126 
L 334.612536 49.679565 
L 370.072963 57.450251 
L 407.875312 65.937082 
L 407.875312 65.937082 
" clip-path="url(#p0641d902bf)" style="fill: none; stroke: #95d840; stroke-width: 1.5"/>
    <path d="M 233.801491 240.16 
L 188.086983 230.992496 
L 146.988353 222.512206 
L 102.315928 213.033569 
L 66.10453 205.149749 
L 52.282813 202.091204 
M 219.356872 22.44 
L 264.923554 31.715511 
L 304.256639 39.945126 
L 350.694609 49.935535 
L 394.521382 59.638392 
L 407.875312 62.650016 
L 407.875312 62.650016 
" clip-path="url(#p0641d902bf)" style="fill: none; stroke: #bade28; stroke-width: 1.5"/>
    <path d="M 218.110655 240.16 
L 172.00491 230.819006 
L 132.693177 222.636776 
L 86.233855 212.701311 
L 52.282813 205.257687 
M 234.816869 22.44 
L 281.005627 31.932674 
L 318.530463 39.849745 
L 354.447972 47.603618 
L 400.727725 57.853897 
L 407.875312 59.462566 
L 407.875312 59.462566 
" clip-path="url(#p0641d902bf)" style="fill: none; stroke: #dde318; stroke-width: 1.5"/>
    <path d="M 203.005368 240.16 
L 155.922838 230.531551 
L 118.392162 222.654874 
L 71.938679 212.651593 
L 52.282813 208.334225 
M 249.715537 22.44 
L 297.208279 32.286633 
L 343.547021 42.173874 
L 390.006343 52.369636 
L 407.875312 56.36605 
L 407.875312 56.36605 
" clip-path="url(#p0641d902bf)" style="fill: none; stroke: #fde725; stroke-width: 1.5"/>
   </g>
   <g id="patch_3">
    <path d="M 52.282813 240.16 
L 52.282813 22.44 
" style="fill: none; stroke: #000000; stroke-width: 0.8; stroke-linejoin: miter; stroke-linecap: square"/>
   </g>
   <g id="patch_4">
    <path d="M 407.875312 240.16 
L 407.875312 22.44 
" style="fill: none; stroke: #000000; stroke-width: 0.8; stroke-linejoin: miter; stroke-linecap: square"/>
   </g>
   <g id="patch_5">
    <path d="M 52.282813 240.16 
L 407.875312 240.16 
" style="fill: none; stroke: #000000; stroke-width: 0.8; stroke-linejoin: miter; stroke-linecap: square"/>
   </g>
   <g id="patch_6">
    <path d="M 52.282813 22.44 
L 407.875312 22.44 
" style="fill: none; stroke: #000000; stroke-width: 0.8; stroke-linejoin: miter; stroke-linecap: square"/>
   </g>
   <g id="text_22">
    <!-- Cost surface $J(\theta_0, \theta_1)$ -->
    <g transform="translate(168.159063 16.44) scale(0.12 -0.12)">
     <defs>
      <path id="DejaVuSans-43" d="M 4122 4306 
L 4122 3641 
Q 3803 3938 3442 4084 
Q 3081 4231 2675 4231 
Q 1875 4231 1450 3742 
Q 1025 3253 1025 2328 
Q 1025 1406 1450 917 
Q 1875 428 2675 428 
Q 3081 428 3442 575 
Q 3803 722 4122 1019 
L 4122 359 
Q 3791 134 3420 21 
Q 3050 -91 2638 -91 
Q 1578 -91 968 557 
Q 359 1206 359 2328 
Q 359 3453 968 4101 
Q 1578 4750 2638 4750 
Q 3056 4750 3426 4639 
Q 3797 4528 4122 4306 
z
" transform="scale(0.015625)"/>
      <path id="DejaVuSans-75" d="M 544 1381 
L 544 3500 
L 1119 3500 
L 1119 1403 
Q 1119 906 1312 657 
Q 1506 409 1894 409 
Q 2359 409 2629 706 
Q 2900 1003 2900 1516 
L 2900 3500 
L 3475 3500 
L 3475 0 
L 2900 0 
L 2900 538 
Q 2691 219 2414 64 
Q 2138 -91 1772 -91 
Q 1169 -91 856 284 
Q 544 659 544 1381 
z
M 1991 3584 
L 1991 3584 
z
" transform="scale(0.015625)"/>
      <path id="DejaVuSans-66" d="M 2375 4863 
L 2375 4384 
L 1825 4384 
Q 1516 4384 1395 4259 
Q 1275 4134 1275 3809 
L 1275 3500 
L 2222 3500 
L 2222 3053 
L 1275 3053 
L 1275 0 
L 697 0 
L 697 3053 
L 147 3053 
L 147 3500 
L 697 3500 
L 697 3744 
Q 697 4328 969 4595 
Q 1241 4863 1831 4863 
L 2375 4863 
z
" transform="scale(0.015625)"/>
      <path id="DejaVuSans-61" d="M 2194 1759 
Q 1497 1759 1228 1600 
Q 959 1441 959 1056 
Q 959 750 1161 570 
Q 1363 391 1709 391 
Q 2188 391 2477 730 
Q 2766 1069 2766 1631 
L 2766 1759 
L 2194 1759 
z
M 3341 1997 
L 3341 0 
L 2766 0 
L 2766 531 
Q 2569 213 2275 61 
Q 1981 -91 1556 -91 
Q 1019 -91 701 211 
Q 384 513 384 1019 
Q 384 1609 779 1909 
Q 1175 2209 1959 2209 
L 2766 2209 
L 2766 2266 
Q 2766 2663 2505 2880 
Q 2244 3097 1772 3097 
Q 1472 3097 1187 3025 
Q 903 2953 641 2809 
L 641 3341 
Q 956 3463 1253 3523 
Q 1550 3584 1831 3584 
Q 2591 3584 2966 3190 
Q 3341 2797 3341 1997 
z
" transform="scale(0.015625)"/>
      <path id="DejaVuSans-Oblique-4a" d="M 1069 4666 
L 1703 4666 
L 856 325 
Q 691 -522 298 -901 
Q -94 -1281 -800 -1281 
L -1050 -1281 
L -947 -750 
L -750 -750 
Q -328 -750 -109 -509 
Q 109 -269 225 325 
L 1069 4666 
z
" transform="scale(0.015625)"/>
      <path id="DejaVuSans-2c" d="M 750 794 
L 1409 794 
L 1409 256 
L 897 -744 
L 494 -744 
L 750 256 
L 750 794 
z
" transform="scale(0.015625)"/>
     </defs>
     <use xlink:href="#DejaVuSans-43" transform="translate(0 0.234375)"/>
     <use xlink:href="#DejaVuSans-6f" transform="translate(69.824219 0.234375)"/>
     <use xlink:href="#DejaVuSans-73" transform="translate(131.005859 0.234375)"/>
     <use xlink:href="#DejaVuSans-74" transform="translate(183.105469 0.234375)"/>
     <use xlink:href="#DejaVuSans-20" transform="translate(222.314453 0.234375)"/>
     <use xlink:href="#DejaVuSans-73" transform="translate(254.101562 0.234375)"/>
     <use xlink:href="#DejaVuSans-75" transform="translate(306.201172 0.234375)"/>
     <use xlink:href="#DejaVuSans-72" transform="translate(369.580078 0.234375)"/>
     <use xlink:href="#DejaVuSans-66" transform="translate(410.693359 0.234375)"/>
     <use xlink:href="#DejaVuSans-61" transform="translate(445.898438 0.234375)"/>
     <use xlink:href="#DejaVuSans-63" transform="translate(507.177734 0.234375)"/>
     <use xlink:href="#DejaVuSans-65" transform="translate(562.158203 0.234375)"/>
     <use xlink:href="#DejaVuSans-20" transform="translate(623.681641 0.234375)"/>
     <use xlink:href="#DejaVuSans-Oblique-4a" transform="translate(655.46875 0.234375)"/>
     <use xlink:href="#DejaVuSans-28" transform="translate(684.960938 0.234375)"/>
     <use xlink:href="#DejaVuSans-Oblique-3b8" transform="translate(723.974609 0.234375)"/>
     <use xlink:href="#DejaVuSans-30" transform="translate(785.15625 -16.171875) scale(0.7)"/>
     <use xlink:href="#DejaVuSans-2c" transform="translate(832.426758 0.234375)"/>
     <use xlink:href="#DejaVuSans-Oblique-3b8" transform="translate(883.696289 0.234375)"/>
     <use xlink:href="#DejaVuSans-31" transform="translate(944.87793 -16.171875) scale(0.7)"/>
     <use xlink:href="#DejaVuSans-29" transform="translate(992.148438 0.234375)"/>
    </g>
   </g>
   <g id="PathCollection_1">
    <defs>
     <path id="ma35fe38ef4" d="M 0 4.1833 
C 1.109424 4.1833 2.173559 3.742521 2.95804 2.95804 
C 3.742521 2.173559 4.1833 1.109424 4.1833 0 
C 4.1833 -1.109424 3.742521 -2.173559 2.95804 -2.95804 
C 2.173559 -3.742521 1.109424 -4.1833 0 -4.1833 
C -1.109424 -4.1833 -2.173559 -3.742521 -2.95804 -2.95804 
C -3.742521 -2.173559 -4.1833 -1.109424 -4.1833 0 
C -4.1833 1.109424 -3.742521 2.173559 -2.95804 2.95804 
C -2.173559 3.742521 -1.109424 4.1833 0 4.1833 
z
" style="stroke: #d62728"/>
    </defs>
    <g clip-path="url(#p0641d902bf)">
     <use xlink:href="#ma35fe38ef4" x="215.31629" y="129.059181" style="fill: #d62728; stroke: #d62728"/>
    </g>
   </g>
   <g id="legend_1">
    <g id="patch_7">
     <path d="M 323.890937 45.118125 
L 400.875312 45.118125 
Q 402.875312 45.118125 402.875312 43.118125 
L 402.875312 29.44 
Q 402.875312 27.44 400.875312 27.44 
L 323.890937 27.44 
Q 321.890937 27.44 321.890937 29.44 
L 321.890937 43.118125 
Q 321.890937 45.118125 323.890937 45.118125 
z
" style="fill: #ffffff; opacity: 0.8; stroke: #cccccc; stroke-linejoin: miter"/>
    </g>
    <g id="PathCollection_2">
     <g>
      <use xlink:href="#ma35fe38ef4" x="335.890937" y="36.413437" style="fill: #d62728; stroke: #d62728"/>
     </g>
    </g>
    <g id="text_23">
     <!-- optimum -->
     <g transform="translate(353.890937 39.038437) scale(0.1 -0.1)">
      <defs>
       <path id="DejaVuSans-6d" d="M 3328 2828 
Q 3544 3216 3844 3400 
Q 4144 3584 4550 3584 
Q 5097 3584 5394 3201 
Q 5691 2819 5691 2113 
L 5691 0 
L 5113 0 
L 5113 2094 
Q 5113 2597 4934 2840 
Q 4756 3084 4391 3084 
Q 3944 3084 3684 2787 
Q 3425 2491 3425 1978 
L 3425 0 
L 2847 0 
L 2847 2094 
Q 2847 2600 2669 2842 
Q 2491 3084 2119 3084 
Q 1678 3084 1418 2786 
Q 1159 2488 1159 1978 
L 1159 0 
L 581 0 
L 581 3500 
L 1159 3500 
L 1159 2956 
Q 1356 3278 1631 3431 
Q 1906 3584 2284 3584 
Q 2666 3584 2933 3390 
Q 3200 3197 3328 2828 
z
" transform="scale(0.015625)"/>
      </defs>
      <use xlink:href="#DejaVuSans-6f"/>
      <use xlink:href="#DejaVuSans-70" transform="translate(61.181641 0)"/>
      <use xlink:href="#DejaVuSans-74" transform="translate(124.658203 0)"/>
      <use xlink:href="#DejaVuSans-69" transform="translate(163.867188 0)"/>
      <use xlink:href="#DejaVuSans-6d" transform="translate(191.650391 0)"/>
      <use xlink:href="#DejaVuSans-75" transform="translate(289.0625 0)"/>
      <use xlink:href="#DejaVuSans-6d" transform="translate(352.441406 0)"/>
     </g>
    </g>
   </g>
  </g>
 </g>
 <defs>
  <clipPath id="p0641d902bf">
   <rect x="52.282813" y="22.44" width="355.5925" height="217.72"/>
  </clipPath>
 </defs>
</svg>
