<?xml version="1.0" encoding="utf-8" standalone="no"?>
<!DOCTYPE svg PUBLIC "-//W3C//DTD SVG 1.1//EN"
  "http://www.w3.org/Graphics/SVG/1.1/DTD/svg11.dtd">
<svg xmlns:xlink="http://www.w3.org/1999/xlink" width="424.34375pt" height="279.754375pt" viewBox="0 0 424.34375 279.754375" xmlns="http://www.w3.org/2000/svg" version="1.1">
 <metadata>
  <rdf:RDF xmlns:dc="http://purl.org/dc/elements/1.1/" xmlns:cc="http://creativecommons.org/ns#" xmlns:rdf="http://www.w3.org/1999/02/22-rdf-syntax-ns#">
   <cc:Work>
    <dc:type rdf:resource="http://purl.org/dc/dcmitype/StillImage"/>
    <dc:date>2026-05-13T21:19:38.444152</dc:date>
    <dc:format>image/svg+xml</dc:format>
    <dc:creator>
     <cc:Agent>
      <dc:title>Matplotlib v3.10.9, https://matplotlib.org/</dc:title>
     </cc:Agent>
    </dc:creator>
   </cc:Work>
  </rdf:RDF>
 </metadata>
 <defs>
  <style type="text/css">*{stroke-linejoin: round; stroke-linecap: butt}</style>
 </defs>
 <g id="figure_1">
  <g id="patch_1">
   <path d="M 0 279.754375 
L 424.34375 279.754375 
L 424.34375 0 
L 0 0 
z
" style="fill: #ffffff"/>
  </g>
  <g id="axes_1">
   <g id="patch_2">
    <path d="M 50.14375 242.198125 
L 417.14375 242.198125 
L 417.14375 22.318125 
L 50.14375 22.318125 
z
" style="fill: #ffffff"/>
   </g>
   <g id="PathCollection_1">
    <defs>
     <path id="m0b8c2d6b46" d="M 0 2.5 
C 0.663008 2.5 1.29895 2.236584 1.767767 1.767767 
C 2.236584 1.29895 2.5 0.663008 2.5 0 
C 2.5 -0.663008 2.236584 -1.29895 1.767767 -1.767767 
C 1.29895 -2.236584 0.663008 -2.5 0 -2.5 
C -0.663008 -2.5 -1.29895 -2.236584 -1.767767 -1.767767 
C -2.236584 -1.29895 -2.5 -0.663008 -2.5 0 
C -2.5 0.663008 -2.236584 1.29895 -1.767767 1.767767 
C -1.29895 2.236584 -0.663008 2.5 0 2.5 
z
" style="stroke: #1f77b4"/>
    </defs>
    <g clip-path="url(#p362608e5f3)">
     <use xlink:href="#m0b8c2d6b46" x="66.825568" y="228.805771" style="fill: #1f77b4; stroke: #1f77b4"/>
     <use xlink:href="#m0b8c2d6b46" x="80.727083" y="228.411818" style="fill: #1f77b4; stroke: #1f77b4"/>
     <use xlink:href="#m0b8c2d6b46" x="94.628598" y="216.019767" style="fill: #1f77b4; stroke: #1f77b4"/>
     <use xlink:href="#m0b8c2d6b46" x="108.530114" y="218.859356" style="fill: #1f77b4; stroke: #1f77b4"/>
     <use xlink:href="#m0b8c2d6b46" x="122.431629" y="222.922169" style="fill: #1f77b4; stroke: #1f77b4"/>
     <use xlink:href="#m0b8c2d6b46" x="136.333144" y="209.077614" style="fill: #1f77b4; stroke: #1f77b4"/>
     <use xlink:href="#m0b8c2d6b46" x="150.234659" y="194.707417" style="fill: #1f77b4; stroke: #1f77b4"/>
     <use xlink:href="#m0b8c2d6b46" x="164.136174" y="195.467252" style="fill: #1f77b4; stroke: #1f77b4"/>
     <use xlink:href="#m0b8c2d6b46" x="178.037689" y="211.293922" style="fill: #1f77b4; stroke: #1f77b4"/>
     <use xlink:href="#m0b8c2d6b46" x="191.939205" y="214.438176" style="fill: #1f77b4; stroke: #1f77b4"/>
     <use xlink:href="#m0b8c2d6b46" x="205.84072" y="203.564345" style="fill: #1f77b4; stroke: #1f77b4"/>
     <use xlink:href="#m0b8c2d6b46" x="219.742235" y="192.429055" style="fill: #1f77b4; stroke: #1f77b4"/>
     <use xlink:href="#m0b8c2d6b46" x="233.64375" y="216.587866" style="fill: #1f77b4; stroke: #1f77b4"/>
     <use xlink:href="#m0b8c2d6b46" x="247.545265" y="188.665358" style="fill: #1f77b4; stroke: #1f77b4"/>
     <use xlink:href="#m0b8c2d6b46" x="261.44678" y="197.229365" style="fill: #1f77b4; stroke: #1f77b4"/>
     <use xlink:href="#m0b8c2d6b46" x="275.348295" y="187.851897" style="fill: #1f77b4; stroke: #1f77b4"/>
     <use xlink:href="#m0b8c2d6b46" x="289.249811" y="182.266303" style="fill: #1f77b4; stroke: #1f77b4"/>
     <use xlink:href="#m0b8c2d6b46" x="303.151326" y="176.215503" style="fill: #1f77b4; stroke: #1f77b4"/>
     <use xlink:href="#m0b8c2d6b46" x="317.052841" y="164.342761" style="fill: #1f77b4; stroke: #1f77b4"/>
     <use xlink:href="#m0b8c2d6b46" x="330.954356" y="153.600097" style="fill: #1f77b4; stroke: #1f77b4"/>
     <use xlink:href="#m0b8c2d6b46" x="344.855871" y="163.840088" style="fill: #1f77b4; stroke: #1f77b4"/>
     <use xlink:href="#m0b8c2d6b46" x="358.757386" y="143.035199" style="fill: #1f77b4; stroke: #1f77b4"/>
     <use xlink:href="#m0b8c2d6b46" x="372.658902" y="163.296599" style="fill: #1f77b4; stroke: #1f77b4"/>
     <use xlink:href="#m0b8c2d6b46" x="386.560417" y="148.061216" style="fill: #1f77b4; stroke: #1f77b4"/>
     <use xlink:href="#m0b8c2d6b46" x="400.461932" y="138.237571" style="fill: #1f77b4; stroke: #1f77b4"/>
    </g>
   </g>
   <g id="matplotlib.axis_1">
    <g id="xtick_1">
     <g id="line2d_1">
      <defs>
       <path id="m960102ac93" d="M 0 0 
L 0 3.5 
" style="stroke: #000000; stroke-width: 0.8"/>
      </defs>
      <g>
       <use xlink:href="#m960102ac93" x="66.825568" y="242.198125" style="stroke: #000000; stroke-width: 0.8"/>
      </g>
     </g>
     <g id="text_1">
      <!-- 0 -->
      <g transform="translate(63.644318 256.796563) scale(0.1 -0.1)">
       <defs>
        <path id="DejaVuSans-30" d="M 2034 4250 
Q 1547 4250 1301 3770 
Q 1056 3291 1056 2328 
Q 1056 1369 1301 889 
Q 1547 409 2034 409 
Q 2525 409 2770 889 
Q 3016 1369 3016 2328 
Q 3016 3291 2770 3770 
Q 2525 4250 2034 4250 
z
M 2034 4750 
Q 2819 4750 3233 4129 
Q 3647 3509 3647 2328 
Q 3647 1150 3233 529 
Q 2819 -91 2034 -91 
Q 1250 -91 836 529 
Q 422 1150 422 2328 
Q 422 3509 836 4129 
Q 1250 4750 2034 4750 
z
" transform="scale(0.015625)"/>
       </defs>
       <use xlink:href="#DejaVuSans-30"/>
      </g>
     </g>
    </g>
    <g id="xtick_2">
     <g id="line2d_2">
      <g>
       <use xlink:href="#m960102ac93" x="133.552841" y="242.198125" style="stroke: #000000; stroke-width: 0.8"/>
      </g>
     </g>
     <g id="text_2">
      <!-- 2 -->
      <g transform="translate(130.371591 256.796563) scale(0.1 -0.1)">
       <defs>
        <path id="DejaVuSans-32" d="M 1228 531 
L 3431 531 
L 3431 0 
L 469 0 
L 469 531 
Q 828 903 1448 1529 
Q 2069 2156 2228 2338 
Q 2531 2678 2651 2914 
Q 2772 3150 2772 3378 
Q 2772 3750 2511 3984 
Q 2250 4219 1831 4219 
Q 1534 4219 1204 4116 
Q 875 4013 500 3803 
L 500 4441 
Q 881 4594 1212 4672 
Q 1544 4750 1819 4750 
Q 2544 4750 2975 4387 
Q 3406 4025 3406 3419 
Q 3406 3131 3298 2873 
Q 3191 2616 2906 2266 
Q 2828 2175 2409 1742 
Q 1991 1309 1228 531 
z
" transform="scale(0.015625)"/>
       </defs>
       <use xlink:href="#DejaVuSans-32"/>
      </g>
     </g>
    </g>
    <g id="xtick_3">
     <g id="line2d_3">
      <g>
       <use xlink:href="#m960102ac93" x="200.280114" y="242.198125" style="stroke: #000000; stroke-width: 0.8"/>
      </g>
     </g>
     <g id="text_3">
      <!-- 4 -->
      <g transform="translate(197.098864 256.796563) scale(0.1 -0.1)">
       <defs>
        <path id="DejaVuSans-34" d="M 2419 4116 
L 825 1625 
L 2419 1625 
L 2419 4116 
z
M 2253 4666 
L 3047 4666 
L 3047 1625 
L 3713 1625 
L 3713 1100 
L 3047 1100 
L 3047 0 
L 2419 0 
L 2419 1100 
L 313 1100 
L 313 1709 
L 2253 4666 
z
" transform="scale(0.015625)"/>
       </defs>
       <use xlink:href="#DejaVuSans-34"/>
      </g>
     </g>
    </g>
    <g id="xtick_4">
     <g id="line2d_4">
      <g>
       <use xlink:href="#m960102ac93" x="267.007386" y="242.198125" style="stroke: #000000; stroke-width: 0.8"/>
      </g>
     </g>
     <g id="text_4">
      <!-- 6 -->
      <g transform="translate(263.826136 256.796563) scale(0.1 -0.1)">
       <defs>
        <path id="DejaVuSans-36" d="M 2113 2584 
Q 1688 2584 1439 2293 
Q 1191 2003 1191 1497 
Q 1191 994 1439 701 
Q 1688 409 2113 409 
Q 2538 409 2786 701 
Q 3034 994 3034 1497 
Q 3034 2003 2786 2293 
Q 2538 2584 2113 2584 
z
M 3366 4563 
L 3366 3988 
Q 3128 4100 2886 4159 
Q 2644 4219 2406 4219 
Q 1781 4219 1451 3797 
Q 1122 3375 1075 2522 
Q 1259 2794 1537 2939 
Q 1816 3084 2150 3084 
Q 2853 3084 3261 2657 
Q 3669 2231 3669 1497 
Q 3669 778 3244 343 
Q 2819 -91 2113 -91 
Q 1303 -91 875 529 
Q 447 1150 447 2328 
Q 447 3434 972 4092 
Q 1497 4750 2381 4750 
Q 2619 4750 2861 4703 
Q 3103 4656 3366 4563 
z
" transform="scale(0.015625)"/>
       </defs>
       <use xlink:href="#DejaVuSans-36"/>
      </g>
     </g>
    </g>
    <g id="xtick_5">
     <g id="line2d_5">
      <g>
       <use xlink:href="#m960102ac93" x="333.734659" y="242.198125" style="stroke: #000000; stroke-width: 0.8"/>
      </g>
     </g>
     <g id="text_5">
      <!-- 8 -->
      <g transform="translate(330.553409 256.796563) scale(0.1 -0.1)">
       <defs>
        <path id="DejaVuSans-38" d="M 2034 2216 
Q 1584 2216 1326 1975 
Q 1069 1734 1069 1313 
Q 1069 891 1326 650 
Q 1584 409 2034 409 
Q 2484 409 2743 651 
Q 3003 894 3003 1313 
Q 3003 1734 2745 1975 
Q 2488 2216 2034 2216 
z
M 1403 2484 
Q 997 2584 770 2862 
Q 544 3141 544 3541 
Q 544 4100 942 4425 
Q 1341 4750 2034 4750 
Q 2731 4750 3128 4425 
Q 3525 4100 3525 3541 
Q 3525 3141 3298 2862 
Q 3072 2584 2669 2484 
Q 3125 2378 3379 2068 
Q 3634 1759 3634 1313 
Q 3634 634 3220 271 
Q 2806 -91 2034 -91 
Q 1263 -91 848 271 
Q 434 634 434 1313 
Q 434 1759 690 2068 
Q 947 2378 1403 2484 
z
M 1172 3481 
Q 1172 3119 1398 2916 
Q 1625 2713 2034 2713 
Q 2441 2713 2670 2916 
Q 2900 3119 2900 3481 
Q 2900 3844 2670 4047 
Q 2441 4250 2034 4250 
Q 1625 4250 1398 4047 
Q 1172 3844 1172 3481 
z
" transform="scale(0.015625)"/>
       </defs>
       <use xlink:href="#DejaVuSans-38"/>
      </g>
     </g>
    </g>
    <g id="xtick_6">
     <g id="line2d_6">
      <g>
       <use xlink:href="#m960102ac93" x="400.461932" y="242.198125" style="stroke: #000000; stroke-width: 0.8"/>
      </g>
     </g>
     <g id="text_6">
      <!-- 10 -->
      <g transform="translate(394.099432 256.796563) scale(0.1 -0.1)">
       <defs>
        <path id="DejaVuSans-31" d="M 794 531 
L 1825 531 
L 1825 4091 
L 703 3866 
L 703 4441 
L 1819 4666 
L 2450 4666 
L 2450 531 
L 3481 531 
L 3481 0 
L 794 0 
L 794 531 
z
" transform="scale(0.015625)"/>
       </defs>
       <use xlink:href="#DejaVuSans-31"/>
       <use xlink:href="#DejaVuSans-30" transform="translate(63.623047 0)"/>
      </g>
     </g>
    </g>
    <g id="text_7">
     <!-- x -->
     <g transform="translate(230.684375 270.474688) scale(0.1 -0.1)">
      <defs>
       <path id="DejaVuSans-78" d="M 3513 3500 
L 2247 1797 
L 3578 0 
L 2900 0 
L 1881 1375 
L 863 0 
L 184 0 
L 1544 1831 
L 300 3500 
L 978 3500 
L 1906 2253 
L 2834 3500 
L 3513 3500 
z
" transform="scale(0.015625)"/>
      </defs>
      <use xlink:href="#DejaVuSans-78"/>
     </g>
    </g>
   </g>
   <g id="matplotlib.axis_2">
    <g id="ytick_1">
     <g id="line2d_7">
      <defs>
       <path id="m7793b02d6d" d="M 0 0 
L -3.5 0 
" style="stroke: #000000; stroke-width: 0.8"/>
      </defs>
      <g>
       <use xlink:href="#m7793b02d6d" x="50.14375" y="241.914381" style="stroke: #000000; stroke-width: 0.8"/>
      </g>
     </g>
     <g id="text_8">
      <!-- 0.0 -->
      <g transform="translate(27.240625 245.7136) scale(0.1 -0.1)">
       <defs>
        <path id="DejaVuSans-2e" d="M 684 794 
L 1344 794 
L 1344 0 
L 684 0 
L 684 794 
z
" transform="scale(0.015625)"/>
       </defs>
       <use xlink:href="#DejaVuSans-30"/>
       <use xlink:href="#DejaVuSans-2e" transform="translate(63.623047 0)"/>
       <use xlink:href="#DejaVuSans-30" transform="translate(95.410156 0)"/>
      </g>
     </g>
    </g>
    <g id="ytick_2">
     <g id="line2d_8">
      <g>
       <use xlink:href="#m7793b02d6d" x="50.14375" y="212.803032" style="stroke: #000000; stroke-width: 0.8"/>
      </g>
     </g>
     <g id="text_9">
      <!-- 2.5 -->
      <g transform="translate(27.240625 216.602251) scale(0.1 -0.1)">
       <defs>
        <path id="DejaVuSans-35" d="M 691 4666 
L 3169 4666 
L 3169 4134 
L 1269 4134 
L 1269 2991 
Q 1406 3038 1543 3061 
Q 1681 3084 1819 3084 
Q 2600 3084 3056 2656 
Q 3513 2228 3513 1497 
Q 3513 744 3044 326 
Q 2575 -91 1722 -91 
Q 1428 -91 1123 -41 
Q 819 9 494 109 
L 494 744 
Q 775 591 1075 516 
Q 1375 441 1709 441 
Q 2250 441 2565 725 
Q 2881 1009 2881 1497 
Q 2881 1984 2565 2268 
Q 2250 2553 1709 2553 
Q 1456 2553 1204 2497 
Q 953 2441 691 2322 
L 691 4666 
z
" transform="scale(0.015625)"/>
       </defs>
       <use xlink:href="#DejaVuSans-32"/>
       <use xlink:href="#DejaVuSans-2e" transform="translate(63.623047 0)"/>
       <use xlink:href="#DejaVuSans-35" transform="translate(95.410156 0)"/>
      </g>
     </g>
    </g>
    <g id="ytick_3">
     <g id="line2d_9">
      <g>
       <use xlink:href="#m7793b02d6d" x="50.14375" y="183.691684" style="stroke: #000000; stroke-width: 0.8"/>
      </g>
     </g>
     <g id="text_10">
      <!-- 5.0 -->
      <g transform="translate(27.240625 187.490902) scale(0.1 -0.1)">
       <use xlink:href="#DejaVuSans-35"/>
       <use xlink:href="#DejaVuSans-2e" transform="translate(63.623047 0)"/>
       <use xlink:href="#DejaVuSans-30" transform="translate(95.410156 0)"/>
      </g>
     </g>
    </g>
    <g id="ytick_4">
     <g id="line2d_10">
      <g>
       <use xlink:href="#m7793b02d6d" x="50.14375" y="154.580335" style="stroke: #000000; stroke-width: 0.8"/>
      </g>
     </g>
     <g id="text_11">
      <!-- 7.5 -->
      <g transform="translate(27.240625 158.379554) scale(0.1 -0.1)">
       <defs>
        <path id="DejaVuSans-37" d="M 525 4666 
L 3525 4666 
L 3525 4397 
L 1831 0 
L 1172 0 
L 2766 4134 
L 525 4134 
L 525 4666 
z
" transform="scale(0.015625)"/>
       </defs>
       <use xlink:href="#DejaVuSans-37"/>
       <use xlink:href="#DejaVuSans-2e" transform="translate(63.623047 0)"/>
       <use xlink:href="#DejaVuSans-35" transform="translate(95.410156 0)"/>
      </g>
     </g>
    </g>
    <g id="ytick_5">
     <g id="line2d_11">
      <g>
       <use xlink:href="#m7793b02d6d" x="50.14375" y="125.468986" style="stroke: #000000; stroke-width: 0.8"/>
      </g>
     </g>
     <g id="text_12">
      <!-- 10.0 -->
      <g transform="translate(20.878125 129.268205) scale(0.1 -0.1)">
       <use xlink:href="#DejaVuSans-31"/>
       <use xlink:href="#DejaVuSans-30" transform="translate(63.623047 0)"/>
       <use xlink:href="#DejaVuSans-2e" transform="translate(127.246094 0)"/>
       <use xlink:href="#DejaVuSans-30" transform="translate(159.033203 0)"/>
      </g>
     </g>
    </g>
    <g id="ytick_6">
     <g id="line2d_12">
      <g>
       <use xlink:href="#m7793b02d6d" x="50.14375" y="96.357638" style="stroke: #000000; stroke-width: 0.8"/>
      </g>
     </g>
     <g id="text_13">
      <!-- 12.5 -->
      <g transform="translate(20.878125 100.156856) scale(0.1 -0.1)">
       <use xlink:href="#DejaVuSans-31"/>
       <use xlink:href="#DejaVuSans-32" transform="translate(63.623047 0)"/>
       <use xlink:href="#DejaVuSans-2e" transform="translate(127.246094 0)"/>
       <use xlink:href="#DejaVuSans-35" transform="translate(159.033203 0)"/>
      </g>
     </g>
    </g>
    <g id="ytick_7">
     <g id="line2d_13">
      <g>
       <use xlink:href="#m7793b02d6d" x="50.14375" y="67.246289" style="stroke: #000000; stroke-width: 0.8"/>
      </g>
     </g>
     <g id="text_14">
      <!-- 15.0 -->
      <g transform="translate(20.878125 71.045508) scale(0.1 -0.1)">
       <use xlink:href="#DejaVuSans-31"/>
       <use xlink:href="#DejaVuSans-35" transform="translate(63.623047 0)"/>
       <use xlink:href="#DejaVuSans-2e" transform="translate(127.246094 0)"/>
       <use xlink:href="#DejaVuSans-30" transform="translate(159.033203 0)"/>
      </g>
     </g>
    </g>
    <g id="ytick_8">
     <g id="line2d_14">
      <g>
       <use xlink:href="#m7793b02d6d" x="50.14375" y="38.13494" style="stroke: #000000; stroke-width: 0.8"/>
      </g>
     </g>
     <g id="text_15">
      <!-- 17.5 -->
      <g transform="translate(20.878125 41.934159) scale(0.1 -0.1)">
       <use xlink:href="#DejaVuSans-31"/>
       <use xlink:href="#DejaVuSans-37" transform="translate(63.623047 0)"/>
       <use xlink:href="#DejaVuSans-2e" transform="translate(127.246094 0)"/>
       <use xlink:href="#DejaVuSans-35" transform="translate(159.033203 0)"/>
      </g>
     </g>
    </g>
    <g id="text_16">
     <!-- y -->
     <g transform="translate(14.798438 135.2175) rotate(-90) scale(0.1 -0.1)">
      <defs>
       <path id="DejaVuSans-79" d="M 2059 -325 
Q 1816 -950 1584 -1140 
Q 1353 -1331 966 -1331 
L 506 -1331 
L 506 -850 
L 844 -850 
Q 1081 -850 1212 -737 
Q 1344 -625 1503 -206 
L 1606 56 
L 191 3500 
L 800 3500 
L 1894 763 
L 2988 3500 
L 3597 3500 
L 2059 -325 
z
" transform="scale(0.015625)"/>
      </defs>
      <use xlink:href="#DejaVuSans-79"/>
     </g>
    </g>
   </g>
   <g id="line2d_15">
    <path d="M 66.825568 232.20358 
L 70.195632 231.358438 
L 73.565697 230.513296 
L 76.935761 229.668154 
L 80.305825 228.823012 
L 83.67589 227.97787 
L 87.045954 227.132729 
L 90.416018 226.287587 
L 93.786082 225.442445 
L 97.156147 224.597303 
L 100.526211 223.752161 
L 103.896275 222.90702 
L 107.26634 222.061878 
L 110.636404 221.216736 
L 114.006468 220.371594 
L 117.376532 219.526452 
L 120.746597 218.68131 
L 124.116661 217.836169 
L 127.486725 216.991027 
L 130.856789 216.145885 
L 134.226854 215.300743 
L 137.596918 214.455601 
L 140.966982 213.610459 
L 144.337047 212.765318 
L 147.707111 211.920176 
L 151.077175 211.075034 
L 154.447239 210.229892 
L 157.817304 209.38475 
L 161.187368 208.539609 
L 164.557432 207.694467 
L 167.927497 206.849325 
L 171.297561 206.004183 
L 174.667625 205.159041 
L 178.037689 204.313899 
L 181.407754 203.468758 
L 184.777818 202.623616 
L 188.147882 201.778474 
L 191.517947 200.933332 
L 194.888011 200.08819 
L 198.258075 199.243049 
L 201.628139 198.397907 
L 204.998204 197.552765 
L 208.368268 196.707623 
L 211.738332 195.862481 
L 215.108396 195.017339 
L 218.478461 194.172198 
L 221.848525 193.327056 
L 225.218589 192.481914 
L 228.588654 191.636772 
L 231.958718 190.79163 
L 235.328782 189.946488 
L 238.698846 189.101347 
L 242.068911 188.256205 
L 245.438975 187.411063 
L 248.809039 186.565921 
L 252.179104 185.720779 
L 255.549168 184.875638 
L 258.919232 184.030496 
L 262.289296 183.185354 
L 265.659361 182.340212 
L 269.029425 181.49507 
L 272.399489 180.649928 
L 275.769553 179.804787 
L 279.139618 178.959645 
L 282.509682 178.114503 
L 285.879746 177.269361 
L 289.249811 176.424219 
L 292.619875 175.579078 
L 295.989939 174.733936 
L 299.360003 173.888794 
L 302.730068 173.043652 
L 306.100132 172.19851 
L 309.470196 171.353368 
L 312.840261 170.508227 
L 316.210325 169.663085 
L 319.580389 168.817943 
L 322.950453 167.972801 
L 326.320518 167.127659 
L 329.690582 166.282518 
L 333.060646 165.437376 
L 336.430711 164.592234 
L 339.800775 163.747092 
L 343.170839 162.90195 
L 346.540903 162.056808 
L 349.910968 161.211667 
L 353.281032 160.366525 
L 356.651096 159.521383 
L 360.02116 158.676241 
L 363.391225 157.831099 
L 366.761289 156.985957 
L 370.131353 156.140816 
L 373.501418 155.295674 
L 376.871482 154.450532 
L 380.241546 153.60539 
L 383.61161 152.760248 
L 386.981675 151.915107 
L 390.351739 151.069965 
L 393.721803 150.224823 
L 397.091868 149.379681 
L 400.461932 148.534539 
" clip-path="url(#p362608e5f3)" style="fill: none; stroke: #1f77b4; stroke-width: 2; stroke-linecap: square"/>
   </g>
   <g id="line2d_16">
    <path d="M 66.825568 213.711247 
L 70.195632 213.096847 
L 73.565697 212.482448 
L 76.935761 211.868048 
L 80.305825 211.253648 
L 83.67589 210.639249 
L 87.045954 210.024849 
L 90.416018 209.410449 
L 93.786082 208.796049 
L 97.156147 208.18165 
L 100.526211 207.56725 
L 103.896275 206.95285 
L 107.26634 206.338451 
L 110.636404 205.724051 
L 114.006468 205.109651 
L 117.376532 204.495251 
L 120.746597 203.880852 
L 124.116661 203.266452 
L 127.486725 202.652052 
L 130.856789 202.037653 
L 134.226854 201.423253 
L 137.596918 200.808853 
L 140.966982 200.194454 
L 144.337047 199.580054 
L 147.707111 198.965654 
L 151.077175 198.351254 
L 154.447239 197.736855 
L 157.817304 197.122455 
L 161.187368 196.508055 
L 164.557432 195.893656 
L 167.927497 195.279256 
L 171.297561 194.664856 
L 174.667625 194.050457 
L 178.037689 193.436057 
L 181.407754 192.821657 
L 184.777818 192.207257 
L 188.147882 191.592858 
L 191.517947 190.978458 
L 194.888011 190.364058 
L 198.258075 189.749659 
L 201.628139 189.135259 
L 204.998204 188.520859 
L 208.368268 187.906459 
L 211.738332 187.29206 
L 215.108396 186.67766 
L 218.478461 186.06326 
L 221.848525 185.448861 
L 225.218589 184.834461 
L 228.588654 184.220061 
L 231.958718 183.605662 
L 235.328782 182.991262 
L 238.698846 182.376862 
L 242.068911 181.762462 
L 245.438975 181.148063 
L 248.809039 180.533663 
L 252.179104 179.919263 
L 255.549168 179.304864 
L 258.919232 178.690464 
L 262.289296 178.076064 
L 265.659361 177.461664 
L 269.029425 176.847265 
L 272.399489 176.232865 
L 275.769553 175.618465 
L 279.139618 175.004066 
L 282.509682 174.389666 
L 285.879746 173.775266 
L 289.249811 173.160867 
L 292.619875 172.546467 
L 295.989939 171.932067 
L 299.360003 171.317667 
L 302.730068 170.703268 
L 306.100132 170.088868 
L 309.470196 169.474468 
L 312.840261 168.860069 
L 316.210325 168.245669 
L 319.580389 167.631269 
L 322.950453 167.01687 
L 326.320518 166.40247 
L 329.690582 165.78807 
L 333.060646 165.17367 
L 336.430711 164.559271 
L 339.800775 163.944871 
L 343.170839 163.330471 
L 346.540903 162.716072 
L 349.910968 162.101672 
L 353.281032 161.487272 
L 356.651096 160.872872 
L 360.02116 160.258473 
L 363.391225 159.644073 
L 366.761289 159.029673 
L 370.131353 158.415274 
L 373.501418 157.800874 
L 376.871482 157.186474 
L 380.241546 156.572075 
L 383.61161 155.957675 
L 386.981675 155.343275 
L 390.351739 154.728875 
L 393.721803 154.114476 
L 397.091868 153.500076 
L 400.461932 152.885676 
" clip-path="url(#p362608e5f3)" style="fill: none; stroke-dasharray: 7.4,3.2; stroke-dashoffset: 0; stroke: #ff7f0e; stroke-width: 2"/>
   </g>
   <g id="patch_3">
    <path d="M 50.14375 242.198125 
L 50.14375 22.318125 
" style="fill: none; stroke: #000000; stroke-width: 0.8; stroke-linejoin: miter; stroke-linecap: square"/>
   </g>
   <g id="patch_4">
    <path d="M 417.14375 242.198125 
L 417.14375 22.318125 
" style="fill: none; stroke: #000000; stroke-width: 0.8; stroke-linejoin: miter; stroke-linecap: square"/>
   </g>
   <g id="patch_5">
    <path d="M 50.14375 242.198125 
L 417.14375 242.198125 
" style="fill: none; stroke: #000000; stroke-width: 0.8; stroke-linejoin: miter; stroke-linecap: square"/>
   </g>
   <g id="patch_6">
    <path d="M 50.14375 22.318125 
L 417.14375 22.318125 
" style="fill: none; stroke: #000000; stroke-width: 0.8; stroke-linejoin: miter; stroke-linecap: square"/>
   </g>
   <g id="text_17">
    <!-- OLS is moved by a single outlier -->
    <g transform="translate(136.84875 16.318125) scale(0.12 -0.12)">
     <defs>
      <path id="DejaVuSans-4f" d="M 2522 4238 
Q 1834 4238 1429 3725 
Q 1025 3213 1025 2328 
Q 1025 1447 1429 934 
Q 1834 422 2522 422 
Q 3209 422 3611 934 
Q 4013 1447 4013 2328 
Q 4013 3213 3611 3725 
Q 3209 4238 2522 4238 
z
M 2522 4750 
Q 3503 4750 4090 4092 
Q 4678 3434 4678 2328 
Q 4678 1225 4090 567 
Q 3503 -91 2522 -91 
Q 1538 -91 948 565 
Q 359 1222 359 2328 
Q 359 3434 948 4092 
Q 1538 4750 2522 4750 
z
" transform="scale(0.015625)"/>
      <path id="DejaVuSans-4c" d="M 628 4666 
L 1259 4666 
L 1259 531 
L 3531 531 
L 3531 0 
L 628 0 
L 628 4666 
z
" transform="scale(0.015625)"/>
      <path id="DejaVuSans-53" d="M 3425 4513 
L 3425 3897 
Q 3066 4069 2747 4153 
Q 2428 4238 2131 4238 
Q 1616 4238 1336 4038 
Q 1056 3838 1056 3469 
Q 1056 3159 1242 3001 
Q 1428 2844 1947 2747 
L 2328 2669 
Q 3034 2534 3370 2195 
Q 3706 1856 3706 1288 
Q 3706 609 3251 259 
Q 2797 -91 1919 -91 
Q 1588 -91 1214 -16 
Q 841 59 441 206 
L 441 856 
Q 825 641 1194 531 
Q 1563 422 1919 422 
Q 2459 422 2753 634 
Q 3047 847 3047 1241 
Q 3047 1584 2836 1778 
Q 2625 1972 2144 2069 
L 1759 2144 
Q 1053 2284 737 2584 
Q 422 2884 422 3419 
Q 422 4038 858 4394 
Q 1294 4750 2059 4750 
Q 2388 4750 2728 4690 
Q 3069 4631 3425 4513 
z
" transform="scale(0.015625)"/>
      <path id="DejaVuSans-20" transform="scale(0.015625)"/>
      <path id="DejaVuSans-69" d="M 603 3500 
L 1178 3500 
L 1178 0 
L 603 0 
L 603 3500 
z
M 603 4863 
L 1178 4863 
L 1178 4134 
L 603 4134 
L 603 4863 
z
" transform="scale(0.015625)"/>
      <path id="DejaVuSans-73" d="M 2834 3397 
L 2834 2853 
Q 2591 2978 2328 3040 
Q 2066 3103 1784 3103 
Q 1356 3103 1142 2972 
Q 928 2841 928 2578 
Q 928 2378 1081 2264 
Q 1234 2150 1697 2047 
L 1894 2003 
Q 2506 1872 2764 1633 
Q 3022 1394 3022 966 
Q 3022 478 2636 193 
Q 2250 -91 1575 -91 
Q 1294 -91 989 -36 
Q 684 19 347 128 
L 347 722 
Q 666 556 975 473 
Q 1284 391 1588 391 
Q 1994 391 2212 530 
Q 2431 669 2431 922 
Q 2431 1156 2273 1281 
Q 2116 1406 1581 1522 
L 1381 1569 
Q 847 1681 609 1914 
Q 372 2147 372 2553 
Q 372 3047 722 3315 
Q 1072 3584 1716 3584 
Q 2034 3584 2315 3537 
Q 2597 3491 2834 3397 
z
" transform="scale(0.015625)"/>
      <path id="DejaVuSans-6d" d="M 3328 2828 
Q 3544 3216 3844 3400 
Q 4144 3584 4550 3584 
Q 5097 3584 5394 3201 
Q 5691 2819 5691 2113 
L 5691 0 
L 5113 0 
L 5113 2094 
Q 5113 2597 4934 2840 
Q 4756 3084 4391 3084 
Q 3944 3084 3684 2787 
Q 3425 2491 3425 1978 
L 3425 0 
L 2847 0 
L 2847 2094 
Q 2847 2600 2669 2842 
Q 2491 3084 2119 3084 
Q 1678 3084 1418 2786 
Q 1159 2488 1159 1978 
L 1159 0 
L 581 0 
L 581 3500 
L 1159 3500 
L 1159 2956 
Q 1356 3278 1631 3431 
Q 1906 3584 2284 3584 
Q 2666 3584 2933 3390 
Q 3200 3197 3328 2828 
z
" transform="scale(0.015625)"/>
      <path id="DejaVuSans-6f" d="M 1959 3097 
Q 1497 3097 1228 2736 
Q 959 2375 959 1747 
Q 959 1119 1226 758 
Q 1494 397 1959 397 
Q 2419 397 2687 759 
Q 2956 1122 2956 1747 
Q 2956 2369 2687 2733 
Q 2419 3097 1959 3097 
z
M 1959 3584 
Q 2709 3584 3137 3096 
Q 3566 2609 3566 1747 
Q 3566 888 3137 398 
Q 2709 -91 1959 -91 
Q 1206 -91 779 398 
Q 353 888 353 1747 
Q 353 2609 779 3096 
Q 1206 3584 1959 3584 
z
" transform="scale(0.015625)"/>
      <path id="DejaVuSans-76" d="M 191 3500 
L 800 3500 
L 1894 563 
L 2988 3500 
L 3597 3500 
L 2284 0 
L 1503 0 
L 191 3500 
z
" transform="scale(0.015625)"/>
      <path id="DejaVuSans-65" d="M 3597 1894 
L 3597 1613 
L 953 1613 
Q 991 1019 1311 708 
Q 1631 397 2203 397 
Q 2534 397 2845 478 
Q 3156 559 3463 722 
L 3463 178 
Q 3153 47 2828 -22 
Q 2503 -91 2169 -91 
Q 1331 -91 842 396 
Q 353 884 353 1716 
Q 353 2575 817 3079 
Q 1281 3584 2069 3584 
Q 2775 3584 3186 3129 
Q 3597 2675 3597 1894 
z
M 3022 2063 
Q 3016 2534 2758 2815 
Q 2500 3097 2075 3097 
Q 1594 3097 1305 2825 
Q 1016 2553 972 2059 
L 3022 2063 
z
" transform="scale(0.015625)"/>
      <path id="DejaVuSans-64" d="M 2906 2969 
L 2906 4863 
L 3481 4863 
L 3481 0 
L 2906 0 
L 2906 525 
Q 2725 213 2448 61 
Q 2172 -91 1784 -91 
Q 1150 -91 751 415 
Q 353 922 353 1747 
Q 353 2572 751 3078 
Q 1150 3584 1784 3584 
Q 2172 3584 2448 3432 
Q 2725 3281 2906 2969 
z
M 947 1747 
Q 947 1113 1208 752 
Q 1469 391 1925 391 
Q 2381 391 2643 752 
Q 2906 1113 2906 1747 
Q 2906 2381 2643 2742 
Q 2381 3103 1925 3103 
Q 1469 3103 1208 2742 
Q 947 2381 947 1747 
z
" transform="scale(0.015625)"/>
      <path id="DejaVuSans-62" d="M 3116 1747 
Q 3116 2381 2855 2742 
Q 2594 3103 2138 3103 
Q 1681 3103 1420 2742 
Q 1159 2381 1159 1747 
Q 1159 1113 1420 752 
Q 1681 391 2138 391 
Q 2594 391 2855 752 
Q 3116 1113 3116 1747 
z
M 1159 2969 
Q 1341 3281 1617 3432 
Q 1894 3584 2278 3584 
Q 2916 3584 3314 3078 
Q 3713 2572 3713 1747 
Q 3713 922 3314 415 
Q 2916 -91 2278 -91 
Q 1894 -91 1617 61 
Q 1341 213 1159 525 
L 1159 0 
L 581 0 
L 581 4863 
L 1159 4863 
L 1159 2969 
z
" transform="scale(0.015625)"/>
      <path id="DejaVuSans-61" d="M 2194 1759 
Q 1497 1759 1228 1600 
Q 959 1441 959 1056 
Q 959 750 1161 570 
Q 1363 391 1709 391 
Q 2188 391 2477 730 
Q 2766 1069 2766 1631 
L 2766 1759 
L 2194 1759 
z
M 3341 1997 
L 3341 0 
L 2766 0 
L 2766 531 
Q 2569 213 2275 61 
Q 1981 -91 1556 -91 
Q 1019 -91 701 211 
Q 384 513 384 1019 
Q 384 1609 779 1909 
Q 1175 2209 1959 2209 
L 2766 2209 
L 2766 2266 
Q 2766 2663 2505 2880 
Q 2244 3097 1772 3097 
Q 1472 3097 1187 3025 
Q 903 2953 641 2809 
L 641 3341 
Q 956 3463 1253 3523 
Q 1550 3584 1831 3584 
Q 2591 3584 2966 3190 
Q 3341 2797 3341 1997 
z
" transform="scale(0.015625)"/>
      <path id="DejaVuSans-6e" d="M 3513 2113 
L 3513 0 
L 2938 0 
L 2938 2094 
Q 2938 2591 2744 2837 
Q 2550 3084 2163 3084 
Q 1697 3084 1428 2787 
Q 1159 2491 1159 1978 
L 1159 0 
L 581 0 
L 581 3500 
L 1159 3500 
L 1159 2956 
Q 1366 3272 1645 3428 
Q 1925 3584 2291 3584 
Q 2894 3584 3203 3211 
Q 3513 2838 3513 2113 
z
" transform="scale(0.015625)"/>
      <path id="DejaVuSans-67" d="M 2906 1791 
Q 2906 2416 2648 2759 
Q 2391 3103 1925 3103 
Q 1463 3103 1205 2759 
Q 947 2416 947 1791 
Q 947 1169 1205 825 
Q 1463 481 1925 481 
Q 2391 481 2648 825 
Q 2906 1169 2906 1791 
z
M 3481 434 
Q 3481 -459 3084 -895 
Q 2688 -1331 1869 -1331 
Q 1566 -1331 1297 -1286 
Q 1028 -1241 775 -1147 
L 775 -588 
Q 1028 -725 1275 -790 
Q 1522 -856 1778 -856 
Q 2344 -856 2625 -561 
Q 2906 -266 2906 331 
L 2906 616 
Q 2728 306 2450 153 
Q 2172 0 1784 0 
Q 1141 0 747 490 
Q 353 981 353 1791 
Q 353 2603 747 3093 
Q 1141 3584 1784 3584 
Q 2172 3584 2450 3431 
Q 2728 3278 2906 2969 
L 2906 3500 
L 3481 3500 
L 3481 434 
z
" transform="scale(0.015625)"/>
      <path id="DejaVuSans-6c" d="M 603 4863 
L 1178 4863 
L 1178 0 
L 603 0 
L 603 4863 
z
" transform="scale(0.015625)"/>
      <path id="DejaVuSans-75" d="M 544 1381 
L 544 3500 
L 1119 3500 
L 1119 1403 
Q 1119 906 1312 657 
Q 1506 409 1894 409 
Q 2359 409 2629 706 
Q 2900 1003 2900 1516 
L 2900 3500 
L 3475 3500 
L 3475 0 
L 2900 0 
L 2900 538 
Q 2691 219 2414 64 
Q 2138 -91 1772 -91 
Q 1169 -91 856 284 
Q 544 659 544 1381 
z
M 1991 3584 
L 1991 3584 
z
" transform="scale(0.015625)"/>
      <path id="DejaVuSans-74" d="M 1172 4494 
L 1172 3500 
L 2356 3500 
L 2356 3053 
L 1172 3053 
L 1172 1153 
Q 1172 725 1289 603 
Q 1406 481 1766 481 
L 2356 481 
L 2356 0 
L 1766 0 
Q 1100 0 847 248 
Q 594 497 594 1153 
L 594 3053 
L 172 3053 
L 172 3500 
L 594 3500 
L 594 4494 
L 1172 4494 
z
" transform="scale(0.015625)"/>
      <path id="DejaVuSans-72" d="M 2631 2963 
Q 2534 3019 2420 3045 
Q 2306 3072 2169 3072 
Q 1681 3072 1420 2755 
Q 1159 2438 1159 1844 
L 1159 0 
L 581 0 
L 581 3500 
L 1159 3500 
L 1159 2956 
Q 1341 3275 1631 3429 
Q 1922 3584 2338 3584 
Q 2397 3584 2469 3576 
Q 2541 3569 2628 3553 
L 2631 2963 
z
" transform="scale(0.015625)"/>
     </defs>
     <use xlink:href="#DejaVuSans-4f"/>
     <use xlink:href="#DejaVuSans-4c" transform="translate(78.710938 0)"/>
     <use xlink:href="#DejaVuSans-53" transform="translate(134.423828 0)"/>
     <use xlink:href="#DejaVuSans-20" transform="translate(197.900391 0)"/>
     <use xlink:href="#DejaVuSans-69" transform="translate(229.6875 0)"/>
     <use xlink:href="#DejaVuSans-73" transform="translate(257.470703 0)"/>
     <use xlink:href="#DejaVuSans-20" transform="translate(309.570312 0)"/>
     <use xlink:href="#DejaVuSans-6d" transform="translate(341.357422 0)"/>
     <use xlink:href="#DejaVuSans-6f" transform="translate(438.769531 0)"/>
     <use xlink:href="#DejaVuSans-76" transform="translate(499.951172 0)"/>
     <use xlink:href="#DejaVuSans-65" transform="translate(559.130859 0)"/>
     <use xlink:href="#DejaVuSans-64" transform="translate(620.654297 0)"/>
     <use xlink:href="#DejaVuSans-20" transform="translate(684.130859 0)"/>
     <use xlink:href="#DejaVuSans-62" transform="translate(715.917969 0)"/>
     <use xlink:href="#DejaVuSans-79" transform="translate(779.394531 0)"/>
     <use xlink:href="#DejaVuSans-20" transform="translate(838.574219 0)"/>
     <use xlink:href="#DejaVuSans-61" transform="translate(870.361328 0)"/>
     <use xlink:href="#DejaVuSans-20" transform="translate(931.640625 0)"/>
     <use xlink:href="#DejaVuSans-73" transform="translate(963.427734 0)"/>
     <use xlink:href="#DejaVuSans-69" transform="translate(1015.527344 0)"/>
     <use xlink:href="#DejaVuSans-6e" transform="translate(1043.310547 0)"/>
     <use xlink:href="#DejaVuSans-67" transform="translate(1106.689453 0)"/>
     <use xlink:href="#DejaVuSans-6c" transform="translate(1170.166016 0)"/>
     <use xlink:href="#DejaVuSans-65" transform="translate(1197.949219 0)"/>
     <use xlink:href="#DejaVuSans-20" transform="translate(1259.472656 0)"/>
     <use xlink:href="#DejaVuSans-6f" transform="translate(1291.259766 0)"/>
     <use xlink:href="#DejaVuSans-75" transform="translate(1352.441406 0)"/>
     <use xlink:href="#DejaVuSans-74" transform="translate(1415.820312 0)"/>
     <use xlink:href="#DejaVuSans-6c" transform="translate(1455.029297 0)"/>
     <use xlink:href="#DejaVuSans-69" transform="translate(1482.8125 0)"/>
     <use xlink:href="#DejaVuSans-65" transform="translate(1510.595703 0)"/>
     <use xlink:href="#DejaVuSans-72" transform="translate(1572.119141 0)"/>
    </g>
   </g>
   <g id="PathCollection_2">
    <defs>
     <path id="m193bf67c39" d="M 0 4.472136 
C 1.186024 4.472136 2.323632 4.000923 3.162278 3.162278 
C 4.000923 2.323632 4.472136 1.186024 4.472136 0 
C 4.472136 -1.186024 4.000923 -2.323632 3.162278 -3.162278 
C 2.323632 -4.000923 1.186024 -4.472136 0 -4.472136 
C -1.186024 -4.472136 -2.323632 -4.000923 -3.162278 -3.162278 
C -4.000923 -2.323632 -4.472136 -1.186024 -4.472136 0 
C -4.472136 1.186024 -4.000923 2.323632 -3.162278 3.162278 
C -2.323632 4.000923 -1.186024 4.472136 0 4.472136 
z
" style="stroke: #ff7f0e"/>
    </defs>
    <g clip-path="url(#p362608e5f3)">
     <use xlink:href="#m193bf67c39" x="136.333144" y="32.31267" style="fill: #ff7f0e; stroke: #ff7f0e"/>
    </g>
   </g>
   <g id="legend_1">
    <g id="patch_7">
     <path d="M 300.354688 89.030625 
L 410.14375 89.030625 
Q 412.14375 89.030625 412.14375 87.030625 
L 412.14375 29.318125 
Q 412.14375 27.318125 410.14375 27.318125 
L 300.354688 27.318125 
Q 298.354688 27.318125 298.354688 29.318125 
L 298.354688 87.030625 
Q 298.354688 89.030625 300.354688 89.030625 
z
" style="fill: #ffffff; opacity: 0.8; stroke: #cccccc; stroke-linejoin: miter"/>
    </g>
    <g id="PathCollection_3">
     <g>
      <use xlink:href="#m0b8c2d6b46" x="312.354688" y="36.291562" style="fill: #1f77b4; stroke: #1f77b4"/>
     </g>
    </g>
    <g id="text_18">
     <!-- clean data -->
     <g transform="translate(330.354688 38.916562) scale(0.1 -0.1)">
      <defs>
       <path id="DejaVuSans-63" d="M 3122 3366 
L 3122 2828 
Q 2878 2963 2633 3030 
Q 2388 3097 2138 3097 
Q 1578 3097 1268 2742 
Q 959 2388 959 1747 
Q 959 1106 1268 751 
Q 1578 397 2138 397 
Q 2388 397 2633 464 
Q 2878 531 3122 666 
L 3122 134 
Q 2881 22 2623 -34 
Q 2366 -91 2075 -91 
Q 1284 -91 818 406 
Q 353 903 353 1747 
Q 353 2603 823 3093 
Q 1294 3584 2113 3584 
Q 2378 3584 2631 3529 
Q 2884 3475 3122 3366 
z
" transform="scale(0.015625)"/>
      </defs>
      <use xlink:href="#DejaVuSans-63"/>
      <use xlink:href="#DejaVuSans-6c" transform="translate(54.980469 0)"/>
      <use xlink:href="#DejaVuSans-65" transform="translate(82.763672 0)"/>
      <use xlink:href="#DejaVuSans-61" transform="translate(144.287109 0)"/>
      <use xlink:href="#DejaVuSans-6e" transform="translate(205.566406 0)"/>
      <use xlink:href="#DejaVuSans-20" transform="translate(268.945312 0)"/>
      <use xlink:href="#DejaVuSans-64" transform="translate(300.732422 0)"/>
      <use xlink:href="#DejaVuSans-61" transform="translate(364.208984 0)"/>
      <use xlink:href="#DejaVuSans-74" transform="translate(425.488281 0)"/>
      <use xlink:href="#DejaVuSans-61" transform="translate(464.697266 0)"/>
     </g>
    </g>
    <g id="PathCollection_4">
     <g>
      <use xlink:href="#m193bf67c39" x="312.354688" y="50.969687" style="fill: #ff7f0e; stroke: #ff7f0e"/>
     </g>
    </g>
    <g id="text_19">
     <!-- outlier -->
     <g transform="translate(330.354688 53.594687) scale(0.1 -0.1)">
      <use xlink:href="#DejaVuSans-6f"/>
      <use xlink:href="#DejaVuSans-75" transform="translate(61.181641 0)"/>
      <use xlink:href="#DejaVuSans-74" transform="translate(124.560547 0)"/>
      <use xlink:href="#DejaVuSans-6c" transform="translate(163.769531 0)"/>
      <use xlink:href="#DejaVuSans-69" transform="translate(191.552734 0)"/>
      <use xlink:href="#DejaVuSans-65" transform="translate(219.335938 0)"/>
      <use xlink:href="#DejaVuSans-72" transform="translate(280.859375 0)"/>
     </g>
    </g>
    <g id="line2d_17">
     <path d="M 302.354688 64.772812 
L 312.354688 64.772812 
L 322.354688 64.772812 
" style="fill: none; stroke: #1f77b4; stroke-width: 2; stroke-linecap: square"/>
    </g>
    <g id="text_20">
     <!-- fit (clean) -->
     <g transform="translate(330.354688 68.272812) scale(0.1 -0.1)">
      <defs>
       <path id="DejaVuSans-66" d="M 2375 4863 
L 2375 4384 
L 1825 4384 
Q 1516 4384 1395 4259 
Q 1275 4134 1275 3809 
L 1275 3500 
L 2222 3500 
L 2222 3053 
L 1275 3053 
L 1275 0 
L 697 0 
L 697 3053 
L 147 3053 
L 147 3500 
L 697 3500 
L 697 3744 
Q 697 4328 969 4595 
Q 1241 4863 1831 4863 
L 2375 4863 
z
" transform="scale(0.015625)"/>
       <path id="DejaVuSans-28" d="M 1984 4856 
Q 1566 4138 1362 3434 
Q 1159 2731 1159 2009 
Q 1159 1288 1364 580 
Q 1569 -128 1984 -844 
L 1484 -844 
Q 1016 -109 783 600 
Q 550 1309 550 2009 
Q 550 2706 781 3412 
Q 1013 4119 1484 4856 
L 1984 4856 
z
" transform="scale(0.015625)"/>
       <path id="DejaVuSans-29" d="M 513 4856 
L 1013 4856 
Q 1481 4119 1714 3412 
Q 1947 2706 1947 2009 
Q 1947 1309 1714 600 
Q 1481 -109 1013 -844 
L 513 -844 
Q 928 -128 1133 580 
Q 1338 1288 1338 2009 
Q 1338 2731 1133 3434 
Q 928 4138 513 4856 
z
" transform="scale(0.015625)"/>
      </defs>
      <use xlink:href="#DejaVuSans-66"/>
      <use xlink:href="#DejaVuSans-69" transform="translate(35.205078 0)"/>
      <use xlink:href="#DejaVuSans-74" transform="translate(62.988281 0)"/>
      <use xlink:href="#DejaVuSans-20" transform="translate(102.197266 0)"/>
      <use xlink:href="#DejaVuSans-28" transform="translate(133.984375 0)"/>
      <use xlink:href="#DejaVuSans-63" transform="translate(172.998047 0)"/>
      <use xlink:href="#DejaVuSans-6c" transform="translate(227.978516 0)"/>
      <use xlink:href="#DejaVuSans-65" transform="translate(255.761719 0)"/>
      <use xlink:href="#DejaVuSans-61" transform="translate(317.285156 0)"/>
      <use xlink:href="#DejaVuSans-6e" transform="translate(378.564453 0)"/>
      <use xlink:href="#DejaVuSans-29" transform="translate(441.943359 0)"/>
     </g>
    </g>
    <g id="line2d_18">
     <path d="M 302.354688 79.450938 
L 312.354688 79.450938 
L 322.354688 79.450938 
" style="fill: none; stroke-dasharray: 7.4,3.2; stroke-dashoffset: 0; stroke: #ff7f0e; stroke-width: 2"/>
    </g>
    <g id="text_21">
     <!-- fit (with outlier) -->
     <g transform="translate(330.354688 82.950938) scale(0.1 -0.1)">
      <defs>
       <path id="DejaVuSans-77" d="M 269 3500 
L 844 3500 
L 1563 769 
L 2278 3500 
L 2956 3500 
L 3675 769 
L 4391 3500 
L 4966 3500 
L 4050 0 
L 3372 0 
L 2619 2869 
L 1863 0 
L 1184 0 
L 269 3500 
z
" transform="scale(0.015625)"/>
       <path id="DejaVuSans-68" d="M 3513 2113 
L 3513 0 
L 2938 0 
L 2938 2094 
Q 2938 2591 2744 2837 
Q 2550 3084 2163 3084 
Q 1697 3084 1428 2787 
Q 1159 2491 1159 1978 
L 1159 0 
L 581 0 
L 581 4863 
L 1159 4863 
L 1159 2956 
Q 1366 3272 1645 3428 
Q 1925 3584 2291 3584 
Q 2894 3584 3203 3211 
Q 3513 2838 3513 2113 
z
" transform="scale(0.015625)"/>
      </defs>
      <use xlink:href="#DejaVuSans-66"/>
      <use xlink:href="#DejaVuSans-69" transform="translate(35.205078 0)"/>
      <use xlink:href="#DejaVuSans-74" transform="translate(62.988281 0)"/>
      <use xlink:href="#DejaVuSans-20" transform="translate(102.197266 0)"/>
      <use xlink:href="#DejaVuSans-28" transform="translate(133.984375 0)"/>
      <use xlink:href="#DejaVuSans-77" transform="translate(172.998047 0)"/>
      <use xlink:href="#DejaVuSans-69" transform="translate(254.785156 0)"/>
      <use xlink:href="#DejaVuSans-74" transform="translate(282.568359 0)"/>
      <use xlink:href="#DejaVuSans-68" transform="translate(321.777344 0)"/>
      <use xlink:href="#DejaVuSans-20" transform="translate(385.15625 0)"/>
      <use xlink:href="#DejaVuSans-6f" transform="translate(416.943359 0)"/>
      <use xlink:href="#DejaVuSans-75" transform="translate(478.125 0)"/>
      <use xlink:href="#DejaVuSans-74" transform="translate(541.503906 0)"/>
      <use xlink:href="#DejaVuSans-6c" transform="translate(580.712891 0)"/>
      <use xlink:href="#DejaVuSans-69" transform="translate(608.496094 0)"/>
      <use xlink:href="#DejaVuSans-65" transform="translate(636.279297 0)"/>
      <use xlink:href="#DejaVuSans-72" transform="translate(697.802734 0)"/>
      <use xlink:href="#DejaVuSans-29" transform="translate(738.916016 0)"/>
     </g>
    </g>
   </g>
  </g>
 </g>
 <defs>
  <clipPath id="p362608e5f3">
   <rect x="50.14375" y="22.318125" width="367" height="219.88"/>
  </clipPath>
 </defs>
</svg>
