<?xml version="1.0" encoding="utf-8" standalone="no"?>
<!DOCTYPE svg PUBLIC "-//W3C//DTD SVG 1.1//EN"
  "http://www.w3.org/Graphics/SVG/1.1/DTD/svg11.dtd">
<svg xmlns:xlink="http://www.w3.org/1999/xlink" width="578.23421pt" height="300.427886pt" viewBox="0 0 578.23421 300.427886" xmlns="http://www.w3.org/2000/svg" version="1.1">
 <metadata>
  <rdf:RDF xmlns:dc="http://purl.org/dc/elements/1.1/" xmlns:cc="http://creativecommons.org/ns#" xmlns:rdf="http://www.w3.org/1999/02/22-rdf-syntax-ns#">
   <cc:Work>
    <dc:type rdf:resource="http://purl.org/dc/dcmitype/StillImage"/>
    <dc:date>2026-05-13T19:05:10.391372</dc:date>
    <dc:format>image/svg+xml</dc:format>
    <dc:creator>
     <cc:Agent>
      <dc:title>Matplotlib v3.10.9, https://matplotlib.org/</dc:title>
     </cc:Agent>
    </dc:creator>
   </cc:Work>
  </rdf:RDF>
 </metadata>
 <defs>
  <style type="text/css">*{stroke-linejoin: round; stroke-linecap: butt}</style>
 </defs>
 <g id="figure_1">
  <g id="patch_1">
   <path d="M 0 300.427886 
L 578.23421 300.427886 
L 578.23421 0 
L 0 0 
z
" style="fill: #ffffff"/>
  </g>
  <g id="axes_1">
   <g id="patch_2">
    <path d="M 52.160938 262.871636 
L 268.76821 262.871636 
L 268.76821 46.264364 
L 52.160938 46.264364 
z
" style="fill: #ffffff"/>
   </g>
   <g id="patch_3">
    <path d="M 160.464574 203.304636 
C 173.389681 203.304636 185.787149 198.169437 194.92658 189.030006 
C 204.066011 179.890575 209.20121 167.493107 209.20121 154.568 
C 209.20121 141.642893 204.066011 129.245425 194.92658 120.105994 
C 185.787149 110.966563 173.389681 105.831364 160.464574 105.831364 
C 147.539467 105.831364 135.141999 110.966563 126.002568 120.105994 
C 116.863137 129.245425 111.727937 141.642893 111.727937 154.568 
C 111.727937 167.493107 116.863137 179.890575 126.002568 189.030006 
C 135.141999 198.169437 147.539467 203.304636 160.464574 203.304636 
L 160.464574 203.304636 
z
" clip-path="url(#p1ed5906821)" style="fill: none; stroke: #d62728; stroke-width: 2; stroke-linejoin: miter"/>
   </g>
   <g id="matplotlib.axis_1">
    <g id="xtick_1">
     <g id="line2d_1">
      <defs>
       <path id="m72229de7b9" d="M 0 0 
L 0 3.5 
" style="stroke: #000000; stroke-width: 0.8"/>
      </defs>
      <g>
       <use xlink:href="#m72229de7b9" x="52.160938" y="262.871636" style="stroke: #000000; stroke-width: 0.8"/>
      </g>
     </g>
     <g id="text_1">
      <!-- −2 -->
      <g transform="translate(44.789844 277.470074) scale(0.1 -0.1)">
       <defs>
        <path id="DejaVuSans-2212" d="M 678 2272 
L 4684 2272 
L 4684 1741 
L 678 1741 
L 678 2272 
z
" transform="scale(0.015625)"/>
        <path id="DejaVuSans-32" d="M 1228 531 
L 3431 531 
L 3431 0 
L 469 0 
L 469 531 
Q 828 903 1448 1529 
Q 2069 2156 2228 2338 
Q 2531 2678 2651 2914 
Q 2772 3150 2772 3378 
Q 2772 3750 2511 3984 
Q 2250 4219 1831 4219 
Q 1534 4219 1204 4116 
Q 875 4013 500 3803 
L 500 4441 
Q 881 4594 1212 4672 
Q 1544 4750 1819 4750 
Q 2544 4750 2975 4387 
Q 3406 4025 3406 3419 
Q 3406 3131 3298 2873 
Q 3191 2616 2906 2266 
Q 2828 2175 2409 1742 
Q 1991 1309 1228 531 
z
" transform="scale(0.015625)"/>
       </defs>
       <use xlink:href="#DejaVuSans-2212"/>
       <use xlink:href="#DejaVuSans-32" transform="translate(83.789062 0)"/>
      </g>
     </g>
    </g>
    <g id="xtick_2">
     <g id="line2d_2">
      <g>
       <use xlink:href="#m72229de7b9" x="106.312756" y="262.871636" style="stroke: #000000; stroke-width: 0.8"/>
      </g>
     </g>
     <g id="text_2">
      <!-- −1 -->
      <g transform="translate(98.941662 277.470074) scale(0.1 -0.1)">
       <defs>
        <path id="DejaVuSans-31" d="M 794 531 
L 1825 531 
L 1825 4091 
L 703 3866 
L 703 4441 
L 1819 4666 
L 2450 4666 
L 2450 531 
L 3481 531 
L 3481 0 
L 794 0 
L 794 531 
z
" transform="scale(0.015625)"/>
       </defs>
       <use xlink:href="#DejaVuSans-2212"/>
       <use xlink:href="#DejaVuSans-31" transform="translate(83.789062 0)"/>
      </g>
     </g>
    </g>
    <g id="xtick_3">
     <g id="line2d_3">
      <g>
       <use xlink:href="#m72229de7b9" x="160.464574" y="262.871636" style="stroke: #000000; stroke-width: 0.8"/>
      </g>
     </g>
     <g id="text_3">
      <!-- 0 -->
      <g transform="translate(157.283324 277.470074) scale(0.1 -0.1)">
       <defs>
        <path id="DejaVuSans-30" d="M 2034 4250 
Q 1547 4250 1301 3770 
Q 1056 3291 1056 2328 
Q 1056 1369 1301 889 
Q 1547 409 2034 409 
Q 2525 409 2770 889 
Q 3016 1369 3016 2328 
Q 3016 3291 2770 3770 
Q 2525 4250 2034 4250 
z
M 2034 4750 
Q 2819 4750 3233 4129 
Q 3647 3509 3647 2328 
Q 3647 1150 3233 529 
Q 2819 -91 2034 -91 
Q 1250 -91 836 529 
Q 422 1150 422 2328 
Q 422 3509 836 4129 
Q 1250 4750 2034 4750 
z
" transform="scale(0.015625)"/>
       </defs>
       <use xlink:href="#DejaVuSans-30"/>
      </g>
     </g>
    </g>
    <g id="xtick_4">
     <g id="line2d_4">
      <g>
       <use xlink:href="#m72229de7b9" x="214.616392" y="262.871636" style="stroke: #000000; stroke-width: 0.8"/>
      </g>
     </g>
     <g id="text_4">
      <!-- 1 -->
      <g transform="translate(211.435142 277.470074) scale(0.1 -0.1)">
       <use xlink:href="#DejaVuSans-31"/>
      </g>
     </g>
    </g>
    <g id="xtick_5">
     <g id="line2d_5">
      <g>
       <use xlink:href="#m72229de7b9" x="268.76821" y="262.871636" style="stroke: #000000; stroke-width: 0.8"/>
      </g>
     </g>
     <g id="text_5">
      <!-- 2 -->
      <g transform="translate(265.58696 277.470074) scale(0.1 -0.1)">
       <use xlink:href="#DejaVuSans-32"/>
      </g>
     </g>
    </g>
    <g id="text_6">
     <!-- $\theta_1$ -->
     <g transform="translate(155.014574 291.148199) scale(0.1 -0.1)">
      <defs>
       <path id="DejaVuSans-Oblique-3b8" d="M 2913 2219 
L 925 2219 
Q 791 1284 928 888 
Q 1100 400 1566 400 
Q 2034 400 2391 891 
Q 2703 1322 2913 2219 
z
M 3009 2750 
Q 3094 3638 2984 3950 
Q 2813 4444 2353 4444 
Q 1875 4444 1525 3956 
Q 1250 3563 1034 2750 
L 3009 2750 
z
M 2444 4913 
Q 3194 4913 3494 4250 
Q 3794 3591 3566 2422 
Q 3341 1256 2781 594 
Q 2225 -72 1475 -72 
Q 722 -72 425 594 
Q 128 1256 353 2422 
Q 581 3591 1134 4250 
Q 1691 4913 2444 4913 
z
" transform="scale(0.015625)"/>
      </defs>
      <use xlink:href="#DejaVuSans-Oblique-3b8" transform="translate(0 0.234375)"/>
      <use xlink:href="#DejaVuSans-31" transform="translate(61.181641 -16.171875) scale(0.7)"/>
     </g>
    </g>
   </g>
   <g id="matplotlib.axis_2">
    <g id="ytick_1">
     <g id="line2d_6">
      <defs>
       <path id="mdb5b7a9d8d" d="M 0 0 
L -3.5 0 
" style="stroke: #000000; stroke-width: 0.8"/>
      </defs>
      <g>
       <use xlink:href="#mdb5b7a9d8d" x="52.160938" y="262.871636" style="stroke: #000000; stroke-width: 0.8"/>
      </g>
     </g>
     <g id="text_7">
      <!-- −2.0 -->
      <g transform="translate(20.878125 266.670855) scale(0.1 -0.1)">
       <defs>
        <path id="DejaVuSans-2e" d="M 684 794 
L 1344 794 
L 1344 0 
L 684 0 
L 684 794 
z
" transform="scale(0.015625)"/>
       </defs>
       <use xlink:href="#DejaVuSans-2212"/>
       <use xlink:href="#DejaVuSans-32" transform="translate(83.789062 0)"/>
       <use xlink:href="#DejaVuSans-2e" transform="translate(147.412109 0)"/>
       <use xlink:href="#DejaVuSans-30" transform="translate(179.199219 0)"/>
      </g>
     </g>
    </g>
    <g id="ytick_2">
     <g id="line2d_7">
      <g>
       <use xlink:href="#mdb5b7a9d8d" x="52.160938" y="235.795727" style="stroke: #000000; stroke-width: 0.8"/>
      </g>
     </g>
     <g id="text_8">
      <!-- −1.5 -->
      <g transform="translate(20.878125 239.594946) scale(0.1 -0.1)">
       <defs>
        <path id="DejaVuSans-35" d="M 691 4666 
L 3169 4666 
L 3169 4134 
L 1269 4134 
L 1269 2991 
Q 1406 3038 1543 3061 
Q 1681 3084 1819 3084 
Q 2600 3084 3056 2656 
Q 3513 2228 3513 1497 
Q 3513 744 3044 326 
Q 2575 -91 1722 -91 
Q 1428 -91 1123 -41 
Q 819 9 494 109 
L 494 744 
Q 775 591 1075 516 
Q 1375 441 1709 441 
Q 2250 441 2565 725 
Q 2881 1009 2881 1497 
Q 2881 1984 2565 2268 
Q 2250 2553 1709 2553 
Q 1456 2553 1204 2497 
Q 953 2441 691 2322 
L 691 4666 
z
" transform="scale(0.015625)"/>
       </defs>
       <use xlink:href="#DejaVuSans-2212"/>
       <use xlink:href="#DejaVuSans-31" transform="translate(83.789062 0)"/>
       <use xlink:href="#DejaVuSans-2e" transform="translate(147.412109 0)"/>
       <use xlink:href="#DejaVuSans-35" transform="translate(179.199219 0)"/>
      </g>
     </g>
    </g>
    <g id="ytick_3">
     <g id="line2d_8">
      <g>
       <use xlink:href="#mdb5b7a9d8d" x="52.160938" y="208.719818" style="stroke: #000000; stroke-width: 0.8"/>
      </g>
     </g>
     <g id="text_9">
      <!-- −1.0 -->
      <g transform="translate(20.878125 212.519037) scale(0.1 -0.1)">
       <use xlink:href="#DejaVuSans-2212"/>
       <use xlink:href="#DejaVuSans-31" transform="translate(83.789062 0)"/>
       <use xlink:href="#DejaVuSans-2e" transform="translate(147.412109 0)"/>
       <use xlink:href="#DejaVuSans-30" transform="translate(179.199219 0)"/>
      </g>
     </g>
    </g>
    <g id="ytick_4">
     <g id="line2d_9">
      <g>
       <use xlink:href="#mdb5b7a9d8d" x="52.160938" y="181.643909" style="stroke: #000000; stroke-width: 0.8"/>
      </g>
     </g>
     <g id="text_10">
      <!-- −0.5 -->
      <g transform="translate(20.878125 185.443128) scale(0.1 -0.1)">
       <use xlink:href="#DejaVuSans-2212"/>
       <use xlink:href="#DejaVuSans-30" transform="translate(83.789062 0)"/>
       <use xlink:href="#DejaVuSans-2e" transform="translate(147.412109 0)"/>
       <use xlink:href="#DejaVuSans-35" transform="translate(179.199219 0)"/>
      </g>
     </g>
    </g>
    <g id="ytick_5">
     <g id="line2d_10">
      <g>
       <use xlink:href="#mdb5b7a9d8d" x="52.160938" y="154.568" style="stroke: #000000; stroke-width: 0.8"/>
      </g>
     </g>
     <g id="text_11">
      <!-- 0.0 -->
      <g transform="translate(29.257813 158.367219) scale(0.1 -0.1)">
       <use xlink:href="#DejaVuSans-30"/>
       <use xlink:href="#DejaVuSans-2e" transform="translate(63.623047 0)"/>
       <use xlink:href="#DejaVuSans-30" transform="translate(95.410156 0)"/>
      </g>
     </g>
    </g>
    <g id="ytick_6">
     <g id="line2d_11">
      <g>
       <use xlink:href="#mdb5b7a9d8d" x="52.160938" y="127.492091" style="stroke: #000000; stroke-width: 0.8"/>
      </g>
     </g>
     <g id="text_12">
      <!-- 0.5 -->
      <g transform="translate(29.257813 131.29131) scale(0.1 -0.1)">
       <use xlink:href="#DejaVuSans-30"/>
       <use xlink:href="#DejaVuSans-2e" transform="translate(63.623047 0)"/>
       <use xlink:href="#DejaVuSans-35" transform="translate(95.410156 0)"/>
      </g>
     </g>
    </g>
    <g id="ytick_7">
     <g id="line2d_12">
      <g>
       <use xlink:href="#mdb5b7a9d8d" x="52.160938" y="100.416182" style="stroke: #000000; stroke-width: 0.8"/>
      </g>
     </g>
     <g id="text_13">
      <!-- 1.0 -->
      <g transform="translate(29.257813 104.215401) scale(0.1 -0.1)">
       <use xlink:href="#DejaVuSans-31"/>
       <use xlink:href="#DejaVuSans-2e" transform="translate(63.623047 0)"/>
       <use xlink:href="#DejaVuSans-30" transform="translate(95.410156 0)"/>
      </g>
     </g>
    </g>
    <g id="ytick_8">
     <g id="line2d_13">
      <g>
       <use xlink:href="#mdb5b7a9d8d" x="52.160938" y="73.340273" style="stroke: #000000; stroke-width: 0.8"/>
      </g>
     </g>
     <g id="text_14">
      <!-- 1.5 -->
      <g transform="translate(29.257813 77.139491) scale(0.1 -0.1)">
       <use xlink:href="#DejaVuSans-31"/>
       <use xlink:href="#DejaVuSans-2e" transform="translate(63.623047 0)"/>
       <use xlink:href="#DejaVuSans-35" transform="translate(95.410156 0)"/>
      </g>
     </g>
    </g>
    <g id="ytick_9">
     <g id="line2d_14">
      <g>
       <use xlink:href="#mdb5b7a9d8d" x="52.160938" y="46.264364" style="stroke: #000000; stroke-width: 0.8"/>
      </g>
     </g>
     <g id="text_15">
      <!-- 2.0 -->
      <g transform="translate(29.257813 50.063582) scale(0.1 -0.1)">
       <use xlink:href="#DejaVuSans-32"/>
       <use xlink:href="#DejaVuSans-2e" transform="translate(63.623047 0)"/>
       <use xlink:href="#DejaVuSans-30" transform="translate(95.410156 0)"/>
      </g>
     </g>
    </g>
    <g id="text_16">
     <!-- $\theta_2$ -->
     <g transform="translate(14.798438 160.018) rotate(-90) scale(0.1 -0.1)">
      <use xlink:href="#DejaVuSans-Oblique-3b8" transform="translate(0 0.234375)"/>
      <use xlink:href="#DejaVuSans-32" transform="translate(61.181641 -16.171875) scale(0.7)"/>
     </g>
    </g>
   </g>
   <g id="QuadContourSet_1">
    <path clip-path="url(#p1ed5906821)" style="fill: none; stroke: #1f77b4; stroke-opacity: 0.7; stroke-width: 0.7"/>
    <path d="M 268.76821 250.609207 
L 261.599181 246.585375 
L 254.110575 242.112304 
L 246.51032 237.296813 
L 238.910065 232.206944 
L 231.30981 226.845003 
L 223.709554 221.210471 
L 216.109299 215.30081 
L 208.509044 209.11191 
L 200.881562 202.61247 
L 193.308534 195.864162 
L 185.708279 188.783707 
L 178.650899 181.918634 
L 171.593519 174.756495 
L 164.536139 167.277309 
L 157.718042 159.725316 
L 151.154639 152.125061 
L 144.880254 144.524806 
L 138.887389 136.92455 
L 133.049368 129.158968 
L 127.620614 121.571559 
L 122.555627 114.123785 
L 117.657505 106.52353 
L 113.356716 99.46615 
L 109.162851 92.164728 
L 105.362724 85.107935 
L 101.937364 78.29401 
L 98.848219 71.674204 
L 96.091733 65.265002 
L 93.539244 58.750497 
L 91.433243 52.778868 
L 89.565828 46.807239 
L 89.408757 46.264364 
L 89.408757 46.264364 
" clip-path="url(#p1ed5906821)" style="fill: none; stroke: #1f77b4; stroke-opacity: 0.7; stroke-width: 0.7"/>
    <path d="M 219.293341 262.871636 
L 210.13767 255.801927 
L 200.908789 248.386357 
L 192.222783 241.137323 
L 182.993902 233.140919 
L 174.307896 225.330042 
L 165.62189 217.232681 
L 156.679736 208.584099 
L 148.026148 199.898093 
L 139.563872 191.085507 
L 131.143476 181.983206 
L 123.277611 173.158534 
L 115.471193 164.068319 
L 107.844256 154.839438 
L 100.476845 145.566534 
L 93.419466 136.317906 
L 86.70889 127.152794 
L 80.390457 118.151071 
L 74.400063 109.237907 
L 68.47812 100.009025 
L 63.018445 91.072147 
L 58.116746 82.637013 
L 53.246688 73.794345 
L 52.160938 71.751096 
L 52.160938 71.751096 
" clip-path="url(#p1ed5906821)" style="fill: none; stroke: #1f77b4; stroke-opacity: 0.7; stroke-width: 0.7"/>
    <path d="M 176.469233 262.871636 
L 166.617146 254.18563 
L 156.497153 244.956749 
L 146.712845 235.727868 
L 137.24486 226.498987 
L 127.620614 216.803236 
L 118.391733 207.192184 
L 109.162851 197.256599 
L 100.319742 187.41196 
L 91.79084 177.595715 
L 83.104834 167.248911 
L 74.810053 157.010939 
L 66.818572 146.786769 
L 59.383149 136.92455 
L 52.160938 126.988702 
L 52.160938 126.988702 
" clip-path="url(#p1ed5906821)" style="fill: none; stroke: #1f77b4; stroke-opacity: 0.7; stroke-width: 0.7"/>
    <path d="M 142.977125 262.871636 
L 132.506492 252.973224 
L 122.057835 242.785248 
L 111.801822 232.470616 
L 101.562596 221.846722 
L 91.708489 211.298476 
L 81.879047 200.440969 
L 72.35755 189.583461 
L 63.135745 178.725954 
L 54.206799 167.868447 
L 52.160938 165.330047 
L 52.160938 165.330047 
" clip-path="url(#p1ed5906821)" style="fill: none; stroke: #1f77b4; stroke-opacity: 0.7; stroke-width: 0.7"/>
    <path d="M 114.518779 262.871636 
L 103.542218 252.014129 
L 92.87659 241.152441 
L 82.521825 230.299114 
L 71.959014 218.898731 
L 61.707161 207.498349 
L 52.160938 196.567118 
L 52.160938 196.567118 
" clip-path="url(#p1ed5906821)" style="fill: none; stroke: #1f77b4; stroke-opacity: 0.7; stroke-width: 0.7"/>
    <path d="M 89.337638 262.871636 
L 78.178336 251.471254 
L 67.322633 240.070871 
L 56.50394 228.389965 
L 52.160938 223.60745 
L 52.160938 223.60745 
" clip-path="url(#p1ed5906821)" style="fill: none; stroke: #1f77b4; stroke-opacity: 0.7; stroke-width: 0.7"/>
    <path d="M 66.509255 262.871636 
L 66.275697 262.630193 
L 65.984286 262.328761 
L 65.732822 262.068486 
L 65.459954 261.785886 
L 65.189946 261.506072 
L 64.936258 261.24301 
L 64.647071 260.942951 
L 64.413195 260.700135 
L 64.104196 260.379121 
L 63.890766 260.15726 
L 63.56132 259.814582 
L 63.368969 259.614384 
L 63.018445 259.249332 
L 62.847803 259.071509 
L 62.47557 258.683368 
L 62.327266 258.528633 
L 61.932694 258.116691 
L 61.807358 257.985758 
L 61.389819 257.549299 
L 61.288077 257.442883 
L 60.846943 256.98119 
L 60.769422 256.900007 
L 60.304068 256.412363 
L 60.251393 256.357132 
L 59.761193 255.842817 
L 59.733988 255.814257 
L 59.218317 255.27255 
L 59.217205 255.271381 
L 58.701096 254.728506 
L 58.675442 254.701504 
L 58.185611 254.18563 
L 58.132567 254.12973 
L 57.670747 253.642755 
L 57.589691 253.55723 
L 57.156502 253.09988 
L 57.046816 252.984002 
L 56.642875 252.557004 
L 56.50394 252.410045 
L 56.129866 252.014129 
L 55.961065 251.835358 
L 55.617473 251.471254 
L 55.41819 251.259938 
L 55.105696 250.928378 
L 54.875314 250.683785 
L 54.594532 250.385503 
L 54.332439 250.106897 
L 54.083981 249.842627 
L 53.789564 249.529273 
L 53.574042 249.299752 
L 53.246688 248.950911 
L 53.064714 248.756877 
L 52.703813 248.371811 
L 52.555995 248.214001 
L 52.160938 247.79197 
" clip-path="url(#p1ed5906821)" style="fill: none; stroke: #1f77b4; stroke-opacity: 0.7; stroke-width: 0.7"/>
    <path clip-path="url(#p1ed5906821)" style="fill: none; stroke: #1f77b4; stroke-opacity: 0.7; stroke-width: 0.7"/>
   </g>
   <g id="line2d_15">
    <path d="M 52.160938 154.568 
L 268.76821 154.568 
" clip-path="url(#p1ed5906821)" style="fill: none; stroke: #000000; stroke-width: 0.4; stroke-linecap: square"/>
   </g>
   <g id="line2d_16">
    <path d="M 160.464574 262.871636 
L 160.464574 46.264364 
" clip-path="url(#p1ed5906821)" style="fill: none; stroke: #000000; stroke-width: 0.4; stroke-linecap: square"/>
   </g>
   <g id="patch_4">
    <path d="M 52.160938 262.871636 
L 52.160938 46.264364 
" style="fill: none; stroke: #000000; stroke-width: 0.8; stroke-linejoin: miter; stroke-linecap: square"/>
   </g>
   <g id="patch_5">
    <path d="M 268.76821 262.871636 
L 268.76821 46.264364 
" style="fill: none; stroke: #000000; stroke-width: 0.8; stroke-linejoin: miter; stroke-linecap: square"/>
   </g>
   <g id="patch_6">
    <path d="M 52.160938 262.871636 
L 268.76821 262.871636 
" style="fill: none; stroke: #000000; stroke-width: 0.8; stroke-linejoin: miter; stroke-linecap: square"/>
   </g>
   <g id="patch_7">
    <path d="M 52.160938 46.264364 
L 268.76821 46.264364 
" style="fill: none; stroke: #000000; stroke-width: 0.8; stroke-linejoin: miter; stroke-linecap: square"/>
   </g>
   <g id="text_17">
    <!-- Ridge: smooth ball, optimum off-axis -->
    <g transform="translate(68.189574 40.264364) scale(0.1 -0.1)">
     <defs>
      <path id="DejaVuSans-52" d="M 2841 2188 
Q 3044 2119 3236 1894 
Q 3428 1669 3622 1275 
L 4263 0 
L 3584 0 
L 2988 1197 
Q 2756 1666 2539 1819 
Q 2322 1972 1947 1972 
L 1259 1972 
L 1259 0 
L 628 0 
L 628 4666 
L 2053 4666 
Q 2853 4666 3247 4331 
Q 3641 3997 3641 3322 
Q 3641 2881 3436 2590 
Q 3231 2300 2841 2188 
z
M 1259 4147 
L 1259 2491 
L 2053 2491 
Q 2509 2491 2742 2702 
Q 2975 2913 2975 3322 
Q 2975 3731 2742 3939 
Q 2509 4147 2053 4147 
L 1259 4147 
z
" transform="scale(0.015625)"/>
      <path id="DejaVuSans-69" d="M 603 3500 
L 1178 3500 
L 1178 0 
L 603 0 
L 603 3500 
z
M 603 4863 
L 1178 4863 
L 1178 4134 
L 603 4134 
L 603 4863 
z
" transform="scale(0.015625)"/>
      <path id="DejaVuSans-64" d="M 2906 2969 
L 2906 4863 
L 3481 4863 
L 3481 0 
L 2906 0 
L 2906 525 
Q 2725 213 2448 61 
Q 2172 -91 1784 -91 
Q 1150 -91 751 415 
Q 353 922 353 1747 
Q 353 2572 751 3078 
Q 1150 3584 1784 3584 
Q 2172 3584 2448 3432 
Q 2725 3281 2906 2969 
z
M 947 1747 
Q 947 1113 1208 752 
Q 1469 391 1925 391 
Q 2381 391 2643 752 
Q 2906 1113 2906 1747 
Q 2906 2381 2643 2742 
Q 2381 3103 1925 3103 
Q 1469 3103 1208 2742 
Q 947 2381 947 1747 
z
" transform="scale(0.015625)"/>
      <path id="DejaVuSans-67" d="M 2906 1791 
Q 2906 2416 2648 2759 
Q 2391 3103 1925 3103 
Q 1463 3103 1205 2759 
Q 947 2416 947 1791 
Q 947 1169 1205 825 
Q 1463 481 1925 481 
Q 2391 481 2648 825 
Q 2906 1169 2906 1791 
z
M 3481 434 
Q 3481 -459 3084 -895 
Q 2688 -1331 1869 -1331 
Q 1566 -1331 1297 -1286 
Q 1028 -1241 775 -1147 
L 775 -588 
Q 1028 -725 1275 -790 
Q 1522 -856 1778 -856 
Q 2344 -856 2625 -561 
Q 2906 -266 2906 331 
L 2906 616 
Q 2728 306 2450 153 
Q 2172 0 1784 0 
Q 1141 0 747 490 
Q 353 981 353 1791 
Q 353 2603 747 3093 
Q 1141 3584 1784 3584 
Q 2172 3584 2450 3431 
Q 2728 3278 2906 2969 
L 2906 3500 
L 3481 3500 
L 3481 434 
z
" transform="scale(0.015625)"/>
      <path id="DejaVuSans-65" d="M 3597 1894 
L 3597 1613 
L 953 1613 
Q 991 1019 1311 708 
Q 1631 397 2203 397 
Q 2534 397 2845 478 
Q 3156 559 3463 722 
L 3463 178 
Q 3153 47 2828 -22 
Q 2503 -91 2169 -91 
Q 1331 -91 842 396 
Q 353 884 353 1716 
Q 353 2575 817 3079 
Q 1281 3584 2069 3584 
Q 2775 3584 3186 3129 
Q 3597 2675 3597 1894 
z
M 3022 2063 
Q 3016 2534 2758 2815 
Q 2500 3097 2075 3097 
Q 1594 3097 1305 2825 
Q 1016 2553 972 2059 
L 3022 2063 
z
" transform="scale(0.015625)"/>
      <path id="DejaVuSans-3a" d="M 750 794 
L 1409 794 
L 1409 0 
L 750 0 
L 750 794 
z
M 750 3309 
L 1409 3309 
L 1409 2516 
L 750 2516 
L 750 3309 
z
" transform="scale(0.015625)"/>
      <path id="DejaVuSans-20" transform="scale(0.015625)"/>
      <path id="DejaVuSans-73" d="M 2834 3397 
L 2834 2853 
Q 2591 2978 2328 3040 
Q 2066 3103 1784 3103 
Q 1356 3103 1142 2972 
Q 928 2841 928 2578 
Q 928 2378 1081 2264 
Q 1234 2150 1697 2047 
L 1894 2003 
Q 2506 1872 2764 1633 
Q 3022 1394 3022 966 
Q 3022 478 2636 193 
Q 2250 -91 1575 -91 
Q 1294 -91 989 -36 
Q 684 19 347 128 
L 347 722 
Q 666 556 975 473 
Q 1284 391 1588 391 
Q 1994 391 2212 530 
Q 2431 669 2431 922 
Q 2431 1156 2273 1281 
Q 2116 1406 1581 1522 
L 1381 1569 
Q 847 1681 609 1914 
Q 372 2147 372 2553 
Q 372 3047 722 3315 
Q 1072 3584 1716 3584 
Q 2034 3584 2315 3537 
Q 2597 3491 2834 3397 
z
" transform="scale(0.015625)"/>
      <path id="DejaVuSans-6d" d="M 3328 2828 
Q 3544 3216 3844 3400 
Q 4144 3584 4550 3584 
Q 5097 3584 5394 3201 
Q 5691 2819 5691 2113 
L 5691 0 
L 5113 0 
L 5113 2094 
Q 5113 2597 4934 2840 
Q 4756 3084 4391 3084 
Q 3944 3084 3684 2787 
Q 3425 2491 3425 1978 
L 3425 0 
L 2847 0 
L 2847 2094 
Q 2847 2600 2669 2842 
Q 2491 3084 2119 3084 
Q 1678 3084 1418 2786 
Q 1159 2488 1159 1978 
L 1159 0 
L 581 0 
L 581 3500 
L 1159 3500 
L 1159 2956 
Q 1356 3278 1631 3431 
Q 1906 3584 2284 3584 
Q 2666 3584 2933 3390 
Q 3200 3197 3328 2828 
z
" transform="scale(0.015625)"/>
      <path id="DejaVuSans-6f" d="M 1959 3097 
Q 1497 3097 1228 2736 
Q 959 2375 959 1747 
Q 959 1119 1226 758 
Q 1494 397 1959 397 
Q 2419 397 2687 759 
Q 2956 1122 2956 1747 
Q 2956 2369 2687 2733 
Q 2419 3097 1959 3097 
z
M 1959 3584 
Q 2709 3584 3137 3096 
Q 3566 2609 3566 1747 
Q 3566 888 3137 398 
Q 2709 -91 1959 -91 
Q 1206 -91 779 398 
Q 353 888 353 1747 
Q 353 2609 779 3096 
Q 1206 3584 1959 3584 
z
" transform="scale(0.015625)"/>
      <path id="DejaVuSans-74" d="M 1172 4494 
L 1172 3500 
L 2356 3500 
L 2356 3053 
L 1172 3053 
L 1172 1153 
Q 1172 725 1289 603 
Q 1406 481 1766 481 
L 2356 481 
L 2356 0 
L 1766 0 
Q 1100 0 847 248 
Q 594 497 594 1153 
L 594 3053 
L 172 3053 
L 172 3500 
L 594 3500 
L 594 4494 
L 1172 4494 
z
" transform="scale(0.015625)"/>
      <path id="DejaVuSans-68" d="M 3513 2113 
L 3513 0 
L 2938 0 
L 2938 2094 
Q 2938 2591 2744 2837 
Q 2550 3084 2163 3084 
Q 1697 3084 1428 2787 
Q 1159 2491 1159 1978 
L 1159 0 
L 581 0 
L 581 4863 
L 1159 4863 
L 1159 2956 
Q 1366 3272 1645 3428 
Q 1925 3584 2291 3584 
Q 2894 3584 3203 3211 
Q 3513 2838 3513 2113 
z
" transform="scale(0.015625)"/>
      <path id="DejaVuSans-62" d="M 3116 1747 
Q 3116 2381 2855 2742 
Q 2594 3103 2138 3103 
Q 1681 3103 1420 2742 
Q 1159 2381 1159 1747 
Q 1159 1113 1420 752 
Q 1681 391 2138 391 
Q 2594 391 2855 752 
Q 3116 1113 3116 1747 
z
M 1159 2969 
Q 1341 3281 1617 3432 
Q 1894 3584 2278 3584 
Q 2916 3584 3314 3078 
Q 3713 2572 3713 1747 
Q 3713 922 3314 415 
Q 2916 -91 2278 -91 
Q 1894 -91 1617 61 
Q 1341 213 1159 525 
L 1159 0 
L 581 0 
L 581 4863 
L 1159 4863 
L 1159 2969 
z
" transform="scale(0.015625)"/>
      <path id="DejaVuSans-61" d="M 2194 1759 
Q 1497 1759 1228 1600 
Q 959 1441 959 1056 
Q 959 750 1161 570 
Q 1363 391 1709 391 
Q 2188 391 2477 730 
Q 2766 1069 2766 1631 
L 2766 1759 
L 2194 1759 
z
M 3341 1997 
L 3341 0 
L 2766 0 
L 2766 531 
Q 2569 213 2275 61 
Q 1981 -91 1556 -91 
Q 1019 -91 701 211 
Q 384 513 384 1019 
Q 384 1609 779 1909 
Q 1175 2209 1959 2209 
L 2766 2209 
L 2766 2266 
Q 2766 2663 2505 2880 
Q 2244 3097 1772 3097 
Q 1472 3097 1187 3025 
Q 903 2953 641 2809 
L 641 3341 
Q 956 3463 1253 3523 
Q 1550 3584 1831 3584 
Q 2591 3584 2966 3190 
Q 3341 2797 3341 1997 
z
" transform="scale(0.015625)"/>
      <path id="DejaVuSans-6c" d="M 603 4863 
L 1178 4863 
L 1178 0 
L 603 0 
L 603 4863 
z
" transform="scale(0.015625)"/>
      <path id="DejaVuSans-2c" d="M 750 794 
L 1409 794 
L 1409 256 
L 897 -744 
L 494 -744 
L 750 256 
L 750 794 
z
" transform="scale(0.015625)"/>
      <path id="DejaVuSans-70" d="M 1159 525 
L 1159 -1331 
L 581 -1331 
L 581 3500 
L 1159 3500 
L 1159 2969 
Q 1341 3281 1617 3432 
Q 1894 3584 2278 3584 
Q 2916 3584 3314 3078 
Q 3713 2572 3713 1747 
Q 3713 922 3314 415 
Q 2916 -91 2278 -91 
Q 1894 -91 1617 61 
Q 1341 213 1159 525 
z
M 3116 1747 
Q 3116 2381 2855 2742 
Q 2594 3103 2138 3103 
Q 1681 3103 1420 2742 
Q 1159 2381 1159 1747 
Q 1159 1113 1420 752 
Q 1681 391 2138 391 
Q 2594 391 2855 752 
Q 3116 1113 3116 1747 
z
" transform="scale(0.015625)"/>
      <path id="DejaVuSans-75" d="M 544 1381 
L 544 3500 
L 1119 3500 
L 1119 1403 
Q 1119 906 1312 657 
Q 1506 409 1894 409 
Q 2359 409 2629 706 
Q 2900 1003 2900 1516 
L 2900 3500 
L 3475 3500 
L 3475 0 
L 2900 0 
L 2900 538 
Q 2691 219 2414 64 
Q 2138 -91 1772 -91 
Q 1169 -91 856 284 
Q 544 659 544 1381 
z
M 1991 3584 
L 1991 3584 
z
" transform="scale(0.015625)"/>
      <path id="DejaVuSans-66" d="M 2375 4863 
L 2375 4384 
L 1825 4384 
Q 1516 4384 1395 4259 
Q 1275 4134 1275 3809 
L 1275 3500 
L 2222 3500 
L 2222 3053 
L 1275 3053 
L 1275 0 
L 697 0 
L 697 3053 
L 147 3053 
L 147 3500 
L 697 3500 
L 697 3744 
Q 697 4328 969 4595 
Q 1241 4863 1831 4863 
L 2375 4863 
z
" transform="scale(0.015625)"/>
      <path id="DejaVuSans-2d" d="M 313 2009 
L 1997 2009 
L 1997 1497 
L 313 1497 
L 313 2009 
z
" transform="scale(0.015625)"/>
      <path id="DejaVuSans-78" d="M 3513 3500 
L 2247 1797 
L 3578 0 
L 2900 0 
L 1881 1375 
L 863 0 
L 184 0 
L 1544 1831 
L 300 3500 
L 978 3500 
L 1906 2253 
L 2834 3500 
L 3513 3500 
z
" transform="scale(0.015625)"/>
     </defs>
     <use xlink:href="#DejaVuSans-52"/>
     <use xlink:href="#DejaVuSans-69" transform="translate(69.482422 0)"/>
     <use xlink:href="#DejaVuSans-64" transform="translate(97.265625 0)"/>
     <use xlink:href="#DejaVuSans-67" transform="translate(160.742188 0)"/>
     <use xlink:href="#DejaVuSans-65" transform="translate(224.21875 0)"/>
     <use xlink:href="#DejaVuSans-3a" transform="translate(285.742188 0)"/>
     <use xlink:href="#DejaVuSans-20" transform="translate(319.433594 0)"/>
     <use xlink:href="#DejaVuSans-73" transform="translate(351.220703 0)"/>
     <use xlink:href="#DejaVuSans-6d" transform="translate(403.320312 0)"/>
     <use xlink:href="#DejaVuSans-6f" transform="translate(500.732422 0)"/>
     <use xlink:href="#DejaVuSans-6f" transform="translate(561.914062 0)"/>
     <use xlink:href="#DejaVuSans-74" transform="translate(623.095703 0)"/>
     <use xlink:href="#DejaVuSans-68" transform="translate(662.304688 0)"/>
     <use xlink:href="#DejaVuSans-20" transform="translate(725.683594 0)"/>
     <use xlink:href="#DejaVuSans-62" transform="translate(757.470703 0)"/>
     <use xlink:href="#DejaVuSans-61" transform="translate(820.947266 0)"/>
     <use xlink:href="#DejaVuSans-6c" transform="translate(882.226562 0)"/>
     <use xlink:href="#DejaVuSans-6c" transform="translate(910.009766 0)"/>
     <use xlink:href="#DejaVuSans-2c" transform="translate(937.792969 0)"/>
     <use xlink:href="#DejaVuSans-20" transform="translate(969.580078 0)"/>
     <use xlink:href="#DejaVuSans-6f" transform="translate(1001.367188 0)"/>
     <use xlink:href="#DejaVuSans-70" transform="translate(1062.548828 0)"/>
     <use xlink:href="#DejaVuSans-74" transform="translate(1126.025391 0)"/>
     <use xlink:href="#DejaVuSans-69" transform="translate(1165.234375 0)"/>
     <use xlink:href="#DejaVuSans-6d" transform="translate(1193.017578 0)"/>
     <use xlink:href="#DejaVuSans-75" transform="translate(1290.429688 0)"/>
     <use xlink:href="#DejaVuSans-6d" transform="translate(1353.808594 0)"/>
     <use xlink:href="#DejaVuSans-20" transform="translate(1451.220703 0)"/>
     <use xlink:href="#DejaVuSans-6f" transform="translate(1483.007812 0)"/>
     <use xlink:href="#DejaVuSans-66" transform="translate(1544.189453 0)"/>
     <use xlink:href="#DejaVuSans-66" transform="translate(1579.394531 0)"/>
     <use xlink:href="#DejaVuSans-2d" transform="translate(1609.099609 0)"/>
     <use xlink:href="#DejaVuSans-61" transform="translate(1645.183594 0)"/>
     <use xlink:href="#DejaVuSans-78" transform="translate(1706.462891 0)"/>
     <use xlink:href="#DejaVuSans-69" transform="translate(1765.642578 0)"/>
     <use xlink:href="#DejaVuSans-73" transform="translate(1793.425781 0)"/>
    </g>
   </g>
   <g id="PathCollection_1">
    <defs>
     <path id="m62b6619317" d="M 0 4.1833 
C 1.109424 4.1833 2.173559 3.742521 2.95804 2.95804 
C 3.742521 2.173559 4.1833 1.109424 4.1833 0 
C 4.1833 -1.109424 3.742521 -2.173559 2.95804 -2.95804 
C 2.173559 -3.742521 1.109424 -4.1833 0 -4.1833 
C -1.109424 -4.1833 -2.173559 -3.742521 -2.95804 -2.95804 
C -3.742521 -2.173559 -4.1833 -1.109424 -4.1833 0 
C -4.1833 1.109424 -3.742521 2.173559 -2.95804 2.95804 
C -2.173559 3.742521 -1.109424 4.1833 0 4.1833 
z
" style="stroke: #d62728"/>
    </defs>
    <g clip-path="url(#p1ed5906821)">
     <use xlink:href="#m62b6619317" x="205.260611" y="135.369698" style="fill: #d62728; stroke: #d62728"/>
    </g>
   </g>
   <g id="PathCollection_2">
    <defs>
     <path id="m130ed10c35" d="M -4.1833 4.1833 
L 4.1833 -4.1833 
M -4.1833 -4.1833 
L 4.1833 4.1833 
" style="stroke: #1f77b4; stroke-width: 1.5"/>
    </defs>
    <g clip-path="url(#p1ed5906821)">
     <use xlink:href="#m130ed10c35" x="236.277119" y="122.076909" style="fill: #1f77b4; stroke: #1f77b4; stroke-width: 1.5"/>
    </g>
   </g>
  </g>
  <g id="axes_2">
   <g id="patch_8">
    <path d="M 351.245687 262.871636 
L 567.85296 262.871636 
L 567.85296 46.264364 
L 351.245687 46.264364 
z
" style="fill: #ffffff"/>
   </g>
   <g id="matplotlib.axis_3">
    <g id="xtick_6">
     <g id="line2d_17">
      <g>
       <use xlink:href="#m72229de7b9" x="351.245687" y="262.871636" style="stroke: #000000; stroke-width: 0.8"/>
      </g>
     </g>
     <g id="text_18">
      <!-- −2 -->
      <g transform="translate(343.874594 277.470074) scale(0.1 -0.1)">
       <use xlink:href="#DejaVuSans-2212"/>
       <use xlink:href="#DejaVuSans-32" transform="translate(83.789062 0)"/>
      </g>
     </g>
    </g>
    <g id="xtick_7">
     <g id="line2d_18">
      <g>
       <use xlink:href="#m72229de7b9" x="405.397506" y="262.871636" style="stroke: #000000; stroke-width: 0.8"/>
      </g>
     </g>
     <g id="text_19">
      <!-- −1 -->
      <g transform="translate(398.026412 277.470074) scale(0.1 -0.1)">
       <use xlink:href="#DejaVuSans-2212"/>
       <use xlink:href="#DejaVuSans-31" transform="translate(83.789062 0)"/>
      </g>
     </g>
    </g>
    <g id="xtick_8">
     <g id="line2d_19">
      <g>
       <use xlink:href="#m72229de7b9" x="459.549324" y="262.871636" style="stroke: #000000; stroke-width: 0.8"/>
      </g>
     </g>
     <g id="text_20">
      <!-- 0 -->
      <g transform="translate(456.368074 277.470074) scale(0.1 -0.1)">
       <use xlink:href="#DejaVuSans-30"/>
      </g>
     </g>
    </g>
    <g id="xtick_9">
     <g id="line2d_20">
      <g>
       <use xlink:href="#m72229de7b9" x="513.701142" y="262.871636" style="stroke: #000000; stroke-width: 0.8"/>
      </g>
     </g>
     <g id="text_21">
      <!-- 1 -->
      <g transform="translate(510.519892 277.470074) scale(0.1 -0.1)">
       <use xlink:href="#DejaVuSans-31"/>
      </g>
     </g>
    </g>
    <g id="xtick_10">
     <g id="line2d_21">
      <g>
       <use xlink:href="#m72229de7b9" x="567.85296" y="262.871636" style="stroke: #000000; stroke-width: 0.8"/>
      </g>
     </g>
     <g id="text_22">
      <!-- 2 -->
      <g transform="translate(564.67171 277.470074) scale(0.1 -0.1)">
       <use xlink:href="#DejaVuSans-32"/>
      </g>
     </g>
    </g>
    <g id="text_23">
     <!-- $\theta_1$ -->
     <g transform="translate(454.099324 291.148199) scale(0.1 -0.1)">
      <use xlink:href="#DejaVuSans-Oblique-3b8" transform="translate(0 0.234375)"/>
      <use xlink:href="#DejaVuSans-31" transform="translate(61.181641 -16.171875) scale(0.7)"/>
     </g>
    </g>
   </g>
   <g id="matplotlib.axis_4">
    <g id="ytick_10">
     <g id="line2d_22">
      <g>
       <use xlink:href="#mdb5b7a9d8d" x="351.245687" y="262.871636" style="stroke: #000000; stroke-width: 0.8"/>
      </g>
     </g>
    </g>
    <g id="ytick_11">
     <g id="line2d_23">
      <g>
       <use xlink:href="#mdb5b7a9d8d" x="351.245687" y="235.795727" style="stroke: #000000; stroke-width: 0.8"/>
      </g>
     </g>
    </g>
    <g id="ytick_12">
     <g id="line2d_24">
      <g>
       <use xlink:href="#mdb5b7a9d8d" x="351.245687" y="208.719818" style="stroke: #000000; stroke-width: 0.8"/>
      </g>
     </g>
    </g>
    <g id="ytick_13">
     <g id="line2d_25">
      <g>
       <use xlink:href="#mdb5b7a9d8d" x="351.245687" y="181.643909" style="stroke: #000000; stroke-width: 0.8"/>
      </g>
     </g>
    </g>
    <g id="ytick_14">
     <g id="line2d_26">
      <g>
       <use xlink:href="#mdb5b7a9d8d" x="351.245687" y="154.568" style="stroke: #000000; stroke-width: 0.8"/>
      </g>
     </g>
    </g>
    <g id="ytick_15">
     <g id="line2d_27">
      <g>
       <use xlink:href="#mdb5b7a9d8d" x="351.245687" y="127.492091" style="stroke: #000000; stroke-width: 0.8"/>
      </g>
     </g>
    </g>
    <g id="ytick_16">
     <g id="line2d_28">
      <g>
       <use xlink:href="#mdb5b7a9d8d" x="351.245687" y="100.416182" style="stroke: #000000; stroke-width: 0.8"/>
      </g>
     </g>
    </g>
    <g id="ytick_17">
     <g id="line2d_29">
      <g>
       <use xlink:href="#mdb5b7a9d8d" x="351.245687" y="73.340273" style="stroke: #000000; stroke-width: 0.8"/>
      </g>
     </g>
    </g>
    <g id="ytick_18">
     <g id="line2d_30">
      <g>
       <use xlink:href="#mdb5b7a9d8d" x="351.245687" y="46.264364" style="stroke: #000000; stroke-width: 0.8"/>
      </g>
     </g>
    </g>
   </g>
   <g id="QuadContourSet_2">
    <path clip-path="url(#p5e019b8b51)" style="fill: none; stroke: #1f77b4; stroke-opacity: 0.7; stroke-width: 0.7"/>
    <path d="M 567.85296 250.609207 
L 560.683931 246.585375 
L 553.195325 242.112304 
L 545.59507 237.296813 
L 537.994815 232.206944 
L 530.39456 226.845003 
L 522.794304 221.210471 
L 515.194049 215.30081 
L 507.593794 209.11191 
L 499.966312 202.61247 
L 492.393284 195.864162 
L 484.793029 188.783707 
L 477.735649 181.918634 
L 470.678269 174.756495 
L 463.620889 167.277309 
L 456.802792 159.725316 
L 450.239389 152.125061 
L 443.965004 144.524806 
L 437.972139 136.92455 
L 432.134118 129.158968 
L 426.705364 121.571559 
L 421.640377 114.123785 
L 416.742255 106.52353 
L 412.441466 99.46615 
L 408.247601 92.164728 
L 404.447474 85.107935 
L 401.022114 78.29401 
L 397.932969 71.674204 
L 395.176483 65.265002 
L 392.623994 58.750497 
L 390.517993 52.778868 
L 388.650578 46.807239 
L 388.493507 46.264364 
L 388.493507 46.264364 
" clip-path="url(#p5e019b8b51)" style="fill: none; stroke: #1f77b4; stroke-opacity: 0.7; stroke-width: 0.7"/>
    <path d="M 518.378091 262.871636 
L 509.22242 255.801927 
L 499.993539 248.386357 
L 491.307533 241.137323 
L 482.078652 233.140919 
L 473.392646 225.330042 
L 464.70664 217.232681 
L 455.764486 208.584099 
L 447.110898 199.898093 
L 438.648622 191.085507 
L 430.228226 181.983206 
L 422.362361 173.158534 
L 414.555943 164.068319 
L 406.929006 154.839438 
L 399.561595 145.566534 
L 392.504216 136.317906 
L 385.79364 127.152794 
L 379.475207 118.151071 
L 373.484813 109.237907 
L 367.56287 100.009025 
L 362.103195 91.072147 
L 357.201496 82.637013 
L 352.331438 73.794345 
L 351.245687 71.751096 
L 351.245687 71.751096 
" clip-path="url(#p5e019b8b51)" style="fill: none; stroke: #1f77b4; stroke-opacity: 0.7; stroke-width: 0.7"/>
    <path d="M 475.553983 262.871636 
L 465.701896 254.18563 
L 455.581903 244.956749 
L 445.797595 235.727868 
L 436.32961 226.498987 
L 426.705364 216.803236 
L 417.476483 207.192184 
L 408.247601 197.256599 
L 399.404492 187.41196 
L 390.87559 177.595715 
L 382.189584 167.248911 
L 373.894803 157.010939 
L 365.903322 146.786769 
L 358.467899 136.92455 
L 351.245687 126.988702 
L 351.245687 126.988702 
" clip-path="url(#p5e019b8b51)" style="fill: none; stroke: #1f77b4; stroke-opacity: 0.7; stroke-width: 0.7"/>
    <path d="M 442.061875 262.871636 
L 431.591242 252.973224 
L 421.142585 242.785248 
L 410.886572 232.470616 
L 400.647346 221.846722 
L 390.793239 211.298476 
L 380.963797 200.440969 
L 371.4423 189.583461 
L 362.220495 178.725954 
L 353.291549 167.868447 
L 351.245687 165.330047 
L 351.245687 165.330047 
" clip-path="url(#p5e019b8b51)" style="fill: none; stroke: #1f77b4; stroke-opacity: 0.7; stroke-width: 0.7"/>
    <path d="M 413.603529 262.871636 
L 402.626968 252.014129 
L 391.96134 241.152441 
L 381.606575 230.299114 
L 371.043764 218.898731 
L 360.791911 207.498349 
L 351.245687 196.567118 
L 351.245687 196.567118 
" clip-path="url(#p5e019b8b51)" style="fill: none; stroke: #1f77b4; stroke-opacity: 0.7; stroke-width: 0.7"/>
    <path d="M 388.422388 262.871636 
L 377.263086 251.471254 
L 366.407383 240.070871 
L 355.58869 228.389965 
L 351.245687 223.60745 
L 351.245687 223.60745 
" clip-path="url(#p5e019b8b51)" style="fill: none; stroke: #1f77b4; stroke-opacity: 0.7; stroke-width: 0.7"/>
    <path d="M 365.594005 262.871636 
L 365.360447 262.630193 
L 365.069036 262.328761 
L 364.817572 262.068486 
L 364.544704 261.785886 
L 364.274696 261.506072 
L 364.021008 261.24301 
L 363.731821 260.942951 
L 363.497945 260.700135 
L 363.188946 260.379121 
L 362.975516 260.15726 
L 362.64607 259.814582 
L 362.453719 259.614384 
L 362.103195 259.249332 
L 361.932553 259.071509 
L 361.56032 258.683368 
L 361.412016 258.528633 
L 361.017444 258.116691 
L 360.892108 257.985758 
L 360.474569 257.549299 
L 360.372827 257.442883 
L 359.931693 256.98119 
L 359.854172 256.900007 
L 359.388818 256.412363 
L 359.336143 256.357132 
L 358.845943 255.842817 
L 358.818738 255.814257 
L 358.303067 255.27255 
L 358.301955 255.271381 
L 357.785846 254.728506 
L 357.760192 254.701504 
L 357.270361 254.18563 
L 357.217317 254.12973 
L 356.755497 253.642755 
L 356.674441 253.55723 
L 356.241252 253.09988 
L 356.131566 252.984002 
L 355.727625 252.557004 
L 355.58869 252.410045 
L 355.214616 252.014129 
L 355.045815 251.835358 
L 354.702223 251.471254 
L 354.50294 251.259938 
L 354.190446 250.928378 
L 353.960064 250.683785 
L 353.679282 250.385503 
L 353.417189 250.106897 
L 353.168731 249.842627 
L 352.874314 249.529273 
L 352.658792 249.299752 
L 352.331438 248.950911 
L 352.149464 248.756877 
L 351.788563 248.371811 
L 351.640745 248.214001 
L 351.245687 247.79197 
" clip-path="url(#p5e019b8b51)" style="fill: none; stroke: #1f77b4; stroke-opacity: 0.7; stroke-width: 0.7"/>
    <path clip-path="url(#p5e019b8b51)" style="fill: none; stroke: #1f77b4; stroke-opacity: 0.7; stroke-width: 0.7"/>
   </g>
   <g id="line2d_31">
    <path d="M 508.28596 154.568 
L 459.549324 105.831364 
L 410.812687 154.568 
L 459.549324 203.304636 
L 508.28596 154.568 
" clip-path="url(#p5e019b8b51)" style="fill: none; stroke: #d62728; stroke-width: 2; stroke-linecap: square"/>
   </g>
   <g id="line2d_32">
    <path d="M 351.245687 154.568 
L 567.85296 154.568 
" clip-path="url(#p5e019b8b51)" style="fill: none; stroke: #000000; stroke-width: 0.4; stroke-linecap: square"/>
   </g>
   <g id="line2d_33">
    <path d="M 459.549324 262.871636 
L 459.549324 46.264364 
" clip-path="url(#p5e019b8b51)" style="fill: none; stroke: #000000; stroke-width: 0.4; stroke-linecap: square"/>
   </g>
   <g id="patch_9">
    <path d="M 351.245687 262.871636 
L 351.245687 46.264364 
" style="fill: none; stroke: #000000; stroke-width: 0.8; stroke-linejoin: miter; stroke-linecap: square"/>
   </g>
   <g id="patch_10">
    <path d="M 567.85296 262.871636 
L 567.85296 46.264364 
" style="fill: none; stroke: #000000; stroke-width: 0.8; stroke-linejoin: miter; stroke-linecap: square"/>
   </g>
   <g id="patch_11">
    <path d="M 351.245687 262.871636 
L 567.85296 262.871636 
" style="fill: none; stroke: #000000; stroke-width: 0.8; stroke-linejoin: miter; stroke-linecap: square"/>
   </g>
   <g id="patch_12">
    <path d="M 351.245687 46.264364 
L 567.85296 46.264364 
" style="fill: none; stroke: #000000; stroke-width: 0.8; stroke-linejoin: miter; stroke-linecap: square"/>
   </g>
   <g id="text_24">
    <!-- LASSO: sharp corner, optimum on axis -->
    <g transform="translate(362.932918 40.264364) scale(0.1 -0.1)">
     <defs>
      <path id="DejaVuSans-4c" d="M 628 4666 
L 1259 4666 
L 1259 531 
L 3531 531 
L 3531 0 
L 628 0 
L 628 4666 
z
" transform="scale(0.015625)"/>
      <path id="DejaVuSans-41" d="M 2188 4044 
L 1331 1722 
L 3047 1722 
L 2188 4044 
z
M 1831 4666 
L 2547 4666 
L 4325 0 
L 3669 0 
L 3244 1197 
L 1141 1197 
L 716 0 
L 50 0 
L 1831 4666 
z
" transform="scale(0.015625)"/>
      <path id="DejaVuSans-53" d="M 3425 4513 
L 3425 3897 
Q 3066 4069 2747 4153 
Q 2428 4238 2131 4238 
Q 1616 4238 1336 4038 
Q 1056 3838 1056 3469 
Q 1056 3159 1242 3001 
Q 1428 2844 1947 2747 
L 2328 2669 
Q 3034 2534 3370 2195 
Q 3706 1856 3706 1288 
Q 3706 609 3251 259 
Q 2797 -91 1919 -91 
Q 1588 -91 1214 -16 
Q 841 59 441 206 
L 441 856 
Q 825 641 1194 531 
Q 1563 422 1919 422 
Q 2459 422 2753 634 
Q 3047 847 3047 1241 
Q 3047 1584 2836 1778 
Q 2625 1972 2144 2069 
L 1759 2144 
Q 1053 2284 737 2584 
Q 422 2884 422 3419 
Q 422 4038 858 4394 
Q 1294 4750 2059 4750 
Q 2388 4750 2728 4690 
Q 3069 4631 3425 4513 
z
" transform="scale(0.015625)"/>
      <path id="DejaVuSans-4f" d="M 2522 4238 
Q 1834 4238 1429 3725 
Q 1025 3213 1025 2328 
Q 1025 1447 1429 934 
Q 1834 422 2522 422 
Q 3209 422 3611 934 
Q 4013 1447 4013 2328 
Q 4013 3213 3611 3725 
Q 3209 4238 2522 4238 
z
M 2522 4750 
Q 3503 4750 4090 4092 
Q 4678 3434 4678 2328 
Q 4678 1225 4090 567 
Q 3503 -91 2522 -91 
Q 1538 -91 948 565 
Q 359 1222 359 2328 
Q 359 3434 948 4092 
Q 1538 4750 2522 4750 
z
" transform="scale(0.015625)"/>
      <path id="DejaVuSans-72" d="M 2631 2963 
Q 2534 3019 2420 3045 
Q 2306 3072 2169 3072 
Q 1681 3072 1420 2755 
Q 1159 2438 1159 1844 
L 1159 0 
L 581 0 
L 581 3500 
L 1159 3500 
L 1159 2956 
Q 1341 3275 1631 3429 
Q 1922 3584 2338 3584 
Q 2397 3584 2469 3576 
Q 2541 3569 2628 3553 
L 2631 2963 
z
" transform="scale(0.015625)"/>
      <path id="DejaVuSans-63" d="M 3122 3366 
L 3122 2828 
Q 2878 2963 2633 3030 
Q 2388 3097 2138 3097 
Q 1578 3097 1268 2742 
Q 959 2388 959 1747 
Q 959 1106 1268 751 
Q 1578 397 2138 397 
Q 2388 397 2633 464 
Q 2878 531 3122 666 
L 3122 134 
Q 2881 22 2623 -34 
Q 2366 -91 2075 -91 
Q 1284 -91 818 406 
Q 353 903 353 1747 
Q 353 2603 823 3093 
Q 1294 3584 2113 3584 
Q 2378 3584 2631 3529 
Q 2884 3475 3122 3366 
z
" transform="scale(0.015625)"/>
      <path id="DejaVuSans-6e" d="M 3513 2113 
L 3513 0 
L 2938 0 
L 2938 2094 
Q 2938 2591 2744 2837 
Q 2550 3084 2163 3084 
Q 1697 3084 1428 2787 
Q 1159 2491 1159 1978 
L 1159 0 
L 581 0 
L 581 3500 
L 1159 3500 
L 1159 2956 
Q 1366 3272 1645 3428 
Q 1925 3584 2291 3584 
Q 2894 3584 3203 3211 
Q 3513 2838 3513 2113 
z
" transform="scale(0.015625)"/>
     </defs>
     <use xlink:href="#DejaVuSans-4c"/>
     <use xlink:href="#DejaVuSans-41" transform="translate(57.962891 0)"/>
     <use xlink:href="#DejaVuSans-53" transform="translate(126.371094 0)"/>
     <use xlink:href="#DejaVuSans-53" transform="translate(189.847656 0)"/>
     <use xlink:href="#DejaVuSans-4f" transform="translate(253.324219 0)"/>
     <use xlink:href="#DejaVuSans-3a" transform="translate(330.285156 0)"/>
     <use xlink:href="#DejaVuSans-20" transform="translate(363.976562 0)"/>
     <use xlink:href="#DejaVuSans-73" transform="translate(395.763672 0)"/>
     <use xlink:href="#DejaVuSans-68" transform="translate(447.863281 0)"/>
     <use xlink:href="#DejaVuSans-61" transform="translate(511.242188 0)"/>
     <use xlink:href="#DejaVuSans-72" transform="translate(572.521484 0)"/>
     <use xlink:href="#DejaVuSans-70" transform="translate(613.634766 0)"/>
     <use xlink:href="#DejaVuSans-20" transform="translate(677.111328 0)"/>
     <use xlink:href="#DejaVuSans-63" transform="translate(708.898438 0)"/>
     <use xlink:href="#DejaVuSans-6f" transform="translate(763.878906 0)"/>
     <use xlink:href="#DejaVuSans-72" transform="translate(825.060547 0)"/>
     <use xlink:href="#DejaVuSans-6e" transform="translate(864.423828 0)"/>
     <use xlink:href="#DejaVuSans-65" transform="translate(927.802734 0)"/>
     <use xlink:href="#DejaVuSans-72" transform="translate(989.326172 0)"/>
     <use xlink:href="#DejaVuSans-2c" transform="translate(1030.439453 0)"/>
     <use xlink:href="#DejaVuSans-20" transform="translate(1062.226562 0)"/>
     <use xlink:href="#DejaVuSans-6f" transform="translate(1094.013672 0)"/>
     <use xlink:href="#DejaVuSans-70" transform="translate(1155.195312 0)"/>
     <use xlink:href="#DejaVuSans-74" transform="translate(1218.671875 0)"/>
     <use xlink:href="#DejaVuSans-69" transform="translate(1257.880859 0)"/>
     <use xlink:href="#DejaVuSans-6d" transform="translate(1285.664062 0)"/>
     <use xlink:href="#DejaVuSans-75" transform="translate(1383.076172 0)"/>
     <use xlink:href="#DejaVuSans-6d" transform="translate(1446.455078 0)"/>
     <use xlink:href="#DejaVuSans-20" transform="translate(1543.867188 0)"/>
     <use xlink:href="#DejaVuSans-6f" transform="translate(1575.654297 0)"/>
     <use xlink:href="#DejaVuSans-6e" transform="translate(1636.835938 0)"/>
     <use xlink:href="#DejaVuSans-20" transform="translate(1700.214844 0)"/>
     <use xlink:href="#DejaVuSans-61" transform="translate(1732.001953 0)"/>
     <use xlink:href="#DejaVuSans-78" transform="translate(1793.28125 0)"/>
     <use xlink:href="#DejaVuSans-69" transform="translate(1852.460938 0)"/>
     <use xlink:href="#DejaVuSans-73" transform="translate(1880.244141 0)"/>
    </g>
   </g>
   <g id="PathCollection_3">
    <g clip-path="url(#p5e019b8b51)">
     <use xlink:href="#m62b6619317" x="508.28596" y="154.568" style="fill: #d62728; stroke: #d62728"/>
    </g>
   </g>
   <g id="PathCollection_4">
    <g clip-path="url(#p5e019b8b51)">
     <use xlink:href="#m130ed10c35" x="535.361869" y="122.076909" style="fill: #1f77b4; stroke: #1f77b4; stroke-width: 1.5"/>
    </g>
   </g>
  </g>
  <g id="text_25">
   <!-- Why LASSO produces sparsity: corners attract the optimum -->
   <g transform="translate(109.509199 16.318125) scale(0.12 -0.12)">
    <defs>
     <path id="DejaVuSans-57" d="M 213 4666 
L 850 4666 
L 1831 722 
L 2809 4666 
L 3519 4666 
L 4500 722 
L 5478 4666 
L 6119 4666 
L 4947 0 
L 4153 0 
L 3169 4050 
L 2175 0 
L 1381 0 
L 213 4666 
z
" transform="scale(0.015625)"/>
     <path id="DejaVuSans-79" d="M 2059 -325 
Q 1816 -950 1584 -1140 
Q 1353 -1331 966 -1331 
L 506 -1331 
L 506 -850 
L 844 -850 
Q 1081 -850 1212 -737 
Q 1344 -625 1503 -206 
L 1606 56 
L 191 3500 
L 800 3500 
L 1894 763 
L 2988 3500 
L 3597 3500 
L 2059 -325 
z
" transform="scale(0.015625)"/>
    </defs>
    <use xlink:href="#DejaVuSans-57"/>
    <use xlink:href="#DejaVuSans-68" transform="translate(98.876953 0)"/>
    <use xlink:href="#DejaVuSans-79" transform="translate(162.255859 0)"/>
    <use xlink:href="#DejaVuSans-20" transform="translate(221.435547 0)"/>
    <use xlink:href="#DejaVuSans-4c" transform="translate(253.222656 0)"/>
    <use xlink:href="#DejaVuSans-41" transform="translate(311.185547 0)"/>
    <use xlink:href="#DejaVuSans-53" transform="translate(379.59375 0)"/>
    <use xlink:href="#DejaVuSans-53" transform="translate(443.070312 0)"/>
    <use xlink:href="#DejaVuSans-4f" transform="translate(506.546875 0)"/>
    <use xlink:href="#DejaVuSans-20" transform="translate(585.257812 0)"/>
    <use xlink:href="#DejaVuSans-70" transform="translate(617.044922 0)"/>
    <use xlink:href="#DejaVuSans-72" transform="translate(680.521484 0)"/>
    <use xlink:href="#DejaVuSans-6f" transform="translate(719.384766 0)"/>
    <use xlink:href="#DejaVuSans-64" transform="translate(780.566406 0)"/>
    <use xlink:href="#DejaVuSans-75" transform="translate(844.042969 0)"/>
    <use xlink:href="#DejaVuSans-63" transform="translate(907.421875 0)"/>
    <use xlink:href="#DejaVuSans-65" transform="translate(962.402344 0)"/>
    <use xlink:href="#DejaVuSans-73" transform="translate(1023.925781 0)"/>
    <use xlink:href="#DejaVuSans-20" transform="translate(1076.025391 0)"/>
    <use xlink:href="#DejaVuSans-73" transform="translate(1107.8125 0)"/>
    <use xlink:href="#DejaVuSans-70" transform="translate(1159.912109 0)"/>
    <use xlink:href="#DejaVuSans-61" transform="translate(1223.388672 0)"/>
    <use xlink:href="#DejaVuSans-72" transform="translate(1284.667969 0)"/>
    <use xlink:href="#DejaVuSans-73" transform="translate(1325.78125 0)"/>
    <use xlink:href="#DejaVuSans-69" transform="translate(1377.880859 0)"/>
    <use xlink:href="#DejaVuSans-74" transform="translate(1405.664062 0)"/>
    <use xlink:href="#DejaVuSans-79" transform="translate(1444.873047 0)"/>
    <use xlink:href="#DejaVuSans-3a" transform="translate(1496.802734 0)"/>
    <use xlink:href="#DejaVuSans-20" transform="translate(1530.494141 0)"/>
    <use xlink:href="#DejaVuSans-63" transform="translate(1562.28125 0)"/>
    <use xlink:href="#DejaVuSans-6f" transform="translate(1617.261719 0)"/>
    <use xlink:href="#DejaVuSans-72" transform="translate(1678.443359 0)"/>
    <use xlink:href="#DejaVuSans-6e" transform="translate(1717.806641 0)"/>
    <use xlink:href="#DejaVuSans-65" transform="translate(1781.185547 0)"/>
    <use xlink:href="#DejaVuSans-72" transform="translate(1842.708984 0)"/>
    <use xlink:href="#DejaVuSans-73" transform="translate(1883.822266 0)"/>
    <use xlink:href="#DejaVuSans-20" transform="translate(1935.921875 0)"/>
    <use xlink:href="#DejaVuSans-61" transform="translate(1967.708984 0)"/>
    <use xlink:href="#DejaVuSans-74" transform="translate(2028.988281 0)"/>
    <use xlink:href="#DejaVuSans-74" transform="translate(2068.197266 0)"/>
    <use xlink:href="#DejaVuSans-72" transform="translate(2107.40625 0)"/>
    <use xlink:href="#DejaVuSans-61" transform="translate(2148.519531 0)"/>
    <use xlink:href="#DejaVuSans-63" transform="translate(2209.798828 0)"/>
    <use xlink:href="#DejaVuSans-74" transform="translate(2264.779297 0)"/>
    <use xlink:href="#DejaVuSans-20" transform="translate(2303.988281 0)"/>
    <use xlink:href="#DejaVuSans-74" transform="translate(2335.775391 0)"/>
    <use xlink:href="#DejaVuSans-68" transform="translate(2374.984375 0)"/>
    <use xlink:href="#DejaVuSans-65" transform="translate(2438.363281 0)"/>
    <use xlink:href="#DejaVuSans-20" transform="translate(2499.886719 0)"/>
    <use xlink:href="#DejaVuSans-6f" transform="translate(2531.673828 0)"/>
    <use xlink:href="#DejaVuSans-70" transform="translate(2592.855469 0)"/>
    <use xlink:href="#DejaVuSans-74" transform="translate(2656.332031 0)"/>
    <use xlink:href="#DejaVuSans-69" transform="translate(2695.541016 0)"/>
    <use xlink:href="#DejaVuSans-6d" transform="translate(2723.324219 0)"/>
    <use xlink:href="#DejaVuSans-75" transform="translate(2820.736328 0)"/>
    <use xlink:href="#DejaVuSans-6d" transform="translate(2884.115234 0)"/>
   </g>
  </g>
 </g>
 <defs>
  <clipPath id="p1ed5906821">
   <rect x="52.160938" y="46.264364" width="216.607273" height="216.607273"/>
  </clipPath>
  <clipPath id="p5e019b8b51">
   <rect x="351.245687" y="46.264364" width="216.607273" height="216.607273"/>
  </clipPath>
 </defs>
</svg>
