<?xml version="1.0" encoding="utf-8" standalone="no"?>
<!DOCTYPE svg PUBLIC "-//W3C//DTD SVG 1.1//EN"
  "http://www.w3.org/Graphics/SVG/1.1/DTD/svg11.dtd">
<svg xmlns:xlink="http://www.w3.org/1999/xlink" width="424.370625pt" height="278.33625pt" viewBox="0 0 424.370625 278.33625" xmlns="http://www.w3.org/2000/svg" version="1.1">
 <metadata>
  <rdf:RDF xmlns:dc="http://purl.org/dc/elements/1.1/" xmlns:cc="http://creativecommons.org/ns#" xmlns:rdf="http://www.w3.org/1999/02/22-rdf-syntax-ns#">
   <cc:Work>
    <dc:type rdf:resource="http://purl.org/dc/dcmitype/StillImage"/>
    <dc:date>2026-05-13T19:05:11.051773</dc:date>
    <dc:format>image/svg+xml</dc:format>
    <dc:creator>
     <cc:Agent>
      <dc:title>Matplotlib v3.10.9, https://matplotlib.org/</dc:title>
     </cc:Agent>
    </dc:creator>
   </cc:Work>
  </rdf:RDF>
 </metadata>
 <defs>
  <style type="text/css">*{stroke-linejoin: round; stroke-linecap: butt}</style>
 </defs>
 <g id="figure_1">
  <g id="patch_1">
   <path d="M 0 278.33625 
L 424.370625 278.33625 
L 424.370625 0 
L 0 0 
z
" style="fill: #ffffff"/>
  </g>
  <g id="axes_1">
   <g id="patch_2">
    <path d="M 34.240625 240.758125 
L 417.170625 240.758125 
L 417.170625 22.318125 
L 34.240625 22.318125 
z
" style="fill: #ffffff"/>
   </g>
   <g id="matplotlib.axis_1">
    <g id="xtick_1">
     <g id="line2d_1">
      <defs>
       <path id="me1e9e9ffd7" d="M 0 0 
L 0 3.5 
" style="stroke: #000000; stroke-width: 0.8"/>
      </defs>
      <g>
       <use xlink:href="#me1e9e9ffd7" x="50.482259" y="240.758125" style="stroke: #000000; stroke-width: 0.8"/>
      </g>
     </g>
     <g id="text_1">
      <!-- 0.0 -->
      <g transform="translate(42.530697 255.356562) scale(0.1 -0.1)">
       <defs>
        <path id="DejaVuSans-30" d="M 2034 4250 
Q 1547 4250 1301 3770 
Q 1056 3291 1056 2328 
Q 1056 1369 1301 889 
Q 1547 409 2034 409 
Q 2525 409 2770 889 
Q 3016 1369 3016 2328 
Q 3016 3291 2770 3770 
Q 2525 4250 2034 4250 
z
M 2034 4750 
Q 2819 4750 3233 4129 
Q 3647 3509 3647 2328 
Q 3647 1150 3233 529 
Q 2819 -91 2034 -91 
Q 1250 -91 836 529 
Q 422 1150 422 2328 
Q 422 3509 836 4129 
Q 1250 4750 2034 4750 
z
" transform="scale(0.015625)"/>
        <path id="DejaVuSans-2e" d="M 684 794 
L 1344 794 
L 1344 0 
L 684 0 
L 684 794 
z
" transform="scale(0.015625)"/>
       </defs>
       <use xlink:href="#DejaVuSans-30"/>
       <use xlink:href="#DejaVuSans-2e" transform="translate(63.623047 0)"/>
       <use xlink:href="#DejaVuSans-30" transform="translate(95.410156 0)"/>
      </g>
     </g>
    </g>
    <g id="xtick_2">
     <g id="line2d_2">
      <g>
       <use xlink:href="#me1e9e9ffd7" x="108.696002" y="240.758125" style="stroke: #000000; stroke-width: 0.8"/>
      </g>
     </g>
     <g id="text_2">
      <!-- 0.5 -->
      <g transform="translate(100.74444 255.356562) scale(0.1 -0.1)">
       <defs>
        <path id="DejaVuSans-35" d="M 691 4666 
L 3169 4666 
L 3169 4134 
L 1269 4134 
L 1269 2991 
Q 1406 3038 1543 3061 
Q 1681 3084 1819 3084 
Q 2600 3084 3056 2656 
Q 3513 2228 3513 1497 
Q 3513 744 3044 326 
Q 2575 -91 1722 -91 
Q 1428 -91 1123 -41 
Q 819 9 494 109 
L 494 744 
Q 775 591 1075 516 
Q 1375 441 1709 441 
Q 2250 441 2565 725 
Q 2881 1009 2881 1497 
Q 2881 1984 2565 2268 
Q 2250 2553 1709 2553 
Q 1456 2553 1204 2497 
Q 953 2441 691 2322 
L 691 4666 
z
" transform="scale(0.015625)"/>
       </defs>
       <use xlink:href="#DejaVuSans-30"/>
       <use xlink:href="#DejaVuSans-2e" transform="translate(63.623047 0)"/>
       <use xlink:href="#DejaVuSans-35" transform="translate(95.410156 0)"/>
      </g>
     </g>
    </g>
    <g id="xtick_3">
     <g id="line2d_3">
      <g>
       <use xlink:href="#me1e9e9ffd7" x="166.909745" y="240.758125" style="stroke: #000000; stroke-width: 0.8"/>
      </g>
     </g>
     <g id="text_3">
      <!-- 1.0 -->
      <g transform="translate(158.958182 255.356562) scale(0.1 -0.1)">
       <defs>
        <path id="DejaVuSans-31" d="M 794 531 
L 1825 531 
L 1825 4091 
L 703 3866 
L 703 4441 
L 1819 4666 
L 2450 4666 
L 2450 531 
L 3481 531 
L 3481 0 
L 794 0 
L 794 531 
z
" transform="scale(0.015625)"/>
       </defs>
       <use xlink:href="#DejaVuSans-31"/>
       <use xlink:href="#DejaVuSans-2e" transform="translate(63.623047 0)"/>
       <use xlink:href="#DejaVuSans-30" transform="translate(95.410156 0)"/>
      </g>
     </g>
    </g>
    <g id="xtick_4">
     <g id="line2d_4">
      <g>
       <use xlink:href="#me1e9e9ffd7" x="225.123488" y="240.758125" style="stroke: #000000; stroke-width: 0.8"/>
      </g>
     </g>
     <g id="text_4">
      <!-- 1.5 -->
      <g transform="translate(217.171925 255.356562) scale(0.1 -0.1)">
       <use xlink:href="#DejaVuSans-31"/>
       <use xlink:href="#DejaVuSans-2e" transform="translate(63.623047 0)"/>
       <use xlink:href="#DejaVuSans-35" transform="translate(95.410156 0)"/>
      </g>
     </g>
    </g>
    <g id="xtick_5">
     <g id="line2d_5">
      <g>
       <use xlink:href="#me1e9e9ffd7" x="283.33723" y="240.758125" style="stroke: #000000; stroke-width: 0.8"/>
      </g>
     </g>
     <g id="text_5">
      <!-- 2.0 -->
      <g transform="translate(275.385668 255.356562) scale(0.1 -0.1)">
       <defs>
        <path id="DejaVuSans-32" d="M 1228 531 
L 3431 531 
L 3431 0 
L 469 0 
L 469 531 
Q 828 903 1448 1529 
Q 2069 2156 2228 2338 
Q 2531 2678 2651 2914 
Q 2772 3150 2772 3378 
Q 2772 3750 2511 3984 
Q 2250 4219 1831 4219 
Q 1534 4219 1204 4116 
Q 875 4013 500 3803 
L 500 4441 
Q 881 4594 1212 4672 
Q 1544 4750 1819 4750 
Q 2544 4750 2975 4387 
Q 3406 4025 3406 3419 
Q 3406 3131 3298 2873 
Q 3191 2616 2906 2266 
Q 2828 2175 2409 1742 
Q 1991 1309 1228 531 
z
" transform="scale(0.015625)"/>
       </defs>
       <use xlink:href="#DejaVuSans-32"/>
       <use xlink:href="#DejaVuSans-2e" transform="translate(63.623047 0)"/>
       <use xlink:href="#DejaVuSans-30" transform="translate(95.410156 0)"/>
      </g>
     </g>
    </g>
    <g id="xtick_6">
     <g id="line2d_6">
      <g>
       <use xlink:href="#me1e9e9ffd7" x="341.550973" y="240.758125" style="stroke: #000000; stroke-width: 0.8"/>
      </g>
     </g>
     <g id="text_6">
      <!-- 2.5 -->
      <g transform="translate(333.599411 255.356562) scale(0.1 -0.1)">
       <use xlink:href="#DejaVuSans-32"/>
       <use xlink:href="#DejaVuSans-2e" transform="translate(63.623047 0)"/>
       <use xlink:href="#DejaVuSans-35" transform="translate(95.410156 0)"/>
      </g>
     </g>
    </g>
    <g id="xtick_7">
     <g id="line2d_7">
      <g>
       <use xlink:href="#me1e9e9ffd7" x="399.764716" y="240.758125" style="stroke: #000000; stroke-width: 0.8"/>
      </g>
     </g>
     <g id="text_7">
      <!-- 3.0 -->
      <g transform="translate(391.813153 255.356562) scale(0.1 -0.1)">
       <defs>
        <path id="DejaVuSans-33" d="M 2597 2516 
Q 3050 2419 3304 2112 
Q 3559 1806 3559 1356 
Q 3559 666 3084 287 
Q 2609 -91 1734 -91 
Q 1441 -91 1130 -33 
Q 819 25 488 141 
L 488 750 
Q 750 597 1062 519 
Q 1375 441 1716 441 
Q 2309 441 2620 675 
Q 2931 909 2931 1356 
Q 2931 1769 2642 2001 
Q 2353 2234 1838 2234 
L 1294 2234 
L 1294 2753 
L 1863 2753 
Q 2328 2753 2575 2939 
Q 2822 3125 2822 3475 
Q 2822 3834 2567 4026 
Q 2313 4219 1838 4219 
Q 1578 4219 1281 4162 
Q 984 4106 628 3988 
L 628 4550 
Q 988 4650 1302 4700 
Q 1616 4750 1894 4750 
Q 2613 4750 3031 4423 
Q 3450 4097 3450 3541 
Q 3450 3153 3228 2886 
Q 3006 2619 2597 2516 
z
" transform="scale(0.015625)"/>
       </defs>
       <use xlink:href="#DejaVuSans-33"/>
       <use xlink:href="#DejaVuSans-2e" transform="translate(63.623047 0)"/>
       <use xlink:href="#DejaVuSans-30" transform="translate(95.410156 0)"/>
      </g>
     </g>
    </g>
    <g id="text_8">
     <!-- singular value $\sigma$ -->
     <g transform="translate(185.655625 269.03625) scale(0.1 -0.1)">
      <defs>
       <path id="DejaVuSans-73" d="M 2834 3397 
L 2834 2853 
Q 2591 2978 2328 3040 
Q 2066 3103 1784 3103 
Q 1356 3103 1142 2972 
Q 928 2841 928 2578 
Q 928 2378 1081 2264 
Q 1234 2150 1697 2047 
L 1894 2003 
Q 2506 1872 2764 1633 
Q 3022 1394 3022 966 
Q 3022 478 2636 193 
Q 2250 -91 1575 -91 
Q 1294 -91 989 -36 
Q 684 19 347 128 
L 347 722 
Q 666 556 975 473 
Q 1284 391 1588 391 
Q 1994 391 2212 530 
Q 2431 669 2431 922 
Q 2431 1156 2273 1281 
Q 2116 1406 1581 1522 
L 1381 1569 
Q 847 1681 609 1914 
Q 372 2147 372 2553 
Q 372 3047 722 3315 
Q 1072 3584 1716 3584 
Q 2034 3584 2315 3537 
Q 2597 3491 2834 3397 
z
" transform="scale(0.015625)"/>
       <path id="DejaVuSans-69" d="M 603 3500 
L 1178 3500 
L 1178 0 
L 603 0 
L 603 3500 
z
M 603 4863 
L 1178 4863 
L 1178 4134 
L 603 4134 
L 603 4863 
z
" transform="scale(0.015625)"/>
       <path id="DejaVuSans-6e" d="M 3513 2113 
L 3513 0 
L 2938 0 
L 2938 2094 
Q 2938 2591 2744 2837 
Q 2550 3084 2163 3084 
Q 1697 3084 1428 2787 
Q 1159 2491 1159 1978 
L 1159 0 
L 581 0 
L 581 3500 
L 1159 3500 
L 1159 2956 
Q 1366 3272 1645 3428 
Q 1925 3584 2291 3584 
Q 2894 3584 3203 3211 
Q 3513 2838 3513 2113 
z
" transform="scale(0.015625)"/>
       <path id="DejaVuSans-67" d="M 2906 1791 
Q 2906 2416 2648 2759 
Q 2391 3103 1925 3103 
Q 1463 3103 1205 2759 
Q 947 2416 947 1791 
Q 947 1169 1205 825 
Q 1463 481 1925 481 
Q 2391 481 2648 825 
Q 2906 1169 2906 1791 
z
M 3481 434 
Q 3481 -459 3084 -895 
Q 2688 -1331 1869 -1331 
Q 1566 -1331 1297 -1286 
Q 1028 -1241 775 -1147 
L 775 -588 
Q 1028 -725 1275 -790 
Q 1522 -856 1778 -856 
Q 2344 -856 2625 -561 
Q 2906 -266 2906 331 
L 2906 616 
Q 2728 306 2450 153 
Q 2172 0 1784 0 
Q 1141 0 747 490 
Q 353 981 353 1791 
Q 353 2603 747 3093 
Q 1141 3584 1784 3584 
Q 2172 3584 2450 3431 
Q 2728 3278 2906 2969 
L 2906 3500 
L 3481 3500 
L 3481 434 
z
" transform="scale(0.015625)"/>
       <path id="DejaVuSans-75" d="M 544 1381 
L 544 3500 
L 1119 3500 
L 1119 1403 
Q 1119 906 1312 657 
Q 1506 409 1894 409 
Q 2359 409 2629 706 
Q 2900 1003 2900 1516 
L 2900 3500 
L 3475 3500 
L 3475 0 
L 2900 0 
L 2900 538 
Q 2691 219 2414 64 
Q 2138 -91 1772 -91 
Q 1169 -91 856 284 
Q 544 659 544 1381 
z
M 1991 3584 
L 1991 3584 
z
" transform="scale(0.015625)"/>
       <path id="DejaVuSans-6c" d="M 603 4863 
L 1178 4863 
L 1178 0 
L 603 0 
L 603 4863 
z
" transform="scale(0.015625)"/>
       <path id="DejaVuSans-61" d="M 2194 1759 
Q 1497 1759 1228 1600 
Q 959 1441 959 1056 
Q 959 750 1161 570 
Q 1363 391 1709 391 
Q 2188 391 2477 730 
Q 2766 1069 2766 1631 
L 2766 1759 
L 2194 1759 
z
M 3341 1997 
L 3341 0 
L 2766 0 
L 2766 531 
Q 2569 213 2275 61 
Q 1981 -91 1556 -91 
Q 1019 -91 701 211 
Q 384 513 384 1019 
Q 384 1609 779 1909 
Q 1175 2209 1959 2209 
L 2766 2209 
L 2766 2266 
Q 2766 2663 2505 2880 
Q 2244 3097 1772 3097 
Q 1472 3097 1187 3025 
Q 903 2953 641 2809 
L 641 3341 
Q 956 3463 1253 3523 
Q 1550 3584 1831 3584 
Q 2591 3584 2966 3190 
Q 3341 2797 3341 1997 
z
" transform="scale(0.015625)"/>
       <path id="DejaVuSans-72" d="M 2631 2963 
Q 2534 3019 2420 3045 
Q 2306 3072 2169 3072 
Q 1681 3072 1420 2755 
Q 1159 2438 1159 1844 
L 1159 0 
L 581 0 
L 581 3500 
L 1159 3500 
L 1159 2956 
Q 1341 3275 1631 3429 
Q 1922 3584 2338 3584 
Q 2397 3584 2469 3576 
Q 2541 3569 2628 3553 
L 2631 2963 
z
" transform="scale(0.015625)"/>
       <path id="DejaVuSans-20" transform="scale(0.015625)"/>
       <path id="DejaVuSans-76" d="M 191 3500 
L 800 3500 
L 1894 563 
L 2988 3500 
L 3597 3500 
L 2284 0 
L 1503 0 
L 191 3500 
z
" transform="scale(0.015625)"/>
       <path id="DejaVuSans-65" d="M 3597 1894 
L 3597 1613 
L 953 1613 
Q 991 1019 1311 708 
Q 1631 397 2203 397 
Q 2534 397 2845 478 
Q 3156 559 3463 722 
L 3463 178 
Q 3153 47 2828 -22 
Q 2503 -91 2169 -91 
Q 1331 -91 842 396 
Q 353 884 353 1716 
Q 353 2575 817 3079 
Q 1281 3584 2069 3584 
Q 2775 3584 3186 3129 
Q 3597 2675 3597 1894 
z
M 3022 2063 
Q 3016 2534 2758 2815 
Q 2500 3097 2075 3097 
Q 1594 3097 1305 2825 
Q 1016 2553 972 2059 
L 3022 2063 
z
" transform="scale(0.015625)"/>
       <path id="DejaVuSans-Oblique-3c3" d="M 2219 3044 
Q 1744 3044 1422 2700 
Q 1081 2341 969 1747 
Q 844 1119 1044 756 
Q 1241 397 1706 397 
Q 2166 397 2503 759 
Q 2844 1122 2966 1747 
Q 3075 2319 2881 2700 
Q 2700 3044 2219 3044 
z
M 2309 3503 
L 4219 3500 
L 4106 2925 
L 3463 2925 
Q 3706 2438 3575 1747 
Q 3406 888 2884 400 
Q 2359 -91 1609 -91 
Q 856 -91 525 400 
Q 194 888 363 1747 
Q 528 2609 1050 3097 
Q 1484 3503 2309 3503 
z
" transform="scale(0.015625)"/>
      </defs>
      <use xlink:href="#DejaVuSans-73" transform="translate(0 0.015625)"/>
      <use xlink:href="#DejaVuSans-69" transform="translate(52.099609 0.015625)"/>
      <use xlink:href="#DejaVuSans-6e" transform="translate(79.882812 0.015625)"/>
      <use xlink:href="#DejaVuSans-67" transform="translate(143.261719 0.015625)"/>
      <use xlink:href="#DejaVuSans-75" transform="translate(206.738281 0.015625)"/>
      <use xlink:href="#DejaVuSans-6c" transform="translate(270.117188 0.015625)"/>
      <use xlink:href="#DejaVuSans-61" transform="translate(297.900391 0.015625)"/>
      <use xlink:href="#DejaVuSans-72" transform="translate(359.179688 0.015625)"/>
      <use xlink:href="#DejaVuSans-20" transform="translate(400.292969 0.015625)"/>
      <use xlink:href="#DejaVuSans-76" transform="translate(432.080078 0.015625)"/>
      <use xlink:href="#DejaVuSans-61" transform="translate(491.259766 0.015625)"/>
      <use xlink:href="#DejaVuSans-6c" transform="translate(552.539062 0.015625)"/>
      <use xlink:href="#DejaVuSans-75" transform="translate(580.322266 0.015625)"/>
      <use xlink:href="#DejaVuSans-65" transform="translate(643.701172 0.015625)"/>
      <use xlink:href="#DejaVuSans-20" transform="translate(705.224609 0.015625)"/>
      <use xlink:href="#DejaVuSans-Oblique-3c3" transform="translate(737.011719 0.015625)"/>
     </g>
    </g>
   </g>
   <g id="matplotlib.axis_2">
    <g id="ytick_1">
     <g id="line2d_8">
      <defs>
       <path id="mb5fa77ae2c" d="M 0 0 
L -3.5 0 
" style="stroke: #000000; stroke-width: 0.8"/>
      </defs>
      <g>
       <use xlink:href="#mb5fa77ae2c" x="34.240625" y="240.758125" style="stroke: #000000; stroke-width: 0.8"/>
      </g>
     </g>
     <g id="text_9">
      <!-- 0 -->
      <g transform="translate(20.878125 244.557344) scale(0.1 -0.1)">
       <use xlink:href="#DejaVuSans-30"/>
      </g>
     </g>
    </g>
    <g id="ytick_2">
     <g id="line2d_9">
      <g>
       <use xlink:href="#mb5fa77ae2c" x="34.240625" y="204.351458" style="stroke: #000000; stroke-width: 0.8"/>
      </g>
     </g>
     <g id="text_10">
      <!-- 1 -->
      <g transform="translate(20.878125 208.150677) scale(0.1 -0.1)">
       <use xlink:href="#DejaVuSans-31"/>
      </g>
     </g>
    </g>
    <g id="ytick_3">
     <g id="line2d_10">
      <g>
       <use xlink:href="#mb5fa77ae2c" x="34.240625" y="167.944792" style="stroke: #000000; stroke-width: 0.8"/>
      </g>
     </g>
     <g id="text_11">
      <!-- 2 -->
      <g transform="translate(20.878125 171.74401) scale(0.1 -0.1)">
       <use xlink:href="#DejaVuSans-32"/>
      </g>
     </g>
    </g>
    <g id="ytick_4">
     <g id="line2d_11">
      <g>
       <use xlink:href="#mb5fa77ae2c" x="34.240625" y="131.538125" style="stroke: #000000; stroke-width: 0.8"/>
      </g>
     </g>
     <g id="text_12">
      <!-- 3 -->
      <g transform="translate(20.878125 135.337344) scale(0.1 -0.1)">
       <use xlink:href="#DejaVuSans-33"/>
      </g>
     </g>
    </g>
    <g id="ytick_5">
     <g id="line2d_12">
      <g>
       <use xlink:href="#mb5fa77ae2c" x="34.240625" y="95.131458" style="stroke: #000000; stroke-width: 0.8"/>
      </g>
     </g>
     <g id="text_13">
      <!-- 4 -->
      <g transform="translate(20.878125 98.930677) scale(0.1 -0.1)">
       <defs>
        <path id="DejaVuSans-34" d="M 2419 4116 
L 825 1625 
L 2419 1625 
L 2419 4116 
z
M 2253 4666 
L 3047 4666 
L 3047 1625 
L 3713 1625 
L 3713 1100 
L 3047 1100 
L 3047 0 
L 2419 0 
L 2419 1100 
L 313 1100 
L 313 1709 
L 2253 4666 
z
" transform="scale(0.015625)"/>
       </defs>
       <use xlink:href="#DejaVuSans-34"/>
      </g>
     </g>
    </g>
    <g id="ytick_6">
     <g id="line2d_13">
      <g>
       <use xlink:href="#mb5fa77ae2c" x="34.240625" y="58.724792" style="stroke: #000000; stroke-width: 0.8"/>
      </g>
     </g>
     <g id="text_14">
      <!-- 5 -->
      <g transform="translate(20.878125 62.52401) scale(0.1 -0.1)">
       <use xlink:href="#DejaVuSans-35"/>
      </g>
     </g>
    </g>
    <g id="ytick_7">
     <g id="line2d_14">
      <g>
       <use xlink:href="#mb5fa77ae2c" x="34.240625" y="22.318125" style="stroke: #000000; stroke-width: 0.8"/>
      </g>
     </g>
     <g id="text_15">
      <!-- 6 -->
      <g transform="translate(20.878125 26.117344) scale(0.1 -0.1)">
       <defs>
        <path id="DejaVuSans-36" d="M 2113 2584 
Q 1688 2584 1439 2293 
Q 1191 2003 1191 1497 
Q 1191 994 1439 701 
Q 1688 409 2113 409 
Q 2538 409 2786 701 
Q 3034 994 3034 1497 
Q 3034 2003 2786 2293 
Q 2538 2584 2113 2584 
z
M 3366 4563 
L 3366 3988 
Q 3128 4100 2886 4159 
Q 2644 4219 2406 4219 
Q 1781 4219 1451 3797 
Q 1122 3375 1075 2522 
Q 1259 2794 1537 2939 
Q 1816 3084 2150 3084 
Q 2853 3084 3261 2657 
Q 3669 2231 3669 1497 
Q 3669 778 3244 343 
Q 2819 -91 2113 -91 
Q 1303 -91 875 529 
Q 447 1150 447 2328 
Q 447 3434 972 4092 
Q 1497 4750 2381 4750 
Q 2619 4750 2861 4703 
Q 3103 4656 3366 4563 
z
" transform="scale(0.015625)"/>
       </defs>
       <use xlink:href="#DejaVuSans-36"/>
      </g>
     </g>
    </g>
    <g id="text_16">
     <!-- filter factor -->
     <g transform="translate(14.798438 159.406094) rotate(-90) scale(0.1 -0.1)">
      <defs>
       <path id="DejaVuSans-66" d="M 2375 4863 
L 2375 4384 
L 1825 4384 
Q 1516 4384 1395 4259 
Q 1275 4134 1275 3809 
L 1275 3500 
L 2222 3500 
L 2222 3053 
L 1275 3053 
L 1275 0 
L 697 0 
L 697 3053 
L 147 3053 
L 147 3500 
L 697 3500 
L 697 3744 
Q 697 4328 969 4595 
Q 1241 4863 1831 4863 
L 2375 4863 
z
" transform="scale(0.015625)"/>
       <path id="DejaVuSans-74" d="M 1172 4494 
L 1172 3500 
L 2356 3500 
L 2356 3053 
L 1172 3053 
L 1172 1153 
Q 1172 725 1289 603 
Q 1406 481 1766 481 
L 2356 481 
L 2356 0 
L 1766 0 
Q 1100 0 847 248 
Q 594 497 594 1153 
L 594 3053 
L 172 3053 
L 172 3500 
L 594 3500 
L 594 4494 
L 1172 4494 
z
" transform="scale(0.015625)"/>
       <path id="DejaVuSans-63" d="M 3122 3366 
L 3122 2828 
Q 2878 2963 2633 3030 
Q 2388 3097 2138 3097 
Q 1578 3097 1268 2742 
Q 959 2388 959 1747 
Q 959 1106 1268 751 
Q 1578 397 2138 397 
Q 2388 397 2633 464 
Q 2878 531 3122 666 
L 3122 134 
Q 2881 22 2623 -34 
Q 2366 -91 2075 -91 
Q 1284 -91 818 406 
Q 353 903 353 1747 
Q 353 2603 823 3093 
Q 1294 3584 2113 3584 
Q 2378 3584 2631 3529 
Q 2884 3475 3122 3366 
z
" transform="scale(0.015625)"/>
       <path id="DejaVuSans-6f" d="M 1959 3097 
Q 1497 3097 1228 2736 
Q 959 2375 959 1747 
Q 959 1119 1226 758 
Q 1494 397 1959 397 
Q 2419 397 2687 759 
Q 2956 1122 2956 1747 
Q 2956 2369 2687 2733 
Q 2419 3097 1959 3097 
z
M 1959 3584 
Q 2709 3584 3137 3096 
Q 3566 2609 3566 1747 
Q 3566 888 3137 398 
Q 2709 -91 1959 -91 
Q 1206 -91 779 398 
Q 353 888 353 1747 
Q 353 2609 779 3096 
Q 1206 3584 1959 3584 
z
" transform="scale(0.015625)"/>
      </defs>
      <use xlink:href="#DejaVuSans-66"/>
      <use xlink:href="#DejaVuSans-69" transform="translate(35.205078 0)"/>
      <use xlink:href="#DejaVuSans-6c" transform="translate(62.988281 0)"/>
      <use xlink:href="#DejaVuSans-74" transform="translate(90.771484 0)"/>
      <use xlink:href="#DejaVuSans-65" transform="translate(129.980469 0)"/>
      <use xlink:href="#DejaVuSans-72" transform="translate(191.503906 0)"/>
      <use xlink:href="#DejaVuSans-20" transform="translate(232.617188 0)"/>
      <use xlink:href="#DejaVuSans-66" transform="translate(264.404297 0)"/>
      <use xlink:href="#DejaVuSans-61" transform="translate(299.609375 0)"/>
      <use xlink:href="#DejaVuSans-63" transform="translate(360.888672 0)"/>
      <use xlink:href="#DejaVuSans-74" transform="translate(415.869141 0)"/>
      <use xlink:href="#DejaVuSans-6f" transform="translate(455.078125 0)"/>
      <use xlink:href="#DejaVuSans-72" transform="translate(516.259766 0)"/>
     </g>
    </g>
   </g>
   <g id="line2d_15">
    <path d="M 68.023116 -1 
L 69.096067 13.038106 
L 70.84102 32.556032 
L 72.585974 48.992316 
L 74.330927 63.023389 
L 76.07588 75.141206 
L 77.820833 85.712122 
L 79.565787 95.014571 
L 81.31074 103.263946 
L 83.055693 110.629486 
L 84.800647 117.246009 
L 86.5456 123.22224 
L 88.290553 128.646834 
L 90.907983 135.905664 
L 93.525413 142.281683 
L 96.142843 147.926709 
L 98.760273 152.959636 
L 101.377703 157.474901 
L 103.995133 161.548463 
L 106.612563 165.242113 
L 109.229993 168.606632 
L 111.847423 171.684135 
L 115.337329 175.401066 
L 118.827236 178.7384 
L 122.317142 181.751463 
L 125.807049 184.485327 
L 129.296956 186.977081 
L 133.659339 189.797732 
L 138.021722 192.337258 
L 142.384105 194.635693 
L 147.618965 197.121308 
L 152.853825 199.352715 
L 158.961162 201.68383 
L 165.068498 203.766452 
L 172.048311 205.890359 
L 179.028124 207.783617 
L 186.880414 209.681923 
L 195.605181 211.550219 
L 205.202424 213.361976 
L 215.672144 215.098342 
L 227.01434 216.746984 
L 239.229013 218.300856 
L 253.188639 219.847404 
L 268.893219 221.350964 
L 286.342752 222.786753 
L 305.537238 224.139211 
L 327.349154 225.44847 
L 351.7785 226.689789 
L 379.697753 227.88286 
L 399.764716 228.622569 
L 399.764716 228.622569 
" clip-path="url(#p770b16481d)" style="fill: none; stroke: #1f77b4; stroke-width: 2; stroke-linecap: square"/>
   </g>
   <g id="line2d_16">
    <path d="M 51.646534 233.491325 
L 55.136441 212.55249 
L 57.753871 198.57283 
L 59.498824 190.408323 
L 61.243777 183.277667 
L 62.98873 177.20871 
L 64.733684 172.180512 
L 66.478637 168.135319 
L 68.22359 164.990767 
L 69.968544 162.650762 
L 70.84102 161.750888 
L 71.713497 161.014252 
L 72.585974 160.428503 
L 73.45845 159.981665 
L 75.203404 159.459203 
L 76.948357 159.361373 
L 78.69331 159.612176 
L 80.438263 160.14535 
L 82.183217 160.90401 
L 84.800647 162.361432 
L 87.418077 164.088452 
L 91.78046 167.308911 
L 106.612563 178.611306 
L 111.847423 182.220121 
L 117.082283 185.549503 
L 122.317142 188.601874 
L 127.552002 191.392399 
L 132.786862 193.941677 
L 138.894199 196.640447 
L 145.001535 199.075184 
L 151.108872 201.277366 
L 158.088685 203.545216 
L 165.068498 205.582224 
L 172.920788 207.636294 
L 181.645554 209.666536 
L 190.370321 211.471558 
L 199.967564 213.237313 
L 210.437284 214.942435 
L 221.77948 216.571863 
L 234.86663 218.218872 
L 248.826256 219.749437 
L 264.530836 221.24411 
L 281.980369 222.676772 
L 301.174855 224.030419 
L 322.986771 225.344072 
L 347.416117 226.592002 
L 375.33537 227.793229 
L 399.764716 228.689617 
L 399.764716 228.689617 
" clip-path="url(#p770b16481d)" style="fill: none; stroke: #ff7f0e; stroke-width: 2; stroke-linecap: square"/>
   </g>
   <g id="line2d_17">
    <path d="M 51.646534 239.544974 
L 58.626347 232.405549 
L 62.98873 228.205108 
L 67.351114 224.325143 
L 70.84102 221.500425 
L 74.330927 218.950094 
L 77.820833 216.686483 
L 81.31074 214.711936 
L 84.800647 213.020399 
L 88.290553 211.599243 
L 91.78046 210.431085 
L 95.270366 209.495479 
L 98.760273 208.770348 
L 103.122656 208.1256 
L 107.485039 207.731572 
L 111.847423 207.548076 
L 117.082283 207.554845 
L 123.189619 207.807371 
L 130.169432 208.331881 
L 138.894199 209.221801 
L 151.981348 210.816048 
L 193.860227 216.077116 
L 212.182237 218.072775 
L 230.504247 219.837611 
L 249.698733 221.458637 
L 270.638172 222.995133 
L 293.322565 224.429311 
L 318.624388 225.79654 
L 346.54364 227.075824 
L 377.9528 228.287173 
L 399.764716 229.014039 
L 399.764716 229.014039 
" clip-path="url(#p770b16481d)" style="fill: none; stroke: #2ca02c; stroke-width: 2; stroke-linecap: square"/>
   </g>
   <g id="line2d_18">
    <path d="M 51.646534 240.394095 
L 67.351114 235.591719 
L 76.948357 232.888857 
L 85.673123 230.675168 
L 93.525413 228.917021 
L 101.377703 227.39653 
L 109.229993 226.115847 
L 117.082283 225.066881 
L 124.934572 224.234123 
L 133.659339 223.537776 
L 143.256582 223.01432 
L 153.726302 222.685448 
L 165.068498 222.557104 
L 178.155648 222.631902 
L 194.732704 222.964863 
L 216.54462 223.645087 
L 255.806069 225.136815 
L 314.262005 227.30902 
L 358.758314 228.724722 
L 399.764716 229.836125 
L 399.764716 229.836125 
" clip-path="url(#p770b16481d)" style="fill: none; stroke: #d62728; stroke-width: 2; stroke-linecap: square"/>
   </g>
   <g id="patch_3">
    <path d="M 34.240625 240.758125 
L 34.240625 22.318125 
" style="fill: none; stroke: #000000; stroke-width: 0.8; stroke-linejoin: miter; stroke-linecap: square"/>
   </g>
   <g id="patch_4">
    <path d="M 417.170625 240.758125 
L 417.170625 22.318125 
" style="fill: none; stroke: #000000; stroke-width: 0.8; stroke-linejoin: miter; stroke-linecap: square"/>
   </g>
   <g id="patch_5">
    <path d="M 34.240625 240.758125 
L 417.170625 240.758125 
" style="fill: none; stroke: #000000; stroke-width: 0.8; stroke-linejoin: miter; stroke-linecap: square"/>
   </g>
   <g id="patch_6">
    <path d="M 34.240625 22.318125 
L 417.170625 22.318125 
" style="fill: none; stroke: #000000; stroke-width: 0.8; stroke-linejoin: miter; stroke-linecap: square"/>
   </g>
   <g id="text_17">
    <!-- Ridge gently damps small singular values -->
    <g transform="translate(100.374063 16.318125) scale(0.12 -0.12)">
     <defs>
      <path id="DejaVuSans-52" d="M 2841 2188 
Q 3044 2119 3236 1894 
Q 3428 1669 3622 1275 
L 4263 0 
L 3584 0 
L 2988 1197 
Q 2756 1666 2539 1819 
Q 2322 1972 1947 1972 
L 1259 1972 
L 1259 0 
L 628 0 
L 628 4666 
L 2053 4666 
Q 2853 4666 3247 4331 
Q 3641 3997 3641 3322 
Q 3641 2881 3436 2590 
Q 3231 2300 2841 2188 
z
M 1259 4147 
L 1259 2491 
L 2053 2491 
Q 2509 2491 2742 2702 
Q 2975 2913 2975 3322 
Q 2975 3731 2742 3939 
Q 2509 4147 2053 4147 
L 1259 4147 
z
" transform="scale(0.015625)"/>
      <path id="DejaVuSans-64" d="M 2906 2969 
L 2906 4863 
L 3481 4863 
L 3481 0 
L 2906 0 
L 2906 525 
Q 2725 213 2448 61 
Q 2172 -91 1784 -91 
Q 1150 -91 751 415 
Q 353 922 353 1747 
Q 353 2572 751 3078 
Q 1150 3584 1784 3584 
Q 2172 3584 2448 3432 
Q 2725 3281 2906 2969 
z
M 947 1747 
Q 947 1113 1208 752 
Q 1469 391 1925 391 
Q 2381 391 2643 752 
Q 2906 1113 2906 1747 
Q 2906 2381 2643 2742 
Q 2381 3103 1925 3103 
Q 1469 3103 1208 2742 
Q 947 2381 947 1747 
z
" transform="scale(0.015625)"/>
      <path id="DejaVuSans-79" d="M 2059 -325 
Q 1816 -950 1584 -1140 
Q 1353 -1331 966 -1331 
L 506 -1331 
L 506 -850 
L 844 -850 
Q 1081 -850 1212 -737 
Q 1344 -625 1503 -206 
L 1606 56 
L 191 3500 
L 800 3500 
L 1894 763 
L 2988 3500 
L 3597 3500 
L 2059 -325 
z
" transform="scale(0.015625)"/>
      <path id="DejaVuSans-6d" d="M 3328 2828 
Q 3544 3216 3844 3400 
Q 4144 3584 4550 3584 
Q 5097 3584 5394 3201 
Q 5691 2819 5691 2113 
L 5691 0 
L 5113 0 
L 5113 2094 
Q 5113 2597 4934 2840 
Q 4756 3084 4391 3084 
Q 3944 3084 3684 2787 
Q 3425 2491 3425 1978 
L 3425 0 
L 2847 0 
L 2847 2094 
Q 2847 2600 2669 2842 
Q 2491 3084 2119 3084 
Q 1678 3084 1418 2786 
Q 1159 2488 1159 1978 
L 1159 0 
L 581 0 
L 581 3500 
L 1159 3500 
L 1159 2956 
Q 1356 3278 1631 3431 
Q 1906 3584 2284 3584 
Q 2666 3584 2933 3390 
Q 3200 3197 3328 2828 
z
" transform="scale(0.015625)"/>
      <path id="DejaVuSans-70" d="M 1159 525 
L 1159 -1331 
L 581 -1331 
L 581 3500 
L 1159 3500 
L 1159 2969 
Q 1341 3281 1617 3432 
Q 1894 3584 2278 3584 
Q 2916 3584 3314 3078 
Q 3713 2572 3713 1747 
Q 3713 922 3314 415 
Q 2916 -91 2278 -91 
Q 1894 -91 1617 61 
Q 1341 213 1159 525 
z
M 3116 1747 
Q 3116 2381 2855 2742 
Q 2594 3103 2138 3103 
Q 1681 3103 1420 2742 
Q 1159 2381 1159 1747 
Q 1159 1113 1420 752 
Q 1681 391 2138 391 
Q 2594 391 2855 752 
Q 3116 1113 3116 1747 
z
" transform="scale(0.015625)"/>
     </defs>
     <use xlink:href="#DejaVuSans-52"/>
     <use xlink:href="#DejaVuSans-69" transform="translate(69.482422 0)"/>
     <use xlink:href="#DejaVuSans-64" transform="translate(97.265625 0)"/>
     <use xlink:href="#DejaVuSans-67" transform="translate(160.742188 0)"/>
     <use xlink:href="#DejaVuSans-65" transform="translate(224.21875 0)"/>
     <use xlink:href="#DejaVuSans-20" transform="translate(285.742188 0)"/>
     <use xlink:href="#DejaVuSans-67" transform="translate(317.529297 0)"/>
     <use xlink:href="#DejaVuSans-65" transform="translate(381.005859 0)"/>
     <use xlink:href="#DejaVuSans-6e" transform="translate(442.529297 0)"/>
     <use xlink:href="#DejaVuSans-74" transform="translate(505.908203 0)"/>
     <use xlink:href="#DejaVuSans-6c" transform="translate(545.117188 0)"/>
     <use xlink:href="#DejaVuSans-79" transform="translate(572.900391 0)"/>
     <use xlink:href="#DejaVuSans-20" transform="translate(632.080078 0)"/>
     <use xlink:href="#DejaVuSans-64" transform="translate(663.867188 0)"/>
     <use xlink:href="#DejaVuSans-61" transform="translate(727.34375 0)"/>
     <use xlink:href="#DejaVuSans-6d" transform="translate(788.623047 0)"/>
     <use xlink:href="#DejaVuSans-70" transform="translate(886.035156 0)"/>
     <use xlink:href="#DejaVuSans-73" transform="translate(949.511719 0)"/>
     <use xlink:href="#DejaVuSans-20" transform="translate(1001.611328 0)"/>
     <use xlink:href="#DejaVuSans-73" transform="translate(1033.398438 0)"/>
     <use xlink:href="#DejaVuSans-6d" transform="translate(1085.498047 0)"/>
     <use xlink:href="#DejaVuSans-61" transform="translate(1182.910156 0)"/>
     <use xlink:href="#DejaVuSans-6c" transform="translate(1244.189453 0)"/>
     <use xlink:href="#DejaVuSans-6c" transform="translate(1271.972656 0)"/>
     <use xlink:href="#DejaVuSans-20" transform="translate(1299.755859 0)"/>
     <use xlink:href="#DejaVuSans-73" transform="translate(1331.542969 0)"/>
     <use xlink:href="#DejaVuSans-69" transform="translate(1383.642578 0)"/>
     <use xlink:href="#DejaVuSans-6e" transform="translate(1411.425781 0)"/>
     <use xlink:href="#DejaVuSans-67" transform="translate(1474.804688 0)"/>
     <use xlink:href="#DejaVuSans-75" transform="translate(1538.28125 0)"/>
     <use xlink:href="#DejaVuSans-6c" transform="translate(1601.660156 0)"/>
     <use xlink:href="#DejaVuSans-61" transform="translate(1629.443359 0)"/>
     <use xlink:href="#DejaVuSans-72" transform="translate(1690.722656 0)"/>
     <use xlink:href="#DejaVuSans-20" transform="translate(1731.835938 0)"/>
     <use xlink:href="#DejaVuSans-76" transform="translate(1763.623047 0)"/>
     <use xlink:href="#DejaVuSans-61" transform="translate(1822.802734 0)"/>
     <use xlink:href="#DejaVuSans-6c" transform="translate(1884.082031 0)"/>
     <use xlink:href="#DejaVuSans-75" transform="translate(1911.865234 0)"/>
     <use xlink:href="#DejaVuSans-65" transform="translate(1975.244141 0)"/>
     <use xlink:href="#DejaVuSans-73" transform="translate(2036.767578 0)"/>
    </g>
   </g>
   <g id="legend_1">
    <g id="patch_7">
     <path d="M 290.670625 89.09625 
L 410.170625 89.09625 
Q 412.170625 89.09625 412.170625 87.09625 
L 412.170625 29.318125 
Q 412.170625 27.318125 410.170625 27.318125 
L 290.670625 27.318125 
Q 288.670625 27.318125 288.670625 29.318125 
L 288.670625 87.09625 
Q 288.670625 89.09625 290.670625 89.09625 
z
" style="fill: #ffffff; opacity: 0.8; stroke: #cccccc; stroke-linejoin: miter"/>
    </g>
    <g id="line2d_19">
     <path d="M 292.670625 35.416562 
L 302.670625 35.416562 
L 312.670625 35.416562 
" style="fill: none; stroke: #1f77b4; stroke-width: 2; stroke-linecap: square"/>
    </g>
    <g id="text_18">
     <!-- OLS: $1/\sigma$ -->
     <g transform="translate(320.670625 38.916562) scale(0.1 -0.1)">
      <defs>
       <path id="DejaVuSans-4f" d="M 2522 4238 
Q 1834 4238 1429 3725 
Q 1025 3213 1025 2328 
Q 1025 1447 1429 934 
Q 1834 422 2522 422 
Q 3209 422 3611 934 
Q 4013 1447 4013 2328 
Q 4013 3213 3611 3725 
Q 3209 4238 2522 4238 
z
M 2522 4750 
Q 3503 4750 4090 4092 
Q 4678 3434 4678 2328 
Q 4678 1225 4090 567 
Q 3503 -91 2522 -91 
Q 1538 -91 948 565 
Q 359 1222 359 2328 
Q 359 3434 948 4092 
Q 1538 4750 2522 4750 
z
" transform="scale(0.015625)"/>
       <path id="DejaVuSans-4c" d="M 628 4666 
L 1259 4666 
L 1259 531 
L 3531 531 
L 3531 0 
L 628 0 
L 628 4666 
z
" transform="scale(0.015625)"/>
       <path id="DejaVuSans-53" d="M 3425 4513 
L 3425 3897 
Q 3066 4069 2747 4153 
Q 2428 4238 2131 4238 
Q 1616 4238 1336 4038 
Q 1056 3838 1056 3469 
Q 1056 3159 1242 3001 
Q 1428 2844 1947 2747 
L 2328 2669 
Q 3034 2534 3370 2195 
Q 3706 1856 3706 1288 
Q 3706 609 3251 259 
Q 2797 -91 1919 -91 
Q 1588 -91 1214 -16 
Q 841 59 441 206 
L 441 856 
Q 825 641 1194 531 
Q 1563 422 1919 422 
Q 2459 422 2753 634 
Q 3047 847 3047 1241 
Q 3047 1584 2836 1778 
Q 2625 1972 2144 2069 
L 1759 2144 
Q 1053 2284 737 2584 
Q 422 2884 422 3419 
Q 422 4038 858 4394 
Q 1294 4750 2059 4750 
Q 2388 4750 2728 4690 
Q 3069 4631 3425 4513 
z
" transform="scale(0.015625)"/>
       <path id="DejaVuSans-3a" d="M 750 794 
L 1409 794 
L 1409 0 
L 750 0 
L 750 794 
z
M 750 3309 
L 1409 3309 
L 1409 2516 
L 750 2516 
L 750 3309 
z
" transform="scale(0.015625)"/>
       <path id="DejaVuSans-2f" d="M 1625 4666 
L 2156 4666 
L 531 -594 
L 0 -594 
L 1625 4666 
z
" transform="scale(0.015625)"/>
      </defs>
      <use xlink:href="#DejaVuSans-4f" transform="translate(0 0.78125)"/>
      <use xlink:href="#DejaVuSans-4c" transform="translate(78.710938 0.78125)"/>
      <use xlink:href="#DejaVuSans-53" transform="translate(134.423828 0.78125)"/>
      <use xlink:href="#DejaVuSans-3a" transform="translate(197.900391 0.78125)"/>
      <use xlink:href="#DejaVuSans-20" transform="translate(231.591797 0.78125)"/>
      <use xlink:href="#DejaVuSans-31" transform="translate(263.378906 0.78125)"/>
      <use xlink:href="#DejaVuSans-2f" transform="translate(327.001953 0.78125)"/>
      <use xlink:href="#DejaVuSans-Oblique-3c3" transform="translate(360.693359 0.78125)"/>
     </g>
    </g>
    <g id="line2d_20">
     <path d="M 292.670625 50.09625 
L 302.670625 50.09625 
L 312.670625 50.09625 
" style="fill: none; stroke: #ff7f0e; stroke-width: 2; stroke-linecap: square"/>
    </g>
    <g id="text_19">
     <!-- Ridge ($N\lambda=0.05$) -->
     <g transform="translate(320.670625 53.59625) scale(0.1 -0.1)">
      <defs>
       <path id="DejaVuSans-28" d="M 1984 4856 
Q 1566 4138 1362 3434 
Q 1159 2731 1159 2009 
Q 1159 1288 1364 580 
Q 1569 -128 1984 -844 
L 1484 -844 
Q 1016 -109 783 600 
Q 550 1309 550 2009 
Q 550 2706 781 3412 
Q 1013 4119 1484 4856 
L 1984 4856 
z
" transform="scale(0.015625)"/>
       <path id="DejaVuSans-Oblique-4e" d="M 1081 4666 
L 1931 4666 
L 3219 666 
L 4000 4666 
L 4616 4666 
L 3706 0 
L 2853 0 
L 1569 4025 
L 788 0 
L 172 0 
L 1081 4666 
z
" transform="scale(0.015625)"/>
       <path id="DejaVuSans-Oblique-3bb" d="M 2350 4316 
L 3125 0 
L 2516 0 
L 2038 2588 
L 328 0 
L -281 0 
L 1903 3356 
L 1794 3975 
Q 1725 4369 1391 4369 
L 1091 4369 
L 1184 4863 
L 1550 4856 
Q 2253 4847 2350 4316 
z
" transform="scale(0.015625)"/>
       <path id="DejaVuSans-3d" d="M 678 2906 
L 4684 2906 
L 4684 2381 
L 678 2381 
L 678 2906 
z
M 678 1631 
L 4684 1631 
L 4684 1100 
L 678 1100 
L 678 1631 
z
" transform="scale(0.015625)"/>
       <path id="DejaVuSans-29" d="M 513 4856 
L 1013 4856 
Q 1481 4119 1714 3412 
Q 1947 2706 1947 2009 
Q 1947 1309 1714 600 
Q 1481 -109 1013 -844 
L 513 -844 
Q 928 -128 1133 580 
Q 1338 1288 1338 2009 
Q 1338 2731 1133 3434 
Q 928 4138 513 4856 
z
" transform="scale(0.015625)"/>
      </defs>
      <use xlink:href="#DejaVuSans-52" transform="translate(0 0.015625)"/>
      <use xlink:href="#DejaVuSans-69" transform="translate(69.482422 0.015625)"/>
      <use xlink:href="#DejaVuSans-64" transform="translate(97.265625 0.015625)"/>
      <use xlink:href="#DejaVuSans-67" transform="translate(160.742188 0.015625)"/>
      <use xlink:href="#DejaVuSans-65" transform="translate(224.21875 0.015625)"/>
      <use xlink:href="#DejaVuSans-20" transform="translate(285.742188 0.015625)"/>
      <use xlink:href="#DejaVuSans-28" transform="translate(317.529297 0.015625)"/>
      <use xlink:href="#DejaVuSans-Oblique-4e" transform="translate(356.542969 0.015625)"/>
      <use xlink:href="#DejaVuSans-Oblique-3bb" transform="translate(431.347656 0.015625)"/>
      <use xlink:href="#DejaVuSans-3d" transform="translate(510.009766 0.015625)"/>
      <use xlink:href="#DejaVuSans-30" transform="translate(613.28125 0.015625)"/>
      <use xlink:href="#DejaVuSans-2e" transform="translate(676.904297 0.015625)"/>
      <use xlink:href="#DejaVuSans-30" transform="translate(708.691406 0.015625)"/>
      <use xlink:href="#DejaVuSans-35" transform="translate(772.314453 0.015625)"/>
      <use xlink:href="#DejaVuSans-29" transform="translate(835.9375 0.015625)"/>
     </g>
    </g>
    <g id="line2d_21">
     <path d="M 292.670625 64.79625 
L 302.670625 64.79625 
L 312.670625 64.79625 
" style="fill: none; stroke: #2ca02c; stroke-width: 2; stroke-linecap: square"/>
    </g>
    <g id="text_20">
     <!-- Ridge ($N\lambda=0.3$) -->
     <g transform="translate(320.670625 68.29625) scale(0.1 -0.1)">
      <use xlink:href="#DejaVuSans-52" transform="translate(0 0.015625)"/>
      <use xlink:href="#DejaVuSans-69" transform="translate(69.482422 0.015625)"/>
      <use xlink:href="#DejaVuSans-64" transform="translate(97.265625 0.015625)"/>
      <use xlink:href="#DejaVuSans-67" transform="translate(160.742188 0.015625)"/>
      <use xlink:href="#DejaVuSans-65" transform="translate(224.21875 0.015625)"/>
      <use xlink:href="#DejaVuSans-20" transform="translate(285.742188 0.015625)"/>
      <use xlink:href="#DejaVuSans-28" transform="translate(317.529297 0.015625)"/>
      <use xlink:href="#DejaVuSans-Oblique-4e" transform="translate(356.542969 0.015625)"/>
      <use xlink:href="#DejaVuSans-Oblique-3bb" transform="translate(431.347656 0.015625)"/>
      <use xlink:href="#DejaVuSans-3d" transform="translate(510.009766 0.015625)"/>
      <use xlink:href="#DejaVuSans-30" transform="translate(613.28125 0.015625)"/>
      <use xlink:href="#DejaVuSans-2e" transform="translate(676.904297 0.015625)"/>
      <use xlink:href="#DejaVuSans-33" transform="translate(708.691406 0.015625)"/>
      <use xlink:href="#DejaVuSans-29" transform="translate(772.314453 0.015625)"/>
     </g>
    </g>
    <g id="line2d_22">
     <path d="M 292.670625 79.49625 
L 302.670625 79.49625 
L 312.670625 79.49625 
" style="fill: none; stroke: #d62728; stroke-width: 2; stroke-linecap: square"/>
    </g>
    <g id="text_21">
     <!-- Ridge ($N\lambda=1.0$) -->
     <g transform="translate(320.670625 82.99625) scale(0.1 -0.1)">
      <use xlink:href="#DejaVuSans-52" transform="translate(0 0.015625)"/>
      <use xlink:href="#DejaVuSans-69" transform="translate(69.482422 0.015625)"/>
      <use xlink:href="#DejaVuSans-64" transform="translate(97.265625 0.015625)"/>
      <use xlink:href="#DejaVuSans-67" transform="translate(160.742188 0.015625)"/>
      <use xlink:href="#DejaVuSans-65" transform="translate(224.21875 0.015625)"/>
      <use xlink:href="#DejaVuSans-20" transform="translate(285.742188 0.015625)"/>
      <use xlink:href="#DejaVuSans-28" transform="translate(317.529297 0.015625)"/>
      <use xlink:href="#DejaVuSans-Oblique-4e" transform="translate(356.542969 0.015625)"/>
      <use xlink:href="#DejaVuSans-Oblique-3bb" transform="translate(431.347656 0.015625)"/>
      <use xlink:href="#DejaVuSans-3d" transform="translate(510.009766 0.015625)"/>
      <use xlink:href="#DejaVuSans-31" transform="translate(613.28125 0.015625)"/>
      <use xlink:href="#DejaVuSans-2e" transform="translate(676.904297 0.015625)"/>
      <use xlink:href="#DejaVuSans-30" transform="translate(708.691406 0.015625)"/>
      <use xlink:href="#DejaVuSans-29" transform="translate(772.314453 0.015625)"/>
     </g>
    </g>
   </g>
  </g>
 </g>
 <defs>
  <clipPath id="p770b16481d">
   <rect x="34.240625" y="22.318125" width="382.93" height="218.44"/>
  </clipPath>
 </defs>
</svg>
