<?xml version="1.0" encoding="utf-8" standalone="no"?>
<!DOCTYPE svg PUBLIC "-//W3C//DTD SVG 1.1//EN"
  "http://www.w3.org/Graphics/SVG/1.1/DTD/svg11.dtd">
<svg xmlns:xlink="http://www.w3.org/1999/xlink" width="784.827187pt" height="285.03625pt" viewBox="0 0 784.827187 285.03625" xmlns="http://www.w3.org/2000/svg" version="1.1">
 <metadata>
  <rdf:RDF xmlns:dc="http://purl.org/dc/elements/1.1/" xmlns:cc="http://creativecommons.org/ns#" xmlns:rdf="http://www.w3.org/1999/02/22-rdf-syntax-ns#">
   <cc:Work>
    <dc:type rdf:resource="http://purl.org/dc/dcmitype/StillImage"/>
    <dc:date>2026-05-13T19:05:15.087813</dc:date>
    <dc:format>image/svg+xml</dc:format>
    <dc:creator>
     <cc:Agent>
      <dc:title>Matplotlib v3.10.9, https://matplotlib.org/</dc:title>
     </cc:Agent>
    </dc:creator>
   </cc:Work>
  </rdf:RDF>
 </metadata>
 <defs>
  <style type="text/css">*{stroke-linejoin: round; stroke-linecap: butt}</style>
 </defs>
 <g id="figure_1">
  <g id="patch_1">
   <path d="M 0 285.03625 
L 784.827187 285.03625 
L 784.827187 0 
L 0 0 
z
" style="fill: #ffffff"/>
  </g>
  <g id="axes_1">
   <g id="patch_2">
    <path d="M 28.942188 247.48 
L 386.397187 247.48 
L 386.397187 51.108 
L 28.942188 51.108 
z
" style="fill: #ffffff"/>
   </g>
   <g id="matplotlib.axis_1">
    <g id="xtick_1">
     <g id="line2d_1">
      <defs>
       <path id="m33590a31bb" d="M 0 0 
L 0 3.5 
" style="stroke: #000000; stroke-width: 0.8"/>
      </defs>
      <g>
       <use xlink:href="#m33590a31bb" x="45.190142" y="247.48" style="stroke: #000000; stroke-width: 0.8"/>
      </g>
     </g>
     <g id="text_1">
      <!-- −4 -->
      <g transform="translate(37.819048 262.078437) scale(0.1 -0.1)">
       <defs>
        <path id="DejaVuSans-2212" d="M 678 2272 
L 4684 2272 
L 4684 1741 
L 678 1741 
L 678 2272 
z
" transform="scale(0.015625)"/>
        <path id="DejaVuSans-34" d="M 2419 4116 
L 825 1625 
L 2419 1625 
L 2419 4116 
z
M 2253 4666 
L 3047 4666 
L 3047 1625 
L 3713 1625 
L 3713 1100 
L 3047 1100 
L 3047 0 
L 2419 0 
L 2419 1100 
L 313 1100 
L 313 1709 
L 2253 4666 
z
" transform="scale(0.015625)"/>
       </defs>
       <use xlink:href="#DejaVuSans-2212"/>
       <use xlink:href="#DejaVuSans-34" transform="translate(83.789062 0)"/>
      </g>
     </g>
    </g>
    <g id="xtick_2">
     <g id="line2d_2">
      <g>
       <use xlink:href="#m33590a31bb" x="85.810028" y="247.48" style="stroke: #000000; stroke-width: 0.8"/>
      </g>
     </g>
     <g id="text_2">
      <!-- −3 -->
      <g transform="translate(78.438935 262.078437) scale(0.1 -0.1)">
       <defs>
        <path id="DejaVuSans-33" d="M 2597 2516 
Q 3050 2419 3304 2112 
Q 3559 1806 3559 1356 
Q 3559 666 3084 287 
Q 2609 -91 1734 -91 
Q 1441 -91 1130 -33 
Q 819 25 488 141 
L 488 750 
Q 750 597 1062 519 
Q 1375 441 1716 441 
Q 2309 441 2620 675 
Q 2931 909 2931 1356 
Q 2931 1769 2642 2001 
Q 2353 2234 1838 2234 
L 1294 2234 
L 1294 2753 
L 1863 2753 
Q 2328 2753 2575 2939 
Q 2822 3125 2822 3475 
Q 2822 3834 2567 4026 
Q 2313 4219 1838 4219 
Q 1578 4219 1281 4162 
Q 984 4106 628 3988 
L 628 4550 
Q 988 4650 1302 4700 
Q 1616 4750 1894 4750 
Q 2613 4750 3031 4423 
Q 3450 4097 3450 3541 
Q 3450 3153 3228 2886 
Q 3006 2619 2597 2516 
z
" transform="scale(0.015625)"/>
       </defs>
       <use xlink:href="#DejaVuSans-2212"/>
       <use xlink:href="#DejaVuSans-33" transform="translate(83.789062 0)"/>
      </g>
     </g>
    </g>
    <g id="xtick_3">
     <g id="line2d_3">
      <g>
       <use xlink:href="#m33590a31bb" x="126.429915" y="247.48" style="stroke: #000000; stroke-width: 0.8"/>
      </g>
     </g>
     <g id="text_3">
      <!-- −2 -->
      <g transform="translate(119.058821 262.078437) scale(0.1 -0.1)">
       <defs>
        <path id="DejaVuSans-32" d="M 1228 531 
L 3431 531 
L 3431 0 
L 469 0 
L 469 531 
Q 828 903 1448 1529 
Q 2069 2156 2228 2338 
Q 2531 2678 2651 2914 
Q 2772 3150 2772 3378 
Q 2772 3750 2511 3984 
Q 2250 4219 1831 4219 
Q 1534 4219 1204 4116 
Q 875 4013 500 3803 
L 500 4441 
Q 881 4594 1212 4672 
Q 1544 4750 1819 4750 
Q 2544 4750 2975 4387 
Q 3406 4025 3406 3419 
Q 3406 3131 3298 2873 
Q 3191 2616 2906 2266 
Q 2828 2175 2409 1742 
Q 1991 1309 1228 531 
z
" transform="scale(0.015625)"/>
       </defs>
       <use xlink:href="#DejaVuSans-2212"/>
       <use xlink:href="#DejaVuSans-32" transform="translate(83.789062 0)"/>
      </g>
     </g>
    </g>
    <g id="xtick_4">
     <g id="line2d_4">
      <g>
       <use xlink:href="#m33590a31bb" x="167.049801" y="247.48" style="stroke: #000000; stroke-width: 0.8"/>
      </g>
     </g>
     <g id="text_4">
      <!-- −1 -->
      <g transform="translate(159.678707 262.078437) scale(0.1 -0.1)">
       <defs>
        <path id="DejaVuSans-31" d="M 794 531 
L 1825 531 
L 1825 4091 
L 703 3866 
L 703 4441 
L 1819 4666 
L 2450 4666 
L 2450 531 
L 3481 531 
L 3481 0 
L 794 0 
L 794 531 
z
" transform="scale(0.015625)"/>
       </defs>
       <use xlink:href="#DejaVuSans-2212"/>
       <use xlink:href="#DejaVuSans-31" transform="translate(83.789062 0)"/>
      </g>
     </g>
    </g>
    <g id="xtick_5">
     <g id="line2d_5">
      <g>
       <use xlink:href="#m33590a31bb" x="207.669688" y="247.48" style="stroke: #000000; stroke-width: 0.8"/>
      </g>
     </g>
     <g id="text_5">
      <!-- 0 -->
      <g transform="translate(204.488438 262.078437) scale(0.1 -0.1)">
       <defs>
        <path id="DejaVuSans-30" d="M 2034 4250 
Q 1547 4250 1301 3770 
Q 1056 3291 1056 2328 
Q 1056 1369 1301 889 
Q 1547 409 2034 409 
Q 2525 409 2770 889 
Q 3016 1369 3016 2328 
Q 3016 3291 2770 3770 
Q 2525 4250 2034 4250 
z
M 2034 4750 
Q 2819 4750 3233 4129 
Q 3647 3509 3647 2328 
Q 3647 1150 3233 529 
Q 2819 -91 2034 -91 
Q 1250 -91 836 529 
Q 422 1150 422 2328 
Q 422 3509 836 4129 
Q 1250 4750 2034 4750 
z
" transform="scale(0.015625)"/>
       </defs>
       <use xlink:href="#DejaVuSans-30"/>
      </g>
     </g>
    </g>
    <g id="xtick_6">
     <g id="line2d_6">
      <g>
       <use xlink:href="#m33590a31bb" x="248.289574" y="247.48" style="stroke: #000000; stroke-width: 0.8"/>
      </g>
     </g>
     <g id="text_6">
      <!-- 1 -->
      <g transform="translate(245.108324 262.078437) scale(0.1 -0.1)">
       <use xlink:href="#DejaVuSans-31"/>
      </g>
     </g>
    </g>
    <g id="xtick_7">
     <g id="line2d_7">
      <g>
       <use xlink:href="#m33590a31bb" x="288.90946" y="247.48" style="stroke: #000000; stroke-width: 0.8"/>
      </g>
     </g>
     <g id="text_7">
      <!-- 2 -->
      <g transform="translate(285.72821 262.078437) scale(0.1 -0.1)">
       <use xlink:href="#DejaVuSans-32"/>
      </g>
     </g>
    </g>
    <g id="xtick_8">
     <g id="line2d_8">
      <g>
       <use xlink:href="#m33590a31bb" x="329.529347" y="247.48" style="stroke: #000000; stroke-width: 0.8"/>
      </g>
     </g>
     <g id="text_8">
      <!-- 3 -->
      <g transform="translate(326.348097 262.078437) scale(0.1 -0.1)">
       <use xlink:href="#DejaVuSans-33"/>
      </g>
     </g>
    </g>
    <g id="xtick_9">
     <g id="line2d_9">
      <g>
       <use xlink:href="#m33590a31bb" x="370.149233" y="247.48" style="stroke: #000000; stroke-width: 0.8"/>
      </g>
     </g>
     <g id="text_9">
      <!-- 4 -->
      <g transform="translate(366.967983 262.078437) scale(0.1 -0.1)">
       <use xlink:href="#DejaVuSans-34"/>
      </g>
     </g>
    </g>
    <g id="text_10">
     <!-- z -->
     <g transform="translate(205.045469 275.756562) scale(0.1 -0.1)">
      <defs>
       <path id="DejaVuSans-7a" d="M 353 3500 
L 3084 3500 
L 3084 2975 
L 922 459 
L 3084 459 
L 3084 0 
L 275 0 
L 275 525 
L 2438 3041 
L 353 3041 
L 353 3500 
z
" transform="scale(0.015625)"/>
      </defs>
      <use xlink:href="#DejaVuSans-7a"/>
     </g>
    </g>
   </g>
   <g id="matplotlib.axis_2">
    <g id="ytick_1">
     <g id="line2d_10">
      <defs>
       <path id="m750adf8ab3" d="M 0 0 
L -3.5 0 
" style="stroke: #000000; stroke-width: 0.8"/>
      </defs>
      <g>
       <use xlink:href="#m750adf8ab3" x="28.942188" y="238.57795" style="stroke: #000000; stroke-width: 0.8"/>
      </g>
     </g>
     <g id="text_11">
      <!-- −1 -->
      <g transform="translate(7.2 242.377169) scale(0.1 -0.1)">
       <use xlink:href="#DejaVuSans-2212"/>
       <use xlink:href="#DejaVuSans-31" transform="translate(83.789062 0)"/>
      </g>
     </g>
    </g>
    <g id="ytick_2">
     <g id="line2d_11">
      <g>
       <use xlink:href="#m750adf8ab3" x="28.942188" y="202.86916" style="stroke: #000000; stroke-width: 0.8"/>
      </g>
     </g>
     <g id="text_12">
      <!-- 0 -->
      <g transform="translate(15.579688 206.668379) scale(0.1 -0.1)">
       <use xlink:href="#DejaVuSans-30"/>
      </g>
     </g>
    </g>
    <g id="ytick_3">
     <g id="line2d_12">
      <g>
       <use xlink:href="#m750adf8ab3" x="28.942188" y="167.16037" style="stroke: #000000; stroke-width: 0.8"/>
      </g>
     </g>
     <g id="text_13">
      <!-- 1 -->
      <g transform="translate(15.579688 170.959589) scale(0.1 -0.1)">
       <use xlink:href="#DejaVuSans-31"/>
      </g>
     </g>
    </g>
    <g id="ytick_4">
     <g id="line2d_13">
      <g>
       <use xlink:href="#m750adf8ab3" x="28.942188" y="131.45158" style="stroke: #000000; stroke-width: 0.8"/>
      </g>
     </g>
     <g id="text_14">
      <!-- 2 -->
      <g transform="translate(15.579688 135.250799) scale(0.1 -0.1)">
       <use xlink:href="#DejaVuSans-32"/>
      </g>
     </g>
    </g>
    <g id="ytick_5">
     <g id="line2d_14">
      <g>
       <use xlink:href="#m750adf8ab3" x="28.942188" y="95.74279" style="stroke: #000000; stroke-width: 0.8"/>
      </g>
     </g>
     <g id="text_15">
      <!-- 3 -->
      <g transform="translate(15.579688 99.542009) scale(0.1 -0.1)">
       <use xlink:href="#DejaVuSans-33"/>
      </g>
     </g>
    </g>
    <g id="ytick_6">
     <g id="line2d_15">
      <g>
       <use xlink:href="#m750adf8ab3" x="28.942188" y="60.034" style="stroke: #000000; stroke-width: 0.8"/>
      </g>
     </g>
     <g id="text_16">
      <!-- 4 -->
      <g transform="translate(15.579688 63.833219) scale(0.1 -0.1)">
       <use xlink:href="#DejaVuSans-34"/>
      </g>
     </g>
    </g>
   </g>
   <g id="line2d_16">
    <path d="M 45.190142 202.226894 
L 67.179855 201.779612 
L 85.097399 201.203718 
L 100.571641 200.483089 
L 113.602582 199.661664 
L 125.819089 198.668625 
L 137.221163 197.511634 
L 147.808802 196.213639 
L 158.396442 194.685958 
L 168.984081 192.92761 
L 180.386155 190.79527 
L 193.417096 188.115369 
L 219.478978 182.437517 
L 234.138786 179.395006 
L 245.54086 177.246392 
L 256.128499 175.470732 
L 266.716139 173.925147 
L 277.303778 172.609841 
L 287.891418 171.511827 
L 299.293491 170.547854 
L 311.509999 169.731342 
L 325.355373 169.027583 
L 341.64405 168.432725 
L 361.190461 167.957585 
L 370.149233 167.802636 
L 370.149233 167.802636 
" clip-path="url(#paf27141d56)" style="fill: none; stroke: #1f77b4; stroke-width: 2; stroke-linecap: square"/>
   </g>
   <g id="line2d_17">
    <path d="M 45.190142 238.554 
L 86.726266 238.393233 
L 105.458244 238.115186 
L 118.489185 237.704012 
L 128.262391 237.174515 
L 136.406729 236.502293 
L 142.922199 235.748317 
L 148.623236 234.878845 
L 153.509839 233.938009 
L 158.396442 232.778373 
L 163.283045 231.360241 
L 167.355214 229.951361 
L 171.427383 228.311448 
L 175.499552 226.42015 
L 179.571721 224.262003 
L 183.64389 221.829037 
L 187.716059 219.123465 
L 191.788228 216.160063 
L 196.674831 212.305364 
L 202.375868 207.496767 
L 220.293412 192.115681 
L 225.180014 188.36348 
L 229.252184 185.500554 
L 233.324353 182.903001 
L 237.396522 180.580326 
L 241.468691 178.530356 
L 245.54086 176.741797 
L 249.613029 175.196933 
L 253.685198 173.874111 
L 258.571801 172.546691 
L 263.458404 171.464266 
L 269.15944 170.459564 
L 274.860477 169.680592 
L 281.375947 169.006842 
L 289.520286 168.407509 
L 299.293491 167.936327 
L 311.509999 167.587683 
L 328.613109 167.345086 
L 356.303858 167.207709 
L 370.149233 167.18432 
L 370.149233 167.18432 
" clip-path="url(#paf27141d56)" style="fill: none; stroke: #ff7f0e; stroke-width: 2; stroke-linecap: square"/>
   </g>
   <g id="line2d_18">
    <path d="M 45.190142 202.86916 
L 207.262471 202.86916 
L 208.076904 202.511177 
L 370.149233 60.034 
L 370.149233 60.034 
" clip-path="url(#paf27141d56)" style="fill: none; stroke: #2ca02c; stroke-width: 2; stroke-linecap: square"/>
   </g>
   <g id="line2d_19">
    <path d="M 45.190142 202.871668 
L 85.097399 202.991962 
L 100.571641 203.246595 
L 112.788148 203.669492 
L 123.375788 204.270139 
L 133.148994 205.051011 
L 143.736633 206.121923 
L 165.726346 208.439036 
L 172.241817 208.838894 
L 177.12842 208.941107 
L 182.015022 208.820722 
L 186.087191 208.516235 
L 190.159361 207.998642 
L 194.23153 207.244839 
L 198.303699 206.235271 
L 202.375868 204.954774 
L 206.448037 203.393251 
L 210.520206 201.546123 
L 214.592375 199.414541 
L 218.664544 197.00533 
L 222.736713 194.330682 
L 226.808882 191.407606 
L 231.695485 187.601913 
L 236.582088 183.511298 
L 242.283125 178.440802 
L 248.798595 172.345938 
L 257.757367 163.634601 
L 287.891418 134.046063 
L 299.293491 123.282335 
L 311.509999 112.049975 
L 326.984241 98.138319 
L 351.417255 76.520076 
L 370.149233 60.036508 
L 370.149233 60.036508 
" clip-path="url(#paf27141d56)" style="fill: none; stroke: #d62728; stroke-width: 2; stroke-linecap: square"/>
   </g>
   <g id="line2d_20">
    <path d="M 28.942188 202.86916 
L 386.397187 202.86916 
" clip-path="url(#paf27141d56)" style="fill: none; stroke: #000000; stroke-width: 0.4; stroke-linecap: square"/>
   </g>
   <g id="line2d_21">
    <path d="M 207.669688 247.48 
L 207.669688 51.108 
" clip-path="url(#paf27141d56)" style="fill: none; stroke: #000000; stroke-width: 0.4; stroke-linecap: square"/>
   </g>
   <g id="patch_3">
    <path d="M 28.942188 247.48 
L 28.942188 51.108 
" style="fill: none; stroke: #000000; stroke-width: 0.8; stroke-linejoin: miter; stroke-linecap: square"/>
   </g>
   <g id="patch_4">
    <path d="M 386.397187 247.48 
L 386.397187 51.108 
" style="fill: none; stroke: #000000; stroke-width: 0.8; stroke-linejoin: miter; stroke-linecap: square"/>
   </g>
   <g id="patch_5">
    <path d="M 28.942188 247.48 
L 386.397187 247.48 
" style="fill: none; stroke: #000000; stroke-width: 0.8; stroke-linejoin: miter; stroke-linecap: square"/>
   </g>
   <g id="patch_6">
    <path d="M 28.942188 51.108 
L 386.397187 51.108 
" style="fill: none; stroke: #000000; stroke-width: 0.8; stroke-linejoin: miter; stroke-linecap: square"/>
   </g>
   <g id="text_17">
    <!-- Activation $\phi(z)$ -->
    <g transform="translate(163.809687 45.108) scale(0.12 -0.12)">
     <defs>
      <path id="DejaVuSans-41" d="M 2188 4044 
L 1331 1722 
L 3047 1722 
L 2188 4044 
z
M 1831 4666 
L 2547 4666 
L 4325 0 
L 3669 0 
L 3244 1197 
L 1141 1197 
L 716 0 
L 50 0 
L 1831 4666 
z
" transform="scale(0.015625)"/>
      <path id="DejaVuSans-63" d="M 3122 3366 
L 3122 2828 
Q 2878 2963 2633 3030 
Q 2388 3097 2138 3097 
Q 1578 3097 1268 2742 
Q 959 2388 959 1747 
Q 959 1106 1268 751 
Q 1578 397 2138 397 
Q 2388 397 2633 464 
Q 2878 531 3122 666 
L 3122 134 
Q 2881 22 2623 -34 
Q 2366 -91 2075 -91 
Q 1284 -91 818 406 
Q 353 903 353 1747 
Q 353 2603 823 3093 
Q 1294 3584 2113 3584 
Q 2378 3584 2631 3529 
Q 2884 3475 3122 3366 
z
" transform="scale(0.015625)"/>
      <path id="DejaVuSans-74" d="M 1172 4494 
L 1172 3500 
L 2356 3500 
L 2356 3053 
L 1172 3053 
L 1172 1153 
Q 1172 725 1289 603 
Q 1406 481 1766 481 
L 2356 481 
L 2356 0 
L 1766 0 
Q 1100 0 847 248 
Q 594 497 594 1153 
L 594 3053 
L 172 3053 
L 172 3500 
L 594 3500 
L 594 4494 
L 1172 4494 
z
" transform="scale(0.015625)"/>
      <path id="DejaVuSans-69" d="M 603 3500 
L 1178 3500 
L 1178 0 
L 603 0 
L 603 3500 
z
M 603 4863 
L 1178 4863 
L 1178 4134 
L 603 4134 
L 603 4863 
z
" transform="scale(0.015625)"/>
      <path id="DejaVuSans-76" d="M 191 3500 
L 800 3500 
L 1894 563 
L 2988 3500 
L 3597 3500 
L 2284 0 
L 1503 0 
L 191 3500 
z
" transform="scale(0.015625)"/>
      <path id="DejaVuSans-61" d="M 2194 1759 
Q 1497 1759 1228 1600 
Q 959 1441 959 1056 
Q 959 750 1161 570 
Q 1363 391 1709 391 
Q 2188 391 2477 730 
Q 2766 1069 2766 1631 
L 2766 1759 
L 2194 1759 
z
M 3341 1997 
L 3341 0 
L 2766 0 
L 2766 531 
Q 2569 213 2275 61 
Q 1981 -91 1556 -91 
Q 1019 -91 701 211 
Q 384 513 384 1019 
Q 384 1609 779 1909 
Q 1175 2209 1959 2209 
L 2766 2209 
L 2766 2266 
Q 2766 2663 2505 2880 
Q 2244 3097 1772 3097 
Q 1472 3097 1187 3025 
Q 903 2953 641 2809 
L 641 3341 
Q 956 3463 1253 3523 
Q 1550 3584 1831 3584 
Q 2591 3584 2966 3190 
Q 3341 2797 3341 1997 
z
" transform="scale(0.015625)"/>
      <path id="DejaVuSans-6f" d="M 1959 3097 
Q 1497 3097 1228 2736 
Q 959 2375 959 1747 
Q 959 1119 1226 758 
Q 1494 397 1959 397 
Q 2419 397 2687 759 
Q 2956 1122 2956 1747 
Q 2956 2369 2687 2733 
Q 2419 3097 1959 3097 
z
M 1959 3584 
Q 2709 3584 3137 3096 
Q 3566 2609 3566 1747 
Q 3566 888 3137 398 
Q 2709 -91 1959 -91 
Q 1206 -91 779 398 
Q 353 888 353 1747 
Q 353 2609 779 3096 
Q 1206 3584 1959 3584 
z
" transform="scale(0.015625)"/>
      <path id="DejaVuSans-6e" d="M 3513 2113 
L 3513 0 
L 2938 0 
L 2938 2094 
Q 2938 2591 2744 2837 
Q 2550 3084 2163 3084 
Q 1697 3084 1428 2787 
Q 1159 2491 1159 1978 
L 1159 0 
L 581 0 
L 581 3500 
L 1159 3500 
L 1159 2956 
Q 1366 3272 1645 3428 
Q 1925 3584 2291 3584 
Q 2894 3584 3203 3211 
Q 3513 2838 3513 2113 
z
" transform="scale(0.015625)"/>
      <path id="DejaVuSans-20" transform="scale(0.015625)"/>
      <path id="DejaVuSans-Oblique-3d5" d="M 2991 4863 
L 2738 3572 
Q 3363 3572 3684 3094 
Q 4016 2606 3850 1747 
Q 3681 888 3159 400 
Q 2653 -78 2028 -78 
L 1784 -1331 
L 1213 -1331 
L 1456 -78 
Q 834 -78 509 400 
Q 178 888 347 1747 
Q 513 2606 1034 3094 
Q 1544 3572 2166 3572 
L 2419 4863 
L 2991 4863 
z
M 2128 434 
Q 2481 434 2784 756 
Q 3116 1116 3244 1747 
Q 3369 2372 3169 2738 
Q 2991 3059 2638 3059 
L 2128 434 
z
M 1556 434 
L 2066 3059 
Q 1716 3059 1413 2738 
Q 1072 2372 953 1747 
Q 834 1116 1028 756 
Q 1203 434 1556 434 
z
" transform="scale(0.015625)"/>
      <path id="DejaVuSans-28" d="M 1984 4856 
Q 1566 4138 1362 3434 
Q 1159 2731 1159 2009 
Q 1159 1288 1364 580 
Q 1569 -128 1984 -844 
L 1484 -844 
Q 1016 -109 783 600 
Q 550 1309 550 2009 
Q 550 2706 781 3412 
Q 1013 4119 1484 4856 
L 1984 4856 
z
" transform="scale(0.015625)"/>
      <path id="DejaVuSans-Oblique-7a" d="M 744 3500 
L 3475 3500 
L 3372 2975 
L 738 459 
L 2913 459 
L 2822 0 
L -19 0 
L 84 525 
L 2719 3041 
L 653 3041 
L 744 3500 
z
" transform="scale(0.015625)"/>
      <path id="DejaVuSans-29" d="M 513 4856 
L 1013 4856 
Q 1481 4119 1714 3412 
Q 1947 2706 1947 2009 
Q 1947 1309 1714 600 
Q 1481 -109 1013 -844 
L 513 -844 
Q 928 -128 1133 580 
Q 1338 1288 1338 2009 
Q 1338 2731 1133 3434 
Q 928 4138 513 4856 
z
" transform="scale(0.015625)"/>
     </defs>
     <use xlink:href="#DejaVuSans-41" transform="translate(0 0.015625)"/>
     <use xlink:href="#DejaVuSans-63" transform="translate(68.408203 0.015625)"/>
     <use xlink:href="#DejaVuSans-74" transform="translate(123.388672 0.015625)"/>
     <use xlink:href="#DejaVuSans-69" transform="translate(162.597656 0.015625)"/>
     <use xlink:href="#DejaVuSans-76" transform="translate(190.380859 0.015625)"/>
     <use xlink:href="#DejaVuSans-61" transform="translate(249.560547 0.015625)"/>
     <use xlink:href="#DejaVuSans-74" transform="translate(310.839844 0.015625)"/>
     <use xlink:href="#DejaVuSans-69" transform="translate(350.048828 0.015625)"/>
     <use xlink:href="#DejaVuSans-6f" transform="translate(377.832031 0.015625)"/>
     <use xlink:href="#DejaVuSans-6e" transform="translate(439.013672 0.015625)"/>
     <use xlink:href="#DejaVuSans-20" transform="translate(502.392578 0.015625)"/>
     <use xlink:href="#DejaVuSans-Oblique-3d5" transform="translate(534.179688 0.015625)"/>
     <use xlink:href="#DejaVuSans-28" transform="translate(600.146484 0.015625)"/>
     <use xlink:href="#DejaVuSans-Oblique-7a" transform="translate(639.160156 0.015625)"/>
     <use xlink:href="#DejaVuSans-29" transform="translate(691.650391 0.015625)"/>
    </g>
   </g>
   <g id="legend_1">
    <g id="patch_7">
     <path d="M 34.542188 104.478 
L 91.599688 104.478 
Q 93.199688 104.478 93.199688 102.878 
L 93.199688 56.708 
Q 93.199688 55.108 91.599688 55.108 
L 34.542188 55.108 
Q 32.942188 55.108 32.942188 56.708 
L 32.942188 102.878 
Q 32.942188 104.478 34.542188 104.478 
z
" style="fill: #ffffff; opacity: 0.8; stroke: #cccccc; stroke-linejoin: miter"/>
    </g>
    <g id="line2d_22">
     <path d="M 36.142188 61.58675 
L 44.142188 61.58675 
L 52.142188 61.58675 
" style="fill: none; stroke: #1f77b4; stroke-width: 2; stroke-linecap: square"/>
    </g>
    <g id="text_18">
     <!-- sigmoid -->
     <g transform="translate(58.542188 64.38675) scale(0.08 -0.08)">
      <defs>
       <path id="DejaVuSans-73" d="M 2834 3397 
L 2834 2853 
Q 2591 2978 2328 3040 
Q 2066 3103 1784 3103 
Q 1356 3103 1142 2972 
Q 928 2841 928 2578 
Q 928 2378 1081 2264 
Q 1234 2150 1697 2047 
L 1894 2003 
Q 2506 1872 2764 1633 
Q 3022 1394 3022 966 
Q 3022 478 2636 193 
Q 2250 -91 1575 -91 
Q 1294 -91 989 -36 
Q 684 19 347 128 
L 347 722 
Q 666 556 975 473 
Q 1284 391 1588 391 
Q 1994 391 2212 530 
Q 2431 669 2431 922 
Q 2431 1156 2273 1281 
Q 2116 1406 1581 1522 
L 1381 1569 
Q 847 1681 609 1914 
Q 372 2147 372 2553 
Q 372 3047 722 3315 
Q 1072 3584 1716 3584 
Q 2034 3584 2315 3537 
Q 2597 3491 2834 3397 
z
" transform="scale(0.015625)"/>
       <path id="DejaVuSans-67" d="M 2906 1791 
Q 2906 2416 2648 2759 
Q 2391 3103 1925 3103 
Q 1463 3103 1205 2759 
Q 947 2416 947 1791 
Q 947 1169 1205 825 
Q 1463 481 1925 481 
Q 2391 481 2648 825 
Q 2906 1169 2906 1791 
z
M 3481 434 
Q 3481 -459 3084 -895 
Q 2688 -1331 1869 -1331 
Q 1566 -1331 1297 -1286 
Q 1028 -1241 775 -1147 
L 775 -588 
Q 1028 -725 1275 -790 
Q 1522 -856 1778 -856 
Q 2344 -856 2625 -561 
Q 2906 -266 2906 331 
L 2906 616 
Q 2728 306 2450 153 
Q 2172 0 1784 0 
Q 1141 0 747 490 
Q 353 981 353 1791 
Q 353 2603 747 3093 
Q 1141 3584 1784 3584 
Q 2172 3584 2450 3431 
Q 2728 3278 2906 2969 
L 2906 3500 
L 3481 3500 
L 3481 434 
z
" transform="scale(0.015625)"/>
       <path id="DejaVuSans-6d" d="M 3328 2828 
Q 3544 3216 3844 3400 
Q 4144 3584 4550 3584 
Q 5097 3584 5394 3201 
Q 5691 2819 5691 2113 
L 5691 0 
L 5113 0 
L 5113 2094 
Q 5113 2597 4934 2840 
Q 4756 3084 4391 3084 
Q 3944 3084 3684 2787 
Q 3425 2491 3425 1978 
L 3425 0 
L 2847 0 
L 2847 2094 
Q 2847 2600 2669 2842 
Q 2491 3084 2119 3084 
Q 1678 3084 1418 2786 
Q 1159 2488 1159 1978 
L 1159 0 
L 581 0 
L 581 3500 
L 1159 3500 
L 1159 2956 
Q 1356 3278 1631 3431 
Q 1906 3584 2284 3584 
Q 2666 3584 2933 3390 
Q 3200 3197 3328 2828 
z
" transform="scale(0.015625)"/>
       <path id="DejaVuSans-64" d="M 2906 2969 
L 2906 4863 
L 3481 4863 
L 3481 0 
L 2906 0 
L 2906 525 
Q 2725 213 2448 61 
Q 2172 -91 1784 -91 
Q 1150 -91 751 415 
Q 353 922 353 1747 
Q 353 2572 751 3078 
Q 1150 3584 1784 3584 
Q 2172 3584 2448 3432 
Q 2725 3281 2906 2969 
z
M 947 1747 
Q 947 1113 1208 752 
Q 1469 391 1925 391 
Q 2381 391 2643 752 
Q 2906 1113 2906 1747 
Q 2906 2381 2643 2742 
Q 2381 3103 1925 3103 
Q 1469 3103 1208 2742 
Q 947 2381 947 1747 
z
" transform="scale(0.015625)"/>
      </defs>
      <use xlink:href="#DejaVuSans-73"/>
      <use xlink:href="#DejaVuSans-69" transform="translate(52.099609 0)"/>
      <use xlink:href="#DejaVuSans-67" transform="translate(79.882812 0)"/>
      <use xlink:href="#DejaVuSans-6d" transform="translate(143.359375 0)"/>
      <use xlink:href="#DejaVuSans-6f" transform="translate(240.771484 0)"/>
      <use xlink:href="#DejaVuSans-69" transform="translate(301.953125 0)"/>
      <use xlink:href="#DejaVuSans-64" transform="translate(329.736328 0)"/>
     </g>
    </g>
    <g id="line2d_23">
     <path d="M 36.142188 73.32925 
L 44.142188 73.32925 
L 52.142188 73.32925 
" style="fill: none; stroke: #ff7f0e; stroke-width: 2; stroke-linecap: square"/>
    </g>
    <g id="text_19">
     <!-- tanh -->
     <g transform="translate(58.542188 76.12925) scale(0.08 -0.08)">
      <defs>
       <path id="DejaVuSans-68" d="M 3513 2113 
L 3513 0 
L 2938 0 
L 2938 2094 
Q 2938 2591 2744 2837 
Q 2550 3084 2163 3084 
Q 1697 3084 1428 2787 
Q 1159 2491 1159 1978 
L 1159 0 
L 581 0 
L 581 4863 
L 1159 4863 
L 1159 2956 
Q 1366 3272 1645 3428 
Q 1925 3584 2291 3584 
Q 2894 3584 3203 3211 
Q 3513 2838 3513 2113 
z
" transform="scale(0.015625)"/>
      </defs>
      <use xlink:href="#DejaVuSans-74"/>
      <use xlink:href="#DejaVuSans-61" transform="translate(39.208984 0)"/>
      <use xlink:href="#DejaVuSans-6e" transform="translate(100.488281 0)"/>
      <use xlink:href="#DejaVuSans-68" transform="translate(163.867188 0)"/>
     </g>
    </g>
    <g id="line2d_24">
     <path d="M 36.142188 85.07175 
L 44.142188 85.07175 
L 52.142188 85.07175 
" style="fill: none; stroke: #2ca02c; stroke-width: 2; stroke-linecap: square"/>
    </g>
    <g id="text_20">
     <!-- ReLU -->
     <g transform="translate(58.542188 87.87175) scale(0.08 -0.08)">
      <defs>
       <path id="DejaVuSans-52" d="M 2841 2188 
Q 3044 2119 3236 1894 
Q 3428 1669 3622 1275 
L 4263 0 
L 3584 0 
L 2988 1197 
Q 2756 1666 2539 1819 
Q 2322 1972 1947 1972 
L 1259 1972 
L 1259 0 
L 628 0 
L 628 4666 
L 2053 4666 
Q 2853 4666 3247 4331 
Q 3641 3997 3641 3322 
Q 3641 2881 3436 2590 
Q 3231 2300 2841 2188 
z
M 1259 4147 
L 1259 2491 
L 2053 2491 
Q 2509 2491 2742 2702 
Q 2975 2913 2975 3322 
Q 2975 3731 2742 3939 
Q 2509 4147 2053 4147 
L 1259 4147 
z
" transform="scale(0.015625)"/>
       <path id="DejaVuSans-65" d="M 3597 1894 
L 3597 1613 
L 953 1613 
Q 991 1019 1311 708 
Q 1631 397 2203 397 
Q 2534 397 2845 478 
Q 3156 559 3463 722 
L 3463 178 
Q 3153 47 2828 -22 
Q 2503 -91 2169 -91 
Q 1331 -91 842 396 
Q 353 884 353 1716 
Q 353 2575 817 3079 
Q 1281 3584 2069 3584 
Q 2775 3584 3186 3129 
Q 3597 2675 3597 1894 
z
M 3022 2063 
Q 3016 2534 2758 2815 
Q 2500 3097 2075 3097 
Q 1594 3097 1305 2825 
Q 1016 2553 972 2059 
L 3022 2063 
z
" transform="scale(0.015625)"/>
       <path id="DejaVuSans-4c" d="M 628 4666 
L 1259 4666 
L 1259 531 
L 3531 531 
L 3531 0 
L 628 0 
L 628 4666 
z
" transform="scale(0.015625)"/>
       <path id="DejaVuSans-55" d="M 556 4666 
L 1191 4666 
L 1191 1831 
Q 1191 1081 1462 751 
Q 1734 422 2344 422 
Q 2950 422 3222 751 
Q 3494 1081 3494 1831 
L 3494 4666 
L 4128 4666 
L 4128 1753 
Q 4128 841 3676 375 
Q 3225 -91 2344 -91 
Q 1459 -91 1007 375 
Q 556 841 556 1753 
L 556 4666 
z
" transform="scale(0.015625)"/>
      </defs>
      <use xlink:href="#DejaVuSans-52"/>
      <use xlink:href="#DejaVuSans-65" transform="translate(64.982422 0)"/>
      <use xlink:href="#DejaVuSans-4c" transform="translate(126.505859 0)"/>
      <use xlink:href="#DejaVuSans-55" transform="translate(177.21875 0)"/>
     </g>
    </g>
    <g id="line2d_25">
     <path d="M 36.142188 96.81425 
L 44.142188 96.81425 
L 52.142188 96.81425 
" style="fill: none; stroke: #d62728; stroke-width: 2; stroke-linecap: square"/>
    </g>
    <g id="text_21">
     <!-- GELU -->
     <g transform="translate(58.542188 99.61425) scale(0.08 -0.08)">
      <defs>
       <path id="DejaVuSans-47" d="M 3809 666 
L 3809 1919 
L 2778 1919 
L 2778 2438 
L 4434 2438 
L 4434 434 
Q 4069 175 3628 42 
Q 3188 -91 2688 -91 
Q 1594 -91 976 548 
Q 359 1188 359 2328 
Q 359 3472 976 4111 
Q 1594 4750 2688 4750 
Q 3144 4750 3555 4637 
Q 3966 4525 4313 4306 
L 4313 3634 
Q 3963 3931 3569 4081 
Q 3175 4231 2741 4231 
Q 1884 4231 1454 3753 
Q 1025 3275 1025 2328 
Q 1025 1384 1454 906 
Q 1884 428 2741 428 
Q 3075 428 3337 486 
Q 3600 544 3809 666 
z
" transform="scale(0.015625)"/>
       <path id="DejaVuSans-45" d="M 628 4666 
L 3578 4666 
L 3578 4134 
L 1259 4134 
L 1259 2753 
L 3481 2753 
L 3481 2222 
L 1259 2222 
L 1259 531 
L 3634 531 
L 3634 0 
L 628 0 
L 628 4666 
z
" transform="scale(0.015625)"/>
      </defs>
      <use xlink:href="#DejaVuSans-47"/>
      <use xlink:href="#DejaVuSans-45" transform="translate(77.490234 0)"/>
      <use xlink:href="#DejaVuSans-4c" transform="translate(140.673828 0)"/>
      <use xlink:href="#DejaVuSans-55" transform="translate(191.386719 0)"/>
     </g>
    </g>
   </g>
  </g>
  <g id="axes_2">
   <g id="patch_8">
    <path d="M 420.172188 247.48 
L 777.627187 247.48 
L 777.627187 51.108 
L 420.172188 51.108 
z
" style="fill: #ffffff"/>
   </g>
   <g id="matplotlib.axis_3">
    <g id="xtick_10">
     <g id="line2d_26">
      <g>
       <use xlink:href="#m33590a31bb" x="436.420142" y="247.48" style="stroke: #000000; stroke-width: 0.8"/>
      </g>
     </g>
     <g id="text_22">
      <!-- −4 -->
      <g transform="translate(429.049048 262.078437) scale(0.1 -0.1)">
       <use xlink:href="#DejaVuSans-2212"/>
       <use xlink:href="#DejaVuSans-34" transform="translate(83.789062 0)"/>
      </g>
     </g>
    </g>
    <g id="xtick_11">
     <g id="line2d_27">
      <g>
       <use xlink:href="#m33590a31bb" x="477.040028" y="247.48" style="stroke: #000000; stroke-width: 0.8"/>
      </g>
     </g>
     <g id="text_23">
      <!-- −3 -->
      <g transform="translate(469.668935 262.078437) scale(0.1 -0.1)">
       <use xlink:href="#DejaVuSans-2212"/>
       <use xlink:href="#DejaVuSans-33" transform="translate(83.789062 0)"/>
      </g>
     </g>
    </g>
    <g id="xtick_12">
     <g id="line2d_28">
      <g>
       <use xlink:href="#m33590a31bb" x="517.659915" y="247.48" style="stroke: #000000; stroke-width: 0.8"/>
      </g>
     </g>
     <g id="text_24">
      <!-- −2 -->
      <g transform="translate(510.288821 262.078437) scale(0.1 -0.1)">
       <use xlink:href="#DejaVuSans-2212"/>
       <use xlink:href="#DejaVuSans-32" transform="translate(83.789062 0)"/>
      </g>
     </g>
    </g>
    <g id="xtick_13">
     <g id="line2d_29">
      <g>
       <use xlink:href="#m33590a31bb" x="558.279801" y="247.48" style="stroke: #000000; stroke-width: 0.8"/>
      </g>
     </g>
     <g id="text_25">
      <!-- −1 -->
      <g transform="translate(550.908707 262.078437) scale(0.1 -0.1)">
       <use xlink:href="#DejaVuSans-2212"/>
       <use xlink:href="#DejaVuSans-31" transform="translate(83.789062 0)"/>
      </g>
     </g>
    </g>
    <g id="xtick_14">
     <g id="line2d_30">
      <g>
       <use xlink:href="#m33590a31bb" x="598.899688" y="247.48" style="stroke: #000000; stroke-width: 0.8"/>
      </g>
     </g>
     <g id="text_26">
      <!-- 0 -->
      <g transform="translate(595.718438 262.078437) scale(0.1 -0.1)">
       <use xlink:href="#DejaVuSans-30"/>
      </g>
     </g>
    </g>
    <g id="xtick_15">
     <g id="line2d_31">
      <g>
       <use xlink:href="#m33590a31bb" x="639.519574" y="247.48" style="stroke: #000000; stroke-width: 0.8"/>
      </g>
     </g>
     <g id="text_27">
      <!-- 1 -->
      <g transform="translate(636.338324 262.078437) scale(0.1 -0.1)">
       <use xlink:href="#DejaVuSans-31"/>
      </g>
     </g>
    </g>
    <g id="xtick_16">
     <g id="line2d_32">
      <g>
       <use xlink:href="#m33590a31bb" x="680.13946" y="247.48" style="stroke: #000000; stroke-width: 0.8"/>
      </g>
     </g>
     <g id="text_28">
      <!-- 2 -->
      <g transform="translate(676.95821 262.078437) scale(0.1 -0.1)">
       <use xlink:href="#DejaVuSans-32"/>
      </g>
     </g>
    </g>
    <g id="xtick_17">
     <g id="line2d_33">
      <g>
       <use xlink:href="#m33590a31bb" x="720.759347" y="247.48" style="stroke: #000000; stroke-width: 0.8"/>
      </g>
     </g>
     <g id="text_29">
      <!-- 3 -->
      <g transform="translate(717.578097 262.078437) scale(0.1 -0.1)">
       <use xlink:href="#DejaVuSans-33"/>
      </g>
     </g>
    </g>
    <g id="xtick_18">
     <g id="line2d_34">
      <g>
       <use xlink:href="#m33590a31bb" x="761.379233" y="247.48" style="stroke: #000000; stroke-width: 0.8"/>
      </g>
     </g>
     <g id="text_30">
      <!-- 4 -->
      <g transform="translate(758.197983 262.078437) scale(0.1 -0.1)">
       <use xlink:href="#DejaVuSans-34"/>
      </g>
     </g>
    </g>
    <g id="text_31">
     <!-- z -->
     <g transform="translate(596.275469 275.756562) scale(0.1 -0.1)">
      <use xlink:href="#DejaVuSans-7a"/>
     </g>
    </g>
   </g>
   <g id="matplotlib.axis_4">
    <g id="ytick_7">
     <g id="line2d_35">
      <g>
       <use xlink:href="#m750adf8ab3" x="420.172188" y="220.277216" style="stroke: #000000; stroke-width: 0.8"/>
      </g>
     </g>
     <g id="text_32">
      <!-- 0.0 -->
      <g transform="translate(397.269063 224.076435) scale(0.1 -0.1)">
       <defs>
        <path id="DejaVuSans-2e" d="M 684 794 
L 1344 794 
L 1344 0 
L 684 0 
L 684 794 
z
" transform="scale(0.015625)"/>
       </defs>
       <use xlink:href="#DejaVuSans-30"/>
       <use xlink:href="#DejaVuSans-2e" transform="translate(63.623047 0)"/>
       <use xlink:href="#DejaVuSans-30" transform="translate(95.410156 0)"/>
      </g>
     </g>
    </g>
    <g id="ytick_8">
     <g id="line2d_36">
      <g>
       <use xlink:href="#m750adf8ab3" x="420.172188" y="191.88393" style="stroke: #000000; stroke-width: 0.8"/>
      </g>
     </g>
     <g id="text_33">
      <!-- 0.2 -->
      <g transform="translate(397.269063 195.683148) scale(0.1 -0.1)">
       <use xlink:href="#DejaVuSans-30"/>
       <use xlink:href="#DejaVuSans-2e" transform="translate(63.623047 0)"/>
       <use xlink:href="#DejaVuSans-32" transform="translate(95.410156 0)"/>
      </g>
     </g>
    </g>
    <g id="ytick_9">
     <g id="line2d_37">
      <g>
       <use xlink:href="#m750adf8ab3" x="420.172188" y="163.490643" style="stroke: #000000; stroke-width: 0.8"/>
      </g>
     </g>
     <g id="text_34">
      <!-- 0.4 -->
      <g transform="translate(397.269063 167.289862) scale(0.1 -0.1)">
       <use xlink:href="#DejaVuSans-30"/>
       <use xlink:href="#DejaVuSans-2e" transform="translate(63.623047 0)"/>
       <use xlink:href="#DejaVuSans-34" transform="translate(95.410156 0)"/>
      </g>
     </g>
    </g>
    <g id="ytick_10">
     <g id="line2d_38">
      <g>
       <use xlink:href="#m750adf8ab3" x="420.172188" y="135.097357" style="stroke: #000000; stroke-width: 0.8"/>
      </g>
     </g>
     <g id="text_35">
      <!-- 0.6 -->
      <g transform="translate(397.269063 138.896576) scale(0.1 -0.1)">
       <defs>
        <path id="DejaVuSans-36" d="M 2113 2584 
Q 1688 2584 1439 2293 
Q 1191 2003 1191 1497 
Q 1191 994 1439 701 
Q 1688 409 2113 409 
Q 2538 409 2786 701 
Q 3034 994 3034 1497 
Q 3034 2003 2786 2293 
Q 2538 2584 2113 2584 
z
M 3366 4563 
L 3366 3988 
Q 3128 4100 2886 4159 
Q 2644 4219 2406 4219 
Q 1781 4219 1451 3797 
Q 1122 3375 1075 2522 
Q 1259 2794 1537 2939 
Q 1816 3084 2150 3084 
Q 2853 3084 3261 2657 
Q 3669 2231 3669 1497 
Q 3669 778 3244 343 
Q 2819 -91 2113 -91 
Q 1303 -91 875 529 
Q 447 1150 447 2328 
Q 447 3434 972 4092 
Q 1497 4750 2381 4750 
Q 2619 4750 2861 4703 
Q 3103 4656 3366 4563 
z
" transform="scale(0.015625)"/>
       </defs>
       <use xlink:href="#DejaVuSans-30"/>
       <use xlink:href="#DejaVuSans-2e" transform="translate(63.623047 0)"/>
       <use xlink:href="#DejaVuSans-36" transform="translate(95.410156 0)"/>
      </g>
     </g>
    </g>
    <g id="ytick_11">
     <g id="line2d_39">
      <g>
       <use xlink:href="#m750adf8ab3" x="420.172188" y="106.70407" style="stroke: #000000; stroke-width: 0.8"/>
      </g>
     </g>
     <g id="text_36">
      <!-- 0.8 -->
      <g transform="translate(397.269063 110.503289) scale(0.1 -0.1)">
       <defs>
        <path id="DejaVuSans-38" d="M 2034 2216 
Q 1584 2216 1326 1975 
Q 1069 1734 1069 1313 
Q 1069 891 1326 650 
Q 1584 409 2034 409 
Q 2484 409 2743 651 
Q 3003 894 3003 1313 
Q 3003 1734 2745 1975 
Q 2488 2216 2034 2216 
z
M 1403 2484 
Q 997 2584 770 2862 
Q 544 3141 544 3541 
Q 544 4100 942 4425 
Q 1341 4750 2034 4750 
Q 2731 4750 3128 4425 
Q 3525 4100 3525 3541 
Q 3525 3141 3298 2862 
Q 3072 2584 2669 2484 
Q 3125 2378 3379 2068 
Q 3634 1759 3634 1313 
Q 3634 634 3220 271 
Q 2806 -91 2034 -91 
Q 1263 -91 848 271 
Q 434 634 434 1313 
Q 434 1759 690 2068 
Q 947 2378 1403 2484 
z
M 1172 3481 
Q 1172 3119 1398 2916 
Q 1625 2713 2034 2713 
Q 2441 2713 2670 2916 
Q 2900 3119 2900 3481 
Q 2900 3844 2670 4047 
Q 2441 4250 2034 4250 
Q 1625 4250 1398 4047 
Q 1172 3844 1172 3481 
z
" transform="scale(0.015625)"/>
       </defs>
       <use xlink:href="#DejaVuSans-30"/>
       <use xlink:href="#DejaVuSans-2e" transform="translate(63.623047 0)"/>
       <use xlink:href="#DejaVuSans-38" transform="translate(95.410156 0)"/>
      </g>
     </g>
    </g>
    <g id="ytick_12">
     <g id="line2d_40">
      <g>
       <use xlink:href="#m750adf8ab3" x="420.172188" y="78.310784" style="stroke: #000000; stroke-width: 0.8"/>
      </g>
     </g>
     <g id="text_37">
      <!-- 1.0 -->
      <g transform="translate(397.269063 82.110003) scale(0.1 -0.1)">
       <use xlink:href="#DejaVuSans-31"/>
       <use xlink:href="#DejaVuSans-2e" transform="translate(63.623047 0)"/>
       <use xlink:href="#DejaVuSans-30" transform="translate(95.410156 0)"/>
      </g>
     </g>
    </g>
   </g>
   <g id="line2d_41">
    <path d="M 436.420142 217.769705 
L 448.636649 216.932237 
L 459.224289 215.997938 
L 468.997495 214.924887 
L 477.956266 213.731507 
L 486.915038 212.307979 
L 495.059376 210.791793 
L 503.203715 209.047754 
L 511.348053 207.067474 
L 519.492391 204.853966 
L 528.451163 202.173135 
L 539.038802 198.74878 
L 561.842949 191.254735 
L 569.172853 189.143603 
L 574.87389 187.717349 
L 580.574927 186.531858 
L 585.46153 185.739273 
L 590.348132 185.17598 
L 595.234735 184.857741 
L 600.121338 184.793632 
L 605.007941 184.985496 
L 609.894544 185.427832 
L 614.781147 186.108127 
L 619.66775 187.0076 
L 625.368786 188.301786 
L 631.069823 189.81696 
L 638.399727 192.011284 
L 648.172933 195.199079 
L 669.348212 202.173135 
L 678.306984 204.853966 
L 686.451322 207.067474 
L 694.59566 209.047754 
L 702.739999 210.791793 
L 710.884337 212.307979 
L 719.843109 213.731507 
L 728.80188 214.924887 
L 738.575086 215.997938 
L 749.162726 216.932237 
L 761.379233 217.769705 
L 761.379233 217.769705 
" clip-path="url(#pef8b1122cd)" style="fill: none; stroke: #1f77b4; stroke-width: 2; stroke-linecap: square"/>
   </g>
   <g id="line2d_42">
    <path d="M 436.420142 220.086846 
L 455.15212 219.798906 
L 467.368627 219.405579 
L 477.141833 218.869566 
L 484.471737 218.262124 
L 490.987207 217.507418 
L 496.688244 216.621463 
L 501.574847 215.643397 
L 505.647016 214.635249 
L 509.719185 213.41327 
L 513.791354 211.934761 
L 517.049089 210.533954 
L 520.306825 208.907994 
L 523.56456 207.02438 
L 526.822295 204.84727 
L 530.08003 202.337661 
L 532.523332 200.212226 
L 534.966633 197.857936 
L 537.409935 195.256046 
L 539.853236 192.387813 
L 542.296538 189.234986 
L 544.739839 185.780409 
L 547.18314 182.008784 
L 549.626442 177.907582 
L 552.069743 173.468124 
L 555.327479 167.017359 
L 558.585214 159.969643 
L 561.842949 152.36177 
L 565.915118 142.174392 
L 570.801721 129.264096 
L 578.131625 109.796804 
L 581.389361 101.73751 
L 583.832662 96.182208 
L 586.275963 91.185373 
L 587.904831 88.224354 
L 589.533699 85.598823 
L 591.162566 83.339425 
L 592.791434 81.473277 
L 594.420302 80.023299 
L 596.049169 79.007622 
L 597.678037 78.439118 
L 598.492471 78.325051 
L 599.306904 78.325051 
L 600.121338 78.439118 
L 601.750206 79.007622 
L 603.379073 80.023299 
L 605.007941 81.473277 
L 606.636809 83.339425 
L 608.265676 85.598823 
L 609.894544 88.224354 
L 611.523412 91.185373 
L 613.966713 96.182208 
L 616.410014 101.73751 
L 619.66775 109.796804 
L 624.554353 122.69458 
L 631.884257 142.174392 
L 635.956426 152.36177 
L 639.214161 159.969643 
L 642.471896 167.017359 
L 645.729632 173.468124 
L 648.987367 179.311897 
L 651.430668 183.302061 
L 653.87397 186.966454 
L 656.317271 190.318639 
L 658.760573 193.374627 
L 661.203874 196.152016 
L 663.647176 198.669281 
L 666.904911 201.653465 
L 670.162646 204.252628 
L 673.420381 206.509089 
L 676.678117 208.462589 
L 679.935852 210.149784 
L 683.193587 211.604016 
L 687.265756 213.13958 
L 691.337925 214.409228 
L 695.410094 215.457049 
L 700.296697 216.473905 
L 705.997734 217.395247 
L 711.69877 218.095154 
L 719.028675 218.752654 
L 727.173013 219.254478 
L 737.760652 219.669078 
L 751.606027 219.969321 
L 761.379233 220.086846 
L 761.379233 220.086846 
" clip-path="url(#pef8b1122cd)" style="fill: none; stroke: #ff7f0e; stroke-width: 2; stroke-linecap: square"/>
   </g>
   <g id="line2d_43">
    <path d="M 436.420142 220.277216 
L 598.492471 220.277216 
L 599.306904 78.310784 
L 761.379233 78.310784 
L 761.379233 78.310784 
" clip-path="url(#pef8b1122cd)" style="fill: none; stroke: #2ca02c; stroke-width: 2; stroke-linecap: square"/>
   </g>
   <g id="line2d_44">
    <path d="M 436.420142 220.35072 
L 452.708818 220.574648 
L 462.482024 220.908651 
L 470.626362 221.401961 
L 477.141833 222.003735 
L 482.842869 222.727854 
L 488.543906 223.674609 
L 494.244943 224.874614 
L 499.131546 226.118474 
L 504.832582 227.818147 
L 510.533619 229.753159 
L 519.492391 233.072162 
L 526.822295 235.694488 
L 530.894464 236.934031 
L 534.152199 237.728566 
L 537.409935 238.285586 
L 539.853236 238.510611 
L 542.296538 238.540695 
L 544.739839 238.348722 
L 547.18314 237.907724 
L 549.626442 237.191375 
L 552.069743 236.174508 
L 554.513045 234.833654 
L 556.956346 233.147595 
L 559.399648 231.097901 
L 561.842949 228.669455 
L 564.28625 225.850946 
L 566.729552 222.635302 
L 569.172853 219.020074 
L 571.616155 215.007735 
L 574.059456 210.605895 
L 576.502758 205.827423 
L 579.760493 198.902348 
L 583.018228 191.397752 
L 586.275963 183.386211 
L 590.348132 172.791667 
L 596.049169 157.22992 
L 607.451243 125.796333 
L 611.523412 115.201789 
L 615.595581 105.263488 
L 618.853316 97.897546 
L 622.111051 91.126916 
L 624.554353 86.472233 
L 626.997654 82.199058 
L 629.440955 78.3185 
L 631.884257 74.836441 
L 634.327558 71.753682 
L 636.77086 69.066198 
L 639.214161 66.765457 
L 641.657463 64.838828 
L 644.100764 63.270034 
L 646.544065 62.039656 
L 648.987367 61.125664 
L 651.430668 60.503963 
L 653.87397 60.148941 
L 656.317271 60.034 
L 658.760573 60.132072 
L 661.203874 60.416091 
L 664.461609 61.038131 
L 667.719345 61.882842 
L 671.791514 63.165929 
L 677.49255 65.211662 
L 690.523491 69.966099 
L 696.224528 71.772848 
L 701.925565 73.321105 
L 706.812168 74.431525 
L 712.513204 75.483647 
L 718.214241 76.298913 
L 724.729711 76.98532 
L 732.059616 77.510935 
L 741.018388 77.90054 
L 752.420461 78.148693 
L 761.379233 78.23728 
L 761.379233 78.23728 
" clip-path="url(#pef8b1122cd)" style="fill: none; stroke: #d62728; stroke-width: 2; stroke-linecap: square"/>
   </g>
   <g id="line2d_45">
    <path d="M 420.172188 220.277216 
L 777.627187 220.277216 
" clip-path="url(#pef8b1122cd)" style="fill: none; stroke: #000000; stroke-width: 0.4; stroke-linecap: square"/>
   </g>
   <g id="line2d_46">
    <path d="M 598.899688 247.48 
L 598.899688 51.108 
" clip-path="url(#pef8b1122cd)" style="fill: none; stroke: #000000; stroke-width: 0.4; stroke-linecap: square"/>
   </g>
   <g id="patch_9">
    <path d="M 420.172188 247.48 
L 420.172188 51.108 
" style="fill: none; stroke: #000000; stroke-width: 0.8; stroke-linejoin: miter; stroke-linecap: square"/>
   </g>
   <g id="patch_10">
    <path d="M 777.627187 247.48 
L 777.627187 51.108 
" style="fill: none; stroke: #000000; stroke-width: 0.8; stroke-linejoin: miter; stroke-linecap: square"/>
   </g>
   <g id="patch_11">
    <path d="M 420.172188 247.48 
L 777.627187 247.48 
" style="fill: none; stroke: #000000; stroke-width: 0.8; stroke-linejoin: miter; stroke-linecap: square"/>
   </g>
   <g id="patch_12">
    <path d="M 420.172188 51.108 
L 777.627187 51.108 
" style="fill: none; stroke: #000000; stroke-width: 0.8; stroke-linejoin: miter; stroke-linecap: square"/>
   </g>
   <g id="text_38">
    <!-- Derivative $\phi'(z)$ -->
    <g transform="translate(552.459687 45.108) scale(0.12 -0.12)">
     <defs>
      <path id="DejaVuSans-44" d="M 1259 4147 
L 1259 519 
L 2022 519 
Q 2988 519 3436 956 
Q 3884 1394 3884 2338 
Q 3884 3275 3436 3711 
Q 2988 4147 2022 4147 
L 1259 4147 
z
M 628 4666 
L 1925 4666 
Q 3281 4666 3915 4102 
Q 4550 3538 4550 2338 
Q 4550 1131 3912 565 
Q 3275 0 1925 0 
L 628 0 
L 628 4666 
z
" transform="scale(0.015625)"/>
      <path id="DejaVuSans-72" d="M 2631 2963 
Q 2534 3019 2420 3045 
Q 2306 3072 2169 3072 
Q 1681 3072 1420 2755 
Q 1159 2438 1159 1844 
L 1159 0 
L 581 0 
L 581 3500 
L 1159 3500 
L 1159 2956 
Q 1341 3275 1631 3429 
Q 1922 3584 2338 3584 
Q 2397 3584 2469 3576 
Q 2541 3569 2628 3553 
L 2631 2963 
z
" transform="scale(0.015625)"/>
      <path id="Cmsy10-30" d="M 225 347 
Q 184 359 184 409 
L 966 3316 
Q 1003 3434 1093 3506 
Q 1184 3578 1300 3578 
Q 1450 3578 1564 3479 
Q 1678 3381 1678 3231 
Q 1678 3166 1644 3084 
L 488 319 
Q 466 275 428 275 
Q 394 275 320 306 
Q 247 338 225 347 
z
" transform="scale(0.015625)"/>
     </defs>
     <use xlink:href="#DejaVuSans-44" transform="translate(0 0.584375)"/>
     <use xlink:href="#DejaVuSans-65" transform="translate(77.001953 0.584375)"/>
     <use xlink:href="#DejaVuSans-72" transform="translate(138.525391 0.584375)"/>
     <use xlink:href="#DejaVuSans-69" transform="translate(179.638672 0.584375)"/>
     <use xlink:href="#DejaVuSans-76" transform="translate(207.421875 0.584375)"/>
     <use xlink:href="#DejaVuSans-61" transform="translate(266.601562 0.584375)"/>
     <use xlink:href="#DejaVuSans-74" transform="translate(327.880859 0.584375)"/>
     <use xlink:href="#DejaVuSans-69" transform="translate(367.089844 0.584375)"/>
     <use xlink:href="#DejaVuSans-76" transform="translate(394.873047 0.584375)"/>
     <use xlink:href="#DejaVuSans-65" transform="translate(454.052734 0.584375)"/>
     <use xlink:href="#DejaVuSans-20" transform="translate(515.576172 0.584375)"/>
     <use xlink:href="#DejaVuSans-Oblique-3d5" transform="translate(547.363281 0.584375)"/>
     <use xlink:href="#Cmsy10-30" transform="translate(620.777786 38.865625) scale(0.7)"/>
     <use xlink:href="#DejaVuSans-28" transform="translate(642.755326 0.584375)"/>
     <use xlink:href="#DejaVuSans-Oblique-7a" transform="translate(681.768997 0.584375)"/>
     <use xlink:href="#DejaVuSans-29" transform="translate(734.259232 0.584375)"/>
    </g>
   </g>
   <g id="legend_2">
    <g id="patch_13">
     <path d="M 425.772188 104.478 
L 482.829688 104.478 
Q 484.429688 104.478 484.429688 102.878 
L 484.429688 56.708 
Q 484.429688 55.108 482.829688 55.108 
L 425.772188 55.108 
Q 424.172188 55.108 424.172188 56.708 
L 424.172188 102.878 
Q 424.172188 104.478 425.772188 104.478 
z
" style="fill: #ffffff; opacity: 0.8; stroke: #cccccc; stroke-linejoin: miter"/>
    </g>
    <g id="line2d_47">
     <path d="M 427.372188 61.58675 
L 435.372188 61.58675 
L 443.372188 61.58675 
" style="fill: none; stroke: #1f77b4; stroke-width: 2; stroke-linecap: square"/>
    </g>
    <g id="text_39">
     <!-- sigmoid -->
     <g transform="translate(449.772188 64.38675) scale(0.08 -0.08)">
      <use xlink:href="#DejaVuSans-73"/>
      <use xlink:href="#DejaVuSans-69" transform="translate(52.099609 0)"/>
      <use xlink:href="#DejaVuSans-67" transform="translate(79.882812 0)"/>
      <use xlink:href="#DejaVuSans-6d" transform="translate(143.359375 0)"/>
      <use xlink:href="#DejaVuSans-6f" transform="translate(240.771484 0)"/>
      <use xlink:href="#DejaVuSans-69" transform="translate(301.953125 0)"/>
      <use xlink:href="#DejaVuSans-64" transform="translate(329.736328 0)"/>
     </g>
    </g>
    <g id="line2d_48">
     <path d="M 427.372188 73.32925 
L 435.372188 73.32925 
L 443.372188 73.32925 
" style="fill: none; stroke: #ff7f0e; stroke-width: 2; stroke-linecap: square"/>
    </g>
    <g id="text_40">
     <!-- tanh -->
     <g transform="translate(449.772188 76.12925) scale(0.08 -0.08)">
      <use xlink:href="#DejaVuSans-74"/>
      <use xlink:href="#DejaVuSans-61" transform="translate(39.208984 0)"/>
      <use xlink:href="#DejaVuSans-6e" transform="translate(100.488281 0)"/>
      <use xlink:href="#DejaVuSans-68" transform="translate(163.867188 0)"/>
     </g>
    </g>
    <g id="line2d_49">
     <path d="M 427.372188 85.07175 
L 435.372188 85.07175 
L 443.372188 85.07175 
" style="fill: none; stroke: #2ca02c; stroke-width: 2; stroke-linecap: square"/>
    </g>
    <g id="text_41">
     <!-- ReLU -->
     <g transform="translate(449.772188 87.87175) scale(0.08 -0.08)">
      <use xlink:href="#DejaVuSans-52"/>
      <use xlink:href="#DejaVuSans-65" transform="translate(64.982422 0)"/>
      <use xlink:href="#DejaVuSans-4c" transform="translate(126.505859 0)"/>
      <use xlink:href="#DejaVuSans-55" transform="translate(177.21875 0)"/>
     </g>
    </g>
    <g id="line2d_50">
     <path d="M 427.372188 96.81425 
L 435.372188 96.81425 
L 443.372188 96.81425 
" style="fill: none; stroke: #d62728; stroke-width: 2; stroke-linecap: square"/>
    </g>
    <g id="text_42">
     <!-- GELU -->
     <g transform="translate(449.772188 99.61425) scale(0.08 -0.08)">
      <use xlink:href="#DejaVuSans-47"/>
      <use xlink:href="#DejaVuSans-45" transform="translate(77.490234 0)"/>
      <use xlink:href="#DejaVuSans-4c" transform="translate(140.673828 0)"/>
      <use xlink:href="#DejaVuSans-55" transform="translate(191.386719 0)"/>
     </g>
    </g>
   </g>
  </g>
  <g id="text_43">
   <!-- Sigmoid and tanh saturate; ReLU and GELU keep their derivative away from zero on the active side -->
   <g transform="translate(94.3425 16.318125) scale(0.12 -0.12)">
    <defs>
     <path id="DejaVuSans-53" d="M 3425 4513 
L 3425 3897 
Q 3066 4069 2747 4153 
Q 2428 4238 2131 4238 
Q 1616 4238 1336 4038 
Q 1056 3838 1056 3469 
Q 1056 3159 1242 3001 
Q 1428 2844 1947 2747 
L 2328 2669 
Q 3034 2534 3370 2195 
Q 3706 1856 3706 1288 
Q 3706 609 3251 259 
Q 2797 -91 1919 -91 
Q 1588 -91 1214 -16 
Q 841 59 441 206 
L 441 856 
Q 825 641 1194 531 
Q 1563 422 1919 422 
Q 2459 422 2753 634 
Q 3047 847 3047 1241 
Q 3047 1584 2836 1778 
Q 2625 1972 2144 2069 
L 1759 2144 
Q 1053 2284 737 2584 
Q 422 2884 422 3419 
Q 422 4038 858 4394 
Q 1294 4750 2059 4750 
Q 2388 4750 2728 4690 
Q 3069 4631 3425 4513 
z
" transform="scale(0.015625)"/>
     <path id="DejaVuSans-75" d="M 544 1381 
L 544 3500 
L 1119 3500 
L 1119 1403 
Q 1119 906 1312 657 
Q 1506 409 1894 409 
Q 2359 409 2629 706 
Q 2900 1003 2900 1516 
L 2900 3500 
L 3475 3500 
L 3475 0 
L 2900 0 
L 2900 538 
Q 2691 219 2414 64 
Q 2138 -91 1772 -91 
Q 1169 -91 856 284 
Q 544 659 544 1381 
z
M 1991 3584 
L 1991 3584 
z
" transform="scale(0.015625)"/>
     <path id="DejaVuSans-3b" d="M 750 3309 
L 1409 3309 
L 1409 2516 
L 750 2516 
L 750 3309 
z
M 750 794 
L 1409 794 
L 1409 256 
L 897 -744 
L 494 -744 
L 750 256 
L 750 794 
z
" transform="scale(0.015625)"/>
     <path id="DejaVuSans-6b" d="M 581 4863 
L 1159 4863 
L 1159 1991 
L 2875 3500 
L 3609 3500 
L 1753 1863 
L 3688 0 
L 2938 0 
L 1159 1709 
L 1159 0 
L 581 0 
L 581 4863 
z
" transform="scale(0.015625)"/>
     <path id="DejaVuSans-70" d="M 1159 525 
L 1159 -1331 
L 581 -1331 
L 581 3500 
L 1159 3500 
L 1159 2969 
Q 1341 3281 1617 3432 
Q 1894 3584 2278 3584 
Q 2916 3584 3314 3078 
Q 3713 2572 3713 1747 
Q 3713 922 3314 415 
Q 2916 -91 2278 -91 
Q 1894 -91 1617 61 
Q 1341 213 1159 525 
z
M 3116 1747 
Q 3116 2381 2855 2742 
Q 2594 3103 2138 3103 
Q 1681 3103 1420 2742 
Q 1159 2381 1159 1747 
Q 1159 1113 1420 752 
Q 1681 391 2138 391 
Q 2594 391 2855 752 
Q 3116 1113 3116 1747 
z
" transform="scale(0.015625)"/>
     <path id="DejaVuSans-77" d="M 269 3500 
L 844 3500 
L 1563 769 
L 2278 3500 
L 2956 3500 
L 3675 769 
L 4391 3500 
L 4966 3500 
L 4050 0 
L 3372 0 
L 2619 2869 
L 1863 0 
L 1184 0 
L 269 3500 
z
" transform="scale(0.015625)"/>
     <path id="DejaVuSans-79" d="M 2059 -325 
Q 1816 -950 1584 -1140 
Q 1353 -1331 966 -1331 
L 506 -1331 
L 506 -850 
L 844 -850 
Q 1081 -850 1212 -737 
Q 1344 -625 1503 -206 
L 1606 56 
L 191 3500 
L 800 3500 
L 1894 763 
L 2988 3500 
L 3597 3500 
L 2059 -325 
z
" transform="scale(0.015625)"/>
     <path id="DejaVuSans-66" d="M 2375 4863 
L 2375 4384 
L 1825 4384 
Q 1516 4384 1395 4259 
Q 1275 4134 1275 3809 
L 1275 3500 
L 2222 3500 
L 2222 3053 
L 1275 3053 
L 1275 0 
L 697 0 
L 697 3053 
L 147 3053 
L 147 3500 
L 697 3500 
L 697 3744 
Q 697 4328 969 4595 
Q 1241 4863 1831 4863 
L 2375 4863 
z
" transform="scale(0.015625)"/>
    </defs>
    <use xlink:href="#DejaVuSans-53"/>
    <use xlink:href="#DejaVuSans-69" transform="translate(63.476562 0)"/>
    <use xlink:href="#DejaVuSans-67" transform="translate(91.259766 0)"/>
    <use xlink:href="#DejaVuSans-6d" transform="translate(154.736328 0)"/>
    <use xlink:href="#DejaVuSans-6f" transform="translate(252.148438 0)"/>
    <use xlink:href="#DejaVuSans-69" transform="translate(313.330078 0)"/>
    <use xlink:href="#DejaVuSans-64" transform="translate(341.113281 0)"/>
    <use xlink:href="#DejaVuSans-20" transform="translate(404.589844 0)"/>
    <use xlink:href="#DejaVuSans-61" transform="translate(436.376953 0)"/>
    <use xlink:href="#DejaVuSans-6e" transform="translate(497.65625 0)"/>
    <use xlink:href="#DejaVuSans-64" transform="translate(561.035156 0)"/>
    <use xlink:href="#DejaVuSans-20" transform="translate(624.511719 0)"/>
    <use xlink:href="#DejaVuSans-74" transform="translate(656.298828 0)"/>
    <use xlink:href="#DejaVuSans-61" transform="translate(695.507812 0)"/>
    <use xlink:href="#DejaVuSans-6e" transform="translate(756.787109 0)"/>
    <use xlink:href="#DejaVuSans-68" transform="translate(820.166016 0)"/>
    <use xlink:href="#DejaVuSans-20" transform="translate(883.544922 0)"/>
    <use xlink:href="#DejaVuSans-73" transform="translate(915.332031 0)"/>
    <use xlink:href="#DejaVuSans-61" transform="translate(967.431641 0)"/>
    <use xlink:href="#DejaVuSans-74" transform="translate(1028.710938 0)"/>
    <use xlink:href="#DejaVuSans-75" transform="translate(1067.919922 0)"/>
    <use xlink:href="#DejaVuSans-72" transform="translate(1131.298828 0)"/>
    <use xlink:href="#DejaVuSans-61" transform="translate(1172.412109 0)"/>
    <use xlink:href="#DejaVuSans-74" transform="translate(1233.691406 0)"/>
    <use xlink:href="#DejaVuSans-65" transform="translate(1272.900391 0)"/>
    <use xlink:href="#DejaVuSans-3b" transform="translate(1334.423828 0)"/>
    <use xlink:href="#DejaVuSans-20" transform="translate(1368.115234 0)"/>
    <use xlink:href="#DejaVuSans-52" transform="translate(1399.902344 0)"/>
    <use xlink:href="#DejaVuSans-65" transform="translate(1464.884766 0)"/>
    <use xlink:href="#DejaVuSans-4c" transform="translate(1526.408203 0)"/>
    <use xlink:href="#DejaVuSans-55" transform="translate(1577.121094 0)"/>
    <use xlink:href="#DejaVuSans-20" transform="translate(1650.314453 0)"/>
    <use xlink:href="#DejaVuSans-61" transform="translate(1682.101562 0)"/>
    <use xlink:href="#DejaVuSans-6e" transform="translate(1743.380859 0)"/>
    <use xlink:href="#DejaVuSans-64" transform="translate(1806.759766 0)"/>
    <use xlink:href="#DejaVuSans-20" transform="translate(1870.236328 0)"/>
    <use xlink:href="#DejaVuSans-47" transform="translate(1902.023438 0)"/>
    <use xlink:href="#DejaVuSans-45" transform="translate(1979.513672 0)"/>
    <use xlink:href="#DejaVuSans-4c" transform="translate(2042.697266 0)"/>
    <use xlink:href="#DejaVuSans-55" transform="translate(2093.410156 0)"/>
    <use xlink:href="#DejaVuSans-20" transform="translate(2166.603516 0)"/>
    <use xlink:href="#DejaVuSans-6b" transform="translate(2198.390625 0)"/>
    <use xlink:href="#DejaVuSans-65" transform="translate(2252.675781 0)"/>
    <use xlink:href="#DejaVuSans-65" transform="translate(2314.199219 0)"/>
    <use xlink:href="#DejaVuSans-70" transform="translate(2375.722656 0)"/>
    <use xlink:href="#DejaVuSans-20" transform="translate(2439.199219 0)"/>
    <use xlink:href="#DejaVuSans-74" transform="translate(2470.986328 0)"/>
    <use xlink:href="#DejaVuSans-68" transform="translate(2510.195312 0)"/>
    <use xlink:href="#DejaVuSans-65" transform="translate(2573.574219 0)"/>
    <use xlink:href="#DejaVuSans-69" transform="translate(2635.097656 0)"/>
    <use xlink:href="#DejaVuSans-72" transform="translate(2662.880859 0)"/>
    <use xlink:href="#DejaVuSans-20" transform="translate(2703.994141 0)"/>
    <use xlink:href="#DejaVuSans-64" transform="translate(2735.78125 0)"/>
    <use xlink:href="#DejaVuSans-65" transform="translate(2799.257812 0)"/>
    <use xlink:href="#DejaVuSans-72" transform="translate(2860.78125 0)"/>
    <use xlink:href="#DejaVuSans-69" transform="translate(2901.894531 0)"/>
    <use xlink:href="#DejaVuSans-76" transform="translate(2929.677734 0)"/>
    <use xlink:href="#DejaVuSans-61" transform="translate(2988.857422 0)"/>
    <use xlink:href="#DejaVuSans-74" transform="translate(3050.136719 0)"/>
    <use xlink:href="#DejaVuSans-69" transform="translate(3089.345703 0)"/>
    <use xlink:href="#DejaVuSans-76" transform="translate(3117.128906 0)"/>
    <use xlink:href="#DejaVuSans-65" transform="translate(3176.308594 0)"/>
    <use xlink:href="#DejaVuSans-20" transform="translate(3237.832031 0)"/>
    <use xlink:href="#DejaVuSans-61" transform="translate(3269.619141 0)"/>
    <use xlink:href="#DejaVuSans-77" transform="translate(3330.898438 0)"/>
    <use xlink:href="#DejaVuSans-61" transform="translate(3412.685547 0)"/>
    <use xlink:href="#DejaVuSans-79" transform="translate(3473.964844 0)"/>
    <use xlink:href="#DejaVuSans-20" transform="translate(3533.144531 0)"/>
    <use xlink:href="#DejaVuSans-66" transform="translate(3564.931641 0)"/>
    <use xlink:href="#DejaVuSans-72" transform="translate(3600.136719 0)"/>
    <use xlink:href="#DejaVuSans-6f" transform="translate(3639 0)"/>
    <use xlink:href="#DejaVuSans-6d" transform="translate(3700.181641 0)"/>
    <use xlink:href="#DejaVuSans-20" transform="translate(3797.59375 0)"/>
    <use xlink:href="#DejaVuSans-7a" transform="translate(3829.380859 0)"/>
    <use xlink:href="#DejaVuSans-65" transform="translate(3881.871094 0)"/>
    <use xlink:href="#DejaVuSans-72" transform="translate(3943.394531 0)"/>
    <use xlink:href="#DejaVuSans-6f" transform="translate(3982.257812 0)"/>
    <use xlink:href="#DejaVuSans-20" transform="translate(4043.439453 0)"/>
    <use xlink:href="#DejaVuSans-6f" transform="translate(4075.226562 0)"/>
    <use xlink:href="#DejaVuSans-6e" transform="translate(4136.408203 0)"/>
    <use xlink:href="#DejaVuSans-20" transform="translate(4199.787109 0)"/>
    <use xlink:href="#DejaVuSans-74" transform="translate(4231.574219 0)"/>
    <use xlink:href="#DejaVuSans-68" transform="translate(4270.783203 0)"/>
    <use xlink:href="#DejaVuSans-65" transform="translate(4334.162109 0)"/>
    <use xlink:href="#DejaVuSans-20" transform="translate(4395.685547 0)"/>
    <use xlink:href="#DejaVuSans-61" transform="translate(4427.472656 0)"/>
    <use xlink:href="#DejaVuSans-63" transform="translate(4488.751953 0)"/>
    <use xlink:href="#DejaVuSans-74" transform="translate(4543.732422 0)"/>
    <use xlink:href="#DejaVuSans-69" transform="translate(4582.941406 0)"/>
    <use xlink:href="#DejaVuSans-76" transform="translate(4610.724609 0)"/>
    <use xlink:href="#DejaVuSans-65" transform="translate(4669.904297 0)"/>
    <use xlink:href="#DejaVuSans-20" transform="translate(4731.427734 0)"/>
    <use xlink:href="#DejaVuSans-73" transform="translate(4763.214844 0)"/>
    <use xlink:href="#DejaVuSans-69" transform="translate(4815.314453 0)"/>
    <use xlink:href="#DejaVuSans-64" transform="translate(4843.097656 0)"/>
    <use xlink:href="#DejaVuSans-65" transform="translate(4906.574219 0)"/>
   </g>
  </g>
 </g>
 <defs>
  <clipPath id="paf27141d56">
   <rect x="28.942188" y="51.108" width="357.455" height="196.372"/>
  </clipPath>
  <clipPath id="pef8b1122cd">
   <rect x="420.172188" y="51.108" width="357.455" height="196.372"/>
  </clipPath>
 </defs>
</svg>
