<?xml version="1.0" encoding="utf-8" standalone="no"?>
<!DOCTYPE svg PUBLIC "-//W3C//DTD SVG 1.1//EN"
  "http://www.w3.org/Graphics/SVG/1.1/DTD/svg11.dtd">
<svg xmlns:xlink="http://www.w3.org/1999/xlink" width="424.681071pt" height="279.754375pt" viewBox="0 0 424.681071 279.754375" xmlns="http://www.w3.org/2000/svg" version="1.1">
 <metadata>
  <rdf:RDF xmlns:dc="http://purl.org/dc/elements/1.1/" xmlns:cc="http://creativecommons.org/ns#" xmlns:rdf="http://www.w3.org/1999/02/22-rdf-syntax-ns#">
   <cc:Work>
    <dc:type rdf:resource="http://purl.org/dc/dcmitype/StillImage"/>
    <dc:date>2026-05-13T21:32:06.818240</dc:date>
    <dc:format>image/svg+xml</dc:format>
    <dc:creator>
     <cc:Agent>
      <dc:title>Matplotlib v3.10.9, https://matplotlib.org/</dc:title>
     </cc:Agent>
    </dc:creator>
   </cc:Work>
  </rdf:RDF>
 </metadata>
 <defs>
  <style type="text/css">*{stroke-linejoin: round; stroke-linecap: butt}</style>
 </defs>
 <g id="figure_1">
  <g id="patch_1">
   <path d="M 0 279.754375 
L 424.681071 279.754375 
L 424.681071 0 
L 0 0 
z
" style="fill: #ffffff"/>
  </g>
  <g id="axes_1">
   <g id="patch_2">
    <path d="M 51.378125 242.198125 
L 417.481071 242.198125 
L 417.481071 22.318125 
L 51.378125 22.318125 
z
" style="fill: #ffffff"/>
   </g>
   <g id="matplotlib.axis_1">
    <g id="xtick_1">
     <g id="line2d_1">
      <defs>
       <path id="m371515a96f" d="M 0 0 
L 0 3.5 
" style="stroke: #000000; stroke-width: 0.8"/>
      </defs>
      <g>
       <use xlink:href="#m371515a96f" x="68.019168" y="242.198125" style="stroke: #000000; stroke-width: 0.8"/>
      </g>
     </g>
     <g id="text_1">
      <!-- 0 -->
      <g transform="translate(64.837918 256.796563) scale(0.1 -0.1)">
       <defs>
        <path id="DejaVuSans-30" d="M 2034 4250 
Q 1547 4250 1301 3770 
Q 1056 3291 1056 2328 
Q 1056 1369 1301 889 
Q 1547 409 2034 409 
Q 2525 409 2770 889 
Q 3016 1369 3016 2328 
Q 3016 3291 2770 3770 
Q 2525 4250 2034 4250 
z
M 2034 4750 
Q 2819 4750 3233 4129 
Q 3647 3509 3647 2328 
Q 3647 1150 3233 529 
Q 2819 -91 2034 -91 
Q 1250 -91 836 529 
Q 422 1150 422 2328 
Q 422 3509 836 4129 
Q 1250 4750 2034 4750 
z
" transform="scale(0.015625)"/>
       </defs>
       <use xlink:href="#DejaVuSans-30"/>
      </g>
     </g>
    </g>
    <g id="xtick_2">
     <g id="line2d_2">
      <g>
       <use xlink:href="#m371515a96f" x="109.726043" y="242.198125" style="stroke: #000000; stroke-width: 0.8"/>
      </g>
     </g>
     <g id="text_2">
      <!-- 50 -->
      <g transform="translate(103.363543 256.796563) scale(0.1 -0.1)">
       <defs>
        <path id="DejaVuSans-35" d="M 691 4666 
L 3169 4666 
L 3169 4134 
L 1269 4134 
L 1269 2991 
Q 1406 3038 1543 3061 
Q 1681 3084 1819 3084 
Q 2600 3084 3056 2656 
Q 3513 2228 3513 1497 
Q 3513 744 3044 326 
Q 2575 -91 1722 -91 
Q 1428 -91 1123 -41 
Q 819 9 494 109 
L 494 744 
Q 775 591 1075 516 
Q 1375 441 1709 441 
Q 2250 441 2565 725 
Q 2881 1009 2881 1497 
Q 2881 1984 2565 2268 
Q 2250 2553 1709 2553 
Q 1456 2553 1204 2497 
Q 953 2441 691 2322 
L 691 4666 
z
" transform="scale(0.015625)"/>
       </defs>
       <use xlink:href="#DejaVuSans-35"/>
       <use xlink:href="#DejaVuSans-30" transform="translate(63.623047 0)"/>
      </g>
     </g>
    </g>
    <g id="xtick_3">
     <g id="line2d_3">
      <g>
       <use xlink:href="#m371515a96f" x="151.432917" y="242.198125" style="stroke: #000000; stroke-width: 0.8"/>
      </g>
     </g>
     <g id="text_3">
      <!-- 100 -->
      <g transform="translate(141.889167 256.796563) scale(0.1 -0.1)">
       <defs>
        <path id="DejaVuSans-31" d="M 794 531 
L 1825 531 
L 1825 4091 
L 703 3866 
L 703 4441 
L 1819 4666 
L 2450 4666 
L 2450 531 
L 3481 531 
L 3481 0 
L 794 0 
L 794 531 
z
" transform="scale(0.015625)"/>
       </defs>
       <use xlink:href="#DejaVuSans-31"/>
       <use xlink:href="#DejaVuSans-30" transform="translate(63.623047 0)"/>
       <use xlink:href="#DejaVuSans-30" transform="translate(127.246094 0)"/>
      </g>
     </g>
    </g>
    <g id="xtick_4">
     <g id="line2d_4">
      <g>
       <use xlink:href="#m371515a96f" x="193.139792" y="242.198125" style="stroke: #000000; stroke-width: 0.8"/>
      </g>
     </g>
     <g id="text_4">
      <!-- 150 -->
      <g transform="translate(183.596042 256.796563) scale(0.1 -0.1)">
       <use xlink:href="#DejaVuSans-31"/>
       <use xlink:href="#DejaVuSans-35" transform="translate(63.623047 0)"/>
       <use xlink:href="#DejaVuSans-30" transform="translate(127.246094 0)"/>
      </g>
     </g>
    </g>
    <g id="xtick_5">
     <g id="line2d_5">
      <g>
       <use xlink:href="#m371515a96f" x="234.846667" y="242.198125" style="stroke: #000000; stroke-width: 0.8"/>
      </g>
     </g>
     <g id="text_5">
      <!-- 200 -->
      <g transform="translate(225.302917 256.796563) scale(0.1 -0.1)">
       <defs>
        <path id="DejaVuSans-32" d="M 1228 531 
L 3431 531 
L 3431 0 
L 469 0 
L 469 531 
Q 828 903 1448 1529 
Q 2069 2156 2228 2338 
Q 2531 2678 2651 2914 
Q 2772 3150 2772 3378 
Q 2772 3750 2511 3984 
Q 2250 4219 1831 4219 
Q 1534 4219 1204 4116 
Q 875 4013 500 3803 
L 500 4441 
Q 881 4594 1212 4672 
Q 1544 4750 1819 4750 
Q 2544 4750 2975 4387 
Q 3406 4025 3406 3419 
Q 3406 3131 3298 2873 
Q 3191 2616 2906 2266 
Q 2828 2175 2409 1742 
Q 1991 1309 1228 531 
z
" transform="scale(0.015625)"/>
       </defs>
       <use xlink:href="#DejaVuSans-32"/>
       <use xlink:href="#DejaVuSans-30" transform="translate(63.623047 0)"/>
       <use xlink:href="#DejaVuSans-30" transform="translate(127.246094 0)"/>
      </g>
     </g>
    </g>
    <g id="xtick_6">
     <g id="line2d_6">
      <g>
       <use xlink:href="#m371515a96f" x="276.553541" y="242.198125" style="stroke: #000000; stroke-width: 0.8"/>
      </g>
     </g>
     <g id="text_6">
      <!-- 250 -->
      <g transform="translate(267.009791 256.796563) scale(0.1 -0.1)">
       <use xlink:href="#DejaVuSans-32"/>
       <use xlink:href="#DejaVuSans-35" transform="translate(63.623047 0)"/>
       <use xlink:href="#DejaVuSans-30" transform="translate(127.246094 0)"/>
      </g>
     </g>
    </g>
    <g id="xtick_7">
     <g id="line2d_7">
      <g>
       <use xlink:href="#m371515a96f" x="318.260416" y="242.198125" style="stroke: #000000; stroke-width: 0.8"/>
      </g>
     </g>
     <g id="text_7">
      <!-- 300 -->
      <g transform="translate(308.716666 256.796563) scale(0.1 -0.1)">
       <defs>
        <path id="DejaVuSans-33" d="M 2597 2516 
Q 3050 2419 3304 2112 
Q 3559 1806 3559 1356 
Q 3559 666 3084 287 
Q 2609 -91 1734 -91 
Q 1441 -91 1130 -33 
Q 819 25 488 141 
L 488 750 
Q 750 597 1062 519 
Q 1375 441 1716 441 
Q 2309 441 2620 675 
Q 2931 909 2931 1356 
Q 2931 1769 2642 2001 
Q 2353 2234 1838 2234 
L 1294 2234 
L 1294 2753 
L 1863 2753 
Q 2328 2753 2575 2939 
Q 2822 3125 2822 3475 
Q 2822 3834 2567 4026 
Q 2313 4219 1838 4219 
Q 1578 4219 1281 4162 
Q 984 4106 628 3988 
L 628 4550 
Q 988 4650 1302 4700 
Q 1616 4750 1894 4750 
Q 2613 4750 3031 4423 
Q 3450 4097 3450 3541 
Q 3450 3153 3228 2886 
Q 3006 2619 2597 2516 
z
" transform="scale(0.015625)"/>
       </defs>
       <use xlink:href="#DejaVuSans-33"/>
       <use xlink:href="#DejaVuSans-30" transform="translate(63.623047 0)"/>
       <use xlink:href="#DejaVuSans-30" transform="translate(127.246094 0)"/>
      </g>
     </g>
    </g>
    <g id="xtick_8">
     <g id="line2d_8">
      <g>
       <use xlink:href="#m371515a96f" x="359.967291" y="242.198125" style="stroke: #000000; stroke-width: 0.8"/>
      </g>
     </g>
     <g id="text_8">
      <!-- 350 -->
      <g transform="translate(350.423541 256.796563) scale(0.1 -0.1)">
       <use xlink:href="#DejaVuSans-33"/>
       <use xlink:href="#DejaVuSans-35" transform="translate(63.623047 0)"/>
       <use xlink:href="#DejaVuSans-30" transform="translate(127.246094 0)"/>
      </g>
     </g>
    </g>
    <g id="xtick_9">
     <g id="line2d_9">
      <g>
       <use xlink:href="#m371515a96f" x="401.674166" y="242.198125" style="stroke: #000000; stroke-width: 0.8"/>
      </g>
     </g>
     <g id="text_9">
      <!-- 400 -->
      <g transform="translate(392.130416 256.796563) scale(0.1 -0.1)">
       <defs>
        <path id="DejaVuSans-34" d="M 2419 4116 
L 825 1625 
L 2419 1625 
L 2419 4116 
z
M 2253 4666 
L 3047 4666 
L 3047 1625 
L 3713 1625 
L 3713 1100 
L 3047 1100 
L 3047 0 
L 2419 0 
L 2419 1100 
L 313 1100 
L 313 1709 
L 2253 4666 
z
" transform="scale(0.015625)"/>
       </defs>
       <use xlink:href="#DejaVuSans-34"/>
       <use xlink:href="#DejaVuSans-30" transform="translate(63.623047 0)"/>
       <use xlink:href="#DejaVuSans-30" transform="translate(127.246094 0)"/>
      </g>
     </g>
    </g>
    <g id="text_10">
     <!-- step -->
     <g transform="translate(223.613973 270.474688) scale(0.1 -0.1)">
      <defs>
       <path id="DejaVuSans-73" d="M 2834 3397 
L 2834 2853 
Q 2591 2978 2328 3040 
Q 2066 3103 1784 3103 
Q 1356 3103 1142 2972 
Q 928 2841 928 2578 
Q 928 2378 1081 2264 
Q 1234 2150 1697 2047 
L 1894 2003 
Q 2506 1872 2764 1633 
Q 3022 1394 3022 966 
Q 3022 478 2636 193 
Q 2250 -91 1575 -91 
Q 1294 -91 989 -36 
Q 684 19 347 128 
L 347 722 
Q 666 556 975 473 
Q 1284 391 1588 391 
Q 1994 391 2212 530 
Q 2431 669 2431 922 
Q 2431 1156 2273 1281 
Q 2116 1406 1581 1522 
L 1381 1569 
Q 847 1681 609 1914 
Q 372 2147 372 2553 
Q 372 3047 722 3315 
Q 1072 3584 1716 3584 
Q 2034 3584 2315 3537 
Q 2597 3491 2834 3397 
z
" transform="scale(0.015625)"/>
       <path id="DejaVuSans-74" d="M 1172 4494 
L 1172 3500 
L 2356 3500 
L 2356 3053 
L 1172 3053 
L 1172 1153 
Q 1172 725 1289 603 
Q 1406 481 1766 481 
L 2356 481 
L 2356 0 
L 1766 0 
Q 1100 0 847 248 
Q 594 497 594 1153 
L 594 3053 
L 172 3053 
L 172 3500 
L 594 3500 
L 594 4494 
L 1172 4494 
z
" transform="scale(0.015625)"/>
       <path id="DejaVuSans-65" d="M 3597 1894 
L 3597 1613 
L 953 1613 
Q 991 1019 1311 708 
Q 1631 397 2203 397 
Q 2534 397 2845 478 
Q 3156 559 3463 722 
L 3463 178 
Q 3153 47 2828 -22 
Q 2503 -91 2169 -91 
Q 1331 -91 842 396 
Q 353 884 353 1716 
Q 353 2575 817 3079 
Q 1281 3584 2069 3584 
Q 2775 3584 3186 3129 
Q 3597 2675 3597 1894 
z
M 3022 2063 
Q 3016 2534 2758 2815 
Q 2500 3097 2075 3097 
Q 1594 3097 1305 2825 
Q 1016 2553 972 2059 
L 3022 2063 
z
" transform="scale(0.015625)"/>
       <path id="DejaVuSans-70" d="M 1159 525 
L 1159 -1331 
L 581 -1331 
L 581 3500 
L 1159 3500 
L 1159 2969 
Q 1341 3281 1617 3432 
Q 1894 3584 2278 3584 
Q 2916 3584 3314 3078 
Q 3713 2572 3713 1747 
Q 3713 922 3314 415 
Q 2916 -91 2278 -91 
Q 1894 -91 1617 61 
Q 1341 213 1159 525 
z
M 3116 1747 
Q 3116 2381 2855 2742 
Q 2594 3103 2138 3103 
Q 1681 3103 1420 2742 
Q 1159 2381 1159 1747 
Q 1159 1113 1420 752 
Q 1681 391 2138 391 
Q 2594 391 2855 752 
Q 3116 1113 3116 1747 
z
" transform="scale(0.015625)"/>
      </defs>
      <use xlink:href="#DejaVuSans-73"/>
      <use xlink:href="#DejaVuSans-74" transform="translate(52.099609 0)"/>
      <use xlink:href="#DejaVuSans-65" transform="translate(91.308594 0)"/>
      <use xlink:href="#DejaVuSans-70" transform="translate(152.832031 0)"/>
     </g>
    </g>
   </g>
   <g id="matplotlib.axis_2">
    <g id="ytick_1">
     <g id="line2d_10">
      <defs>
       <path id="m66cb3842d7" d="M 0 0 
L -3.5 0 
" style="stroke: #000000; stroke-width: 0.8"/>
      </defs>
      <g>
       <use xlink:href="#m66cb3842d7" x="51.378125" y="225.413743" style="stroke: #000000; stroke-width: 0.8"/>
      </g>
     </g>
     <g id="text_11">
      <!-- $\mathdefault{10^{-2}}$ -->
      <g transform="translate(20.878125 229.212962) scale(0.1 -0.1)">
       <defs>
        <path id="DejaVuSans-2212" d="M 678 2272 
L 4684 2272 
L 4684 1741 
L 678 1741 
L 678 2272 
z
" transform="scale(0.015625)"/>
       </defs>
       <use xlink:href="#DejaVuSans-31" transform="translate(0 0.765625)"/>
       <use xlink:href="#DejaVuSans-30" transform="translate(63.623047 0.765625)"/>
       <use xlink:href="#DejaVuSans-2212" transform="translate(128.203125 39.046875) scale(0.7)"/>
       <use xlink:href="#DejaVuSans-32" transform="translate(186.855469 39.046875) scale(0.7)"/>
      </g>
     </g>
    </g>
    <g id="ytick_2">
     <g id="line2d_11">
      <g>
       <use xlink:href="#m66cb3842d7" x="51.378125" y="179.254011" style="stroke: #000000; stroke-width: 0.8"/>
      </g>
     </g>
     <g id="text_12">
      <!-- $\mathdefault{10^{-1}}$ -->
      <g transform="translate(20.878125 183.05323) scale(0.1 -0.1)">
       <use xlink:href="#DejaVuSans-31" transform="translate(0 0.684375)"/>
       <use xlink:href="#DejaVuSans-30" transform="translate(63.623047 0.684375)"/>
       <use xlink:href="#DejaVuSans-2212" transform="translate(128.203125 38.965625) scale(0.7)"/>
       <use xlink:href="#DejaVuSans-31" transform="translate(186.855469 38.965625) scale(0.7)"/>
      </g>
     </g>
    </g>
    <g id="ytick_3">
     <g id="line2d_12">
      <g>
       <use xlink:href="#m66cb3842d7" x="51.378125" y="133.09428" style="stroke: #000000; stroke-width: 0.8"/>
      </g>
     </g>
     <g id="text_13">
      <!-- $\mathdefault{10^{0}}$ -->
      <g transform="translate(26.778125 136.893498) scale(0.1 -0.1)">
       <use xlink:href="#DejaVuSans-31" transform="translate(0 0.765625)"/>
       <use xlink:href="#DejaVuSans-30" transform="translate(63.623047 0.765625)"/>
       <use xlink:href="#DejaVuSans-30" transform="translate(128.203125 39.046875) scale(0.7)"/>
      </g>
     </g>
    </g>
    <g id="ytick_4">
     <g id="line2d_13">
      <g>
       <use xlink:href="#m66cb3842d7" x="51.378125" y="86.934548" style="stroke: #000000; stroke-width: 0.8"/>
      </g>
     </g>
     <g id="text_14">
      <!-- $\mathdefault{10^{1}}$ -->
      <g transform="translate(26.778125 90.733767) scale(0.1 -0.1)">
       <use xlink:href="#DejaVuSans-31" transform="translate(0 0.684375)"/>
       <use xlink:href="#DejaVuSans-30" transform="translate(63.623047 0.684375)"/>
       <use xlink:href="#DejaVuSans-31" transform="translate(128.203125 38.965625) scale(0.7)"/>
      </g>
     </g>
    </g>
    <g id="ytick_5">
     <g id="line2d_14">
      <g>
       <use xlink:href="#m66cb3842d7" x="51.378125" y="40.774816" style="stroke: #000000; stroke-width: 0.8"/>
      </g>
     </g>
     <g id="text_15">
      <!-- $\mathdefault{10^{2}}$ -->
      <g transform="translate(26.778125 44.574035) scale(0.1 -0.1)">
       <use xlink:href="#DejaVuSans-31" transform="translate(0 0.765625)"/>
       <use xlink:href="#DejaVuSans-30" transform="translate(63.623047 0.765625)"/>
       <use xlink:href="#DejaVuSans-32" transform="translate(128.203125 39.046875) scale(0.7)"/>
      </g>
     </g>
    </g>
    <g id="ytick_6">
     <g id="line2d_15">
      <defs>
       <path id="m77be1177d3" d="M 0 0 
L -2 0 
" style="stroke: #000000; stroke-width: 0.6"/>
      </defs>
      <g>
       <use xlink:href="#m77be1177d3" x="51.378125" y="239.309207" style="stroke: #000000; stroke-width: 0.6"/>
      </g>
     </g>
    </g>
    <g id="ytick_7">
     <g id="line2d_16">
      <g>
       <use xlink:href="#m77be1177d3" x="51.378125" y="235.654222" style="stroke: #000000; stroke-width: 0.6"/>
      </g>
     </g>
    </g>
    <g id="ytick_8">
     <g id="line2d_17">
      <g>
       <use xlink:href="#m77be1177d3" x="51.378125" y="232.563976" style="stroke: #000000; stroke-width: 0.6"/>
      </g>
     </g>
    </g>
    <g id="ytick_9">
     <g id="line2d_18">
      <g>
       <use xlink:href="#m77be1177d3" x="51.378125" y="229.887083" style="stroke: #000000; stroke-width: 0.6"/>
      </g>
     </g>
    </g>
    <g id="ytick_10">
     <g id="line2d_19">
      <g>
       <use xlink:href="#m77be1177d3" x="51.378125" y="227.525897" style="stroke: #000000; stroke-width: 0.6"/>
      </g>
     </g>
    </g>
    <g id="ytick_11">
     <g id="line2d_20">
      <g>
       <use xlink:href="#m77be1177d3" x="51.378125" y="211.518279" style="stroke: #000000; stroke-width: 0.6"/>
      </g>
     </g>
    </g>
    <g id="ytick_12">
     <g id="line2d_21">
      <g>
       <use xlink:href="#m77be1177d3" x="51.378125" y="203.389954" style="stroke: #000000; stroke-width: 0.6"/>
      </g>
     </g>
    </g>
    <g id="ytick_13">
     <g id="line2d_22">
      <g>
       <use xlink:href="#m77be1177d3" x="51.378125" y="197.622815" style="stroke: #000000; stroke-width: 0.6"/>
      </g>
     </g>
    </g>
    <g id="ytick_14">
     <g id="line2d_23">
      <g>
       <use xlink:href="#m77be1177d3" x="51.378125" y="193.149475" style="stroke: #000000; stroke-width: 0.6"/>
      </g>
     </g>
    </g>
    <g id="ytick_15">
     <g id="line2d_24">
      <g>
       <use xlink:href="#m77be1177d3" x="51.378125" y="189.49449" style="stroke: #000000; stroke-width: 0.6"/>
      </g>
     </g>
    </g>
    <g id="ytick_16">
     <g id="line2d_25">
      <g>
       <use xlink:href="#m77be1177d3" x="51.378125" y="186.404244" style="stroke: #000000; stroke-width: 0.6"/>
      </g>
     </g>
    </g>
    <g id="ytick_17">
     <g id="line2d_26">
      <g>
       <use xlink:href="#m77be1177d3" x="51.378125" y="183.727352" style="stroke: #000000; stroke-width: 0.6"/>
      </g>
     </g>
    </g>
    <g id="ytick_18">
     <g id="line2d_27">
      <g>
       <use xlink:href="#m77be1177d3" x="51.378125" y="181.366165" style="stroke: #000000; stroke-width: 0.6"/>
      </g>
     </g>
    </g>
    <g id="ytick_19">
     <g id="line2d_28">
      <g>
       <use xlink:href="#m77be1177d3" x="51.378125" y="165.358548" style="stroke: #000000; stroke-width: 0.6"/>
      </g>
     </g>
    </g>
    <g id="ytick_20">
     <g id="line2d_29">
      <g>
       <use xlink:href="#m77be1177d3" x="51.378125" y="157.230222" style="stroke: #000000; stroke-width: 0.6"/>
      </g>
     </g>
    </g>
    <g id="ytick_21">
     <g id="line2d_30">
      <g>
       <use xlink:href="#m77be1177d3" x="51.378125" y="151.463084" style="stroke: #000000; stroke-width: 0.6"/>
      </g>
     </g>
    </g>
    <g id="ytick_22">
     <g id="line2d_31">
      <g>
       <use xlink:href="#m77be1177d3" x="51.378125" y="146.989743" style="stroke: #000000; stroke-width: 0.6"/>
      </g>
     </g>
    </g>
    <g id="ytick_23">
     <g id="line2d_32">
      <g>
       <use xlink:href="#m77be1177d3" x="51.378125" y="143.334758" style="stroke: #000000; stroke-width: 0.6"/>
      </g>
     </g>
    </g>
    <g id="ytick_24">
     <g id="line2d_33">
      <g>
       <use xlink:href="#m77be1177d3" x="51.378125" y="140.244513" style="stroke: #000000; stroke-width: 0.6"/>
      </g>
     </g>
    </g>
    <g id="ytick_25">
     <g id="line2d_34">
      <g>
       <use xlink:href="#m77be1177d3" x="51.378125" y="137.56762" style="stroke: #000000; stroke-width: 0.6"/>
      </g>
     </g>
    </g>
    <g id="ytick_26">
     <g id="line2d_35">
      <g>
       <use xlink:href="#m77be1177d3" x="51.378125" y="135.206433" style="stroke: #000000; stroke-width: 0.6"/>
      </g>
     </g>
    </g>
    <g id="ytick_27">
     <g id="line2d_36">
      <g>
       <use xlink:href="#m77be1177d3" x="51.378125" y="119.198816" style="stroke: #000000; stroke-width: 0.6"/>
      </g>
     </g>
    </g>
    <g id="ytick_28">
     <g id="line2d_37">
      <g>
       <use xlink:href="#m77be1177d3" x="51.378125" y="111.07049" style="stroke: #000000; stroke-width: 0.6"/>
      </g>
     </g>
    </g>
    <g id="ytick_29">
     <g id="line2d_38">
      <g>
       <use xlink:href="#m77be1177d3" x="51.378125" y="105.303352" style="stroke: #000000; stroke-width: 0.6"/>
      </g>
     </g>
    </g>
    <g id="ytick_30">
     <g id="line2d_39">
      <g>
       <use xlink:href="#m77be1177d3" x="51.378125" y="100.830012" style="stroke: #000000; stroke-width: 0.6"/>
      </g>
     </g>
    </g>
    <g id="ytick_31">
     <g id="line2d_40">
      <g>
       <use xlink:href="#m77be1177d3" x="51.378125" y="97.175027" style="stroke: #000000; stroke-width: 0.6"/>
      </g>
     </g>
    </g>
    <g id="ytick_32">
     <g id="line2d_41">
      <g>
       <use xlink:href="#m77be1177d3" x="51.378125" y="94.084781" style="stroke: #000000; stroke-width: 0.6"/>
      </g>
     </g>
    </g>
    <g id="ytick_33">
     <g id="line2d_42">
      <g>
       <use xlink:href="#m77be1177d3" x="51.378125" y="91.407888" style="stroke: #000000; stroke-width: 0.6"/>
      </g>
     </g>
    </g>
    <g id="ytick_34">
     <g id="line2d_43">
      <g>
       <use xlink:href="#m77be1177d3" x="51.378125" y="89.046701" style="stroke: #000000; stroke-width: 0.6"/>
      </g>
     </g>
    </g>
    <g id="ytick_35">
     <g id="line2d_44">
      <g>
       <use xlink:href="#m77be1177d3" x="51.378125" y="73.039084" style="stroke: #000000; stroke-width: 0.6"/>
      </g>
     </g>
    </g>
    <g id="ytick_36">
     <g id="line2d_45">
      <g>
       <use xlink:href="#m77be1177d3" x="51.378125" y="64.910759" style="stroke: #000000; stroke-width: 0.6"/>
      </g>
     </g>
    </g>
    <g id="ytick_37">
     <g id="line2d_46">
      <g>
       <use xlink:href="#m77be1177d3" x="51.378125" y="59.14362" style="stroke: #000000; stroke-width: 0.6"/>
      </g>
     </g>
    </g>
    <g id="ytick_38">
     <g id="line2d_47">
      <g>
       <use xlink:href="#m77be1177d3" x="51.378125" y="54.67028" style="stroke: #000000; stroke-width: 0.6"/>
      </g>
     </g>
    </g>
    <g id="ytick_39">
     <g id="line2d_48">
      <g>
       <use xlink:href="#m77be1177d3" x="51.378125" y="51.015295" style="stroke: #000000; stroke-width: 0.6"/>
      </g>
     </g>
    </g>
    <g id="ytick_40">
     <g id="line2d_49">
      <g>
       <use xlink:href="#m77be1177d3" x="51.378125" y="47.925049" style="stroke: #000000; stroke-width: 0.6"/>
      </g>
     </g>
    </g>
    <g id="ytick_41">
     <g id="line2d_50">
      <g>
       <use xlink:href="#m77be1177d3" x="51.378125" y="45.248156" style="stroke: #000000; stroke-width: 0.6"/>
      </g>
     </g>
    </g>
    <g id="ytick_42">
     <g id="line2d_51">
      <g>
       <use xlink:href="#m77be1177d3" x="51.378125" y="42.88697" style="stroke: #000000; stroke-width: 0.6"/>
      </g>
     </g>
    </g>
    <g id="ytick_43">
     <g id="line2d_52">
      <g>
       <use xlink:href="#m77be1177d3" x="51.378125" y="26.879352" style="stroke: #000000; stroke-width: 0.6"/>
      </g>
     </g>
    </g>
    <g id="text_16">
     <!-- MSE -->
     <g transform="translate(14.798438 142.905781) rotate(-90) scale(0.1 -0.1)">
      <defs>
       <path id="DejaVuSans-4d" d="M 628 4666 
L 1569 4666 
L 2759 1491 
L 3956 4666 
L 4897 4666 
L 4897 0 
L 4281 0 
L 4281 4097 
L 3078 897 
L 2444 897 
L 1241 4097 
L 1241 0 
L 628 0 
L 628 4666 
z
" transform="scale(0.015625)"/>
       <path id="DejaVuSans-53" d="M 3425 4513 
L 3425 3897 
Q 3066 4069 2747 4153 
Q 2428 4238 2131 4238 
Q 1616 4238 1336 4038 
Q 1056 3838 1056 3469 
Q 1056 3159 1242 3001 
Q 1428 2844 1947 2747 
L 2328 2669 
Q 3034 2534 3370 2195 
Q 3706 1856 3706 1288 
Q 3706 609 3251 259 
Q 2797 -91 1919 -91 
Q 1588 -91 1214 -16 
Q 841 59 441 206 
L 441 856 
Q 825 641 1194 531 
Q 1563 422 1919 422 
Q 2459 422 2753 634 
Q 3047 847 3047 1241 
Q 3047 1584 2836 1778 
Q 2625 1972 2144 2069 
L 1759 2144 
Q 1053 2284 737 2584 
Q 422 2884 422 3419 
Q 422 4038 858 4394 
Q 1294 4750 2059 4750 
Q 2388 4750 2728 4690 
Q 3069 4631 3425 4513 
z
" transform="scale(0.015625)"/>
       <path id="DejaVuSans-45" d="M 628 4666 
L 3578 4666 
L 3578 4134 
L 1259 4134 
L 1259 2753 
L 3481 2753 
L 3481 2222 
L 1259 2222 
L 1259 531 
L 3634 531 
L 3634 0 
L 628 0 
L 628 4666 
z
" transform="scale(0.015625)"/>
      </defs>
      <use xlink:href="#DejaVuSans-4d"/>
      <use xlink:href="#DejaVuSans-53" transform="translate(86.279297 0)"/>
      <use xlink:href="#DejaVuSans-45" transform="translate(149.755859 0)"/>
     </g>
    </g>
   </g>
   <g id="line2d_53">
    <path d="M 68.019168 88.32635 
L 68.853305 72.129516 
L 69.687443 59.138369 
L 70.52158 54.30897 
L 71.355718 67.386219 
L 73.023993 150.077385 
L 73.85813 157.057272 
L 74.692268 158.987714 
L 75.526405 160.343836 
L 77.19468 162.396005 
L 78.862955 164.036054 
L 81.365368 166.146886 
L 84.701918 168.58141 
L 88.038468 170.70901 
L 92.209155 173.053776 
L 96.379843 175.125498 
L 101.384668 177.333031 
L 106.389493 179.271942 
L 112.228455 181.30388 
L 118.901555 183.402201 
L 126.408793 185.535671 
L 136.418443 188.128903 
L 147.26223 190.710103 
L 158.106017 193.082253 
L 172.286355 195.942764 
L 189.803242 199.243536 
L 213.159092 203.336071 
L 237.349079 207.388203 
L 297.406979 217.032442 
L 334.109029 222.585751 
L 373.313491 228.327989 
L 400.840028 232.20358 
L 400.840028 232.20358 
" clip-path="url(#p1a3086d54c)" style="fill: none; stroke: #1f77b4; stroke-width: 2; stroke-linecap: square"/>
   </g>
   <g id="line2d_54">
    <path d="M 68.019168 88.032828 
L 68.853305 75.842972 
L 69.687443 59.689996 
L 70.52158 56.507003 
L 71.355718 64.972243 
L 72.189855 109.919529 
L 73.023993 137.044443 
L 73.85813 146.010292 
L 74.692268 145.679179 
L 75.526405 146.165842 
L 78.028818 146.797532 
L 81.365368 147.358244 
L 85.536055 147.79223 
L 90.54088 148.067958 
L 97.21398 148.196249 
L 107.22363 148.152639 
L 139.754992 147.619884 
L 167.28153 147.241563 
L 225.671154 146.66797 
L 336.611441 145.947951 
L 400.840028 145.603481 
L 400.840028 145.603481 
" clip-path="url(#p1a3086d54c)" style="fill: none; stroke-dasharray: 7.4,3.2; stroke-dashoffset: 0; stroke: #1f77b4; stroke-width: 2"/>
   </g>
   <g id="line2d_55">
    <path d="M 68.019168 90.709286 
L 68.853305 57.840985 
L 69.687443 32.482398 
L 70.52158 33.005136 
L 71.355718 102.210592 
L 72.189855 120.5433 
L 73.023993 128.235816 
L 73.85813 134.343426 
L 76.360543 144.98363 
L 77.19468 146.802706 
L 78.862955 151.064903 
L 79.697093 152.606836 
L 81.365368 156.685073 
L 82.199505 158.140176 
L 83.033643 159.224312 
L 83.86778 159.703723 
L 84.701918 160.928617 
L 85.536055 161.381141 
L 86.370193 161.426571 
L 87.20433 162.297647 
L 88.038468 162.788616 
L 88.872605 163.546631 
L 89.706743 163.985855 
L 90.54088 164.221395 
L 91.375018 164.054266 
L 92.209155 164.515938 
L 93.043293 165.109326 
L 93.87743 164.354532 
L 94.711568 164.868439 
L 95.545705 165.607127 
L 96.379843 165.505447 
L 97.21398 167.144737 
L 98.882255 167.342394 
L 99.716393 168.12749 
L 100.55053 168.507425 
L 101.384668 168.749332 
L 102.218805 169.148412 
L 103.052943 169.385707 
L 104.721218 170.090258 
L 105.555355 169.986246 
L 106.389493 171.469216 
L 107.22363 172.258284 
L 108.891905 172.938612 
L 109.726043 172.48016 
L 110.56018 172.678426 
L 111.394318 173.162858 
L 112.228455 172.862907 
L 113.062593 173.184317 
L 113.89673 172.853045 
L 114.730868 173.386032 
L 115.565005 173.143673 
L 116.399143 173.87634 
L 117.23328 173.239808 
L 118.067418 174.821184 
L 118.901555 175.527715 
L 119.735693 175.58716 
L 120.56983 174.226995 
L 121.403968 174.5965 
L 122.238105 175.162115 
L 123.072243 174.662133 
L 123.90638 175.675357 
L 124.740518 176.139872 
L 125.574655 175.984102 
L 126.408793 175.564654 
L 127.24293 176.044031 
L 128.077068 175.45191 
L 128.911205 175.988091 
L 129.745343 175.494471 
L 130.57948 176.514561 
L 131.413618 175.843548 
L 133.081893 176.366167 
L 133.91603 176.334468 
L 134.750168 174.879793 
L 135.584305 176.116275 
L 136.418443 176.324984 
L 137.25258 177.07621 
L 138.086717 175.975741 
L 138.920855 175.930569 
L 139.754992 176.603998 
L 140.58913 176.720895 
L 141.423267 177.600472 
L 142.257405 177.412908 
L 143.091542 178.6464 
L 143.92568 178.366237 
L 144.759817 178.773335 
L 145.593955 178.42631 
L 146.428092 178.993133 
L 147.26223 178.840691 
L 148.096367 178.836708 
L 148.930505 179.113702 
L 149.764642 178.950672 
L 151.432917 179.324324 
L 152.267055 179.303544 
L 153.101192 178.693912 
L 153.93533 179.137101 
L 154.769467 178.274185 
L 155.603605 179.532248 
L 156.437742 180.573921 
L 157.27188 180.618754 
L 158.940155 179.004832 
L 159.774292 178.568935 
L 160.60843 179.142797 
L 161.442567 178.760686 
L 162.276705 179.724565 
L 163.110842 179.552588 
L 163.94498 180.437975 
L 164.779117 180.234287 
L 165.613255 179.736778 
L 166.447392 181.793671 
L 167.28153 181.135874 
L 168.115667 181.022361 
L 168.949805 180.249722 
L 169.783942 180.426359 
L 171.452217 181.630029 
L 172.286355 180.46587 
L 173.120492 180.629893 
L 173.95463 181.09836 
L 174.788767 180.856558 
L 175.622905 179.60489 
L 176.457042 180.880585 
L 177.29118 181.656346 
L 178.125317 181.570526 
L 179.793592 181.826603 
L 180.62773 183.085356 
L 181.461867 182.074945 
L 182.296005 181.419783 
L 183.130142 181.352223 
L 183.96428 181.736995 
L 184.798417 180.525128 
L 185.632555 181.119145 
L 186.466692 183.371284 
L 187.30083 181.578416 
L 188.134967 181.624741 
L 188.969105 181.873147 
L 189.803242 183.125502 
L 190.63738 182.78938 
L 191.471517 182.784004 
L 192.305655 182.337021 
L 193.97393 184.392947 
L 194.808067 184.9998 
L 195.642205 185.19208 
L 196.476342 185.683616 
L 197.31048 184.280807 
L 198.144617 185.015905 
L 198.978755 185.507251 
L 199.812892 184.744117 
L 200.64703 184.862099 
L 201.481167 185.297133 
L 203.149442 185.697911 
L 203.98358 186.151244 
L 204.817717 185.281137 
L 205.651855 186.299226 
L 206.485992 186.634867 
L 207.320129 186.411203 
L 208.154267 185.828512 
L 208.988404 184.963652 
L 209.822542 185.322585 
L 211.490817 184.350561 
L 212.324954 185.045357 
L 213.159092 185.474802 
L 213.993229 185.607127 
L 214.827367 186.768643 
L 215.661504 185.949987 
L 216.495642 186.587993 
L 217.329779 187.424715 
L 218.163917 187.936672 
L 218.998054 187.504051 
L 219.832192 187.808017 
L 220.666329 188.310877 
L 221.500467 187.982289 
L 222.334604 187.403936 
L 223.168742 187.758285 
L 224.002879 187.583493 
L 224.837017 186.075711 
L 225.671154 185.120955 
L 226.505292 186.697761 
L 227.339429 186.093854 
L 228.173567 187.224197 
L 229.007704 187.47459 
L 229.841842 187.861659 
L 230.675979 188.4032 
L 231.510117 187.565757 
L 232.344254 187.720636 
L 233.178392 188.155692 
L 234.012529 188.039183 
L 234.846667 187.657847 
L 235.680804 186.99238 
L 236.514942 188.539837 
L 237.349079 188.241948 
L 238.183217 189.352745 
L 239.017354 188.726306 
L 239.851492 189.425127 
L 240.685629 189.297429 
L 241.519767 189.466007 
L 242.353904 190.320319 
L 244.022179 191.240444 
L 244.856317 190.473315 
L 246.524592 190.012238 
L 247.358729 190.514181 
L 248.192867 191.246894 
L 249.027004 190.954964 
L 249.861142 191.673204 
L 250.695279 191.916374 
L 251.529417 191.996033 
L 252.363554 191.495871 
L 253.197692 191.502759 
L 254.031829 191.265979 
L 254.865967 189.296871 
L 255.700104 190.208473 
L 256.534242 191.835635 
L 258.202517 190.323195 
L 259.036654 190.284505 
L 259.870792 191.231993 
L 260.704929 190.013213 
L 261.539067 189.268127 
L 262.373204 189.1709 
L 264.041479 191.012038 
L 264.875617 191.004918 
L 265.709754 190.880332 
L 266.543892 190.616717 
L 267.378029 191.776696 
L 268.212167 192.010598 
L 269.046304 192.581991 
L 270.714579 191.72188 
L 272.382854 190.274913 
L 273.216992 190.148253 
L 274.051129 189.557869 
L 275.719404 190.255388 
L 277.387679 192.198405 
L 278.221816 192.42697 
L 279.055954 191.264596 
L 279.890091 191.311225 
L 280.724229 192.266737 
L 281.558366 192.40674 
L 282.392504 190.832065 
L 284.060779 191.369009 
L 285.729054 188.576677 
L 286.563191 188.631525 
L 287.397329 187.751567 
L 288.231466 187.810413 
L 289.065604 186.628479 
L 289.899741 189.126007 
L 290.733879 188.826192 
L 291.568016 190.315909 
L 292.402154 190.431315 
L 293.236291 191.568569 
L 294.070429 192.142735 
L 294.904566 190.956797 
L 295.738704 191.744998 
L 296.572841 191.706312 
L 297.406979 190.661435 
L 299.075254 192.386658 
L 299.909391 191.371758 
L 300.743529 191.406818 
L 301.577666 192.361569 
L 302.411804 192.994506 
L 303.245941 191.260944 
L 304.080079 191.074167 
L 304.914216 192.154399 
L 305.748354 192.381193 
L 306.582491 192.034737 
L 307.416629 192.554904 
L 308.250766 192.889413 
L 309.084904 192.414532 
L 309.919041 191.779066 
L 310.753179 189.637671 
L 311.587316 194.173063 
L 312.421454 194.39761 
L 313.255591 193.304823 
L 314.089729 191.861581 
L 314.923866 191.645257 
L 315.758004 189.750643 
L 317.426279 193.159915 
L 318.260416 192.694011 
L 319.094554 194.035428 
L 319.928691 194.185755 
L 320.762829 194.846944 
L 321.596966 194.173755 
L 322.431104 192.26463 
L 323.265241 194.839648 
L 324.099379 193.279823 
L 324.933516 193.430197 
L 325.767654 191.771083 
L 326.601791 192.247597 
L 327.435929 191.548308 
L 329.104204 194.087117 
L 329.938341 193.504162 
L 330.772479 194.464713 
L 331.606616 192.638486 
L 332.440754 194.14023 
L 333.274891 193.840488 
L 334.109029 192.252761 
L 334.943166 192.955173 
L 335.777304 192.298616 
L 336.611441 193.130645 
L 337.445579 193.342182 
L 338.279716 193.07736 
L 339.113854 194.640837 
L 339.947991 194.308328 
L 340.782129 195.154835 
L 342.450404 195.983733 
L 343.284541 196.532382 
L 344.118679 194.78561 
L 344.952816 195.064134 
L 345.786953 193.719003 
L 346.621091 194.562679 
L 347.455228 193.678023 
L 348.289366 194.478513 
L 349.123503 195.05977 
L 349.957641 194.067496 
L 350.791778 192.306427 
L 351.625916 193.967533 
L 353.294191 195.942801 
L 354.128328 195.828361 
L 354.962466 195.890363 
L 355.796603 195.620409 
L 356.630741 194.657219 
L 357.464878 195.635203 
L 358.299016 195.232103 
L 359.133153 196.712897 
L 359.967291 196.222022 
L 360.801428 196.744604 
L 361.635566 196.811694 
L 362.469703 195.388666 
L 363.303841 195.387251 
L 364.137978 192.919966 
L 365.806253 194.238058 
L 366.640391 194.219924 
L 367.474528 195.820198 
L 368.308666 196.162369 
L 369.142803 195.834451 
L 369.976941 197.267794 
L 370.811078 197.402169 
L 371.645216 197.196547 
L 372.479353 197.167934 
L 373.313491 197.338261 
L 374.147628 198.039951 
L 375.815903 196.885323 
L 376.650041 197.160021 
L 377.484178 194.485508 
L 378.318316 195.605557 
L 379.152453 197.260726 
L 379.986591 196.139611 
L 380.820728 197.393465 
L 381.654866 198.192044 
L 382.489003 197.793324 
L 383.323141 196.12651 
L 384.157278 195.415399 
L 384.991416 194.299458 
L 386.659691 195.617567 
L 387.493828 195.120414 
L 388.327966 196.539887 
L 389.162103 196.340079 
L 389.996241 197.346855 
L 390.830378 198.964431 
L 391.664516 197.314192 
L 392.498653 196.919946 
L 393.332791 195.591298 
L 394.166928 193.201977 
L 395.001066 196.717237 
L 396.669341 194.419386 
L 397.503478 196.547479 
L 398.337616 196.411387 
L 399.171753 194.272247 
L 400.005891 194.819852 
L 400.840028 196.48171 
L 400.840028 196.48171 
" clip-path="url(#p1a3086d54c)" style="fill: none; stroke: #d62728; stroke-width: 2; stroke-linecap: square"/>
   </g>
   <g id="line2d_56">
    <path d="M 68.019168 90.282085 
L 69.687443 33.949958 
L 70.52158 32.31267 
L 71.355718 95.322831 
L 72.189855 112.638289 
L 73.023993 120.218302 
L 73.85813 125.546837 
L 75.526405 132.412225 
L 76.360543 134.681043 
L 78.028818 137.101185 
L 78.862955 137.701896 
L 80.53123 139.926896 
L 81.365368 140.663576 
L 83.033643 142.4553 
L 83.86778 142.469169 
L 84.701918 142.877962 
L 85.536055 142.597082 
L 86.370193 142.510703 
L 87.20433 143.129632 
L 88.872605 143.890834 
L 91.375018 143.933135 
L 93.043293 144.751479 
L 93.87743 143.964723 
L 94.711568 144.341638 
L 97.21398 145.02991 
L 98.048118 144.661337 
L 99.716393 144.528149 
L 100.55053 144.584061 
L 101.384668 144.873405 
L 102.218805 144.666508 
L 103.052943 145.045823 
L 103.88708 145.051328 
L 104.721218 145.568599 
L 106.389493 145.823082 
L 108.057768 145.744052 
L 108.891905 145.904022 
L 110.56018 145.777044 
L 112.228455 145.912142 
L 113.89673 145.789833 
L 115.565005 146.258242 
L 118.067418 146.248887 
L 118.901555 146.139591 
L 119.735693 146.248255 
L 120.56983 146.587326 
L 121.403968 146.243952 
L 123.072243 146.281436 
L 123.90638 146.166237 
L 125.574655 146.467473 
L 126.408793 146.378483 
L 127.24293 146.432139 
L 128.077068 146.342017 
L 130.57948 146.38907 
L 131.413618 146.628074 
L 132.247755 146.437635 
L 133.91603 146.706611 
L 135.584305 146.743697 
L 136.418443 146.557985 
L 138.920855 146.511527 
L 139.754992 146.095313 
L 140.58913 146.451924 
L 142.257405 146.87624 
L 143.091542 146.661037 
L 143.92568 146.630398 
L 146.428092 146.883951 
L 148.930505 146.820569 
L 151.432917 146.712904 
L 152.267055 146.759776 
L 153.101192 146.606206 
L 153.93533 146.745526 
L 158.106017 146.876961 
L 159.774292 146.908142 
L 160.60843 146.369344 
L 161.442567 146.315611 
L 162.276705 146.709186 
L 163.94498 146.533128 
L 164.779117 146.686919 
L 165.613255 146.361063 
L 166.447392 147.00482 
L 167.28153 147.032504 
L 168.115667 147.299797 
L 168.949805 147.377553 
L 170.61808 147.199729 
L 171.452217 147.162109 
L 172.286355 147.258005 
L 173.120492 147.148628 
L 174.788767 147.275283 
L 175.622905 146.969808 
L 176.457042 147.290132 
L 177.29118 147.443781 
L 179.793592 147.451361 
L 180.62773 147.535356 
L 181.461867 147.47131 
L 182.296005 147.135301 
L 183.130142 147.316212 
L 183.96428 147.015684 
L 186.466692 147.047006 
L 189.803242 147.382711 
L 192.305655 147.0866 
L 193.139792 147.178899 
L 193.97393 147.017227 
L 195.642205 147.04773 
L 196.476342 146.961445 
L 198.978755 147.321727 
L 199.812892 147.185686 
L 200.64703 147.451422 
L 201.481167 147.391685 
L 203.149442 147.028054 
L 204.817717 147.04539 
L 205.651855 146.862474 
L 206.485992 147.084199 
L 208.154267 146.668497 
L 209.822542 147.116423 
L 211.490817 147.017054 
L 215.661504 146.504255 
L 217.329779 146.565031 
L 218.998054 146.564738 
L 220.666329 146.956486 
L 221.500467 146.84378 
L 222.334604 146.607179 
L 224.002879 146.884377 
L 224.837017 147.130477 
L 231.510117 147.09575 
L 232.344254 147.188202 
L 233.178392 147.393924 
L 234.012529 147.256091 
L 234.846667 147.247799 
L 235.680804 147.088454 
L 236.514942 147.176264 
L 237.349079 147.063227 
L 238.183217 147.154337 
L 239.851492 147.098226 
L 240.685629 147.196654 
L 241.519767 147.421935 
L 242.353904 147.106765 
L 243.188042 147.063332 
L 244.022179 146.869164 
L 244.856317 146.791195 
L 245.690454 146.56221 
L 246.524592 146.747193 
L 247.358729 146.485718 
L 248.192867 146.780414 
L 249.027004 146.616271 
L 249.861142 146.64182 
L 250.695279 146.529633 
L 254.031829 146.898841 
L 254.865967 146.212094 
L 255.700104 146.314178 
L 256.534242 146.566337 
L 259.870792 146.656294 
L 261.539067 146.872414 
L 263.207342 147.143819 
L 264.041479 146.967617 
L 265.709754 146.882887 
L 266.543892 146.988344 
L 269.046304 146.729034 
L 269.880442 146.459884 
L 270.714579 146.81981 
L 272.382854 147.091889 
L 273.216992 147.049506 
L 274.051129 147.191528 
L 276.553541 147.224698 
L 277.387679 146.863073 
L 279.890091 146.515344 
L 280.724229 146.817699 
L 281.558366 146.934543 
L 282.392504 146.654592 
L 283.226641 146.664137 
L 284.894916 147.051124 
L 285.729054 146.495811 
L 287.397329 146.949083 
L 288.231466 146.990514 
L 289.065604 146.465463 
L 289.899741 146.974808 
L 290.733879 146.850805 
L 291.568016 146.517523 
L 292.402154 146.029411 
L 294.070429 146.899667 
L 295.738704 146.668478 
L 296.572841 146.954932 
L 297.406979 146.692839 
L 298.241116 146.76453 
L 299.075254 146.563445 
L 299.909391 146.237702 
L 300.743529 146.638585 
L 301.577666 146.855159 
L 302.411804 146.588861 
L 303.245941 146.542095 
L 304.080079 146.818085 
L 305.748354 146.400749 
L 306.582491 146.255286 
L 307.416629 146.366773 
L 308.250766 146.612814 
L 310.753179 146.923323 
L 313.255591 146.666851 
L 314.089729 147.100367 
L 314.923866 146.870545 
L 315.758004 147.066096 
L 318.260416 146.640428 
L 319.094554 146.796011 
L 319.928691 146.606466 
L 320.762829 146.899042 
L 322.431104 147.025799 
L 323.265241 146.79229 
L 324.099379 146.994807 
L 324.933516 146.701339 
L 325.767654 146.700028 
L 326.601791 146.854166 
L 327.435929 146.709173 
L 328.270066 146.960825 
L 329.104204 146.91795 
L 329.938341 147.031265 
L 330.772479 146.967851 
L 332.440754 147.189858 
L 334.109029 147.176667 
L 334.943166 147.311999 
L 335.777304 147.282348 
L 336.611441 147.368743 
L 337.445579 147.238544 
L 338.279716 147.405235 
L 339.113854 147.239395 
L 339.947991 147.20909 
L 342.450404 146.464494 
L 343.284541 146.550791 
L 344.118679 146.468477 
L 344.952816 146.951375 
L 348.289366 147.045423 
L 349.123503 146.861422 
L 350.791778 147.125128 
L 351.625916 147.134472 
L 353.294191 146.851329 
L 354.962466 146.619063 
L 355.796603 146.465898 
L 356.630741 146.079256 
L 357.464878 146.017654 
L 358.299016 146.475678 
L 359.133153 146.416516 
L 361.635566 146.652259 
L 362.469703 146.857696 
L 364.972116 146.864804 
L 365.806253 146.49294 
L 366.640391 146.325243 
L 367.474528 146.611466 
L 369.142803 146.803533 
L 369.976941 146.702301 
L 370.811078 146.722558 
L 371.645216 146.98439 
L 372.479353 146.927085 
L 373.313491 147.06896 
L 374.981766 146.724109 
L 375.815903 147.143844 
L 376.650041 147.155335 
L 377.484178 147.431534 
L 378.318316 147.180797 
L 381.654866 146.660012 
L 383.323141 147.115855 
L 384.991416 147.179196 
L 385.825553 147.035418 
L 386.659691 147.243381 
L 387.493828 147.264246 
L 388.327966 147.059071 
L 389.996241 147.00588 
L 390.830378 146.858098 
L 391.664516 147.073839 
L 392.498653 146.726003 
L 394.166928 147.447491 
L 395.835203 147.06587 
L 396.669341 147.081324 
L 397.503478 146.941103 
L 398.337616 146.65742 
L 399.171753 147.075692 
L 400.005891 146.567159 
L 400.840028 146.608621 
L 400.840028 146.608621 
" clip-path="url(#p1a3086d54c)" style="fill: none; stroke-dasharray: 7.4,3.2; stroke-dashoffset: 0; stroke: #d62728; stroke-width: 2"/>
   </g>
   <g id="patch_3">
    <path d="M 51.378125 242.198125 
L 51.378125 22.318125 
" style="fill: none; stroke: #000000; stroke-width: 0.8; stroke-linejoin: miter; stroke-linecap: square"/>
   </g>
   <g id="patch_4">
    <path d="M 417.481071 242.198125 
L 417.481071 22.318125 
" style="fill: none; stroke: #000000; stroke-width: 0.8; stroke-linejoin: miter; stroke-linecap: square"/>
   </g>
   <g id="patch_5">
    <path d="M 51.378125 242.198125 
L 417.481071 242.198125 
" style="fill: none; stroke: #000000; stroke-width: 0.8; stroke-linejoin: miter; stroke-linecap: square"/>
   </g>
   <g id="patch_6">
    <path d="M 51.378125 22.318125 
L 417.481071 22.318125 
" style="fill: none; stroke: #000000; stroke-width: 0.8; stroke-linejoin: miter; stroke-linecap: square"/>
   </g>
   <g id="text_17">
    <!-- Dropout closes the train/val gap on a small dataset -->
    <g transform="translate(80.497723 16.318125) scale(0.12 -0.12)">
     <defs>
      <path id="DejaVuSans-44" d="M 1259 4147 
L 1259 519 
L 2022 519 
Q 2988 519 3436 956 
Q 3884 1394 3884 2338 
Q 3884 3275 3436 3711 
Q 2988 4147 2022 4147 
L 1259 4147 
z
M 628 4666 
L 1925 4666 
Q 3281 4666 3915 4102 
Q 4550 3538 4550 2338 
Q 4550 1131 3912 565 
Q 3275 0 1925 0 
L 628 0 
L 628 4666 
z
" transform="scale(0.015625)"/>
      <path id="DejaVuSans-72" d="M 2631 2963 
Q 2534 3019 2420 3045 
Q 2306 3072 2169 3072 
Q 1681 3072 1420 2755 
Q 1159 2438 1159 1844 
L 1159 0 
L 581 0 
L 581 3500 
L 1159 3500 
L 1159 2956 
Q 1341 3275 1631 3429 
Q 1922 3584 2338 3584 
Q 2397 3584 2469 3576 
Q 2541 3569 2628 3553 
L 2631 2963 
z
" transform="scale(0.015625)"/>
      <path id="DejaVuSans-6f" d="M 1959 3097 
Q 1497 3097 1228 2736 
Q 959 2375 959 1747 
Q 959 1119 1226 758 
Q 1494 397 1959 397 
Q 2419 397 2687 759 
Q 2956 1122 2956 1747 
Q 2956 2369 2687 2733 
Q 2419 3097 1959 3097 
z
M 1959 3584 
Q 2709 3584 3137 3096 
Q 3566 2609 3566 1747 
Q 3566 888 3137 398 
Q 2709 -91 1959 -91 
Q 1206 -91 779 398 
Q 353 888 353 1747 
Q 353 2609 779 3096 
Q 1206 3584 1959 3584 
z
" transform="scale(0.015625)"/>
      <path id="DejaVuSans-75" d="M 544 1381 
L 544 3500 
L 1119 3500 
L 1119 1403 
Q 1119 906 1312 657 
Q 1506 409 1894 409 
Q 2359 409 2629 706 
Q 2900 1003 2900 1516 
L 2900 3500 
L 3475 3500 
L 3475 0 
L 2900 0 
L 2900 538 
Q 2691 219 2414 64 
Q 2138 -91 1772 -91 
Q 1169 -91 856 284 
Q 544 659 544 1381 
z
M 1991 3584 
L 1991 3584 
z
" transform="scale(0.015625)"/>
      <path id="DejaVuSans-20" transform="scale(0.015625)"/>
      <path id="DejaVuSans-63" d="M 3122 3366 
L 3122 2828 
Q 2878 2963 2633 3030 
Q 2388 3097 2138 3097 
Q 1578 3097 1268 2742 
Q 959 2388 959 1747 
Q 959 1106 1268 751 
Q 1578 397 2138 397 
Q 2388 397 2633 464 
Q 2878 531 3122 666 
L 3122 134 
Q 2881 22 2623 -34 
Q 2366 -91 2075 -91 
Q 1284 -91 818 406 
Q 353 903 353 1747 
Q 353 2603 823 3093 
Q 1294 3584 2113 3584 
Q 2378 3584 2631 3529 
Q 2884 3475 3122 3366 
z
" transform="scale(0.015625)"/>
      <path id="DejaVuSans-6c" d="M 603 4863 
L 1178 4863 
L 1178 0 
L 603 0 
L 603 4863 
z
" transform="scale(0.015625)"/>
      <path id="DejaVuSans-68" d="M 3513 2113 
L 3513 0 
L 2938 0 
L 2938 2094 
Q 2938 2591 2744 2837 
Q 2550 3084 2163 3084 
Q 1697 3084 1428 2787 
Q 1159 2491 1159 1978 
L 1159 0 
L 581 0 
L 581 4863 
L 1159 4863 
L 1159 2956 
Q 1366 3272 1645 3428 
Q 1925 3584 2291 3584 
Q 2894 3584 3203 3211 
Q 3513 2838 3513 2113 
z
" transform="scale(0.015625)"/>
      <path id="DejaVuSans-61" d="M 2194 1759 
Q 1497 1759 1228 1600 
Q 959 1441 959 1056 
Q 959 750 1161 570 
Q 1363 391 1709 391 
Q 2188 391 2477 730 
Q 2766 1069 2766 1631 
L 2766 1759 
L 2194 1759 
z
M 3341 1997 
L 3341 0 
L 2766 0 
L 2766 531 
Q 2569 213 2275 61 
Q 1981 -91 1556 -91 
Q 1019 -91 701 211 
Q 384 513 384 1019 
Q 384 1609 779 1909 
Q 1175 2209 1959 2209 
L 2766 2209 
L 2766 2266 
Q 2766 2663 2505 2880 
Q 2244 3097 1772 3097 
Q 1472 3097 1187 3025 
Q 903 2953 641 2809 
L 641 3341 
Q 956 3463 1253 3523 
Q 1550 3584 1831 3584 
Q 2591 3584 2966 3190 
Q 3341 2797 3341 1997 
z
" transform="scale(0.015625)"/>
      <path id="DejaVuSans-69" d="M 603 3500 
L 1178 3500 
L 1178 0 
L 603 0 
L 603 3500 
z
M 603 4863 
L 1178 4863 
L 1178 4134 
L 603 4134 
L 603 4863 
z
" transform="scale(0.015625)"/>
      <path id="DejaVuSans-6e" d="M 3513 2113 
L 3513 0 
L 2938 0 
L 2938 2094 
Q 2938 2591 2744 2837 
Q 2550 3084 2163 3084 
Q 1697 3084 1428 2787 
Q 1159 2491 1159 1978 
L 1159 0 
L 581 0 
L 581 3500 
L 1159 3500 
L 1159 2956 
Q 1366 3272 1645 3428 
Q 1925 3584 2291 3584 
Q 2894 3584 3203 3211 
Q 3513 2838 3513 2113 
z
" transform="scale(0.015625)"/>
      <path id="DejaVuSans-2f" d="M 1625 4666 
L 2156 4666 
L 531 -594 
L 0 -594 
L 1625 4666 
z
" transform="scale(0.015625)"/>
      <path id="DejaVuSans-76" d="M 191 3500 
L 800 3500 
L 1894 563 
L 2988 3500 
L 3597 3500 
L 2284 0 
L 1503 0 
L 191 3500 
z
" transform="scale(0.015625)"/>
      <path id="DejaVuSans-67" d="M 2906 1791 
Q 2906 2416 2648 2759 
Q 2391 3103 1925 3103 
Q 1463 3103 1205 2759 
Q 947 2416 947 1791 
Q 947 1169 1205 825 
Q 1463 481 1925 481 
Q 2391 481 2648 825 
Q 2906 1169 2906 1791 
z
M 3481 434 
Q 3481 -459 3084 -895 
Q 2688 -1331 1869 -1331 
Q 1566 -1331 1297 -1286 
Q 1028 -1241 775 -1147 
L 775 -588 
Q 1028 -725 1275 -790 
Q 1522 -856 1778 -856 
Q 2344 -856 2625 -561 
Q 2906 -266 2906 331 
L 2906 616 
Q 2728 306 2450 153 
Q 2172 0 1784 0 
Q 1141 0 747 490 
Q 353 981 353 1791 
Q 353 2603 747 3093 
Q 1141 3584 1784 3584 
Q 2172 3584 2450 3431 
Q 2728 3278 2906 2969 
L 2906 3500 
L 3481 3500 
L 3481 434 
z
" transform="scale(0.015625)"/>
      <path id="DejaVuSans-6d" d="M 3328 2828 
Q 3544 3216 3844 3400 
Q 4144 3584 4550 3584 
Q 5097 3584 5394 3201 
Q 5691 2819 5691 2113 
L 5691 0 
L 5113 0 
L 5113 2094 
Q 5113 2597 4934 2840 
Q 4756 3084 4391 3084 
Q 3944 3084 3684 2787 
Q 3425 2491 3425 1978 
L 3425 0 
L 2847 0 
L 2847 2094 
Q 2847 2600 2669 2842 
Q 2491 3084 2119 3084 
Q 1678 3084 1418 2786 
Q 1159 2488 1159 1978 
L 1159 0 
L 581 0 
L 581 3500 
L 1159 3500 
L 1159 2956 
Q 1356 3278 1631 3431 
Q 1906 3584 2284 3584 
Q 2666 3584 2933 3390 
Q 3200 3197 3328 2828 
z
" transform="scale(0.015625)"/>
      <path id="DejaVuSans-64" d="M 2906 2969 
L 2906 4863 
L 3481 4863 
L 3481 0 
L 2906 0 
L 2906 525 
Q 2725 213 2448 61 
Q 2172 -91 1784 -91 
Q 1150 -91 751 415 
Q 353 922 353 1747 
Q 353 2572 751 3078 
Q 1150 3584 1784 3584 
Q 2172 3584 2448 3432 
Q 2725 3281 2906 2969 
z
M 947 1747 
Q 947 1113 1208 752 
Q 1469 391 1925 391 
Q 2381 391 2643 752 
Q 2906 1113 2906 1747 
Q 2906 2381 2643 2742 
Q 2381 3103 1925 3103 
Q 1469 3103 1208 2742 
Q 947 2381 947 1747 
z
" transform="scale(0.015625)"/>
     </defs>
     <use xlink:href="#DejaVuSans-44"/>
     <use xlink:href="#DejaVuSans-72" transform="translate(77.001953 0)"/>
     <use xlink:href="#DejaVuSans-6f" transform="translate(115.865234 0)"/>
     <use xlink:href="#DejaVuSans-70" transform="translate(177.046875 0)"/>
     <use xlink:href="#DejaVuSans-6f" transform="translate(240.523438 0)"/>
     <use xlink:href="#DejaVuSans-75" transform="translate(301.705078 0)"/>
     <use xlink:href="#DejaVuSans-74" transform="translate(365.083984 0)"/>
     <use xlink:href="#DejaVuSans-20" transform="translate(404.292969 0)"/>
     <use xlink:href="#DejaVuSans-63" transform="translate(436.080078 0)"/>
     <use xlink:href="#DejaVuSans-6c" transform="translate(491.060547 0)"/>
     <use xlink:href="#DejaVuSans-6f" transform="translate(518.84375 0)"/>
     <use xlink:href="#DejaVuSans-73" transform="translate(580.025391 0)"/>
     <use xlink:href="#DejaVuSans-65" transform="translate(632.125 0)"/>
     <use xlink:href="#DejaVuSans-73" transform="translate(693.648438 0)"/>
     <use xlink:href="#DejaVuSans-20" transform="translate(745.748047 0)"/>
     <use xlink:href="#DejaVuSans-74" transform="translate(777.535156 0)"/>
     <use xlink:href="#DejaVuSans-68" transform="translate(816.744141 0)"/>
     <use xlink:href="#DejaVuSans-65" transform="translate(880.123047 0)"/>
     <use xlink:href="#DejaVuSans-20" transform="translate(941.646484 0)"/>
     <use xlink:href="#DejaVuSans-74" transform="translate(973.433594 0)"/>
     <use xlink:href="#DejaVuSans-72" transform="translate(1012.642578 0)"/>
     <use xlink:href="#DejaVuSans-61" transform="translate(1053.755859 0)"/>
     <use xlink:href="#DejaVuSans-69" transform="translate(1115.035156 0)"/>
     <use xlink:href="#DejaVuSans-6e" transform="translate(1142.818359 0)"/>
     <use xlink:href="#DejaVuSans-2f" transform="translate(1206.197266 0)"/>
     <use xlink:href="#DejaVuSans-76" transform="translate(1239.888672 0)"/>
     <use xlink:href="#DejaVuSans-61" transform="translate(1299.068359 0)"/>
     <use xlink:href="#DejaVuSans-6c" transform="translate(1360.347656 0)"/>
     <use xlink:href="#DejaVuSans-20" transform="translate(1388.130859 0)"/>
     <use xlink:href="#DejaVuSans-67" transform="translate(1419.917969 0)"/>
     <use xlink:href="#DejaVuSans-61" transform="translate(1483.394531 0)"/>
     <use xlink:href="#DejaVuSans-70" transform="translate(1544.673828 0)"/>
     <use xlink:href="#DejaVuSans-20" transform="translate(1608.150391 0)"/>
     <use xlink:href="#DejaVuSans-6f" transform="translate(1639.9375 0)"/>
     <use xlink:href="#DejaVuSans-6e" transform="translate(1701.119141 0)"/>
     <use xlink:href="#DejaVuSans-20" transform="translate(1764.498047 0)"/>
     <use xlink:href="#DejaVuSans-61" transform="translate(1796.285156 0)"/>
     <use xlink:href="#DejaVuSans-20" transform="translate(1857.564453 0)"/>
     <use xlink:href="#DejaVuSans-73" transform="translate(1889.351562 0)"/>
     <use xlink:href="#DejaVuSans-6d" transform="translate(1941.451172 0)"/>
     <use xlink:href="#DejaVuSans-61" transform="translate(2038.863281 0)"/>
     <use xlink:href="#DejaVuSans-6c" transform="translate(2100.142578 0)"/>
     <use xlink:href="#DejaVuSans-6c" transform="translate(2127.925781 0)"/>
     <use xlink:href="#DejaVuSans-20" transform="translate(2155.708984 0)"/>
     <use xlink:href="#DejaVuSans-64" transform="translate(2187.496094 0)"/>
     <use xlink:href="#DejaVuSans-61" transform="translate(2250.972656 0)"/>
     <use xlink:href="#DejaVuSans-74" transform="translate(2312.251953 0)"/>
     <use xlink:href="#DejaVuSans-61" transform="translate(2351.460938 0)"/>
     <use xlink:href="#DejaVuSans-73" transform="translate(2412.740234 0)"/>
     <use xlink:href="#DejaVuSans-65" transform="translate(2464.839844 0)"/>
     <use xlink:href="#DejaVuSans-74" transform="translate(2526.363281 0)"/>
    </g>
   </g>
   <g id="legend_1">
    <g id="patch_7">
     <path d="M 304.113571 75.688125 
L 411.881071 75.688125 
Q 413.481071 75.688125 413.481071 74.088125 
L 413.481071 27.918125 
Q 413.481071 26.318125 411.881071 26.318125 
L 304.113571 26.318125 
Q 302.513571 26.318125 302.513571 27.918125 
L 302.513571 74.088125 
Q 302.513571 75.688125 304.113571 75.688125 
z
" style="fill: #ffffff; opacity: 0.8; stroke: #cccccc; stroke-linejoin: miter"/>
    </g>
    <g id="line2d_57">
     <path d="M 305.713571 32.796875 
L 313.713571 32.796875 
L 321.713571 32.796875 
" style="fill: none; stroke: #1f77b4; stroke-width: 2; stroke-linecap: square"/>
    </g>
    <g id="text_18">
     <!-- no dropout: train -->
     <g transform="translate(328.113571 35.596875) scale(0.08 -0.08)">
      <defs>
       <path id="DejaVuSans-3a" d="M 750 794 
L 1409 794 
L 1409 0 
L 750 0 
L 750 794 
z
M 750 3309 
L 1409 3309 
L 1409 2516 
L 750 2516 
L 750 3309 
z
" transform="scale(0.015625)"/>
      </defs>
      <use xlink:href="#DejaVuSans-6e"/>
      <use xlink:href="#DejaVuSans-6f" transform="translate(63.378906 0)"/>
      <use xlink:href="#DejaVuSans-20" transform="translate(124.560547 0)"/>
      <use xlink:href="#DejaVuSans-64" transform="translate(156.347656 0)"/>
      <use xlink:href="#DejaVuSans-72" transform="translate(219.824219 0)"/>
      <use xlink:href="#DejaVuSans-6f" transform="translate(258.6875 0)"/>
      <use xlink:href="#DejaVuSans-70" transform="translate(319.869141 0)"/>
      <use xlink:href="#DejaVuSans-6f" transform="translate(383.345703 0)"/>
      <use xlink:href="#DejaVuSans-75" transform="translate(444.527344 0)"/>
      <use xlink:href="#DejaVuSans-74" transform="translate(507.90625 0)"/>
      <use xlink:href="#DejaVuSans-3a" transform="translate(547.115234 0)"/>
      <use xlink:href="#DejaVuSans-20" transform="translate(580.806641 0)"/>
      <use xlink:href="#DejaVuSans-74" transform="translate(612.59375 0)"/>
      <use xlink:href="#DejaVuSans-72" transform="translate(651.802734 0)"/>
      <use xlink:href="#DejaVuSans-61" transform="translate(692.916016 0)"/>
      <use xlink:href="#DejaVuSans-69" transform="translate(754.195312 0)"/>
      <use xlink:href="#DejaVuSans-6e" transform="translate(781.978516 0)"/>
     </g>
    </g>
    <g id="line2d_58">
     <path d="M 305.713571 44.539375 
L 313.713571 44.539375 
L 321.713571 44.539375 
" style="fill: none; stroke-dasharray: 7.4,3.2; stroke-dashoffset: 0; stroke: #1f77b4; stroke-width: 2"/>
    </g>
    <g id="text_19">
     <!-- no dropout: val -->
     <g transform="translate(328.113571 47.339375) scale(0.08 -0.08)">
      <use xlink:href="#DejaVuSans-6e"/>
      <use xlink:href="#DejaVuSans-6f" transform="translate(63.378906 0)"/>
      <use xlink:href="#DejaVuSans-20" transform="translate(124.560547 0)"/>
      <use xlink:href="#DejaVuSans-64" transform="translate(156.347656 0)"/>
      <use xlink:href="#DejaVuSans-72" transform="translate(219.824219 0)"/>
      <use xlink:href="#DejaVuSans-6f" transform="translate(258.6875 0)"/>
      <use xlink:href="#DejaVuSans-70" transform="translate(319.869141 0)"/>
      <use xlink:href="#DejaVuSans-6f" transform="translate(383.345703 0)"/>
      <use xlink:href="#DejaVuSans-75" transform="translate(444.527344 0)"/>
      <use xlink:href="#DejaVuSans-74" transform="translate(507.90625 0)"/>
      <use xlink:href="#DejaVuSans-3a" transform="translate(547.115234 0)"/>
      <use xlink:href="#DejaVuSans-20" transform="translate(580.806641 0)"/>
      <use xlink:href="#DejaVuSans-76" transform="translate(612.59375 0)"/>
      <use xlink:href="#DejaVuSans-61" transform="translate(671.773438 0)"/>
      <use xlink:href="#DejaVuSans-6c" transform="translate(733.052734 0)"/>
     </g>
    </g>
    <g id="line2d_59">
     <path d="M 305.713571 56.281875 
L 313.713571 56.281875 
L 321.713571 56.281875 
" style="fill: none; stroke: #d62728; stroke-width: 2; stroke-linecap: square"/>
    </g>
    <g id="text_20">
     <!-- dropout p=0.3: train -->
     <g transform="translate(328.113571 59.081875) scale(0.08 -0.08)">
      <defs>
       <path id="DejaVuSans-3d" d="M 678 2906 
L 4684 2906 
L 4684 2381 
L 678 2381 
L 678 2906 
z
M 678 1631 
L 4684 1631 
L 4684 1100 
L 678 1100 
L 678 1631 
z
" transform="scale(0.015625)"/>
       <path id="DejaVuSans-2e" d="M 684 794 
L 1344 794 
L 1344 0 
L 684 0 
L 684 794 
z
" transform="scale(0.015625)"/>
      </defs>
      <use xlink:href="#DejaVuSans-64"/>
      <use xlink:href="#DejaVuSans-72" transform="translate(63.476562 0)"/>
      <use xlink:href="#DejaVuSans-6f" transform="translate(102.339844 0)"/>
      <use xlink:href="#DejaVuSans-70" transform="translate(163.521484 0)"/>
      <use xlink:href="#DejaVuSans-6f" transform="translate(226.998047 0)"/>
      <use xlink:href="#DejaVuSans-75" transform="translate(288.179688 0)"/>
      <use xlink:href="#DejaVuSans-74" transform="translate(351.558594 0)"/>
      <use xlink:href="#DejaVuSans-20" transform="translate(390.767578 0)"/>
      <use xlink:href="#DejaVuSans-70" transform="translate(422.554688 0)"/>
      <use xlink:href="#DejaVuSans-3d" transform="translate(486.03125 0)"/>
      <use xlink:href="#DejaVuSans-30" transform="translate(569.820312 0)"/>
      <use xlink:href="#DejaVuSans-2e" transform="translate(633.443359 0)"/>
      <use xlink:href="#DejaVuSans-33" transform="translate(665.230469 0)"/>
      <use xlink:href="#DejaVuSans-3a" transform="translate(728.853516 0)"/>
      <use xlink:href="#DejaVuSans-20" transform="translate(762.544922 0)"/>
      <use xlink:href="#DejaVuSans-74" transform="translate(794.332031 0)"/>
      <use xlink:href="#DejaVuSans-72" transform="translate(833.541016 0)"/>
      <use xlink:href="#DejaVuSans-61" transform="translate(874.654297 0)"/>
      <use xlink:href="#DejaVuSans-69" transform="translate(935.933594 0)"/>
      <use xlink:href="#DejaVuSans-6e" transform="translate(963.716797 0)"/>
     </g>
    </g>
    <g id="line2d_60">
     <path d="M 305.713571 68.024375 
L 313.713571 68.024375 
L 321.713571 68.024375 
" style="fill: none; stroke-dasharray: 7.4,3.2; stroke-dashoffset: 0; stroke: #d62728; stroke-width: 2"/>
    </g>
    <g id="text_21">
     <!-- dropout p=0.3: val -->
     <g transform="translate(328.113571 70.824375) scale(0.08 -0.08)">
      <use xlink:href="#DejaVuSans-64"/>
      <use xlink:href="#DejaVuSans-72" transform="translate(63.476562 0)"/>
      <use xlink:href="#DejaVuSans-6f" transform="translate(102.339844 0)"/>
      <use xlink:href="#DejaVuSans-70" transform="translate(163.521484 0)"/>
      <use xlink:href="#DejaVuSans-6f" transform="translate(226.998047 0)"/>
      <use xlink:href="#DejaVuSans-75" transform="translate(288.179688 0)"/>
      <use xlink:href="#DejaVuSans-74" transform="translate(351.558594 0)"/>
      <use xlink:href="#DejaVuSans-20" transform="translate(390.767578 0)"/>
      <use xlink:href="#DejaVuSans-70" transform="translate(422.554688 0)"/>
      <use xlink:href="#DejaVuSans-3d" transform="translate(486.03125 0)"/>
      <use xlink:href="#DejaVuSans-30" transform="translate(569.820312 0)"/>
      <use xlink:href="#DejaVuSans-2e" transform="translate(633.443359 0)"/>
      <use xlink:href="#DejaVuSans-33" transform="translate(665.230469 0)"/>
      <use xlink:href="#DejaVuSans-3a" transform="translate(728.853516 0)"/>
      <use xlink:href="#DejaVuSans-20" transform="translate(762.544922 0)"/>
      <use xlink:href="#DejaVuSans-76" transform="translate(794.332031 0)"/>
      <use xlink:href="#DejaVuSans-61" transform="translate(853.511719 0)"/>
      <use xlink:href="#DejaVuSans-6c" transform="translate(914.791016 0)"/>
     </g>
    </g>
   </g>
  </g>
 </g>
 <defs>
  <clipPath id="p1a3086d54c">
   <rect x="51.378125" y="22.318125" width="366.102946" height="219.88"/>
  </clipPath>
 </defs>
</svg>
