<?xml version="1.0" encoding="utf-8" standalone="no"?>
<!DOCTYPE svg PUBLIC "-//W3C//DTD SVG 1.1//EN"
  "http://www.w3.org/Graphics/SVG/1.1/DTD/svg11.dtd">
<svg xmlns:xlink="http://www.w3.org/1999/xlink" width="424.681071pt" height="279.754375pt" viewBox="0 0 424.681071 279.754375" xmlns="http://www.w3.org/2000/svg" version="1.1">
 <metadata>
  <rdf:RDF xmlns:dc="http://purl.org/dc/elements/1.1/" xmlns:cc="http://creativecommons.org/ns#" xmlns:rdf="http://www.w3.org/1999/02/22-rdf-syntax-ns#">
   <cc:Work>
    <dc:type rdf:resource="http://purl.org/dc/dcmitype/StillImage"/>
    <dc:date>2026-05-13T21:32:06.393808</dc:date>
    <dc:format>image/svg+xml</dc:format>
    <dc:creator>
     <cc:Agent>
      <dc:title>Matplotlib v3.10.9, https://matplotlib.org/</dc:title>
     </cc:Agent>
    </dc:creator>
   </cc:Work>
  </rdf:RDF>
 </metadata>
 <defs>
  <style type="text/css">*{stroke-linejoin: round; stroke-linecap: butt}</style>
 </defs>
 <g id="figure_1">
  <g id="patch_1">
   <path d="M 0 279.754375 
L 424.681071 279.754375 
L 424.681071 0 
L 0 0 
z
" style="fill: #ffffff"/>
  </g>
  <g id="axes_1">
   <g id="patch_2">
    <path d="M 51.378125 242.198125 
L 417.481071 242.198125 
L 417.481071 22.318125 
L 51.378125 22.318125 
z
" style="fill: #ffffff"/>
   </g>
   <g id="matplotlib.axis_1">
    <g id="xtick_1">
     <g id="line2d_1">
      <defs>
       <path id="m8a37bfc9d2" d="M 0 0 
L 0 3.5 
" style="stroke: #000000; stroke-width: 0.8"/>
      </defs>
      <g>
       <use xlink:href="#m8a37bfc9d2" x="68.019168" y="242.198125" style="stroke: #000000; stroke-width: 0.8"/>
      </g>
     </g>
     <g id="text_1">
      <!-- 0 -->
      <g transform="translate(64.837918 256.796563) scale(0.1 -0.1)">
       <defs>
        <path id="DejaVuSans-30" d="M 2034 4250 
Q 1547 4250 1301 3770 
Q 1056 3291 1056 2328 
Q 1056 1369 1301 889 
Q 1547 409 2034 409 
Q 2525 409 2770 889 
Q 3016 1369 3016 2328 
Q 3016 3291 2770 3770 
Q 2525 4250 2034 4250 
z
M 2034 4750 
Q 2819 4750 3233 4129 
Q 3647 3509 3647 2328 
Q 3647 1150 3233 529 
Q 2819 -91 2034 -91 
Q 1250 -91 836 529 
Q 422 1150 422 2328 
Q 422 3509 836 4129 
Q 1250 4750 2034 4750 
z
" transform="scale(0.015625)"/>
       </defs>
       <use xlink:href="#DejaVuSans-30"/>
      </g>
     </g>
    </g>
    <g id="xtick_2">
     <g id="line2d_2">
      <g>
       <use xlink:href="#m8a37bfc9d2" x="109.830834" y="242.198125" style="stroke: #000000; stroke-width: 0.8"/>
      </g>
     </g>
     <g id="text_2">
      <!-- 25 -->
      <g transform="translate(103.468334 256.796563) scale(0.1 -0.1)">
       <defs>
        <path id="DejaVuSans-32" d="M 1228 531 
L 3431 531 
L 3431 0 
L 469 0 
L 469 531 
Q 828 903 1448 1529 
Q 2069 2156 2228 2338 
Q 2531 2678 2651 2914 
Q 2772 3150 2772 3378 
Q 2772 3750 2511 3984 
Q 2250 4219 1831 4219 
Q 1534 4219 1204 4116 
Q 875 4013 500 3803 
L 500 4441 
Q 881 4594 1212 4672 
Q 1544 4750 1819 4750 
Q 2544 4750 2975 4387 
Q 3406 4025 3406 3419 
Q 3406 3131 3298 2873 
Q 3191 2616 2906 2266 
Q 2828 2175 2409 1742 
Q 1991 1309 1228 531 
z
" transform="scale(0.015625)"/>
        <path id="DejaVuSans-35" d="M 691 4666 
L 3169 4666 
L 3169 4134 
L 1269 4134 
L 1269 2991 
Q 1406 3038 1543 3061 
Q 1681 3084 1819 3084 
Q 2600 3084 3056 2656 
Q 3513 2228 3513 1497 
Q 3513 744 3044 326 
Q 2575 -91 1722 -91 
Q 1428 -91 1123 -41 
Q 819 9 494 109 
L 494 744 
Q 775 591 1075 516 
Q 1375 441 1709 441 
Q 2250 441 2565 725 
Q 2881 1009 2881 1497 
Q 2881 1984 2565 2268 
Q 2250 2553 1709 2553 
Q 1456 2553 1204 2497 
Q 953 2441 691 2322 
L 691 4666 
z
" transform="scale(0.015625)"/>
       </defs>
       <use xlink:href="#DejaVuSans-32"/>
       <use xlink:href="#DejaVuSans-35" transform="translate(63.623047 0)"/>
      </g>
     </g>
    </g>
    <g id="xtick_3">
     <g id="line2d_3">
      <g>
       <use xlink:href="#m8a37bfc9d2" x="151.6425" y="242.198125" style="stroke: #000000; stroke-width: 0.8"/>
      </g>
     </g>
     <g id="text_3">
      <!-- 50 -->
      <g transform="translate(145.28 256.796563) scale(0.1 -0.1)">
       <use xlink:href="#DejaVuSans-35"/>
       <use xlink:href="#DejaVuSans-30" transform="translate(63.623047 0)"/>
      </g>
     </g>
    </g>
    <g id="xtick_4">
     <g id="line2d_4">
      <g>
       <use xlink:href="#m8a37bfc9d2" x="193.454166" y="242.198125" style="stroke: #000000; stroke-width: 0.8"/>
      </g>
     </g>
     <g id="text_4">
      <!-- 75 -->
      <g transform="translate(187.091666 256.796563) scale(0.1 -0.1)">
       <defs>
        <path id="DejaVuSans-37" d="M 525 4666 
L 3525 4666 
L 3525 4397 
L 1831 0 
L 1172 0 
L 2766 4134 
L 525 4134 
L 525 4666 
z
" transform="scale(0.015625)"/>
       </defs>
       <use xlink:href="#DejaVuSans-37"/>
       <use xlink:href="#DejaVuSans-35" transform="translate(63.623047 0)"/>
      </g>
     </g>
    </g>
    <g id="xtick_5">
     <g id="line2d_5">
      <g>
       <use xlink:href="#m8a37bfc9d2" x="235.265831" y="242.198125" style="stroke: #000000; stroke-width: 0.8"/>
      </g>
     </g>
     <g id="text_5">
      <!-- 100 -->
      <g transform="translate(225.722081 256.796563) scale(0.1 -0.1)">
       <defs>
        <path id="DejaVuSans-31" d="M 794 531 
L 1825 531 
L 1825 4091 
L 703 3866 
L 703 4441 
L 1819 4666 
L 2450 4666 
L 2450 531 
L 3481 531 
L 3481 0 
L 794 0 
L 794 531 
z
" transform="scale(0.015625)"/>
       </defs>
       <use xlink:href="#DejaVuSans-31"/>
       <use xlink:href="#DejaVuSans-30" transform="translate(63.623047 0)"/>
       <use xlink:href="#DejaVuSans-30" transform="translate(127.246094 0)"/>
      </g>
     </g>
    </g>
    <g id="xtick_6">
     <g id="line2d_6">
      <g>
       <use xlink:href="#m8a37bfc9d2" x="277.077497" y="242.198125" style="stroke: #000000; stroke-width: 0.8"/>
      </g>
     </g>
     <g id="text_6">
      <!-- 125 -->
      <g transform="translate(267.533747 256.796563) scale(0.1 -0.1)">
       <use xlink:href="#DejaVuSans-31"/>
       <use xlink:href="#DejaVuSans-32" transform="translate(63.623047 0)"/>
       <use xlink:href="#DejaVuSans-35" transform="translate(127.246094 0)"/>
      </g>
     </g>
    </g>
    <g id="xtick_7">
     <g id="line2d_7">
      <g>
       <use xlink:href="#m8a37bfc9d2" x="318.889163" y="242.198125" style="stroke: #000000; stroke-width: 0.8"/>
      </g>
     </g>
     <g id="text_7">
      <!-- 150 -->
      <g transform="translate(309.345413 256.796563) scale(0.1 -0.1)">
       <use xlink:href="#DejaVuSans-31"/>
       <use xlink:href="#DejaVuSans-35" transform="translate(63.623047 0)"/>
       <use xlink:href="#DejaVuSans-30" transform="translate(127.246094 0)"/>
      </g>
     </g>
    </g>
    <g id="xtick_8">
     <g id="line2d_8">
      <g>
       <use xlink:href="#m8a37bfc9d2" x="360.700829" y="242.198125" style="stroke: #000000; stroke-width: 0.8"/>
      </g>
     </g>
     <g id="text_8">
      <!-- 175 -->
      <g transform="translate(351.157079 256.796563) scale(0.1 -0.1)">
       <use xlink:href="#DejaVuSans-31"/>
       <use xlink:href="#DejaVuSans-37" transform="translate(63.623047 0)"/>
       <use xlink:href="#DejaVuSans-35" transform="translate(127.246094 0)"/>
      </g>
     </g>
    </g>
    <g id="xtick_9">
     <g id="line2d_9">
      <g>
       <use xlink:href="#m8a37bfc9d2" x="402.512495" y="242.198125" style="stroke: #000000; stroke-width: 0.8"/>
      </g>
     </g>
     <g id="text_9">
      <!-- 200 -->
      <g transform="translate(392.968745 256.796563) scale(0.1 -0.1)">
       <use xlink:href="#DejaVuSans-32"/>
       <use xlink:href="#DejaVuSans-30" transform="translate(63.623047 0)"/>
       <use xlink:href="#DejaVuSans-30" transform="translate(127.246094 0)"/>
      </g>
     </g>
    </g>
    <g id="text_10">
     <!-- step -->
     <g transform="translate(223.613973 270.474688) scale(0.1 -0.1)">
      <defs>
       <path id="DejaVuSans-73" d="M 2834 3397 
L 2834 2853 
Q 2591 2978 2328 3040 
Q 2066 3103 1784 3103 
Q 1356 3103 1142 2972 
Q 928 2841 928 2578 
Q 928 2378 1081 2264 
Q 1234 2150 1697 2047 
L 1894 2003 
Q 2506 1872 2764 1633 
Q 3022 1394 3022 966 
Q 3022 478 2636 193 
Q 2250 -91 1575 -91 
Q 1294 -91 989 -36 
Q 684 19 347 128 
L 347 722 
Q 666 556 975 473 
Q 1284 391 1588 391 
Q 1994 391 2212 530 
Q 2431 669 2431 922 
Q 2431 1156 2273 1281 
Q 2116 1406 1581 1522 
L 1381 1569 
Q 847 1681 609 1914 
Q 372 2147 372 2553 
Q 372 3047 722 3315 
Q 1072 3584 1716 3584 
Q 2034 3584 2315 3537 
Q 2597 3491 2834 3397 
z
" transform="scale(0.015625)"/>
       <path id="DejaVuSans-74" d="M 1172 4494 
L 1172 3500 
L 2356 3500 
L 2356 3053 
L 1172 3053 
L 1172 1153 
Q 1172 725 1289 603 
Q 1406 481 1766 481 
L 2356 481 
L 2356 0 
L 1766 0 
Q 1100 0 847 248 
Q 594 497 594 1153 
L 594 3053 
L 172 3053 
L 172 3500 
L 594 3500 
L 594 4494 
L 1172 4494 
z
" transform="scale(0.015625)"/>
       <path id="DejaVuSans-65" d="M 3597 1894 
L 3597 1613 
L 953 1613 
Q 991 1019 1311 708 
Q 1631 397 2203 397 
Q 2534 397 2845 478 
Q 3156 559 3463 722 
L 3463 178 
Q 3153 47 2828 -22 
Q 2503 -91 2169 -91 
Q 1331 -91 842 396 
Q 353 884 353 1716 
Q 353 2575 817 3079 
Q 1281 3584 2069 3584 
Q 2775 3584 3186 3129 
Q 3597 2675 3597 1894 
z
M 3022 2063 
Q 3016 2534 2758 2815 
Q 2500 3097 2075 3097 
Q 1594 3097 1305 2825 
Q 1016 2553 972 2059 
L 3022 2063 
z
" transform="scale(0.015625)"/>
       <path id="DejaVuSans-70" d="M 1159 525 
L 1159 -1331 
L 581 -1331 
L 581 3500 
L 1159 3500 
L 1159 2969 
Q 1341 3281 1617 3432 
Q 1894 3584 2278 3584 
Q 2916 3584 3314 3078 
Q 3713 2572 3713 1747 
Q 3713 922 3314 415 
Q 2916 -91 2278 -91 
Q 1894 -91 1617 61 
Q 1341 213 1159 525 
z
M 3116 1747 
Q 3116 2381 2855 2742 
Q 2594 3103 2138 3103 
Q 1681 3103 1420 2742 
Q 1159 2381 1159 1747 
Q 1159 1113 1420 752 
Q 1681 391 2138 391 
Q 2594 391 2855 752 
Q 3116 1113 3116 1747 
z
" transform="scale(0.015625)"/>
      </defs>
      <use xlink:href="#DejaVuSans-73"/>
      <use xlink:href="#DejaVuSans-74" transform="translate(52.099609 0)"/>
      <use xlink:href="#DejaVuSans-65" transform="translate(91.308594 0)"/>
      <use xlink:href="#DejaVuSans-70" transform="translate(152.832031 0)"/>
     </g>
    </g>
   </g>
   <g id="matplotlib.axis_2">
    <g id="ytick_1">
     <g id="line2d_10">
      <defs>
       <path id="mb950333f6d" d="M 0 0 
L -3.5 0 
" style="stroke: #000000; stroke-width: 0.8"/>
      </defs>
      <g>
       <use xlink:href="#mb950333f6d" x="51.378125" y="216.429425" style="stroke: #000000; stroke-width: 0.8"/>
      </g>
     </g>
     <g id="text_11">
      <!-- $\mathdefault{10^{-2}}$ -->
      <g transform="translate(20.878125 220.228643) scale(0.1 -0.1)">
       <defs>
        <path id="DejaVuSans-2212" d="M 678 2272 
L 4684 2272 
L 4684 1741 
L 678 1741 
L 678 2272 
z
" transform="scale(0.015625)"/>
       </defs>
       <use xlink:href="#DejaVuSans-31" transform="translate(0 0.765625)"/>
       <use xlink:href="#DejaVuSans-30" transform="translate(63.623047 0.765625)"/>
       <use xlink:href="#DejaVuSans-2212" transform="translate(128.203125 39.046875) scale(0.7)"/>
       <use xlink:href="#DejaVuSans-32" transform="translate(186.855469 39.046875) scale(0.7)"/>
      </g>
     </g>
    </g>
    <g id="ytick_2">
     <g id="line2d_11">
      <g>
       <use xlink:href="#mb950333f6d" x="51.378125" y="160.867439" style="stroke: #000000; stroke-width: 0.8"/>
      </g>
     </g>
     <g id="text_12">
      <!-- $\mathdefault{10^{-1}}$ -->
      <g transform="translate(20.878125 164.666658) scale(0.1 -0.1)">
       <use xlink:href="#DejaVuSans-31" transform="translate(0 0.684375)"/>
       <use xlink:href="#DejaVuSans-30" transform="translate(63.623047 0.684375)"/>
       <use xlink:href="#DejaVuSans-2212" transform="translate(128.203125 38.965625) scale(0.7)"/>
       <use xlink:href="#DejaVuSans-31" transform="translate(186.855469 38.965625) scale(0.7)"/>
      </g>
     </g>
    </g>
    <g id="ytick_3">
     <g id="line2d_12">
      <g>
       <use xlink:href="#mb950333f6d" x="51.378125" y="105.305454" style="stroke: #000000; stroke-width: 0.8"/>
      </g>
     </g>
     <g id="text_13">
      <!-- $\mathdefault{10^{0}}$ -->
      <g transform="translate(26.778125 109.104673) scale(0.1 -0.1)">
       <use xlink:href="#DejaVuSans-31" transform="translate(0 0.765625)"/>
       <use xlink:href="#DejaVuSans-30" transform="translate(63.623047 0.765625)"/>
       <use xlink:href="#DejaVuSans-30" transform="translate(128.203125 39.046875) scale(0.7)"/>
      </g>
     </g>
    </g>
    <g id="ytick_4">
     <g id="line2d_13">
      <g>
       <use xlink:href="#mb950333f6d" x="51.378125" y="49.743469" style="stroke: #000000; stroke-width: 0.8"/>
      </g>
     </g>
     <g id="text_14">
      <!-- $\mathdefault{10^{1}}$ -->
      <g transform="translate(26.778125 53.542688) scale(0.1 -0.1)">
       <use xlink:href="#DejaVuSans-31" transform="translate(0 0.684375)"/>
       <use xlink:href="#DejaVuSans-30" transform="translate(63.623047 0.684375)"/>
       <use xlink:href="#DejaVuSans-31" transform="translate(128.203125 38.965625) scale(0.7)"/>
      </g>
     </g>
    </g>
    <g id="ytick_5">
     <g id="line2d_14">
      <defs>
       <path id="m16a20b7fad" d="M 0 0 
L -2 0 
" style="stroke: #000000; stroke-width: 0.6"/>
      </defs>
      <g>
       <use xlink:href="#m16a20b7fad" x="51.378125" y="238.539761" style="stroke: #000000; stroke-width: 0.6"/>
      </g>
     </g>
    </g>
    <g id="ytick_6">
     <g id="line2d_15">
      <g>
       <use xlink:href="#m16a20b7fad" x="51.378125" y="233.155249" style="stroke: #000000; stroke-width: 0.6"/>
      </g>
     </g>
    </g>
    <g id="ytick_7">
     <g id="line2d_16">
      <g>
       <use xlink:href="#m16a20b7fad" x="51.378125" y="228.755781" style="stroke: #000000; stroke-width: 0.6"/>
      </g>
     </g>
    </g>
    <g id="ytick_8">
     <g id="line2d_17">
      <g>
       <use xlink:href="#m16a20b7fad" x="51.378125" y="225.036085" style="stroke: #000000; stroke-width: 0.6"/>
      </g>
     </g>
    </g>
    <g id="ytick_9">
     <g id="line2d_18">
      <g>
       <use xlink:href="#m16a20b7fad" x="51.378125" y="221.813937" style="stroke: #000000; stroke-width: 0.6"/>
      </g>
     </g>
    </g>
    <g id="ytick_10">
     <g id="line2d_19">
      <g>
       <use xlink:href="#m16a20b7fad" x="51.378125" y="218.971802" style="stroke: #000000; stroke-width: 0.6"/>
      </g>
     </g>
    </g>
    <g id="ytick_11">
     <g id="line2d_20">
      <g>
       <use xlink:href="#m16a20b7fad" x="51.378125" y="199.7036" style="stroke: #000000; stroke-width: 0.6"/>
      </g>
     </g>
    </g>
    <g id="ytick_12">
     <g id="line2d_21">
      <g>
       <use xlink:href="#m16a20b7fad" x="51.378125" y="189.91962" style="stroke: #000000; stroke-width: 0.6"/>
      </g>
     </g>
    </g>
    <g id="ytick_13">
     <g id="line2d_22">
      <g>
       <use xlink:href="#m16a20b7fad" x="51.378125" y="182.977776" style="stroke: #000000; stroke-width: 0.6"/>
      </g>
     </g>
    </g>
    <g id="ytick_14">
     <g id="line2d_23">
      <g>
       <use xlink:href="#m16a20b7fad" x="51.378125" y="177.593264" style="stroke: #000000; stroke-width: 0.6"/>
      </g>
     </g>
    </g>
    <g id="ytick_15">
     <g id="line2d_24">
      <g>
       <use xlink:href="#m16a20b7fad" x="51.378125" y="173.193796" style="stroke: #000000; stroke-width: 0.6"/>
      </g>
     </g>
    </g>
    <g id="ytick_16">
     <g id="line2d_25">
      <g>
       <use xlink:href="#m16a20b7fad" x="51.378125" y="169.4741" style="stroke: #000000; stroke-width: 0.6"/>
      </g>
     </g>
    </g>
    <g id="ytick_17">
     <g id="line2d_26">
      <g>
       <use xlink:href="#m16a20b7fad" x="51.378125" y="166.251952" style="stroke: #000000; stroke-width: 0.6"/>
      </g>
     </g>
    </g>
    <g id="ytick_18">
     <g id="line2d_27">
      <g>
       <use xlink:href="#m16a20b7fad" x="51.378125" y="163.409816" style="stroke: #000000; stroke-width: 0.6"/>
      </g>
     </g>
    </g>
    <g id="ytick_19">
     <g id="line2d_28">
      <g>
       <use xlink:href="#m16a20b7fad" x="51.378125" y="144.141615" style="stroke: #000000; stroke-width: 0.6"/>
      </g>
     </g>
    </g>
    <g id="ytick_20">
     <g id="line2d_29">
      <g>
       <use xlink:href="#m16a20b7fad" x="51.378125" y="134.357635" style="stroke: #000000; stroke-width: 0.6"/>
      </g>
     </g>
    </g>
    <g id="ytick_21">
     <g id="line2d_30">
      <g>
       <use xlink:href="#m16a20b7fad" x="51.378125" y="127.415791" style="stroke: #000000; stroke-width: 0.6"/>
      </g>
     </g>
    </g>
    <g id="ytick_22">
     <g id="line2d_31">
      <g>
       <use xlink:href="#m16a20b7fad" x="51.378125" y="122.031278" style="stroke: #000000; stroke-width: 0.6"/>
      </g>
     </g>
    </g>
    <g id="ytick_23">
     <g id="line2d_32">
      <g>
       <use xlink:href="#m16a20b7fad" x="51.378125" y="117.631811" style="stroke: #000000; stroke-width: 0.6"/>
      </g>
     </g>
    </g>
    <g id="ytick_24">
     <g id="line2d_33">
      <g>
       <use xlink:href="#m16a20b7fad" x="51.378125" y="113.912115" style="stroke: #000000; stroke-width: 0.6"/>
      </g>
     </g>
    </g>
    <g id="ytick_25">
     <g id="line2d_34">
      <g>
       <use xlink:href="#m16a20b7fad" x="51.378125" y="110.689967" style="stroke: #000000; stroke-width: 0.6"/>
      </g>
     </g>
    </g>
    <g id="ytick_26">
     <g id="line2d_35">
      <g>
       <use xlink:href="#m16a20b7fad" x="51.378125" y="107.847831" style="stroke: #000000; stroke-width: 0.6"/>
      </g>
     </g>
    </g>
    <g id="ytick_27">
     <g id="line2d_36">
      <g>
       <use xlink:href="#m16a20b7fad" x="51.378125" y="88.57963" style="stroke: #000000; stroke-width: 0.6"/>
      </g>
     </g>
    </g>
    <g id="ytick_28">
     <g id="line2d_37">
      <g>
       <use xlink:href="#m16a20b7fad" x="51.378125" y="78.79565" style="stroke: #000000; stroke-width: 0.6"/>
      </g>
     </g>
    </g>
    <g id="ytick_29">
     <g id="line2d_38">
      <g>
       <use xlink:href="#m16a20b7fad" x="51.378125" y="71.853806" style="stroke: #000000; stroke-width: 0.6"/>
      </g>
     </g>
    </g>
    <g id="ytick_30">
     <g id="line2d_39">
      <g>
       <use xlink:href="#m16a20b7fad" x="51.378125" y="66.469293" style="stroke: #000000; stroke-width: 0.6"/>
      </g>
     </g>
    </g>
    <g id="ytick_31">
     <g id="line2d_40">
      <g>
       <use xlink:href="#m16a20b7fad" x="51.378125" y="62.069826" style="stroke: #000000; stroke-width: 0.6"/>
      </g>
     </g>
    </g>
    <g id="ytick_32">
     <g id="line2d_41">
      <g>
       <use xlink:href="#m16a20b7fad" x="51.378125" y="58.35013" style="stroke: #000000; stroke-width: 0.6"/>
      </g>
     </g>
    </g>
    <g id="ytick_33">
     <g id="line2d_42">
      <g>
       <use xlink:href="#m16a20b7fad" x="51.378125" y="55.127982" style="stroke: #000000; stroke-width: 0.6"/>
      </g>
     </g>
    </g>
    <g id="ytick_34">
     <g id="line2d_43">
      <g>
       <use xlink:href="#m16a20b7fad" x="51.378125" y="52.285846" style="stroke: #000000; stroke-width: 0.6"/>
      </g>
     </g>
    </g>
    <g id="ytick_35">
     <g id="line2d_44">
      <g>
       <use xlink:href="#m16a20b7fad" x="51.378125" y="33.017645" style="stroke: #000000; stroke-width: 0.6"/>
      </g>
     </g>
    </g>
    <g id="ytick_36">
     <g id="line2d_45">
      <g>
       <use xlink:href="#m16a20b7fad" x="51.378125" y="23.233665" style="stroke: #000000; stroke-width: 0.6"/>
      </g>
     </g>
    </g>
    <g id="text_15">
     <!-- training loss (MSE) -->
     <g transform="translate(14.798438 179.012812) rotate(-90) scale(0.1 -0.1)">
      <defs>
       <path id="DejaVuSans-72" d="M 2631 2963 
Q 2534 3019 2420 3045 
Q 2306 3072 2169 3072 
Q 1681 3072 1420 2755 
Q 1159 2438 1159 1844 
L 1159 0 
L 581 0 
L 581 3500 
L 1159 3500 
L 1159 2956 
Q 1341 3275 1631 3429 
Q 1922 3584 2338 3584 
Q 2397 3584 2469 3576 
Q 2541 3569 2628 3553 
L 2631 2963 
z
" transform="scale(0.015625)"/>
       <path id="DejaVuSans-61" d="M 2194 1759 
Q 1497 1759 1228 1600 
Q 959 1441 959 1056 
Q 959 750 1161 570 
Q 1363 391 1709 391 
Q 2188 391 2477 730 
Q 2766 1069 2766 1631 
L 2766 1759 
L 2194 1759 
z
M 3341 1997 
L 3341 0 
L 2766 0 
L 2766 531 
Q 2569 213 2275 61 
Q 1981 -91 1556 -91 
Q 1019 -91 701 211 
Q 384 513 384 1019 
Q 384 1609 779 1909 
Q 1175 2209 1959 2209 
L 2766 2209 
L 2766 2266 
Q 2766 2663 2505 2880 
Q 2244 3097 1772 3097 
Q 1472 3097 1187 3025 
Q 903 2953 641 2809 
L 641 3341 
Q 956 3463 1253 3523 
Q 1550 3584 1831 3584 
Q 2591 3584 2966 3190 
Q 3341 2797 3341 1997 
z
" transform="scale(0.015625)"/>
       <path id="DejaVuSans-69" d="M 603 3500 
L 1178 3500 
L 1178 0 
L 603 0 
L 603 3500 
z
M 603 4863 
L 1178 4863 
L 1178 4134 
L 603 4134 
L 603 4863 
z
" transform="scale(0.015625)"/>
       <path id="DejaVuSans-6e" d="M 3513 2113 
L 3513 0 
L 2938 0 
L 2938 2094 
Q 2938 2591 2744 2837 
Q 2550 3084 2163 3084 
Q 1697 3084 1428 2787 
Q 1159 2491 1159 1978 
L 1159 0 
L 581 0 
L 581 3500 
L 1159 3500 
L 1159 2956 
Q 1366 3272 1645 3428 
Q 1925 3584 2291 3584 
Q 2894 3584 3203 3211 
Q 3513 2838 3513 2113 
z
" transform="scale(0.015625)"/>
       <path id="DejaVuSans-67" d="M 2906 1791 
Q 2906 2416 2648 2759 
Q 2391 3103 1925 3103 
Q 1463 3103 1205 2759 
Q 947 2416 947 1791 
Q 947 1169 1205 825 
Q 1463 481 1925 481 
Q 2391 481 2648 825 
Q 2906 1169 2906 1791 
z
M 3481 434 
Q 3481 -459 3084 -895 
Q 2688 -1331 1869 -1331 
Q 1566 -1331 1297 -1286 
Q 1028 -1241 775 -1147 
L 775 -588 
Q 1028 -725 1275 -790 
Q 1522 -856 1778 -856 
Q 2344 -856 2625 -561 
Q 2906 -266 2906 331 
L 2906 616 
Q 2728 306 2450 153 
Q 2172 0 1784 0 
Q 1141 0 747 490 
Q 353 981 353 1791 
Q 353 2603 747 3093 
Q 1141 3584 1784 3584 
Q 2172 3584 2450 3431 
Q 2728 3278 2906 2969 
L 2906 3500 
L 3481 3500 
L 3481 434 
z
" transform="scale(0.015625)"/>
       <path id="DejaVuSans-20" transform="scale(0.015625)"/>
       <path id="DejaVuSans-6c" d="M 603 4863 
L 1178 4863 
L 1178 0 
L 603 0 
L 603 4863 
z
" transform="scale(0.015625)"/>
       <path id="DejaVuSans-6f" d="M 1959 3097 
Q 1497 3097 1228 2736 
Q 959 2375 959 1747 
Q 959 1119 1226 758 
Q 1494 397 1959 397 
Q 2419 397 2687 759 
Q 2956 1122 2956 1747 
Q 2956 2369 2687 2733 
Q 2419 3097 1959 3097 
z
M 1959 3584 
Q 2709 3584 3137 3096 
Q 3566 2609 3566 1747 
Q 3566 888 3137 398 
Q 2709 -91 1959 -91 
Q 1206 -91 779 398 
Q 353 888 353 1747 
Q 353 2609 779 3096 
Q 1206 3584 1959 3584 
z
" transform="scale(0.015625)"/>
       <path id="DejaVuSans-28" d="M 1984 4856 
Q 1566 4138 1362 3434 
Q 1159 2731 1159 2009 
Q 1159 1288 1364 580 
Q 1569 -128 1984 -844 
L 1484 -844 
Q 1016 -109 783 600 
Q 550 1309 550 2009 
Q 550 2706 781 3412 
Q 1013 4119 1484 4856 
L 1984 4856 
z
" transform="scale(0.015625)"/>
       <path id="DejaVuSans-4d" d="M 628 4666 
L 1569 4666 
L 2759 1491 
L 3956 4666 
L 4897 4666 
L 4897 0 
L 4281 0 
L 4281 4097 
L 3078 897 
L 2444 897 
L 1241 4097 
L 1241 0 
L 628 0 
L 628 4666 
z
" transform="scale(0.015625)"/>
       <path id="DejaVuSans-53" d="M 3425 4513 
L 3425 3897 
Q 3066 4069 2747 4153 
Q 2428 4238 2131 4238 
Q 1616 4238 1336 4038 
Q 1056 3838 1056 3469 
Q 1056 3159 1242 3001 
Q 1428 2844 1947 2747 
L 2328 2669 
Q 3034 2534 3370 2195 
Q 3706 1856 3706 1288 
Q 3706 609 3251 259 
Q 2797 -91 1919 -91 
Q 1588 -91 1214 -16 
Q 841 59 441 206 
L 441 856 
Q 825 641 1194 531 
Q 1563 422 1919 422 
Q 2459 422 2753 634 
Q 3047 847 3047 1241 
Q 3047 1584 2836 1778 
Q 2625 1972 2144 2069 
L 1759 2144 
Q 1053 2284 737 2584 
Q 422 2884 422 3419 
Q 422 4038 858 4394 
Q 1294 4750 2059 4750 
Q 2388 4750 2728 4690 
Q 3069 4631 3425 4513 
z
" transform="scale(0.015625)"/>
       <path id="DejaVuSans-45" d="M 628 4666 
L 3578 4666 
L 3578 4134 
L 1259 4134 
L 1259 2753 
L 3481 2753 
L 3481 2222 
L 1259 2222 
L 1259 531 
L 3634 531 
L 3634 0 
L 628 0 
L 628 4666 
z
" transform="scale(0.015625)"/>
       <path id="DejaVuSans-29" d="M 513 4856 
L 1013 4856 
Q 1481 4119 1714 3412 
Q 1947 2706 1947 2009 
Q 1947 1309 1714 600 
Q 1481 -109 1013 -844 
L 513 -844 
Q 928 -128 1133 580 
Q 1338 1288 1338 2009 
Q 1338 2731 1133 3434 
Q 928 4138 513 4856 
z
" transform="scale(0.015625)"/>
      </defs>
      <use xlink:href="#DejaVuSans-74"/>
      <use xlink:href="#DejaVuSans-72" transform="translate(39.208984 0)"/>
      <use xlink:href="#DejaVuSans-61" transform="translate(80.322266 0)"/>
      <use xlink:href="#DejaVuSans-69" transform="translate(141.601562 0)"/>
      <use xlink:href="#DejaVuSans-6e" transform="translate(169.384766 0)"/>
      <use xlink:href="#DejaVuSans-69" transform="translate(232.763672 0)"/>
      <use xlink:href="#DejaVuSans-6e" transform="translate(260.546875 0)"/>
      <use xlink:href="#DejaVuSans-67" transform="translate(323.925781 0)"/>
      <use xlink:href="#DejaVuSans-20" transform="translate(387.402344 0)"/>
      <use xlink:href="#DejaVuSans-6c" transform="translate(419.189453 0)"/>
      <use xlink:href="#DejaVuSans-6f" transform="translate(446.972656 0)"/>
      <use xlink:href="#DejaVuSans-73" transform="translate(508.154297 0)"/>
      <use xlink:href="#DejaVuSans-73" transform="translate(560.253906 0)"/>
      <use xlink:href="#DejaVuSans-20" transform="translate(612.353516 0)"/>
      <use xlink:href="#DejaVuSans-28" transform="translate(644.140625 0)"/>
      <use xlink:href="#DejaVuSans-4d" transform="translate(683.154297 0)"/>
      <use xlink:href="#DejaVuSans-53" transform="translate(769.433594 0)"/>
      <use xlink:href="#DejaVuSans-45" transform="translate(832.910156 0)"/>
      <use xlink:href="#DejaVuSans-29" transform="translate(896.09375 0)"/>
     </g>
    </g>
   </g>
   <g id="line2d_46">
    <path d="M 68.019168 36.810052 
L 69.691635 37.511201 
L 71.364101 41.026935 
L 73.036568 58.89569 
L 74.709035 54.680228 
L 76.381501 76.761877 
L 78.053968 79.852521 
L 79.726434 64.623233 
L 81.398901 72.397383 
L 84.743834 99.367323 
L 86.416301 85.896438 
L 88.088768 84.410561 
L 89.761234 98.261924 
L 91.433701 101.595127 
L 93.106168 125.053299 
L 94.778634 137.43276 
L 96.451101 134.226693 
L 98.123567 141.575225 
L 99.796034 146.537064 
L 101.468501 150.511474 
L 103.140967 170.510148 
L 104.813434 153.11255 
L 106.485901 164.407994 
L 108.158367 172.790464 
L 109.830834 182.96201 
L 111.5033 183.098569 
L 113.175767 175.432427 
L 114.848234 181.011293 
L 116.5207 188.740084 
L 119.865634 197.383014 
L 121.5381 218.20732 
L 123.210567 198.723698 
L 124.883034 209.54401 
L 126.5555 205.753012 
L 128.227967 198.698253 
L 129.900433 220.007132 
L 131.5729 207.106407 
L 133.245367 208.357716 
L 134.917833 212.378054 
L 136.5903 217.080681 
L 138.262767 213.752513 
L 139.935233 203.938542 
L 141.6077 207.345233 
L 143.280167 217.485916 
L 144.952633 219.022833 
L 146.6251 213.045633 
L 148.297566 214.30241 
L 149.970033 214.803116 
L 151.6425 225.679871 
L 153.314966 218.213282 
L 154.987433 217.827964 
L 156.6599 217.847986 
L 160.004833 222.262356 
L 161.677299 220.791036 
L 163.349766 215.242361 
L 165.022233 217.253544 
L 166.694699 200.617047 
L 168.367166 215.104866 
L 170.039633 221.353282 
L 171.712099 221.976304 
L 173.384566 218.479291 
L 175.057033 210.437076 
L 176.729499 220.228944 
L 178.401966 220.167145 
L 180.074432 223.738742 
L 181.746899 207.544808 
L 183.419366 211.324327 
L 185.091832 220.959587 
L 186.764299 213.736763 
L 188.436766 221.65833 
L 190.109232 214.726602 
L 191.781699 214.785938 
L 193.454166 226.519545 
L 195.126632 215.614844 
L 196.799099 215.472341 
L 198.471565 216.049057 
L 200.144032 213.597674 
L 201.816499 216.365289 
L 203.488965 226.639625 
L 205.161432 212.288219 
L 206.833899 209.880857 
L 208.506365 212.281055 
L 210.178832 205.906645 
L 211.851298 217.302456 
L 213.523765 230.666984 
L 215.196232 207.452433 
L 216.868698 205.546857 
L 218.541165 224.163511 
L 220.213632 215.973323 
L 221.886098 220.512337 
L 223.558565 219.654957 
L 225.231032 227.927298 
L 226.903498 223.879106 
L 228.575965 218.007394 
L 230.248431 209.295994 
L 231.920898 217.731976 
L 233.593365 212.335006 
L 235.265831 223.72367 
L 236.938298 216.298419 
L 238.610765 219.051862 
L 240.283231 220.029932 
L 241.955698 214.968011 
L 243.628165 211.217871 
L 245.300631 217.269211 
L 246.973098 211.604466 
L 248.645564 219.552155 
L 250.318031 214.797456 
L 251.990498 219.181932 
L 253.662964 214.747187 
L 255.335431 217.444333 
L 257.007898 218.709419 
L 258.680364 218.522256 
L 260.352831 224.80347 
L 262.025298 219.920643 
L 263.697764 204.850524 
L 265.370231 213.871486 
L 267.042697 215.513342 
L 268.715164 206.307829 
L 270.387631 215.737619 
L 272.060097 208.853054 
L 273.732564 207.824358 
L 275.405031 214.200685 
L 277.077497 222.743498 
L 278.749964 220.084855 
L 280.42243 221.93441 
L 282.094897 214.684129 
L 283.767364 205.364157 
L 285.43983 210.56551 
L 287.112297 224.183696 
L 288.784764 201.680371 
L 290.45723 210.13544 
L 292.129697 212.79235 
L 293.802164 216.115404 
L 295.47463 213.379828 
L 297.147097 214.970456 
L 298.819563 207.058756 
L 300.49203 216.020248 
L 302.164497 213.446693 
L 303.836963 209.833035 
L 305.50943 205.005264 
L 307.181897 222.320981 
L 308.854363 215.226268 
L 310.52683 218.708146 
L 312.199297 221.876527 
L 313.871763 212.4098 
L 315.54423 208.049384 
L 317.216696 222.324715 
L 318.889163 224.221904 
L 320.56163 219.343191 
L 322.234096 229.818813 
L 323.906563 222.915977 
L 325.57903 227.412366 
L 327.251496 217.312858 
L 328.923963 216.366539 
L 330.596429 220.772959 
L 332.268896 221.273525 
L 333.941363 214.634417 
L 335.613829 223.32533 
L 337.286296 215.214491 
L 338.958763 211.947902 
L 340.631229 219.434762 
L 342.303696 223.20713 
L 343.976163 219.275732 
L 345.648629 212.187742 
L 347.321096 213.225268 
L 348.993562 209.138397 
L 350.666029 216.757626 
L 352.338496 212.733394 
L 354.010962 231.732637 
L 357.355896 212.20888 
L 359.028362 216.691511 
L 360.700829 211.460255 
L 362.373296 212.503458 
L 364.045762 220.756252 
L 365.718229 223.440681 
L 367.390695 221.701082 
L 369.063162 205.836359 
L 370.735629 223.68188 
L 372.408095 216.104893 
L 374.080562 211.474901 
L 375.753029 222.967608 
L 377.425495 228.680429 
L 379.097962 211.997853 
L 380.770428 216.740626 
L 382.442895 223.497164 
L 384.115362 223.424505 
L 385.787828 229.162785 
L 387.460295 225.449243 
L 389.132762 225.274272 
L 390.805228 215.316989 
L 392.477695 208.431532 
L 394.150162 212.909166 
L 395.822628 210.406582 
L 397.495095 213.905837 
L 399.167561 215.952984 
L 400.840028 232.20358 
L 400.840028 232.20358 
" clip-path="url(#p54aaab03ce)" style="fill: none; stroke: #1f77b4; stroke-width: 2; stroke-linecap: square"/>
   </g>
   <g id="line2d_47">
    <path d="M 68.019168 36.986065 
L 69.691635 42.65763 
L 71.364101 49.182723 
L 73.036568 62.809401 
L 74.709035 106.632115 
L 76.381501 102.379974 
L 78.053968 64.059778 
L 79.726434 62.279679 
L 81.398901 62.539356 
L 83.071368 59.790186 
L 84.743834 92.834547 
L 86.416301 84.606225 
L 88.088768 103.60824 
L 89.761234 107.76553 
L 91.433701 95.626263 
L 93.106168 92.757326 
L 94.778634 90.387483 
L 96.451101 99.249664 
L 98.123567 96.318335 
L 99.796034 101.564036 
L 101.468501 124.482619 
L 103.140967 137.153245 
L 104.813434 129.14672 
L 106.485901 108.956077 
L 108.158367 106.439085 
L 109.830834 112.509408 
L 111.5033 109.972875 
L 113.175767 131.582207 
L 114.848234 132.649322 
L 116.5207 127.702852 
L 118.193167 153.360883 
L 119.865634 146.908395 
L 121.5381 130.946911 
L 123.210567 127.830285 
L 124.883034 140.478803 
L 126.5555 132.942492 
L 128.227967 149.111307 
L 129.900433 140.783659 
L 131.5729 153.575193 
L 133.245367 172.25803 
L 134.917833 170.311409 
L 136.5903 158.886692 
L 138.262767 149.835049 
L 139.935233 129.798708 
L 141.6077 158.724137 
L 143.280167 158.062069 
L 144.952633 168.800665 
L 146.6251 181.387831 
L 148.297566 188.208266 
L 149.970033 171.022877 
L 151.6425 174.640619 
L 153.314966 160.802858 
L 154.987433 163.822045 
L 156.6599 183.066746 
L 158.332366 172.386147 
L 160.004833 185.552339 
L 161.677299 193.665623 
L 163.349766 199.941276 
L 165.022233 209.668659 
L 166.694699 185.790798 
L 168.367166 195.489242 
L 170.039633 174.230679 
L 171.712099 187.536307 
L 173.384566 178.631816 
L 175.057033 196.217412 
L 176.729499 207.255429 
L 178.401966 222.176534 
L 180.074432 201.116752 
L 181.746899 202.975614 
L 183.419366 219.11661 
L 186.764299 200.327327 
L 188.436766 198.300995 
L 190.109232 197.345286 
L 191.781699 216.251785 
L 193.454166 196.299161 
L 195.126632 224.337349 
L 196.799099 216.491892 
L 198.471565 212.002569 
L 200.144032 205.76486 
L 201.816499 200.105304 
L 203.488965 205.962616 
L 205.161432 204.819921 
L 206.833899 208.487367 
L 208.506365 209.811511 
L 210.178832 206.212671 
L 211.851298 210.732756 
L 213.523765 211.32303 
L 215.196232 217.676911 
L 216.868698 213.787049 
L 218.541165 220.756394 
L 220.213632 222.620244 
L 221.886098 209.420856 
L 223.558565 205.159766 
L 225.231032 208.587304 
L 226.903498 212.374229 
L 228.575965 211.267483 
L 230.248431 214.039012 
L 231.920898 213.575453 
L 233.593365 202.807724 
L 235.265831 210.70253 
L 236.938298 207.222794 
L 238.610765 216.687702 
L 240.283231 215.719103 
L 241.955698 199.80308 
L 243.628165 204.863101 
L 245.300631 205.103445 
L 246.973098 213.554449 
L 250.318031 221.282422 
L 251.990498 206.036911 
L 253.662964 222.292422 
L 255.335431 218.26726 
L 257.007898 209.278385 
L 258.680364 209.080791 
L 260.352831 213.089756 
L 262.025298 213.868392 
L 263.697764 222.469612 
L 265.370231 206.514421 
L 267.042697 216.498318 
L 268.715164 215.601201 
L 270.387631 221.185744 
L 272.060097 215.133409 
L 273.732564 211.192268 
L 275.405031 213.890061 
L 277.077497 215.049521 
L 278.749964 201.116151 
L 280.42243 209.790174 
L 282.094897 224.495175 
L 283.767364 206.422294 
L 285.43983 211.179253 
L 287.112297 224.876255 
L 288.784764 215.421138 
L 290.45723 217.965704 
L 292.129697 222.695595 
L 293.802164 216.796936 
L 295.47463 203.507915 
L 297.147097 211.998547 
L 298.819563 212.680498 
L 300.49203 206.212528 
L 302.164497 218.05917 
L 303.836963 207.247643 
L 305.50943 206.765149 
L 307.181897 218.575237 
L 308.854363 223.99201 
L 310.52683 206.725224 
L 312.199297 212.320641 
L 313.871763 213.556748 
L 315.54423 213.131954 
L 317.216696 226.922152 
L 318.889163 215.086329 
L 320.56163 221.715339 
L 322.234096 217.104714 
L 323.906563 215.504799 
L 325.57903 216.895529 
L 327.251496 205.948646 
L 328.923963 207.407187 
L 330.596429 215.667712 
L 332.268896 210.068749 
L 333.941363 229.659837 
L 335.613829 221.709534 
L 337.286296 223.217263 
L 338.958763 217.111846 
L 340.631229 215.895681 
L 342.303696 216.692112 
L 343.976163 214.510131 
L 345.648629 215.678975 
L 347.321096 217.285449 
L 348.993562 218.087024 
L 350.666029 219.255798 
L 352.338496 217.139574 
L 354.010962 215.775842 
L 355.683429 216.793085 
L 357.355896 209.150712 
L 359.028362 212.423455 
L 360.700829 210.757956 
L 362.373296 221.030579 
L 364.045762 212.570783 
L 365.718229 208.604919 
L 367.390695 201.356133 
L 369.063162 229.037241 
L 370.735629 208.663217 
L 372.408095 222.765006 
L 374.080562 205.685178 
L 375.753029 219.585089 
L 377.425495 218.48191 
L 379.097962 219.640244 
L 380.770428 216.934893 
L 382.442895 216.886588 
L 384.115362 209.046035 
L 385.787828 205.89648 
L 387.460295 203.023559 
L 389.132762 215.420636 
L 390.805228 219.497877 
L 392.477695 213.343192 
L 394.150162 229.569116 
L 395.822628 220.606302 
L 397.495095 209.230143 
L 399.167561 221.240294 
L 400.840028 213.028483 
L 400.840028 213.028483 
" clip-path="url(#p54aaab03ce)" style="fill: none; stroke: #ff7f0e; stroke-width: 2; stroke-linecap: square"/>
   </g>
   <g id="line2d_48">
    <path d="M 68.019168 44.972637 
L 69.691635 32.31267 
L 71.364101 48.969634 
L 73.036568 38.342079 
L 74.709035 37.919442 
L 76.381501 45.499777 
L 78.053968 43.191679 
L 79.726434 44.444069 
L 81.398901 54.322283 
L 83.071368 52.679753 
L 84.743834 51.457152 
L 86.416301 70.90771 
L 88.088768 57.70255 
L 89.761234 66.310189 
L 91.433701 55.995721 
L 94.778634 89.845053 
L 96.451101 70.333197 
L 99.796034 99.801059 
L 101.468501 95.690234 
L 103.140967 86.946978 
L 104.813434 96.009286 
L 106.485901 98.301703 
L 108.158367 110.75797 
L 109.830834 113.461018 
L 111.5033 135.235949 
L 113.175767 133.74297 
L 114.848234 136.396757 
L 116.5207 139.976266 
L 118.193167 158.763308 
L 119.865634 154.978427 
L 121.5381 168.289423 
L 123.210567 176.057384 
L 124.883034 171.628667 
L 126.5555 190.460866 
L 128.227967 193.824267 
L 129.900433 184.047275 
L 131.5729 185.625718 
L 133.245367 181.773767 
L 134.917833 171.353873 
L 136.5903 172.086737 
L 138.262767 169.904238 
L 139.935233 168.556331 
L 141.6077 169.470512 
L 143.280167 153.800734 
L 144.952633 151.627752 
L 146.6251 175.751775 
L 148.297566 164.005499 
L 149.970033 153.594105 
L 151.6425 161.275838 
L 153.314966 154.926773 
L 154.987433 162.228146 
L 156.6599 170.954283 
L 158.332366 169.001309 
L 160.004833 163.924414 
L 161.677299 172.269367 
L 163.349766 172.939287 
L 165.022233 195.112345 
L 166.694699 167.265027 
L 168.367166 174.837141 
L 170.039633 184.174397 
L 171.712099 183.791916 
L 173.384566 189.477516 
L 175.057033 184.475517 
L 176.729499 188.012987 
L 178.401966 205.113046 
L 180.074432 208.479136 
L 181.746899 206.765467 
L 183.419366 224.520919 
L 185.091832 205.588392 
L 186.764299 216.797295 
L 188.436766 218.556109 
L 190.109232 215.17128 
L 191.781699 214.882878 
L 193.454166 210.440081 
L 195.126632 217.476662 
L 196.799099 210.603019 
L 198.471565 209.255536 
L 200.144032 219.811263 
L 201.816499 207.064334 
L 203.488965 218.029891 
L 205.161432 211.437239 
L 206.833899 211.565039 
L 208.506365 213.235333 
L 210.178832 205.92868 
L 211.851298 205.751825 
L 213.523765 211.68924 
L 215.196232 200.505606 
L 216.868698 213.59025 
L 218.541165 208.837577 
L 220.213632 214.470984 
L 221.886098 206.770179 
L 223.558565 215.749112 
L 225.231032 213.224977 
L 226.903498 222.69277 
L 228.575965 222.023512 
L 230.248431 209.821173 
L 231.920898 221.565954 
L 233.593365 213.550419 
L 235.265831 204.645084 
L 236.938298 212.424147 
L 238.610765 205.117444 
L 240.283231 200.079155 
L 241.955698 208.074049 
L 243.628165 207.005556 
L 245.300631 225.202906 
L 246.973098 216.610641 
L 248.645564 216.418227 
L 250.318031 206.909007 
L 251.990498 223.713171 
L 253.662964 210.236287 
L 255.335431 207.455029 
L 257.007898 208.083072 
L 258.680364 224.147335 
L 260.352831 209.789688 
L 262.025298 224.487593 
L 263.697764 220.002502 
L 265.370231 220.041312 
L 267.042697 213.688782 
L 268.715164 214.529771 
L 270.387631 210.440792 
L 272.060097 226.659844 
L 273.732564 217.80549 
L 275.405031 213.269993 
L 277.077497 209.519029 
L 278.749964 225.14933 
L 280.42243 220.027667 
L 282.094897 215.279902 
L 283.767364 204.695283 
L 285.43983 221.101885 
L 287.112297 216.872438 
L 288.784764 212.185275 
L 290.45723 218.563839 
L 292.129697 215.599129 
L 293.802164 220.118496 
L 295.47463 214.722697 
L 297.147097 210.850537 
L 298.819563 217.313115 
L 300.49203 209.006272 
L 302.164497 213.287842 
L 303.836963 222.407757 
L 305.50943 220.765671 
L 307.181897 219.606709 
L 308.854363 212.235479 
L 310.52683 207.447834 
L 313.871763 208.76551 
L 315.54423 215.656267 
L 317.216696 215.59375 
L 318.889163 220.641166 
L 320.56163 208.551489 
L 322.234096 210.216204 
L 323.906563 202.26469 
L 325.57903 215.390336 
L 327.251496 214.56374 
L 328.923963 208.39003 
L 330.596429 212.1005 
L 332.268896 223.444786 
L 333.941363 200.193101 
L 335.613829 219.746977 
L 337.286296 216.16941 
L 338.958763 211.614403 
L 340.631229 215.581987 
L 342.303696 223.175057 
L 343.976163 208.445976 
L 345.648629 225.581592 
L 347.321096 208.642612 
L 348.993562 230.884704 
L 350.666029 215.212241 
L 352.338496 216.83161 
L 354.010962 200.478586 
L 355.683429 217.366307 
L 357.355896 210.546011 
L 359.028362 216.677403 
L 360.700829 219.614327 
L 362.373296 217.626941 
L 364.045762 212.536522 
L 365.718229 221.445946 
L 367.390695 208.411475 
L 369.063162 218.355146 
L 370.735629 219.244882 
L 372.408095 209.75832 
L 374.080562 228.830224 
L 375.753029 217.34361 
L 377.425495 212.618667 
L 379.097962 215.168991 
L 380.770428 214.46714 
L 382.442895 215.186296 
L 384.115362 210.676606 
L 385.787828 219.88842 
L 387.460295 215.095809 
L 389.132762 216.497468 
L 390.805228 214.247214 
L 392.477695 223.700651 
L 394.150162 220.704775 
L 395.822628 213.144405 
L 399.167561 224.308042 
L 400.840028 210.141671 
L 400.840028 210.141671 
" clip-path="url(#p54aaab03ce)" style="fill: none; stroke: #2ca02c; stroke-width: 2; stroke-linecap: square"/>
   </g>
   <g id="patch_3">
    <path d="M 51.378125 242.198125 
L 51.378125 22.318125 
" style="fill: none; stroke: #000000; stroke-width: 0.8; stroke-linejoin: miter; stroke-linecap: square"/>
   </g>
   <g id="patch_4">
    <path d="M 417.481071 242.198125 
L 417.481071 22.318125 
" style="fill: none; stroke: #000000; stroke-width: 0.8; stroke-linejoin: miter; stroke-linecap: square"/>
   </g>
   <g id="patch_5">
    <path d="M 51.378125 242.198125 
L 417.481071 242.198125 
" style="fill: none; stroke: #000000; stroke-width: 0.8; stroke-linejoin: miter; stroke-linecap: square"/>
   </g>
   <g id="patch_6">
    <path d="M 51.378125 22.318125 
L 417.481071 22.318125 
" style="fill: none; stroke: #000000; stroke-width: 0.8; stroke-linejoin: miter; stroke-linecap: square"/>
   </g>
   <g id="text_16">
    <!-- SGD, momentum, and Adam on a small regression -->
    <g transform="translate(82.338973 16.318125) scale(0.12 -0.12)">
     <defs>
      <path id="DejaVuSans-47" d="M 3809 666 
L 3809 1919 
L 2778 1919 
L 2778 2438 
L 4434 2438 
L 4434 434 
Q 4069 175 3628 42 
Q 3188 -91 2688 -91 
Q 1594 -91 976 548 
Q 359 1188 359 2328 
Q 359 3472 976 4111 
Q 1594 4750 2688 4750 
Q 3144 4750 3555 4637 
Q 3966 4525 4313 4306 
L 4313 3634 
Q 3963 3931 3569 4081 
Q 3175 4231 2741 4231 
Q 1884 4231 1454 3753 
Q 1025 3275 1025 2328 
Q 1025 1384 1454 906 
Q 1884 428 2741 428 
Q 3075 428 3337 486 
Q 3600 544 3809 666 
z
" transform="scale(0.015625)"/>
      <path id="DejaVuSans-44" d="M 1259 4147 
L 1259 519 
L 2022 519 
Q 2988 519 3436 956 
Q 3884 1394 3884 2338 
Q 3884 3275 3436 3711 
Q 2988 4147 2022 4147 
L 1259 4147 
z
M 628 4666 
L 1925 4666 
Q 3281 4666 3915 4102 
Q 4550 3538 4550 2338 
Q 4550 1131 3912 565 
Q 3275 0 1925 0 
L 628 0 
L 628 4666 
z
" transform="scale(0.015625)"/>
      <path id="DejaVuSans-2c" d="M 750 794 
L 1409 794 
L 1409 256 
L 897 -744 
L 494 -744 
L 750 256 
L 750 794 
z
" transform="scale(0.015625)"/>
      <path id="DejaVuSans-6d" d="M 3328 2828 
Q 3544 3216 3844 3400 
Q 4144 3584 4550 3584 
Q 5097 3584 5394 3201 
Q 5691 2819 5691 2113 
L 5691 0 
L 5113 0 
L 5113 2094 
Q 5113 2597 4934 2840 
Q 4756 3084 4391 3084 
Q 3944 3084 3684 2787 
Q 3425 2491 3425 1978 
L 3425 0 
L 2847 0 
L 2847 2094 
Q 2847 2600 2669 2842 
Q 2491 3084 2119 3084 
Q 1678 3084 1418 2786 
Q 1159 2488 1159 1978 
L 1159 0 
L 581 0 
L 581 3500 
L 1159 3500 
L 1159 2956 
Q 1356 3278 1631 3431 
Q 1906 3584 2284 3584 
Q 2666 3584 2933 3390 
Q 3200 3197 3328 2828 
z
" transform="scale(0.015625)"/>
      <path id="DejaVuSans-75" d="M 544 1381 
L 544 3500 
L 1119 3500 
L 1119 1403 
Q 1119 906 1312 657 
Q 1506 409 1894 409 
Q 2359 409 2629 706 
Q 2900 1003 2900 1516 
L 2900 3500 
L 3475 3500 
L 3475 0 
L 2900 0 
L 2900 538 
Q 2691 219 2414 64 
Q 2138 -91 1772 -91 
Q 1169 -91 856 284 
Q 544 659 544 1381 
z
M 1991 3584 
L 1991 3584 
z
" transform="scale(0.015625)"/>
      <path id="DejaVuSans-64" d="M 2906 2969 
L 2906 4863 
L 3481 4863 
L 3481 0 
L 2906 0 
L 2906 525 
Q 2725 213 2448 61 
Q 2172 -91 1784 -91 
Q 1150 -91 751 415 
Q 353 922 353 1747 
Q 353 2572 751 3078 
Q 1150 3584 1784 3584 
Q 2172 3584 2448 3432 
Q 2725 3281 2906 2969 
z
M 947 1747 
Q 947 1113 1208 752 
Q 1469 391 1925 391 
Q 2381 391 2643 752 
Q 2906 1113 2906 1747 
Q 2906 2381 2643 2742 
Q 2381 3103 1925 3103 
Q 1469 3103 1208 2742 
Q 947 2381 947 1747 
z
" transform="scale(0.015625)"/>
      <path id="DejaVuSans-41" d="M 2188 4044 
L 1331 1722 
L 3047 1722 
L 2188 4044 
z
M 1831 4666 
L 2547 4666 
L 4325 0 
L 3669 0 
L 3244 1197 
L 1141 1197 
L 716 0 
L 50 0 
L 1831 4666 
z
" transform="scale(0.015625)"/>
     </defs>
     <use xlink:href="#DejaVuSans-53"/>
     <use xlink:href="#DejaVuSans-47" transform="translate(63.476562 0)"/>
     <use xlink:href="#DejaVuSans-44" transform="translate(140.966797 0)"/>
     <use xlink:href="#DejaVuSans-2c" transform="translate(217.96875 0)"/>
     <use xlink:href="#DejaVuSans-20" transform="translate(249.755859 0)"/>
     <use xlink:href="#DejaVuSans-6d" transform="translate(281.542969 0)"/>
     <use xlink:href="#DejaVuSans-6f" transform="translate(378.955078 0)"/>
     <use xlink:href="#DejaVuSans-6d" transform="translate(440.136719 0)"/>
     <use xlink:href="#DejaVuSans-65" transform="translate(537.548828 0)"/>
     <use xlink:href="#DejaVuSans-6e" transform="translate(599.072266 0)"/>
     <use xlink:href="#DejaVuSans-74" transform="translate(662.451172 0)"/>
     <use xlink:href="#DejaVuSans-75" transform="translate(701.660156 0)"/>
     <use xlink:href="#DejaVuSans-6d" transform="translate(765.039062 0)"/>
     <use xlink:href="#DejaVuSans-2c" transform="translate(862.451172 0)"/>
     <use xlink:href="#DejaVuSans-20" transform="translate(894.238281 0)"/>
     <use xlink:href="#DejaVuSans-61" transform="translate(926.025391 0)"/>
     <use xlink:href="#DejaVuSans-6e" transform="translate(987.304688 0)"/>
     <use xlink:href="#DejaVuSans-64" transform="translate(1050.683594 0)"/>
     <use xlink:href="#DejaVuSans-20" transform="translate(1114.160156 0)"/>
     <use xlink:href="#DejaVuSans-41" transform="translate(1145.947266 0)"/>
     <use xlink:href="#DejaVuSans-64" transform="translate(1212.605469 0)"/>
     <use xlink:href="#DejaVuSans-61" transform="translate(1276.082031 0)"/>
     <use xlink:href="#DejaVuSans-6d" transform="translate(1337.361328 0)"/>
     <use xlink:href="#DejaVuSans-20" transform="translate(1434.773438 0)"/>
     <use xlink:href="#DejaVuSans-6f" transform="translate(1466.560547 0)"/>
     <use xlink:href="#DejaVuSans-6e" transform="translate(1527.742188 0)"/>
     <use xlink:href="#DejaVuSans-20" transform="translate(1591.121094 0)"/>
     <use xlink:href="#DejaVuSans-61" transform="translate(1622.908203 0)"/>
     <use xlink:href="#DejaVuSans-20" transform="translate(1684.1875 0)"/>
     <use xlink:href="#DejaVuSans-73" transform="translate(1715.974609 0)"/>
     <use xlink:href="#DejaVuSans-6d" transform="translate(1768.074219 0)"/>
     <use xlink:href="#DejaVuSans-61" transform="translate(1865.486328 0)"/>
     <use xlink:href="#DejaVuSans-6c" transform="translate(1926.765625 0)"/>
     <use xlink:href="#DejaVuSans-6c" transform="translate(1954.548828 0)"/>
     <use xlink:href="#DejaVuSans-20" transform="translate(1982.332031 0)"/>
     <use xlink:href="#DejaVuSans-72" transform="translate(2014.119141 0)"/>
     <use xlink:href="#DejaVuSans-65" transform="translate(2052.982422 0)"/>
     <use xlink:href="#DejaVuSans-67" transform="translate(2114.505859 0)"/>
     <use xlink:href="#DejaVuSans-72" transform="translate(2177.982422 0)"/>
     <use xlink:href="#DejaVuSans-65" transform="translate(2216.845703 0)"/>
     <use xlink:href="#DejaVuSans-73" transform="translate(2278.369141 0)"/>
     <use xlink:href="#DejaVuSans-73" transform="translate(2330.46875 0)"/>
     <use xlink:href="#DejaVuSans-69" transform="translate(2382.568359 0)"/>
     <use xlink:href="#DejaVuSans-6f" transform="translate(2410.351562 0)"/>
     <use xlink:href="#DejaVuSans-6e" transform="translate(2471.533203 0)"/>
    </g>
   </g>
   <g id="legend_1">
    <g id="patch_7">
     <path d="M 320.392009 74.3525 
L 410.481071 74.3525 
Q 412.481071 74.3525 412.481071 72.3525 
L 412.481071 29.318125 
Q 412.481071 27.318125 410.481071 27.318125 
L 320.392009 27.318125 
Q 318.392009 27.318125 318.392009 29.318125 
L 318.392009 72.3525 
Q 318.392009 74.3525 320.392009 74.3525 
z
" style="fill: #ffffff; opacity: 0.8; stroke: #cccccc; stroke-linejoin: miter"/>
    </g>
    <g id="line2d_49">
     <path d="M 322.392009 35.416563 
L 332.392009 35.416563 
L 342.392009 35.416563 
" style="fill: none; stroke: #1f77b4; stroke-width: 2; stroke-linecap: square"/>
    </g>
    <g id="text_17">
     <!-- sgd -->
     <g transform="translate(350.392009 38.916563) scale(0.1 -0.1)">
      <use xlink:href="#DejaVuSans-73"/>
      <use xlink:href="#DejaVuSans-67" transform="translate(52.099609 0)"/>
      <use xlink:href="#DejaVuSans-64" transform="translate(115.576172 0)"/>
     </g>
    </g>
    <g id="line2d_50">
     <path d="M 322.392009 50.094688 
L 332.392009 50.094688 
L 342.392009 50.094688 
" style="fill: none; stroke: #ff7f0e; stroke-width: 2; stroke-linecap: square"/>
    </g>
    <g id="text_18">
     <!-- momentum -->
     <g transform="translate(350.392009 53.594688) scale(0.1 -0.1)">
      <use xlink:href="#DejaVuSans-6d"/>
      <use xlink:href="#DejaVuSans-6f" transform="translate(97.412109 0)"/>
      <use xlink:href="#DejaVuSans-6d" transform="translate(158.59375 0)"/>
      <use xlink:href="#DejaVuSans-65" transform="translate(256.005859 0)"/>
      <use xlink:href="#DejaVuSans-6e" transform="translate(317.529297 0)"/>
      <use xlink:href="#DejaVuSans-74" transform="translate(380.908203 0)"/>
      <use xlink:href="#DejaVuSans-75" transform="translate(420.117188 0)"/>
      <use xlink:href="#DejaVuSans-6d" transform="translate(483.496094 0)"/>
     </g>
    </g>
    <g id="line2d_51">
     <path d="M 322.392009 64.772813 
L 332.392009 64.772813 
L 342.392009 64.772813 
" style="fill: none; stroke: #2ca02c; stroke-width: 2; stroke-linecap: square"/>
    </g>
    <g id="text_19">
     <!-- adam -->
     <g transform="translate(350.392009 68.272813) scale(0.1 -0.1)">
      <use xlink:href="#DejaVuSans-61"/>
      <use xlink:href="#DejaVuSans-64" transform="translate(61.279297 0)"/>
      <use xlink:href="#DejaVuSans-61" transform="translate(124.755859 0)"/>
      <use xlink:href="#DejaVuSans-6d" transform="translate(186.035156 0)"/>
     </g>
    </g>
   </g>
  </g>
 </g>
 <defs>
  <clipPath id="p54aaab03ce">
   <rect x="51.378125" y="22.318125" width="366.102946" height="219.88"/>
  </clipPath>
 </defs>
</svg>
