<?xml version="1.0" encoding="utf-8" standalone="no"?>
<!DOCTYPE svg PUBLIC "-//W3C//DTD SVG 1.1//EN"
  "http://www.w3.org/Graphics/SVG/1.1/DTD/svg11.dtd">
<svg xmlns:xlink="http://www.w3.org/1999/xlink" width="502.790148pt" height="293.56825pt" viewBox="0 0 502.790148 293.56825" xmlns="http://www.w3.org/2000/svg" version="1.1">
 <metadata>
  <rdf:RDF xmlns:dc="http://purl.org/dc/elements/1.1/" xmlns:cc="http://creativecommons.org/ns#" xmlns:rdf="http://www.w3.org/1999/02/22-rdf-syntax-ns#">
   <cc:Work>
    <dc:type rdf:resource="http://purl.org/dc/dcmitype/StillImage"/>
    <dc:date>2026-05-13T21:33:03.966839</dc:date>
    <dc:format>image/svg+xml</dc:format>
    <dc:creator>
     <cc:Agent>
      <dc:title>Matplotlib v3.10.9, https://matplotlib.org/</dc:title>
     </cc:Agent>
    </dc:creator>
   </cc:Work>
  </rdf:RDF>
 </metadata>
 <defs>
  <style type="text/css">*{stroke-linejoin: round; stroke-linecap: butt}</style>
 </defs>
 <g id="figure_1">
  <g id="patch_1">
   <path d="M 0 293.56825 
L 502.790148 293.56825 
L 502.790148 0 
L 0 0 
z
" style="fill: #ffffff"/>
  </g>
  <g id="axes_1">
   <g id="patch_2">
    <path d="M 52.160938 256.012 
L 484.939359 256.012 
L 484.939359 22.56 
L 52.160938 22.56 
z
" style="fill: #ffffff"/>
   </g>
   <g id="patch_3">
    <path d="M 202.97766 256.012 
L 334.122637 256.012 
L 334.122637 22.56 
L 202.97766 22.56 
z
" clip-path="url(#pb73e260b9b)" style="fill: #2ca02c; opacity: 0.08; stroke: #2ca02c; stroke-linejoin: miter"/>
   </g>
   <g id="matplotlib.axis_1">
    <g id="xtick_1">
     <g id="line2d_1">
      <defs>
       <path id="ma39b817ab9" d="M 0 0 
L 0 3.5 
" style="stroke: #000000; stroke-width: 0.8"/>
      </defs>
      <g>
       <use xlink:href="#ma39b817ab9" x="59.826436" y="256.012" style="stroke: #000000; stroke-width: 0.8"/>
      </g>
     </g>
     <g id="text_1">
      <!-- −10.0 -->
      <g transform="translate(44.50378 270.610437) scale(0.1 -0.1)">
       <defs>
        <path id="DejaVuSans-2212" d="M 678 2272 
L 4684 2272 
L 4684 1741 
L 678 1741 
L 678 2272 
z
" transform="scale(0.015625)"/>
        <path id="DejaVuSans-31" d="M 794 531 
L 1825 531 
L 1825 4091 
L 703 3866 
L 703 4441 
L 1819 4666 
L 2450 4666 
L 2450 531 
L 3481 531 
L 3481 0 
L 794 0 
L 794 531 
z
" transform="scale(0.015625)"/>
        <path id="DejaVuSans-30" d="M 2034 4250 
Q 1547 4250 1301 3770 
Q 1056 3291 1056 2328 
Q 1056 1369 1301 889 
Q 1547 409 2034 409 
Q 2525 409 2770 889 
Q 3016 1369 3016 2328 
Q 3016 3291 2770 3770 
Q 2525 4250 2034 4250 
z
M 2034 4750 
Q 2819 4750 3233 4129 
Q 3647 3509 3647 2328 
Q 3647 1150 3233 529 
Q 2819 -91 2034 -91 
Q 1250 -91 836 529 
Q 422 1150 422 2328 
Q 422 3509 836 4129 
Q 1250 4750 2034 4750 
z
" transform="scale(0.015625)"/>
        <path id="DejaVuSans-2e" d="M 684 794 
L 1344 794 
L 1344 0 
L 684 0 
L 684 794 
z
" transform="scale(0.015625)"/>
       </defs>
       <use xlink:href="#DejaVuSans-2212"/>
       <use xlink:href="#DejaVuSans-31" transform="translate(83.789062 0)"/>
       <use xlink:href="#DejaVuSans-30" transform="translate(147.412109 0)"/>
       <use xlink:href="#DejaVuSans-2e" transform="translate(211.035156 0)"/>
       <use xlink:href="#DejaVuSans-30" transform="translate(242.822266 0)"/>
      </g>
     </g>
    </g>
    <g id="xtick_2">
     <g id="line2d_2">
      <g>
       <use xlink:href="#ma39b817ab9" x="112.007364" y="256.012" style="stroke: #000000; stroke-width: 0.8"/>
      </g>
     </g>
     <g id="text_2">
      <!-- −7.5 -->
      <g transform="translate(99.865958 270.610437) scale(0.1 -0.1)">
       <defs>
        <path id="DejaVuSans-37" d="M 525 4666 
L 3525 4666 
L 3525 4397 
L 1831 0 
L 1172 0 
L 2766 4134 
L 525 4134 
L 525 4666 
z
" transform="scale(0.015625)"/>
        <path id="DejaVuSans-35" d="M 691 4666 
L 3169 4666 
L 3169 4134 
L 1269 4134 
L 1269 2991 
Q 1406 3038 1543 3061 
Q 1681 3084 1819 3084 
Q 2600 3084 3056 2656 
Q 3513 2228 3513 1497 
Q 3513 744 3044 326 
Q 2575 -91 1722 -91 
Q 1428 -91 1123 -41 
Q 819 9 494 109 
L 494 744 
Q 775 591 1075 516 
Q 1375 441 1709 441 
Q 2250 441 2565 725 
Q 2881 1009 2881 1497 
Q 2881 1984 2565 2268 
Q 2250 2553 1709 2553 
Q 1456 2553 1204 2497 
Q 953 2441 691 2322 
L 691 4666 
z
" transform="scale(0.015625)"/>
       </defs>
       <use xlink:href="#DejaVuSans-2212"/>
       <use xlink:href="#DejaVuSans-37" transform="translate(83.789062 0)"/>
       <use xlink:href="#DejaVuSans-2e" transform="translate(147.412109 0)"/>
       <use xlink:href="#DejaVuSans-35" transform="translate(179.199219 0)"/>
      </g>
     </g>
    </g>
    <g id="xtick_3">
     <g id="line2d_3">
      <g>
       <use xlink:href="#ma39b817ab9" x="164.188292" y="256.012" style="stroke: #000000; stroke-width: 0.8"/>
      </g>
     </g>
     <g id="text_3">
      <!-- −5.0 -->
      <g transform="translate(152.046886 270.610437) scale(0.1 -0.1)">
       <use xlink:href="#DejaVuSans-2212"/>
       <use xlink:href="#DejaVuSans-35" transform="translate(83.789062 0)"/>
       <use xlink:href="#DejaVuSans-2e" transform="translate(147.412109 0)"/>
       <use xlink:href="#DejaVuSans-30" transform="translate(179.199219 0)"/>
      </g>
     </g>
    </g>
    <g id="xtick_4">
     <g id="line2d_4">
      <g>
       <use xlink:href="#ma39b817ab9" x="216.36922" y="256.012" style="stroke: #000000; stroke-width: 0.8"/>
      </g>
     </g>
     <g id="text_4">
      <!-- −2.5 -->
      <g transform="translate(204.227814 270.610437) scale(0.1 -0.1)">
       <defs>
        <path id="DejaVuSans-32" d="M 1228 531 
L 3431 531 
L 3431 0 
L 469 0 
L 469 531 
Q 828 903 1448 1529 
Q 2069 2156 2228 2338 
Q 2531 2678 2651 2914 
Q 2772 3150 2772 3378 
Q 2772 3750 2511 3984 
Q 2250 4219 1831 4219 
Q 1534 4219 1204 4116 
Q 875 4013 500 3803 
L 500 4441 
Q 881 4594 1212 4672 
Q 1544 4750 1819 4750 
Q 2544 4750 2975 4387 
Q 3406 4025 3406 3419 
Q 3406 3131 3298 2873 
Q 3191 2616 2906 2266 
Q 2828 2175 2409 1742 
Q 1991 1309 1228 531 
z
" transform="scale(0.015625)"/>
       </defs>
       <use xlink:href="#DejaVuSans-2212"/>
       <use xlink:href="#DejaVuSans-32" transform="translate(83.789062 0)"/>
       <use xlink:href="#DejaVuSans-2e" transform="translate(147.412109 0)"/>
       <use xlink:href="#DejaVuSans-35" transform="translate(179.199219 0)"/>
      </g>
     </g>
    </g>
    <g id="xtick_5">
     <g id="line2d_5">
      <g>
       <use xlink:href="#ma39b817ab9" x="268.550148" y="256.012" style="stroke: #000000; stroke-width: 0.8"/>
      </g>
     </g>
     <g id="text_5">
      <!-- 0.0 -->
      <g transform="translate(260.598586 270.610437) scale(0.1 -0.1)">
       <use xlink:href="#DejaVuSans-30"/>
       <use xlink:href="#DejaVuSans-2e" transform="translate(63.623047 0)"/>
       <use xlink:href="#DejaVuSans-30" transform="translate(95.410156 0)"/>
      </g>
     </g>
    </g>
    <g id="xtick_6">
     <g id="line2d_6">
      <g>
       <use xlink:href="#ma39b817ab9" x="320.731077" y="256.012" style="stroke: #000000; stroke-width: 0.8"/>
      </g>
     </g>
     <g id="text_6">
      <!-- 2.5 -->
      <g transform="translate(312.779514 270.610437) scale(0.1 -0.1)">
       <use xlink:href="#DejaVuSans-32"/>
       <use xlink:href="#DejaVuSans-2e" transform="translate(63.623047 0)"/>
       <use xlink:href="#DejaVuSans-35" transform="translate(95.410156 0)"/>
      </g>
     </g>
    </g>
    <g id="xtick_7">
     <g id="line2d_7">
      <g>
       <use xlink:href="#ma39b817ab9" x="372.912005" y="256.012" style="stroke: #000000; stroke-width: 0.8"/>
      </g>
     </g>
     <g id="text_7">
      <!-- 5.0 -->
      <g transform="translate(364.960442 270.610437) scale(0.1 -0.1)">
       <use xlink:href="#DejaVuSans-35"/>
       <use xlink:href="#DejaVuSans-2e" transform="translate(63.623047 0)"/>
       <use xlink:href="#DejaVuSans-30" transform="translate(95.410156 0)"/>
      </g>
     </g>
    </g>
    <g id="xtick_8">
     <g id="line2d_8">
      <g>
       <use xlink:href="#ma39b817ab9" x="425.092933" y="256.012" style="stroke: #000000; stroke-width: 0.8"/>
      </g>
     </g>
     <g id="text_8">
      <!-- 7.5 -->
      <g transform="translate(417.14137 270.610437) scale(0.1 -0.1)">
       <use xlink:href="#DejaVuSans-37"/>
       <use xlink:href="#DejaVuSans-2e" transform="translate(63.623047 0)"/>
       <use xlink:href="#DejaVuSans-35" transform="translate(95.410156 0)"/>
      </g>
     </g>
    </g>
    <g id="xtick_9">
     <g id="line2d_9">
      <g>
       <use xlink:href="#ma39b817ab9" x="477.273861" y="256.012" style="stroke: #000000; stroke-width: 0.8"/>
      </g>
     </g>
     <g id="text_9">
      <!-- 10.0 -->
      <g transform="translate(466.141048 270.610437) scale(0.1 -0.1)">
       <use xlink:href="#DejaVuSans-31"/>
       <use xlink:href="#DejaVuSans-30" transform="translate(63.623047 0)"/>
       <use xlink:href="#DejaVuSans-2e" transform="translate(127.246094 0)"/>
       <use xlink:href="#DejaVuSans-30" transform="translate(159.033203 0)"/>
      </g>
     </g>
    </g>
    <g id="text_10">
     <!-- x -->
     <g transform="translate(265.590773 284.288562) scale(0.1 -0.1)">
      <defs>
       <path id="DejaVuSans-78" d="M 3513 3500 
L 2247 1797 
L 3578 0 
L 2900 0 
L 1881 1375 
L 863 0 
L 184 0 
L 1544 1831 
L 300 3500 
L 978 3500 
L 1906 2253 
L 2834 3500 
L 3513 3500 
z
" transform="scale(0.015625)"/>
      </defs>
      <use xlink:href="#DejaVuSans-78"/>
     </g>
    </g>
   </g>
   <g id="matplotlib.axis_2">
    <g id="ytick_1">
     <g id="line2d_10">
      <defs>
       <path id="m1502945e8f" d="M 0 0 
L -3.5 0 
" style="stroke: #000000; stroke-width: 0.8"/>
      </defs>
      <g>
       <use xlink:href="#m1502945e8f" x="52.160938" y="256.012" style="stroke: #000000; stroke-width: 0.8"/>
      </g>
     </g>
     <g id="text_11">
      <!-- −2.0 -->
      <g transform="translate(20.878125 259.811219) scale(0.1 -0.1)">
       <use xlink:href="#DejaVuSans-2212"/>
       <use xlink:href="#DejaVuSans-32" transform="translate(83.789062 0)"/>
       <use xlink:href="#DejaVuSans-2e" transform="translate(147.412109 0)"/>
       <use xlink:href="#DejaVuSans-30" transform="translate(179.199219 0)"/>
      </g>
     </g>
    </g>
    <g id="ytick_2">
     <g id="line2d_11">
      <g>
       <use xlink:href="#m1502945e8f" x="52.160938" y="226.8305" style="stroke: #000000; stroke-width: 0.8"/>
      </g>
     </g>
     <g id="text_12">
      <!-- −1.5 -->
      <g transform="translate(20.878125 230.629719) scale(0.1 -0.1)">
       <use xlink:href="#DejaVuSans-2212"/>
       <use xlink:href="#DejaVuSans-31" transform="translate(83.789062 0)"/>
       <use xlink:href="#DejaVuSans-2e" transform="translate(147.412109 0)"/>
       <use xlink:href="#DejaVuSans-35" transform="translate(179.199219 0)"/>
      </g>
     </g>
    </g>
    <g id="ytick_3">
     <g id="line2d_12">
      <g>
       <use xlink:href="#m1502945e8f" x="52.160938" y="197.649" style="stroke: #000000; stroke-width: 0.8"/>
      </g>
     </g>
     <g id="text_13">
      <!-- −1.0 -->
      <g transform="translate(20.878125 201.448219) scale(0.1 -0.1)">
       <use xlink:href="#DejaVuSans-2212"/>
       <use xlink:href="#DejaVuSans-31" transform="translate(83.789062 0)"/>
       <use xlink:href="#DejaVuSans-2e" transform="translate(147.412109 0)"/>
       <use xlink:href="#DejaVuSans-30" transform="translate(179.199219 0)"/>
      </g>
     </g>
    </g>
    <g id="ytick_4">
     <g id="line2d_13">
      <g>
       <use xlink:href="#m1502945e8f" x="52.160938" y="168.4675" style="stroke: #000000; stroke-width: 0.8"/>
      </g>
     </g>
     <g id="text_14">
      <!-- −0.5 -->
      <g transform="translate(20.878125 172.266719) scale(0.1 -0.1)">
       <use xlink:href="#DejaVuSans-2212"/>
       <use xlink:href="#DejaVuSans-30" transform="translate(83.789062 0)"/>
       <use xlink:href="#DejaVuSans-2e" transform="translate(147.412109 0)"/>
       <use xlink:href="#DejaVuSans-35" transform="translate(179.199219 0)"/>
      </g>
     </g>
    </g>
    <g id="ytick_5">
     <g id="line2d_14">
      <g>
       <use xlink:href="#m1502945e8f" x="52.160938" y="139.286" style="stroke: #000000; stroke-width: 0.8"/>
      </g>
     </g>
     <g id="text_15">
      <!-- 0.0 -->
      <g transform="translate(29.257812 143.085219) scale(0.1 -0.1)">
       <use xlink:href="#DejaVuSans-30"/>
       <use xlink:href="#DejaVuSans-2e" transform="translate(63.623047 0)"/>
       <use xlink:href="#DejaVuSans-30" transform="translate(95.410156 0)"/>
      </g>
     </g>
    </g>
    <g id="ytick_6">
     <g id="line2d_15">
      <g>
       <use xlink:href="#m1502945e8f" x="52.160938" y="110.1045" style="stroke: #000000; stroke-width: 0.8"/>
      </g>
     </g>
     <g id="text_16">
      <!-- 0.5 -->
      <g transform="translate(29.257812 113.903719) scale(0.1 -0.1)">
       <use xlink:href="#DejaVuSans-30"/>
       <use xlink:href="#DejaVuSans-2e" transform="translate(63.623047 0)"/>
       <use xlink:href="#DejaVuSans-35" transform="translate(95.410156 0)"/>
      </g>
     </g>
    </g>
    <g id="ytick_7">
     <g id="line2d_16">
      <g>
       <use xlink:href="#m1502945e8f" x="52.160938" y="80.923" style="stroke: #000000; stroke-width: 0.8"/>
      </g>
     </g>
     <g id="text_17">
      <!-- 1.0 -->
      <g transform="translate(29.257812 84.722219) scale(0.1 -0.1)">
       <use xlink:href="#DejaVuSans-31"/>
       <use xlink:href="#DejaVuSans-2e" transform="translate(63.623047 0)"/>
       <use xlink:href="#DejaVuSans-30" transform="translate(95.410156 0)"/>
      </g>
     </g>
    </g>
    <g id="ytick_8">
     <g id="line2d_17">
      <g>
       <use xlink:href="#m1502945e8f" x="52.160938" y="51.7415" style="stroke: #000000; stroke-width: 0.8"/>
      </g>
     </g>
     <g id="text_18">
      <!-- 1.5 -->
      <g transform="translate(29.257812 55.540719) scale(0.1 -0.1)">
       <use xlink:href="#DejaVuSans-31"/>
       <use xlink:href="#DejaVuSans-2e" transform="translate(63.623047 0)"/>
       <use xlink:href="#DejaVuSans-35" transform="translate(95.410156 0)"/>
      </g>
     </g>
    </g>
    <g id="ytick_9">
     <g id="line2d_18">
      <g>
       <use xlink:href="#m1502945e8f" x="52.160938" y="22.56" style="stroke: #000000; stroke-width: 0.8"/>
      </g>
     </g>
     <g id="text_19">
      <!-- 2.0 -->
      <g transform="translate(29.257812 26.359219) scale(0.1 -0.1)">
       <use xlink:href="#DejaVuSans-32"/>
       <use xlink:href="#DejaVuSans-2e" transform="translate(63.623047 0)"/>
       <use xlink:href="#DejaVuSans-30" transform="translate(95.410156 0)"/>
      </g>
     </g>
    </g>
    <g id="text_20">
     <!-- y -->
     <g transform="translate(14.798438 142.245375) rotate(-90) scale(0.1 -0.1)">
      <defs>
       <path id="DejaVuSans-79" d="M 2059 -325 
Q 1816 -950 1584 -1140 
Q 1353 -1331 966 -1331 
L 506 -1331 
L 506 -850 
L 844 -850 
Q 1081 -850 1212 -737 
Q 1344 -625 1503 -206 
L 1606 56 
L 191 3500 
L 800 3500 
L 1894 763 
L 2988 3500 
L 3597 3500 
L 2059 -325 
z
" transform="scale(0.015625)"/>
      </defs>
      <use xlink:href="#DejaVuSans-79"/>
     </g>
    </g>
   </g>
   <g id="line2d_19">
    <path d="M 71.832684 139.286 
L 78.395402 157.335702 
L 82.004896 166.616733 
L 84.958119 173.615649 
L 87.583207 179.264969 
L 89.880158 183.692873 
L 91.848973 187.062476 
L 93.817788 190.007303 
L 95.458468 192.117838 
L 97.099147 193.902103 
L 98.739827 195.34908 
L 100.05237 196.257738 
L 101.364914 196.94118 
L 102.677457 197.396703 
L 103.990001 197.622507 
L 105.302544 197.6177 
L 106.615088 197.3823 
L 107.927632 196.917238 
L 109.240175 196.224352 
L 110.552719 195.306382 
L 112.193398 193.848006 
L 113.834078 192.052676 
L 115.474757 189.93148 
L 117.443572 186.974481 
L 119.412388 183.59349 
L 121.709339 179.153423 
L 124.00629 174.23103 
L 126.631377 168.09147 
L 129.912736 159.789198 
L 133.850367 149.177909 
L 145.991395 115.94877 
L 149.272753 107.861334 
L 151.89784 101.940464 
L 154.194792 97.240665 
L 156.491743 93.049539 
L 158.460558 89.900624 
L 160.429374 87.190788 
L 162.070053 85.285503 
L 163.710732 83.713705 
L 165.351412 82.485099 
L 166.663955 81.754485 
L 167.976499 81.2513 
L 169.289043 80.977534 
L 170.601586 80.934269 
L 171.91413 81.121675 
L 173.226673 81.539012 
L 174.539217 82.184631 
L 175.85176 83.055978 
L 177.49244 84.457262 
L 179.133119 86.197148 
L 180.773799 88.26489 
L 182.742614 91.160832 
L 184.711429 94.48465 
L 187.00838 98.863599 
L 189.305332 103.731587 
L 191.930419 109.818032 
L 194.883642 117.216617 
L 198.821272 127.740631 
L 212.60298 165.25633 
L 215.556203 172.367318 
L 218.18129 178.137283 
L 220.478241 182.685437 
L 222.775192 186.708536 
L 224.744007 189.701925 
L 226.384687 191.85502 
L 228.025366 193.683469 
L 229.666046 195.17598 
L 231.306725 196.323337 
L 232.619269 196.987876 
L 233.931812 197.424312 
L 235.244356 197.63092 
L 236.556899 197.606883 
L 237.869443 197.352297 
L 239.181987 196.868167 
L 240.49453 196.156407 
L 241.807074 195.219832 
L 243.447753 193.738689 
L 245.088433 191.921267 
L 246.729112 189.77879 
L 248.697927 186.79751 
L 250.666743 183.393812 
L 252.963694 178.92951 
L 255.260645 173.985591 
L 257.885732 167.82508 
L 261.167091 159.502569 
L 265.432858 147.970152 
L 276.589478 117.358259 
L 279.870837 109.160591 
L 282.495924 103.128306 
L 285.121011 97.667199 
L 287.417962 93.425343 
L 289.386777 90.2293 
L 291.355593 87.469414 
L 292.996272 85.520509 
L 294.636952 83.903639 
L 296.277631 82.62879 
L 297.590174 81.860527 
L 298.902718 81.319275 
L 300.215262 81.007173 
L 301.527805 80.925454 
L 302.840349 81.074442 
L 304.152892 81.453548 
L 305.465436 82.061272 
L 306.777979 82.895213 
L 308.418659 84.250651 
L 310.059338 85.945965 
L 311.700018 87.970687 
L 313.668833 90.817427 
L 315.637648 94.095095 
L 317.9346 98.424607 
L 320.231551 103.248469 
L 322.856638 109.291669 
L 325.809861 116.651573 
L 329.419356 126.245771 
L 335.982073 144.478453 
L 341.232248 158.783585 
L 344.841742 167.958374 
L 347.794965 174.840413 
L 350.420052 180.365209 
L 352.717004 184.669824 
L 354.685819 187.924282 
L 356.654634 190.746303 
L 358.295314 192.749431 
L 359.935993 194.42239 
L 361.576673 195.754847 
L 362.889216 196.570051 
L 364.20176 197.158803 
L 365.514303 197.518777 
L 366.826847 197.648549 
L 368.13939 197.547607 
L 369.451934 197.216349 
L 370.764477 196.656085 
L 372.077021 195.86903 
L 373.389564 194.858295 
L 375.030244 193.286497 
L 376.670923 191.381212 
L 378.311603 189.154207 
L 380.280418 186.07663 
L 382.249233 182.583044 
L 384.546185 178.023035 
L 387.171272 172.241222 
L 390.124495 165.119294 
L 393.405854 156.607051 
L 397.999756 144.021353 
L 406.531289 120.510745 
L 410.140784 111.282043 
L 413.094007 104.34097 
L 415.719094 98.753433 
L 418.016045 94.386798 
L 419.98486 91.074484 
L 421.953676 88.190812 
L 423.594355 86.133804 
L 425.235035 84.405044 
L 426.875714 83.015207 
L 428.188258 82.153203 
L 429.500801 81.517051 
L 430.813345 81.109268 
L 432.125888 80.931464 
L 433.438432 80.984344 
L 434.750975 81.267697 
L 436.063519 81.780404 
L 437.376063 82.520438 
L 438.688606 83.484873 
L 440.329286 85.00009 
L 441.969965 86.850556 
L 443.610644 89.024844 
L 445.57946 92.04239 
L 447.548275 95.479974 
L 449.845226 99.980398 
L 452.142177 104.956351 
L 454.767265 111.147972 
L 458.048623 119.500413 
L 462.31439 131.055769 
L 465.267613 139.286 
L 465.267613 139.286 
" clip-path="url(#pb73e260b9b)" style="fill: none; stroke: #1f77b4; stroke-width: 2; stroke-linecap: square"/>
   </g>
   <g id="line2d_20">
    <path d="M 71.832684 131.367926 
L 90.208294 129.10875 
L 106.286952 127.357024 
L 121.709339 125.903666 
L 136.475454 124.73124 
L 149.600889 123.902099 
L 159.11683 123.507555 
L 165.679548 123.436061 
L 170.601586 123.580584 
L 174.539217 123.895058 
L 177.820576 124.35688 
L 180.773799 124.98808 
L 183.398886 125.776347 
L 185.695837 126.690008 
L 187.992788 127.863456 
L 189.961603 129.11955 
L 191.930419 130.650805 
L 193.899234 132.504869 
L 195.539914 134.335006 
L 197.180593 136.460735 
L 198.821272 138.919093 
L 200.461952 141.748671 
L 202.102631 144.986071 
L 203.743311 148.657472 
L 205.712126 153.63111 
L 208.337213 161.004653 
L 211.290436 169.21672 
L 212.60298 172.181832 
L 213.587387 173.804483 
L 214.243659 174.479759 
L 214.899931 174.744416 
L 215.228067 174.699979 
L 215.556203 174.527031 
L 216.212474 173.774274 
L 216.868746 172.474653 
L 217.853154 169.649019 
L 219.821969 163.376516 
L 220.478241 162.229144 
L 220.806377 162.046215 
L 221.134513 162.200815 
L 221.462649 162.755712 
L 221.790784 163.772777 
L 222.11892 165.303509 
L 222.775192 169.968475 
L 223.7596 179.854421 
L 224.744007 189.301521 
L 225.400279 193.76718 
L 226.056551 196.811659 
L 226.712823 198.887304 
L 227.369095 200.368997 
L 228.025366 201.439135 
L 228.681638 202.124174 
L 229.33791 202.373921 
L 229.666046 202.317726 
L 230.322318 201.831801 
L 230.978589 200.88645 
L 231.962997 198.867124 
L 233.931812 194.516621 
L 235.244356 192.188663 
L 236.556899 190.291907 
L 237.541307 189.184954 
L 238.197579 188.695066 
L 238.853851 188.505365 
L 239.510122 188.713079 
L 240.166394 189.401528 
L 240.822666 190.617766 
L 241.478938 192.35539 
L 242.463345 195.77841 
L 245.416568 207.153848 
L 246.07284 208.838526 
L 246.729112 209.902877 
L 247.057248 210.1594 
L 247.385384 210.206315 
L 247.71352 210.021105 
L 248.041655 209.578129 
L 248.369791 208.848788 
L 249.026063 206.411889 
L 249.682335 202.52585 
L 250.666743 194.27527 
L 251.979286 182.461365 
L 252.963694 175.886203 
L 253.619966 172.750627 
L 254.276237 170.379089 
L 254.932509 168.576667 
L 255.916917 166.627002 
L 256.901324 165.281737 
L 258.213868 164.006827 
L 260.510819 161.9417 
L 261.495227 160.667282 
L 262.479635 158.899327 
L 263.464042 156.460189 
L 264.44845 153.212476 
L 265.432858 149.124765 
L 267.073537 140.960898 
L 268.714216 132.857692 
L 269.698624 128.910327 
L 270.683032 125.93302 
L 271.339303 124.492402 
L 271.995575 123.453465 
L 272.651847 122.772643 
L 273.308119 122.400471 
L 273.964391 122.284269 
L 274.620662 122.368646 
L 275.60507 122.743429 
L 277.573885 123.645076 
L 278.558293 123.800536 
L 279.214565 123.690741 
L 279.870837 123.367082 
L 280.527108 122.795052 
L 281.18338 121.937726 
L 281.839652 120.746132 
L 282.495924 119.135476 
L 283.152195 116.931089 
L 283.808467 113.775156 
L 284.464739 109.087573 
L 285.121011 102.478664 
L 286.433554 88.136745 
L 287.089826 83.645649 
L 287.746098 81.098879 
L 288.40237 79.871229 
L 288.730506 79.606517 
L 289.058641 79.52569 
L 289.386777 79.604406 
L 290.043049 80.171224 
L 290.699321 81.198561 
L 291.683729 83.424305 
L 292.996272 87.294036 
L 296.933903 100.032105 
L 297.590174 101.41606 
L 297.91831 101.881991 
L 298.246446 102.154542 
L 298.574582 102.201871 
L 298.902718 101.998135 
L 299.230854 101.530691 
L 299.887126 99.86538 
L 301.527805 94.473569 
L 302.184077 93.241545 
L 302.512213 92.906758 
L 302.840349 92.731515 
L 303.49662 92.744553 
L 304.152892 93.06336 
L 307.434251 95.20908 
L 308.418659 95.523417 
L 309.403066 95.632931 
L 310.387474 95.548025 
L 311.700018 95.165858 
L 313.012561 94.531108 
L 314.653241 93.489154 
L 318.262735 91.097131 
L 318.919007 90.888905 
L 319.575279 90.92234 
L 319.903415 91.080169 
L 320.231551 91.369385 
L 320.559687 91.824672 
L 321.215958 93.386895 
L 321.87223 96.029626 
L 322.528502 99.752599 
L 324.169181 110.125305 
L 325.153589 114.529217 
L 326.137997 117.589025 
L 327.122404 119.854023 
L 328.106812 121.570024 
L 329.09122 122.837642 
L 330.075627 123.754641 
L 331.388171 124.618539 
L 333.356986 125.551217 
L 338.279025 127.514838 
L 341.232248 128.506044 
L 343.857335 129.151254 
L 346.482422 129.555766 
L 349.435645 129.763461 
L 353.045139 129.761819 
L 357.967178 129.507313 
L 378.639739 128.202732 
L 388.483815 127.927402 
L 400.952979 127.818914 
L 421.953676 127.898775 
L 465.267613 128.078674 
L 465.267613 128.078674 
" clip-path="url(#pb73e260b9b)" style="fill: none; stroke-dasharray: 1.5,2.475; stroke-dashoffset: 0; stroke: #808080; stroke-width: 1.5"/>
   </g>
   <g id="line2d_21">
    <path d="M 71.832684 142.141748 
L 77.410994 156.517491 
L 81.020489 165.234654 
L 83.973712 171.805266 
L 86.598799 177.103514 
L 88.89575 181.250132 
L 90.864565 184.400174 
L 92.833381 187.147561 
L 94.47406 189.112112 
L 96.11474 190.768684 
L 97.755419 192.107508 
L 99.396098 193.120723 
L 100.708642 193.692783 
L 102.021186 194.050408 
L 103.333729 194.192179 
L 104.646273 194.117455 
L 105.958816 193.826386 
L 107.27136 193.319928 
L 108.583903 192.599864 
L 110.224583 191.403491 
L 111.865262 189.884571 
L 113.505942 188.052272 
L 115.146621 185.917884 
L 117.115436 182.976787 
L 119.084252 179.646707 
L 121.381203 175.310584 
L 124.00629 169.826047 
L 126.959513 163.086065 
L 130.569008 154.217919 
L 135.491046 141.457289 
L 143.038172 121.897431 
L 146.647666 113.192339 
L 149.600889 106.638661 
L 152.225976 101.35613 
L 154.522928 97.221515 
L 156.491743 94.080159 
L 158.460558 91.34057 
L 160.101238 89.382533 
L 161.741917 87.733102 
L 163.382597 86.40249 
L 165.023276 85.398784 
L 166.33582 84.83527 
L 167.648363 84.486923 
L 168.960907 84.354996 
L 170.27345 84.439923 
L 171.585994 84.741332 
L 172.898537 85.258047 
L 174.211081 85.988092 
L 175.85176 87.196319 
L 177.49244 88.726215 
L 179.133119 90.568525 
L 180.773799 92.711987 
L 182.742614 95.662916 
L 184.711429 99.001997 
L 187.00838 103.348078 
L 189.633468 108.843825 
L 192.586691 115.59621 
L 196.196185 124.477277 
L 201.446359 138.108942 
L 208.665349 156.812023 
L 212.274844 165.553984 
L 215.228067 172.18461 
L 217.853154 177.591047 
L 220.150105 181.888392 
L 222.447056 185.732822 
L 224.415872 188.631612 
L 226.384687 191.133015 
L 228.025366 192.893873 
L 229.666046 194.345736 
L 231.306725 195.477763 
L 232.619269 196.147754 
L 233.931812 196.605205 
L 235.244356 196.848171 
L 236.556899 196.875371 
L 237.869443 196.686075 
L 239.181987 196.280004 
L 240.49453 195.65728 
L 241.807074 194.818523 
L 243.447753 193.468556 
L 245.088433 191.788602 
L 246.729112 189.786523 
L 248.697927 186.973092 
L 250.666743 183.734521 
L 252.963694 179.467185 
L 255.260645 174.738317 
L 258.213868 168.090872 
L 261.495227 160.127546 
L 266.417265 147.501777 
L 274.292526 127.270386 
L 277.902021 118.628397 
L 280.855244 112.0761 
L 283.480331 106.740461 
L 285.777283 102.510636 
L 288.074234 98.744379 
L 290.043049 95.918617 
L 292.011864 93.4833 
L 293.652544 91.759197 
L 295.293223 90.316436 
L 296.933903 89.157216 
L 298.574582 88.282136 
L 300.215262 87.69044 
L 301.855941 87.380893 
L 303.168485 87.335673 
L 304.481028 87.469847 
L 306.121708 87.888845 
L 307.762387 88.585158 
L 309.403066 89.555763 
L 311.043746 90.796606 
L 312.684425 92.302735 
L 314.653241 94.452013 
L 316.622056 96.962808 
L 318.590871 99.82005 
L 320.887822 103.565803 
L 323.184774 107.719301 
L 325.809861 112.9066 
L 329.09122 119.936733 
L 333.02885 128.955982 
L 347.138693 161.891482 
L 350.091916 167.967073 
L 352.717004 172.890503 
L 355.013955 176.766559 
L 357.310906 180.189899 
L 359.279721 182.731789 
L 361.248537 184.887003 
L 362.889216 186.373527 
L 364.529896 187.568821 
L 366.170575 188.46564 
L 367.483119 188.964556 
L 368.795662 189.267163 
L 370.108206 189.372383 
L 371.420749 189.27989 
L 372.733293 188.990102 
L 374.045836 188.504172 
L 375.686516 187.623875 
L 377.327195 186.445395 
L 378.967875 184.975817 
L 380.608554 183.224023 
L 382.577369 180.764488 
L 384.546185 177.93577 
L 386.843136 174.202806 
L 389.140087 170.047264 
L 391.765174 164.845814 
L 395.046533 157.787373 
L 398.984164 148.732178 
L 412.109599 118.000638 
L 415.062822 111.821838 
L 417.687909 106.786385 
L 419.98486 102.798951 
L 422.281812 99.25338 
L 424.250627 96.599028 
L 426.219442 94.32502 
L 427.860122 92.735224 
L 429.500801 91.433311 
L 431.141481 90.427086 
L 432.78216 89.722473 
L 434.094704 89.378732 
L 435.407247 89.231887 
L 436.719791 89.282428 
L 438.032334 89.530118 
L 439.344878 89.973998 
L 440.985557 90.802128 
L 442.626237 91.92931 
L 444.266916 93.34896 
L 445.907596 95.052723 
L 447.876411 97.457853 
L 449.845226 100.236431 
L 452.142177 103.91698 
L 454.439129 108.026822 
L 457.064216 113.183548 
L 460.017439 119.470269 
L 463.955069 128.43956 
L 465.267613 131.531544 
L 465.267613 131.531544 
" clip-path="url(#pb73e260b9b)" style="fill: none; stroke-dasharray: 7.4,3.2; stroke-dashoffset: 0; stroke: #d62728; stroke-width: 2"/>
   </g>
   <g id="patch_4">
    <path d="M 52.160938 256.012 
L 52.160938 22.56 
" style="fill: none; stroke: #000000; stroke-width: 0.8; stroke-linejoin: miter; stroke-linecap: square"/>
   </g>
   <g id="patch_5">
    <path d="M 484.939359 256.012 
L 484.939359 22.56 
" style="fill: none; stroke: #000000; stroke-width: 0.8; stroke-linejoin: miter; stroke-linecap: square"/>
   </g>
   <g id="patch_6">
    <path d="M 52.160937 256.012 
L 484.939359 256.012 
" style="fill: none; stroke: #000000; stroke-width: 0.8; stroke-linejoin: miter; stroke-linecap: square"/>
   </g>
   <g id="patch_7">
    <path d="M 52.160937 22.56 
L 484.939359 22.56 
" style="fill: none; stroke: #000000; stroke-width: 0.8; stroke-linejoin: miter; stroke-linecap: square"/>
   </g>
   <g id="text_21">
    <!-- PINN denoises inside the data range and extrapolates outside via $y'' + y = 0$ -->
    <g transform="translate(41.510148 16.56) scale(0.12 -0.12)">
     <defs>
      <path id="DejaVuSans-50" d="M 1259 4147 
L 1259 2394 
L 2053 2394 
Q 2494 2394 2734 2622 
Q 2975 2850 2975 3272 
Q 2975 3691 2734 3919 
Q 2494 4147 2053 4147 
L 1259 4147 
z
M 628 4666 
L 2053 4666 
Q 2838 4666 3239 4311 
Q 3641 3956 3641 3272 
Q 3641 2581 3239 2228 
Q 2838 1875 2053 1875 
L 1259 1875 
L 1259 0 
L 628 0 
L 628 4666 
z
" transform="scale(0.015625)"/>
      <path id="DejaVuSans-49" d="M 628 4666 
L 1259 4666 
L 1259 0 
L 628 0 
L 628 4666 
z
" transform="scale(0.015625)"/>
      <path id="DejaVuSans-4e" d="M 628 4666 
L 1478 4666 
L 3547 763 
L 3547 4666 
L 4159 4666 
L 4159 0 
L 3309 0 
L 1241 3903 
L 1241 0 
L 628 0 
L 628 4666 
z
" transform="scale(0.015625)"/>
      <path id="DejaVuSans-20" transform="scale(0.015625)"/>
      <path id="DejaVuSans-64" d="M 2906 2969 
L 2906 4863 
L 3481 4863 
L 3481 0 
L 2906 0 
L 2906 525 
Q 2725 213 2448 61 
Q 2172 -91 1784 -91 
Q 1150 -91 751 415 
Q 353 922 353 1747 
Q 353 2572 751 3078 
Q 1150 3584 1784 3584 
Q 2172 3584 2448 3432 
Q 2725 3281 2906 2969 
z
M 947 1747 
Q 947 1113 1208 752 
Q 1469 391 1925 391 
Q 2381 391 2643 752 
Q 2906 1113 2906 1747 
Q 2906 2381 2643 2742 
Q 2381 3103 1925 3103 
Q 1469 3103 1208 2742 
Q 947 2381 947 1747 
z
" transform="scale(0.015625)"/>
      <path id="DejaVuSans-65" d="M 3597 1894 
L 3597 1613 
L 953 1613 
Q 991 1019 1311 708 
Q 1631 397 2203 397 
Q 2534 397 2845 478 
Q 3156 559 3463 722 
L 3463 178 
Q 3153 47 2828 -22 
Q 2503 -91 2169 -91 
Q 1331 -91 842 396 
Q 353 884 353 1716 
Q 353 2575 817 3079 
Q 1281 3584 2069 3584 
Q 2775 3584 3186 3129 
Q 3597 2675 3597 1894 
z
M 3022 2063 
Q 3016 2534 2758 2815 
Q 2500 3097 2075 3097 
Q 1594 3097 1305 2825 
Q 1016 2553 972 2059 
L 3022 2063 
z
" transform="scale(0.015625)"/>
      <path id="DejaVuSans-6e" d="M 3513 2113 
L 3513 0 
L 2938 0 
L 2938 2094 
Q 2938 2591 2744 2837 
Q 2550 3084 2163 3084 
Q 1697 3084 1428 2787 
Q 1159 2491 1159 1978 
L 1159 0 
L 581 0 
L 581 3500 
L 1159 3500 
L 1159 2956 
Q 1366 3272 1645 3428 
Q 1925 3584 2291 3584 
Q 2894 3584 3203 3211 
Q 3513 2838 3513 2113 
z
" transform="scale(0.015625)"/>
      <path id="DejaVuSans-6f" d="M 1959 3097 
Q 1497 3097 1228 2736 
Q 959 2375 959 1747 
Q 959 1119 1226 758 
Q 1494 397 1959 397 
Q 2419 397 2687 759 
Q 2956 1122 2956 1747 
Q 2956 2369 2687 2733 
Q 2419 3097 1959 3097 
z
M 1959 3584 
Q 2709 3584 3137 3096 
Q 3566 2609 3566 1747 
Q 3566 888 3137 398 
Q 2709 -91 1959 -91 
Q 1206 -91 779 398 
Q 353 888 353 1747 
Q 353 2609 779 3096 
Q 1206 3584 1959 3584 
z
" transform="scale(0.015625)"/>
      <path id="DejaVuSans-69" d="M 603 3500 
L 1178 3500 
L 1178 0 
L 603 0 
L 603 3500 
z
M 603 4863 
L 1178 4863 
L 1178 4134 
L 603 4134 
L 603 4863 
z
" transform="scale(0.015625)"/>
      <path id="DejaVuSans-73" d="M 2834 3397 
L 2834 2853 
Q 2591 2978 2328 3040 
Q 2066 3103 1784 3103 
Q 1356 3103 1142 2972 
Q 928 2841 928 2578 
Q 928 2378 1081 2264 
Q 1234 2150 1697 2047 
L 1894 2003 
Q 2506 1872 2764 1633 
Q 3022 1394 3022 966 
Q 3022 478 2636 193 
Q 2250 -91 1575 -91 
Q 1294 -91 989 -36 
Q 684 19 347 128 
L 347 722 
Q 666 556 975 473 
Q 1284 391 1588 391 
Q 1994 391 2212 530 
Q 2431 669 2431 922 
Q 2431 1156 2273 1281 
Q 2116 1406 1581 1522 
L 1381 1569 
Q 847 1681 609 1914 
Q 372 2147 372 2553 
Q 372 3047 722 3315 
Q 1072 3584 1716 3584 
Q 2034 3584 2315 3537 
Q 2597 3491 2834 3397 
z
" transform="scale(0.015625)"/>
      <path id="DejaVuSans-74" d="M 1172 4494 
L 1172 3500 
L 2356 3500 
L 2356 3053 
L 1172 3053 
L 1172 1153 
Q 1172 725 1289 603 
Q 1406 481 1766 481 
L 2356 481 
L 2356 0 
L 1766 0 
Q 1100 0 847 248 
Q 594 497 594 1153 
L 594 3053 
L 172 3053 
L 172 3500 
L 594 3500 
L 594 4494 
L 1172 4494 
z
" transform="scale(0.015625)"/>
      <path id="DejaVuSans-68" d="M 3513 2113 
L 3513 0 
L 2938 0 
L 2938 2094 
Q 2938 2591 2744 2837 
Q 2550 3084 2163 3084 
Q 1697 3084 1428 2787 
Q 1159 2491 1159 1978 
L 1159 0 
L 581 0 
L 581 4863 
L 1159 4863 
L 1159 2956 
Q 1366 3272 1645 3428 
Q 1925 3584 2291 3584 
Q 2894 3584 3203 3211 
Q 3513 2838 3513 2113 
z
" transform="scale(0.015625)"/>
      <path id="DejaVuSans-61" d="M 2194 1759 
Q 1497 1759 1228 1600 
Q 959 1441 959 1056 
Q 959 750 1161 570 
Q 1363 391 1709 391 
Q 2188 391 2477 730 
Q 2766 1069 2766 1631 
L 2766 1759 
L 2194 1759 
z
M 3341 1997 
L 3341 0 
L 2766 0 
L 2766 531 
Q 2569 213 2275 61 
Q 1981 -91 1556 -91 
Q 1019 -91 701 211 
Q 384 513 384 1019 
Q 384 1609 779 1909 
Q 1175 2209 1959 2209 
L 2766 2209 
L 2766 2266 
Q 2766 2663 2505 2880 
Q 2244 3097 1772 3097 
Q 1472 3097 1187 3025 
Q 903 2953 641 2809 
L 641 3341 
Q 956 3463 1253 3523 
Q 1550 3584 1831 3584 
Q 2591 3584 2966 3190 
Q 3341 2797 3341 1997 
z
" transform="scale(0.015625)"/>
      <path id="DejaVuSans-72" d="M 2631 2963 
Q 2534 3019 2420 3045 
Q 2306 3072 2169 3072 
Q 1681 3072 1420 2755 
Q 1159 2438 1159 1844 
L 1159 0 
L 581 0 
L 581 3500 
L 1159 3500 
L 1159 2956 
Q 1341 3275 1631 3429 
Q 1922 3584 2338 3584 
Q 2397 3584 2469 3576 
Q 2541 3569 2628 3553 
L 2631 2963 
z
" transform="scale(0.015625)"/>
      <path id="DejaVuSans-67" d="M 2906 1791 
Q 2906 2416 2648 2759 
Q 2391 3103 1925 3103 
Q 1463 3103 1205 2759 
Q 947 2416 947 1791 
Q 947 1169 1205 825 
Q 1463 481 1925 481 
Q 2391 481 2648 825 
Q 2906 1169 2906 1791 
z
M 3481 434 
Q 3481 -459 3084 -895 
Q 2688 -1331 1869 -1331 
Q 1566 -1331 1297 -1286 
Q 1028 -1241 775 -1147 
L 775 -588 
Q 1028 -725 1275 -790 
Q 1522 -856 1778 -856 
Q 2344 -856 2625 -561 
Q 2906 -266 2906 331 
L 2906 616 
Q 2728 306 2450 153 
Q 2172 0 1784 0 
Q 1141 0 747 490 
Q 353 981 353 1791 
Q 353 2603 747 3093 
Q 1141 3584 1784 3584 
Q 2172 3584 2450 3431 
Q 2728 3278 2906 2969 
L 2906 3500 
L 3481 3500 
L 3481 434 
z
" transform="scale(0.015625)"/>
      <path id="DejaVuSans-70" d="M 1159 525 
L 1159 -1331 
L 581 -1331 
L 581 3500 
L 1159 3500 
L 1159 2969 
Q 1341 3281 1617 3432 
Q 1894 3584 2278 3584 
Q 2916 3584 3314 3078 
Q 3713 2572 3713 1747 
Q 3713 922 3314 415 
Q 2916 -91 2278 -91 
Q 1894 -91 1617 61 
Q 1341 213 1159 525 
z
M 3116 1747 
Q 3116 2381 2855 2742 
Q 2594 3103 2138 3103 
Q 1681 3103 1420 2742 
Q 1159 2381 1159 1747 
Q 1159 1113 1420 752 
Q 1681 391 2138 391 
Q 2594 391 2855 752 
Q 3116 1113 3116 1747 
z
" transform="scale(0.015625)"/>
      <path id="DejaVuSans-6c" d="M 603 4863 
L 1178 4863 
L 1178 0 
L 603 0 
L 603 4863 
z
" transform="scale(0.015625)"/>
      <path id="DejaVuSans-75" d="M 544 1381 
L 544 3500 
L 1119 3500 
L 1119 1403 
Q 1119 906 1312 657 
Q 1506 409 1894 409 
Q 2359 409 2629 706 
Q 2900 1003 2900 1516 
L 2900 3500 
L 3475 3500 
L 3475 0 
L 2900 0 
L 2900 538 
Q 2691 219 2414 64 
Q 2138 -91 1772 -91 
Q 1169 -91 856 284 
Q 544 659 544 1381 
z
M 1991 3584 
L 1991 3584 
z
" transform="scale(0.015625)"/>
      <path id="DejaVuSans-76" d="M 191 3500 
L 800 3500 
L 1894 563 
L 2988 3500 
L 3597 3500 
L 2284 0 
L 1503 0 
L 191 3500 
z
" transform="scale(0.015625)"/>
      <path id="DejaVuSans-Oblique-79" d="M 1588 -325 
Q 1188 -997 936 -1164 
Q 684 -1331 294 -1331 
L -159 -1331 
L -63 -850 
L 269 -850 
Q 509 -850 678 -719 
Q 847 -588 1056 -206 
L 1234 128 
L 459 3500 
L 1069 3500 
L 1650 819 
L 3256 3500 
L 3859 3500 
L 1588 -325 
z
" transform="scale(0.015625)"/>
      <path id="Cmsy10-30" d="M 225 347 
Q 184 359 184 409 
L 966 3316 
Q 1003 3434 1093 3506 
Q 1184 3578 1300 3578 
Q 1450 3578 1564 3479 
Q 1678 3381 1678 3231 
Q 1678 3166 1644 3084 
L 488 319 
Q 466 275 428 275 
Q 394 275 320 306 
Q 247 338 225 347 
z
" transform="scale(0.015625)"/>
      <path id="DejaVuSans-2b" d="M 2944 4013 
L 2944 2272 
L 4684 2272 
L 4684 1741 
L 2944 1741 
L 2944 0 
L 2419 0 
L 2419 1741 
L 678 1741 
L 678 2272 
L 2419 2272 
L 2419 4013 
L 2944 4013 
z
" transform="scale(0.015625)"/>
      <path id="DejaVuSans-3d" d="M 678 2906 
L 4684 2906 
L 4684 2381 
L 678 2381 
L 678 2906 
z
M 678 1631 
L 4684 1631 
L 4684 1100 
L 678 1100 
L 678 1631 
z
" transform="scale(0.015625)"/>
     </defs>
     <use xlink:href="#DejaVuSans-50" transform="translate(0 0.584375)"/>
     <use xlink:href="#DejaVuSans-49" transform="translate(60.302734 0.584375)"/>
     <use xlink:href="#DejaVuSans-4e" transform="translate(89.794922 0.584375)"/>
     <use xlink:href="#DejaVuSans-4e" transform="translate(164.599609 0.584375)"/>
     <use xlink:href="#DejaVuSans-20" transform="translate(239.404297 0.584375)"/>
     <use xlink:href="#DejaVuSans-64" transform="translate(271.191406 0.584375)"/>
     <use xlink:href="#DejaVuSans-65" transform="translate(334.667969 0.584375)"/>
     <use xlink:href="#DejaVuSans-6e" transform="translate(396.191406 0.584375)"/>
     <use xlink:href="#DejaVuSans-6f" transform="translate(459.570312 0.584375)"/>
     <use xlink:href="#DejaVuSans-69" transform="translate(520.751953 0.584375)"/>
     <use xlink:href="#DejaVuSans-73" transform="translate(548.535156 0.584375)"/>
     <use xlink:href="#DejaVuSans-65" transform="translate(600.634766 0.584375)"/>
     <use xlink:href="#DejaVuSans-73" transform="translate(662.158203 0.584375)"/>
     <use xlink:href="#DejaVuSans-20" transform="translate(714.257812 0.584375)"/>
     <use xlink:href="#DejaVuSans-69" transform="translate(746.044922 0.584375)"/>
     <use xlink:href="#DejaVuSans-6e" transform="translate(773.828125 0.584375)"/>
     <use xlink:href="#DejaVuSans-73" transform="translate(837.207031 0.584375)"/>
     <use xlink:href="#DejaVuSans-69" transform="translate(889.306641 0.584375)"/>
     <use xlink:href="#DejaVuSans-64" transform="translate(917.089844 0.584375)"/>
     <use xlink:href="#DejaVuSans-65" transform="translate(980.566406 0.584375)"/>
     <use xlink:href="#DejaVuSans-20" transform="translate(1042.089844 0.584375)"/>
     <use xlink:href="#DejaVuSans-74" transform="translate(1073.876953 0.584375)"/>
     <use xlink:href="#DejaVuSans-68" transform="translate(1113.085938 0.584375)"/>
     <use xlink:href="#DejaVuSans-65" transform="translate(1176.464844 0.584375)"/>
     <use xlink:href="#DejaVuSans-20" transform="translate(1237.988281 0.584375)"/>
     <use xlink:href="#DejaVuSans-64" transform="translate(1269.775391 0.584375)"/>
     <use xlink:href="#DejaVuSans-61" transform="translate(1333.251953 0.584375)"/>
     <use xlink:href="#DejaVuSans-74" transform="translate(1394.53125 0.584375)"/>
     <use xlink:href="#DejaVuSans-61" transform="translate(1433.740234 0.584375)"/>
     <use xlink:href="#DejaVuSans-20" transform="translate(1495.019531 0.584375)"/>
     <use xlink:href="#DejaVuSans-72" transform="translate(1526.806641 0.584375)"/>
     <use xlink:href="#DejaVuSans-61" transform="translate(1567.919922 0.584375)"/>
     <use xlink:href="#DejaVuSans-6e" transform="translate(1629.199219 0.584375)"/>
     <use xlink:href="#DejaVuSans-67" transform="translate(1692.578125 0.584375)"/>
     <use xlink:href="#DejaVuSans-65" transform="translate(1756.054688 0.584375)"/>
     <use xlink:href="#DejaVuSans-20" transform="translate(1817.578125 0.584375)"/>
     <use xlink:href="#DejaVuSans-61" transform="translate(1849.365234 0.584375)"/>
     <use xlink:href="#DejaVuSans-6e" transform="translate(1910.644531 0.584375)"/>
     <use xlink:href="#DejaVuSans-64" transform="translate(1974.023438 0.584375)"/>
     <use xlink:href="#DejaVuSans-20" transform="translate(2037.5 0.584375)"/>
     <use xlink:href="#DejaVuSans-65" transform="translate(2069.287109 0.584375)"/>
     <use xlink:href="#DejaVuSans-78" transform="translate(2130.810547 0.584375)"/>
     <use xlink:href="#DejaVuSans-74" transform="translate(2189.990234 0.584375)"/>
     <use xlink:href="#DejaVuSans-72" transform="translate(2229.199219 0.584375)"/>
     <use xlink:href="#DejaVuSans-61" transform="translate(2270.3125 0.584375)"/>
     <use xlink:href="#DejaVuSans-70" transform="translate(2331.591797 0.584375)"/>
     <use xlink:href="#DejaVuSans-6f" transform="translate(2395.068359 0.584375)"/>
     <use xlink:href="#DejaVuSans-6c" transform="translate(2456.25 0.584375)"/>
     <use xlink:href="#DejaVuSans-61" transform="translate(2484.033203 0.584375)"/>
     <use xlink:href="#DejaVuSans-74" transform="translate(2545.3125 0.584375)"/>
     <use xlink:href="#DejaVuSans-65" transform="translate(2584.521484 0.584375)"/>
     <use xlink:href="#DejaVuSans-73" transform="translate(2646.044922 0.584375)"/>
     <use xlink:href="#DejaVuSans-20" transform="translate(2698.144531 0.584375)"/>
     <use xlink:href="#DejaVuSans-6f" transform="translate(2729.931641 0.584375)"/>
     <use xlink:href="#DejaVuSans-75" transform="translate(2791.113281 0.584375)"/>
     <use xlink:href="#DejaVuSans-74" transform="translate(2854.492188 0.584375)"/>
     <use xlink:href="#DejaVuSans-73" transform="translate(2893.701172 0.584375)"/>
     <use xlink:href="#DejaVuSans-69" transform="translate(2945.800781 0.584375)"/>
     <use xlink:href="#DejaVuSans-64" transform="translate(2973.583984 0.584375)"/>
     <use xlink:href="#DejaVuSans-65" transform="translate(3037.060547 0.584375)"/>
     <use xlink:href="#DejaVuSans-20" transform="translate(3098.583984 0.584375)"/>
     <use xlink:href="#DejaVuSans-76" transform="translate(3130.371094 0.584375)"/>
     <use xlink:href="#DejaVuSans-69" transform="translate(3189.550781 0.584375)"/>
     <use xlink:href="#DejaVuSans-61" transform="translate(3217.333984 0.584375)"/>
     <use xlink:href="#DejaVuSans-20" transform="translate(3278.613281 0.584375)"/>
     <use xlink:href="#DejaVuSans-Oblique-79" transform="translate(3310.400391 0.584375)"/>
     <use xlink:href="#Cmsy10-30" transform="translate(3374.046224 38.865625) scale(0.7)"/>
     <use xlink:href="#Cmsy10-30" transform="translate(3393.289388 38.865625) scale(0.7)"/>
     <use xlink:href="#DejaVuSans-2b" transform="translate(3434.749349 0.584375)"/>
     <use xlink:href="#DejaVuSans-Oblique-79" transform="translate(3538.020833 0.584375)"/>
     <use xlink:href="#DejaVuSans-3d" transform="translate(3616.682943 0.584375)"/>
     <use xlink:href="#DejaVuSans-30" transform="translate(3719.954427 0.584375)"/>
    </g>
   </g>
   <g id="PathCollection_1">
    <defs>
     <path id="mf052b6adbf" d="M 0 2.12132 
C 0.562581 2.12132 1.102195 1.897805 1.5 1.5 
C 1.897805 1.102195 2.12132 0.562581 2.12132 0 
C 2.12132 -0.562581 1.897805 -1.102195 1.5 -1.5 
C 1.102195 -1.897805 0.562581 -2.12132 0 -2.12132 
C -0.562581 -2.12132 -1.102195 -1.897805 -1.5 -1.5 
C -1.897805 -1.102195 -2.12132 -0.562581 -2.12132 0 
C -2.12132 0.562581 -1.897805 1.102195 -1.5 1.5 
C -1.102195 1.897805 -0.562581 2.12132 0 2.12132 
z
" style="stroke: #000000"/>
    </defs>
    <g clip-path="url(#pb73e260b9b)">
     <use xlink:href="#mf052b6adbf" x="202.97766" y="146.898614" style="stroke: #000000"/>
     <use xlink:href="#mf052b6adbf" x="208.679616" y="162.004605" style="stroke: #000000"/>
     <use xlink:href="#mf052b6adbf" x="214.381571" y="174.579272" style="stroke: #000000"/>
     <use xlink:href="#mf052b6adbf" x="220.083527" y="162.819871" style="stroke: #000000"/>
     <use xlink:href="#mf052b6adbf" x="225.785482" y="195.702491" style="stroke: #000000"/>
     <use xlink:href="#mf052b6adbf" x="231.487438" y="199.908246" style="stroke: #000000"/>
     <use xlink:href="#mf052b6adbf" x="237.189393" y="189.538372" style="stroke: #000000"/>
     <use xlink:href="#mf052b6adbf" x="242.891349" y="197.473925" style="stroke: #000000"/>
     <use xlink:href="#mf052b6adbf" x="248.593304" y="208.16575" style="stroke: #000000"/>
     <use xlink:href="#mf052b6adbf" x="254.29526" y="170.310521" style="stroke: #000000"/>
     <use xlink:href="#mf052b6adbf" x="259.997215" y="162.461845" style="stroke: #000000"/>
     <use xlink:href="#mf052b6adbf" x="265.699171" y="147.878983" style="stroke: #000000"/>
     <use xlink:href="#mf052b6adbf" x="271.401126" y="124.366077" style="stroke: #000000"/>
     <use xlink:href="#mf052b6adbf" x="277.103082" y="123.459043" style="stroke: #000000"/>
     <use xlink:href="#mf052b6adbf" x="282.805037" y="118.173052" style="stroke: #000000"/>
     <use xlink:href="#mf052b6adbf" x="288.506993" y="79.749715" style="stroke: #000000"/>
     <use xlink:href="#mf052b6adbf" x="294.208948" y="91.351085" style="stroke: #000000"/>
     <use xlink:href="#mf052b6adbf" x="299.910904" y="99.773737" style="stroke: #000000"/>
     <use xlink:href="#mf052b6adbf" x="305.612859" y="94.112199" style="stroke: #000000"/>
     <use xlink:href="#mf052b6adbf" x="311.314815" y="95.294179" style="stroke: #000000"/>
     <use xlink:href="#mf052b6adbf" x="317.01677" y="91.804714" style="stroke: #000000"/>
     <use xlink:href="#mf052b6adbf" x="322.718726" y="100.963781" style="stroke: #000000"/>
     <use xlink:href="#mf052b6adbf" x="328.420681" y="122.006605" style="stroke: #000000"/>
     <use xlink:href="#mf052b6adbf" x="334.122637" y="125.859561" style="stroke: #000000"/>
    </g>
   </g>
   <g id="legend_1">
    <g id="patch_8">
     <path d="M 345.901859 87.7075 
L 479.339359 87.7075 
Q 480.939359 87.7075 480.939359 86.1075 
L 480.939359 28.16 
Q 480.939359 26.56 479.339359 26.56 
L 345.901859 26.56 
Q 344.301859 26.56 344.301859 28.16 
L 344.301859 86.1075 
Q 344.301859 87.7075 345.901859 87.7075 
z
" style="fill: #ffffff; opacity: 0.8; stroke: #cccccc; stroke-linejoin: miter"/>
    </g>
    <g id="patch_9">
     <path d="M 347.501859 35.83875 
L 363.501859 35.83875 
L 363.501859 30.23875 
L 347.501859 30.23875 
z
" style="fill: #2ca02c; opacity: 0.08; stroke: #2ca02c; stroke-linejoin: miter"/>
    </g>
    <g id="text_22">
     <!-- data range -->
     <g transform="translate(369.901859 35.83875) scale(0.08 -0.08)">
      <use xlink:href="#DejaVuSans-64"/>
      <use xlink:href="#DejaVuSans-61" transform="translate(63.476562 0)"/>
      <use xlink:href="#DejaVuSans-74" transform="translate(124.755859 0)"/>
      <use xlink:href="#DejaVuSans-61" transform="translate(163.964844 0)"/>
      <use xlink:href="#DejaVuSans-20" transform="translate(225.244141 0)"/>
      <use xlink:href="#DejaVuSans-72" transform="translate(257.03125 0)"/>
      <use xlink:href="#DejaVuSans-61" transform="translate(298.144531 0)"/>
      <use xlink:href="#DejaVuSans-6e" transform="translate(359.423828 0)"/>
      <use xlink:href="#DejaVuSans-67" transform="translate(422.802734 0)"/>
      <use xlink:href="#DejaVuSans-65" transform="translate(486.279297 0)"/>
     </g>
    </g>
    <g id="line2d_22">
     <path d="M 347.501859 44.7825 
L 355.501859 44.7825 
L 363.501859 44.7825 
" style="fill: none; stroke: #1f77b4; stroke-width: 2; stroke-linecap: square"/>
    </g>
    <g id="text_23">
     <!-- target $\sin x$ -->
     <g transform="translate(369.901859 47.5825) scale(0.08 -0.08)">
      <defs>
       <path id="DejaVuSans-Oblique-78" d="M 3841 3500 
L 2234 1784 
L 3219 0 
L 2559 0 
L 1819 1388 
L 531 0 
L -166 0 
L 1556 1844 
L 641 3500 
L 1300 3500 
L 1972 2234 
L 3144 3500 
L 3841 3500 
z
" transform="scale(0.015625)"/>
      </defs>
      <use xlink:href="#DejaVuSans-74" transform="translate(0 0.015625)"/>
      <use xlink:href="#DejaVuSans-61" transform="translate(39.208984 0.015625)"/>
      <use xlink:href="#DejaVuSans-72" transform="translate(100.488281 0.015625)"/>
      <use xlink:href="#DejaVuSans-67" transform="translate(141.601562 0.015625)"/>
      <use xlink:href="#DejaVuSans-65" transform="translate(205.078125 0.015625)"/>
      <use xlink:href="#DejaVuSans-74" transform="translate(266.601562 0.015625)"/>
      <use xlink:href="#DejaVuSans-20" transform="translate(305.810547 0.015625)"/>
      <use xlink:href="#DejaVuSans-73" transform="translate(337.597656 0.015625)"/>
      <use xlink:href="#DejaVuSans-69" transform="translate(389.697266 0.015625)"/>
      <use xlink:href="#DejaVuSans-6e" transform="translate(417.480469 0.015625)"/>
      <use xlink:href="#DejaVuSans-Oblique-78" transform="translate(497.095051 0.015625)"/>
     </g>
    </g>
    <g id="line2d_23">
     <path d="M 347.501859 56.54125 
L 355.501859 56.54125 
L 363.501859 56.54125 
" style="fill: none; stroke-dasharray: 1.5,2.475; stroke-dashoffset: 0; stroke: #808080; stroke-width: 1.5"/>
    </g>
    <g id="text_24">
     <!-- data-only MLP (no physics) -->
     <g transform="translate(369.901859 59.34125) scale(0.08 -0.08)">
      <defs>
       <path id="DejaVuSans-2d" d="M 313 2009 
L 1997 2009 
L 1997 1497 
L 313 1497 
L 313 2009 
z
" transform="scale(0.015625)"/>
       <path id="DejaVuSans-4d" d="M 628 4666 
L 1569 4666 
L 2759 1491 
L 3956 4666 
L 4897 4666 
L 4897 0 
L 4281 0 
L 4281 4097 
L 3078 897 
L 2444 897 
L 1241 4097 
L 1241 0 
L 628 0 
L 628 4666 
z
" transform="scale(0.015625)"/>
       <path id="DejaVuSans-4c" d="M 628 4666 
L 1259 4666 
L 1259 531 
L 3531 531 
L 3531 0 
L 628 0 
L 628 4666 
z
" transform="scale(0.015625)"/>
       <path id="DejaVuSans-28" d="M 1984 4856 
Q 1566 4138 1362 3434 
Q 1159 2731 1159 2009 
Q 1159 1288 1364 580 
Q 1569 -128 1984 -844 
L 1484 -844 
Q 1016 -109 783 600 
Q 550 1309 550 2009 
Q 550 2706 781 3412 
Q 1013 4119 1484 4856 
L 1984 4856 
z
" transform="scale(0.015625)"/>
       <path id="DejaVuSans-63" d="M 3122 3366 
L 3122 2828 
Q 2878 2963 2633 3030 
Q 2388 3097 2138 3097 
Q 1578 3097 1268 2742 
Q 959 2388 959 1747 
Q 959 1106 1268 751 
Q 1578 397 2138 397 
Q 2388 397 2633 464 
Q 2878 531 3122 666 
L 3122 134 
Q 2881 22 2623 -34 
Q 2366 -91 2075 -91 
Q 1284 -91 818 406 
Q 353 903 353 1747 
Q 353 2603 823 3093 
Q 1294 3584 2113 3584 
Q 2378 3584 2631 3529 
Q 2884 3475 3122 3366 
z
" transform="scale(0.015625)"/>
       <path id="DejaVuSans-29" d="M 513 4856 
L 1013 4856 
Q 1481 4119 1714 3412 
Q 1947 2706 1947 2009 
Q 1947 1309 1714 600 
Q 1481 -109 1013 -844 
L 513 -844 
Q 928 -128 1133 580 
Q 1338 1288 1338 2009 
Q 1338 2731 1133 3434 
Q 928 4138 513 4856 
z
" transform="scale(0.015625)"/>
      </defs>
      <use xlink:href="#DejaVuSans-64"/>
      <use xlink:href="#DejaVuSans-61" transform="translate(63.476562 0)"/>
      <use xlink:href="#DejaVuSans-74" transform="translate(124.755859 0)"/>
      <use xlink:href="#DejaVuSans-61" transform="translate(163.964844 0)"/>
      <use xlink:href="#DejaVuSans-2d" transform="translate(225.244141 0)"/>
      <use xlink:href="#DejaVuSans-6f" transform="translate(263.203125 0)"/>
      <use xlink:href="#DejaVuSans-6e" transform="translate(324.384766 0)"/>
      <use xlink:href="#DejaVuSans-6c" transform="translate(387.763672 0)"/>
      <use xlink:href="#DejaVuSans-79" transform="translate(415.546875 0)"/>
      <use xlink:href="#DejaVuSans-20" transform="translate(474.726562 0)"/>
      <use xlink:href="#DejaVuSans-4d" transform="translate(506.513672 0)"/>
      <use xlink:href="#DejaVuSans-4c" transform="translate(592.792969 0)"/>
      <use xlink:href="#DejaVuSans-50" transform="translate(648.505859 0)"/>
      <use xlink:href="#DejaVuSans-20" transform="translate(708.808594 0)"/>
      <use xlink:href="#DejaVuSans-28" transform="translate(740.595703 0)"/>
      <use xlink:href="#DejaVuSans-6e" transform="translate(779.609375 0)"/>
      <use xlink:href="#DejaVuSans-6f" transform="translate(842.988281 0)"/>
      <use xlink:href="#DejaVuSans-20" transform="translate(904.169922 0)"/>
      <use xlink:href="#DejaVuSans-70" transform="translate(935.957031 0)"/>
      <use xlink:href="#DejaVuSans-68" transform="translate(999.433594 0)"/>
      <use xlink:href="#DejaVuSans-79" transform="translate(1062.8125 0)"/>
      <use xlink:href="#DejaVuSans-73" transform="translate(1121.992188 0)"/>
      <use xlink:href="#DejaVuSans-69" transform="translate(1174.091797 0)"/>
      <use xlink:href="#DejaVuSans-63" transform="translate(1201.875 0)"/>
      <use xlink:href="#DejaVuSans-73" transform="translate(1256.855469 0)"/>
      <use xlink:href="#DejaVuSans-29" transform="translate(1308.955078 0)"/>
     </g>
    </g>
    <g id="line2d_24">
     <path d="M 347.501859 68.28375 
L 355.501859 68.28375 
L 363.501859 68.28375 
" style="fill: none; stroke-dasharray: 7.4,3.2; stroke-dashoffset: 0; stroke: #d62728; stroke-width: 2"/>
    </g>
    <g id="text_25">
     <!-- PINN (data + ODE) -->
     <g transform="translate(369.901859 71.08375) scale(0.08 -0.08)">
      <defs>
       <path id="DejaVuSans-4f" d="M 2522 4238 
Q 1834 4238 1429 3725 
Q 1025 3213 1025 2328 
Q 1025 1447 1429 934 
Q 1834 422 2522 422 
Q 3209 422 3611 934 
Q 4013 1447 4013 2328 
Q 4013 3213 3611 3725 
Q 3209 4238 2522 4238 
z
M 2522 4750 
Q 3503 4750 4090 4092 
Q 4678 3434 4678 2328 
Q 4678 1225 4090 567 
Q 3503 -91 2522 -91 
Q 1538 -91 948 565 
Q 359 1222 359 2328 
Q 359 3434 948 4092 
Q 1538 4750 2522 4750 
z
" transform="scale(0.015625)"/>
       <path id="DejaVuSans-44" d="M 1259 4147 
L 1259 519 
L 2022 519 
Q 2988 519 3436 956 
Q 3884 1394 3884 2338 
Q 3884 3275 3436 3711 
Q 2988 4147 2022 4147 
L 1259 4147 
z
M 628 4666 
L 1925 4666 
Q 3281 4666 3915 4102 
Q 4550 3538 4550 2338 
Q 4550 1131 3912 565 
Q 3275 0 1925 0 
L 628 0 
L 628 4666 
z
" transform="scale(0.015625)"/>
       <path id="DejaVuSans-45" d="M 628 4666 
L 3578 4666 
L 3578 4134 
L 1259 4134 
L 1259 2753 
L 3481 2753 
L 3481 2222 
L 1259 2222 
L 1259 531 
L 3634 531 
L 3634 0 
L 628 0 
L 628 4666 
z
" transform="scale(0.015625)"/>
      </defs>
      <use xlink:href="#DejaVuSans-50"/>
      <use xlink:href="#DejaVuSans-49" transform="translate(60.302734 0)"/>
      <use xlink:href="#DejaVuSans-4e" transform="translate(89.794922 0)"/>
      <use xlink:href="#DejaVuSans-4e" transform="translate(164.599609 0)"/>
      <use xlink:href="#DejaVuSans-20" transform="translate(239.404297 0)"/>
      <use xlink:href="#DejaVuSans-28" transform="translate(271.191406 0)"/>
      <use xlink:href="#DejaVuSans-64" transform="translate(310.205078 0)"/>
      <use xlink:href="#DejaVuSans-61" transform="translate(373.681641 0)"/>
      <use xlink:href="#DejaVuSans-74" transform="translate(434.960938 0)"/>
      <use xlink:href="#DejaVuSans-61" transform="translate(474.169922 0)"/>
      <use xlink:href="#DejaVuSans-20" transform="translate(535.449219 0)"/>
      <use xlink:href="#DejaVuSans-2b" transform="translate(567.236328 0)"/>
      <use xlink:href="#DejaVuSans-20" transform="translate(651.025391 0)"/>
      <use xlink:href="#DejaVuSans-4f" transform="translate(682.8125 0)"/>
      <use xlink:href="#DejaVuSans-44" transform="translate(761.523438 0)"/>
      <use xlink:href="#DejaVuSans-45" transform="translate(838.525391 0)"/>
      <use xlink:href="#DejaVuSans-29" transform="translate(901.708984 0)"/>
     </g>
    </g>
    <g id="PathCollection_2">
     <g>
      <use xlink:href="#mf052b6adbf" x="355.501859" y="80.7275" style="stroke: #000000"/>
     </g>
    </g>
    <g id="text_26">
     <!-- noisy data ($\sigma = 0.15$) -->
     <g transform="translate(369.901859 82.8275) scale(0.08 -0.08)">
      <defs>
       <path id="DejaVuSans-Oblique-3c3" d="M 2219 3044 
Q 1744 3044 1422 2700 
Q 1081 2341 969 1747 
Q 844 1119 1044 756 
Q 1241 397 1706 397 
Q 2166 397 2503 759 
Q 2844 1122 2966 1747 
Q 3075 2319 2881 2700 
Q 2700 3044 2219 3044 
z
M 2309 3503 
L 4219 3500 
L 4106 2925 
L 3463 2925 
Q 3706 2438 3575 1747 
Q 3406 888 2884 400 
Q 2359 -91 1609 -91 
Q 856 -91 525 400 
Q 194 888 363 1747 
Q 528 2609 1050 3097 
Q 1484 3503 2309 3503 
z
" transform="scale(0.015625)"/>
      </defs>
      <use xlink:href="#DejaVuSans-6e" transform="translate(0 0.015625)"/>
      <use xlink:href="#DejaVuSans-6f" transform="translate(63.378906 0.015625)"/>
      <use xlink:href="#DejaVuSans-69" transform="translate(124.560547 0.015625)"/>
      <use xlink:href="#DejaVuSans-73" transform="translate(152.34375 0.015625)"/>
      <use xlink:href="#DejaVuSans-79" transform="translate(204.443359 0.015625)"/>
      <use xlink:href="#DejaVuSans-20" transform="translate(263.623047 0.015625)"/>
      <use xlink:href="#DejaVuSans-64" transform="translate(295.410156 0.015625)"/>
      <use xlink:href="#DejaVuSans-61" transform="translate(358.886719 0.015625)"/>
      <use xlink:href="#DejaVuSans-74" transform="translate(420.166016 0.015625)"/>
      <use xlink:href="#DejaVuSans-61" transform="translate(459.375 0.015625)"/>
      <use xlink:href="#DejaVuSans-20" transform="translate(520.654297 0.015625)"/>
      <use xlink:href="#DejaVuSans-28" transform="translate(552.441406 0.015625)"/>
      <use xlink:href="#DejaVuSans-Oblique-3c3" transform="translate(591.455078 0.015625)"/>
      <use xlink:href="#DejaVuSans-3d" transform="translate(674.316406 0.015625)"/>
      <use xlink:href="#DejaVuSans-30" transform="translate(777.587891 0.015625)"/>
      <use xlink:href="#DejaVuSans-2e" transform="translate(841.210938 0.015625)"/>
      <use xlink:href="#DejaVuSans-31" transform="translate(872.998047 0.015625)"/>
      <use xlink:href="#DejaVuSans-35" transform="translate(936.621094 0.015625)"/>
      <use xlink:href="#DejaVuSans-29" transform="translate(1000.244141 0.015625)"/>
     </g>
    </g>
   </g>
  </g>
 </g>
 <defs>
  <clipPath id="pb73e260b9b">
   <rect x="52.160938" y="22.56" width="432.778422" height="233.452"/>
  </clipPath>
 </defs>
</svg>
