<?xml version="1.0" encoding="utf-8" standalone="no"?>
<!DOCTYPE svg PUBLIC "-//W3C//DTD SVG 1.1//EN"
  "http://www.w3.org/Graphics/SVG/1.1/DTD/svg11.dtd">
<svg xmlns:xlink="http://www.w3.org/1999/xlink" width="496.380313pt" height="294.154375pt" viewBox="0 0 496.380313 294.154375" xmlns="http://www.w3.org/2000/svg" version="1.1">
 <metadata>
  <rdf:RDF xmlns:dc="http://purl.org/dc/elements/1.1/" xmlns:cc="http://creativecommons.org/ns#" xmlns:rdf="http://www.w3.org/1999/02/22-rdf-syntax-ns#">
   <cc:Work>
    <dc:type rdf:resource="http://purl.org/dc/dcmitype/StillImage"/>
    <dc:date>2026-05-13T19:05:15.645554</dc:date>
    <dc:format>image/svg+xml</dc:format>
    <dc:creator>
     <cc:Agent>
      <dc:title>Matplotlib v3.10.9, https://matplotlib.org/</dc:title>
     </cc:Agent>
    </dc:creator>
   </cc:Work>
  </rdf:RDF>
 </metadata>
 <defs>
  <style type="text/css">*{stroke-linejoin: round; stroke-linecap: butt}</style>
 </defs>
 <g id="figure_1">
  <g id="patch_1">
   <path d="M 0 294.154375 
L 496.380313 294.154375 
L 496.380313 0 
L 0 0 
z
" style="fill: #ffffff"/>
  </g>
  <g id="axes_1">
   <g id="patch_2">
    <path d="M 42.620313 256.598125 
L 489.180312 256.598125 
L 489.180312 22.318125 
L 42.620313 22.318125 
z
" style="fill: #ffffff"/>
   </g>
   <g id="matplotlib.axis_1">
    <g id="xtick_1">
     <g id="line2d_1">
      <defs>
       <path id="m8499e223c0" d="M 0 0 
L 0 3.5 
" style="stroke: #000000; stroke-width: 0.8"/>
      </defs>
      <g>
       <use xlink:href="#m8499e223c0" x="72.066954" y="256.598125" style="stroke: #000000; stroke-width: 0.8"/>
      </g>
     </g>
     <g id="text_1">
      <!-- −3 -->
      <g transform="translate(64.69586 271.196562) scale(0.1 -0.1)">
       <defs>
        <path id="DejaVuSans-2212" d="M 678 2272 
L 4684 2272 
L 4684 1741 
L 678 1741 
L 678 2272 
z
" transform="scale(0.015625)"/>
        <path id="DejaVuSans-33" d="M 2597 2516 
Q 3050 2419 3304 2112 
Q 3559 1806 3559 1356 
Q 3559 666 3084 287 
Q 2609 -91 1734 -91 
Q 1441 -91 1130 -33 
Q 819 25 488 141 
L 488 750 
Q 750 597 1062 519 
Q 1375 441 1716 441 
Q 2309 441 2620 675 
Q 2931 909 2931 1356 
Q 2931 1769 2642 2001 
Q 2353 2234 1838 2234 
L 1294 2234 
L 1294 2753 
L 1863 2753 
Q 2328 2753 2575 2939 
Q 2822 3125 2822 3475 
Q 2822 3834 2567 4026 
Q 2313 4219 1838 4219 
Q 1578 4219 1281 4162 
Q 984 4106 628 3988 
L 628 4550 
Q 988 4650 1302 4700 
Q 1616 4750 1894 4750 
Q 2613 4750 3031 4423 
Q 3450 4097 3450 3541 
Q 3450 3153 3228 2886 
Q 3006 2619 2597 2516 
z
" transform="scale(0.015625)"/>
       </defs>
       <use xlink:href="#DejaVuSans-2212"/>
       <use xlink:href="#DejaVuSans-33" transform="translate(83.789062 0)"/>
      </g>
     </g>
    </g>
    <g id="xtick_2">
     <g id="line2d_2">
      <g>
       <use xlink:href="#m8499e223c0" x="136.678074" y="256.598125" style="stroke: #000000; stroke-width: 0.8"/>
      </g>
     </g>
     <g id="text_2">
      <!-- −2 -->
      <g transform="translate(129.30698 271.196562) scale(0.1 -0.1)">
       <defs>
        <path id="DejaVuSans-32" d="M 1228 531 
L 3431 531 
L 3431 0 
L 469 0 
L 469 531 
Q 828 903 1448 1529 
Q 2069 2156 2228 2338 
Q 2531 2678 2651 2914 
Q 2772 3150 2772 3378 
Q 2772 3750 2511 3984 
Q 2250 4219 1831 4219 
Q 1534 4219 1204 4116 
Q 875 4013 500 3803 
L 500 4441 
Q 881 4594 1212 4672 
Q 1544 4750 1819 4750 
Q 2544 4750 2975 4387 
Q 3406 4025 3406 3419 
Q 3406 3131 3298 2873 
Q 3191 2616 2906 2266 
Q 2828 2175 2409 1742 
Q 1991 1309 1228 531 
z
" transform="scale(0.015625)"/>
       </defs>
       <use xlink:href="#DejaVuSans-2212"/>
       <use xlink:href="#DejaVuSans-32" transform="translate(83.789062 0)"/>
      </g>
     </g>
    </g>
    <g id="xtick_3">
     <g id="line2d_3">
      <g>
       <use xlink:href="#m8499e223c0" x="201.289193" y="256.598125" style="stroke: #000000; stroke-width: 0.8"/>
      </g>
     </g>
     <g id="text_3">
      <!-- −1 -->
      <g transform="translate(193.918099 271.196562) scale(0.1 -0.1)">
       <defs>
        <path id="DejaVuSans-31" d="M 794 531 
L 1825 531 
L 1825 4091 
L 703 3866 
L 703 4441 
L 1819 4666 
L 2450 4666 
L 2450 531 
L 3481 531 
L 3481 0 
L 794 0 
L 794 531 
z
" transform="scale(0.015625)"/>
       </defs>
       <use xlink:href="#DejaVuSans-2212"/>
       <use xlink:href="#DejaVuSans-31" transform="translate(83.789062 0)"/>
      </g>
     </g>
    </g>
    <g id="xtick_4">
     <g id="line2d_4">
      <g>
       <use xlink:href="#m8499e223c0" x="265.900312" y="256.598125" style="stroke: #000000; stroke-width: 0.8"/>
      </g>
     </g>
     <g id="text_4">
      <!-- 0 -->
      <g transform="translate(262.719063 271.196562) scale(0.1 -0.1)">
       <defs>
        <path id="DejaVuSans-30" d="M 2034 4250 
Q 1547 4250 1301 3770 
Q 1056 3291 1056 2328 
Q 1056 1369 1301 889 
Q 1547 409 2034 409 
Q 2525 409 2770 889 
Q 3016 1369 3016 2328 
Q 3016 3291 2770 3770 
Q 2525 4250 2034 4250 
z
M 2034 4750 
Q 2819 4750 3233 4129 
Q 3647 3509 3647 2328 
Q 3647 1150 3233 529 
Q 2819 -91 2034 -91 
Q 1250 -91 836 529 
Q 422 1150 422 2328 
Q 422 3509 836 4129 
Q 1250 4750 2034 4750 
z
" transform="scale(0.015625)"/>
       </defs>
       <use xlink:href="#DejaVuSans-30"/>
      </g>
     </g>
    </g>
    <g id="xtick_5">
     <g id="line2d_5">
      <g>
       <use xlink:href="#m8499e223c0" x="330.511432" y="256.598125" style="stroke: #000000; stroke-width: 0.8"/>
      </g>
     </g>
     <g id="text_5">
      <!-- 1 -->
      <g transform="translate(327.330182 271.196562) scale(0.1 -0.1)">
       <use xlink:href="#DejaVuSans-31"/>
      </g>
     </g>
    </g>
    <g id="xtick_6">
     <g id="line2d_6">
      <g>
       <use xlink:href="#m8499e223c0" x="395.122551" y="256.598125" style="stroke: #000000; stroke-width: 0.8"/>
      </g>
     </g>
     <g id="text_6">
      <!-- 2 -->
      <g transform="translate(391.941301 271.196562) scale(0.1 -0.1)">
       <use xlink:href="#DejaVuSans-32"/>
      </g>
     </g>
    </g>
    <g id="xtick_7">
     <g id="line2d_7">
      <g>
       <use xlink:href="#m8499e223c0" x="459.733671" y="256.598125" style="stroke: #000000; stroke-width: 0.8"/>
      </g>
     </g>
     <g id="text_7">
      <!-- 3 -->
      <g transform="translate(456.552421 271.196562) scale(0.1 -0.1)">
       <use xlink:href="#DejaVuSans-33"/>
      </g>
     </g>
    </g>
    <g id="text_8">
     <!-- x -->
     <g transform="translate(262.940937 284.874687) scale(0.1 -0.1)">
      <defs>
       <path id="DejaVuSans-78" d="M 3513 3500 
L 2247 1797 
L 3578 0 
L 2900 0 
L 1881 1375 
L 863 0 
L 184 0 
L 1544 1831 
L 300 3500 
L 978 3500 
L 1906 2253 
L 2834 3500 
L 3513 3500 
z
" transform="scale(0.015625)"/>
      </defs>
      <use xlink:href="#DejaVuSans-78"/>
     </g>
    </g>
   </g>
   <g id="matplotlib.axis_2">
    <g id="ytick_1">
     <g id="line2d_8">
      <defs>
       <path id="mc085e19c5f" d="M 0 0 
L -3.5 0 
" style="stroke: #000000; stroke-width: 0.8"/>
      </defs>
      <g>
       <use xlink:href="#mc085e19c5f" x="42.620313" y="249.703606" style="stroke: #000000; stroke-width: 0.8"/>
      </g>
     </g>
     <g id="text_9">
      <!-- −3 -->
      <g transform="translate(20.878125 253.502825) scale(0.1 -0.1)">
       <use xlink:href="#DejaVuSans-2212"/>
       <use xlink:href="#DejaVuSans-33" transform="translate(83.789062 0)"/>
      </g>
     </g>
    </g>
    <g id="ytick_2">
     <g id="line2d_9">
      <g>
       <use xlink:href="#mc085e19c5f" x="42.620313" y="205.984813" style="stroke: #000000; stroke-width: 0.8"/>
      </g>
     </g>
     <g id="text_10">
      <!-- −2 -->
      <g transform="translate(20.878125 209.784031) scale(0.1 -0.1)">
       <use xlink:href="#DejaVuSans-2212"/>
       <use xlink:href="#DejaVuSans-32" transform="translate(83.789062 0)"/>
      </g>
     </g>
    </g>
    <g id="ytick_3">
     <g id="line2d_10">
      <g>
       <use xlink:href="#mc085e19c5f" x="42.620313" y="162.266019" style="stroke: #000000; stroke-width: 0.8"/>
      </g>
     </g>
     <g id="text_11">
      <!-- −1 -->
      <g transform="translate(20.878125 166.065238) scale(0.1 -0.1)">
       <use xlink:href="#DejaVuSans-2212"/>
       <use xlink:href="#DejaVuSans-31" transform="translate(83.789062 0)"/>
      </g>
     </g>
    </g>
    <g id="ytick_4">
     <g id="line2d_11">
      <g>
       <use xlink:href="#mc085e19c5f" x="42.620313" y="118.547225" style="stroke: #000000; stroke-width: 0.8"/>
      </g>
     </g>
     <g id="text_12">
      <!-- 0 -->
      <g transform="translate(29.257813 122.346444) scale(0.1 -0.1)">
       <use xlink:href="#DejaVuSans-30"/>
      </g>
     </g>
    </g>
    <g id="ytick_5">
     <g id="line2d_12">
      <g>
       <use xlink:href="#mc085e19c5f" x="42.620313" y="74.828432" style="stroke: #000000; stroke-width: 0.8"/>
      </g>
     </g>
     <g id="text_13">
      <!-- 1 -->
      <g transform="translate(29.257813 78.62765) scale(0.1 -0.1)">
       <use xlink:href="#DejaVuSans-31"/>
      </g>
     </g>
    </g>
    <g id="ytick_6">
     <g id="line2d_13">
      <g>
       <use xlink:href="#mc085e19c5f" x="42.620313" y="31.109638" style="stroke: #000000; stroke-width: 0.8"/>
      </g>
     </g>
     <g id="text_14">
      <!-- 2 -->
      <g transform="translate(29.257813 34.908857) scale(0.1 -0.1)">
       <use xlink:href="#DejaVuSans-32"/>
      </g>
     </g>
    </g>
    <g id="text_15">
     <!-- y -->
     <g transform="translate(14.798438 142.4175) rotate(-90) scale(0.1 -0.1)">
      <defs>
       <path id="DejaVuSans-79" d="M 2059 -325 
Q 1816 -950 1584 -1140 
Q 1353 -1331 966 -1331 
L 506 -1331 
L 506 -850 
L 844 -850 
Q 1081 -850 1212 -737 
Q 1344 -625 1503 -206 
L 1606 56 
L 191 3500 
L 800 3500 
L 1894 763 
L 2988 3500 
L 3597 3500 
L 2059 -325 
z
" transform="scale(0.015625)"/>
      </defs>
      <use xlink:href="#DejaVuSans-79"/>
     </g>
    </g>
   </g>
   <g id="line2d_14">
    <path d="M 62.918494 107.06036 
L 163.223366 118.617487 
L 468.882131 118.617487 
L 468.882131 118.617487 
" clip-path="url(#p942f4022e0)" style="fill: none; stroke: #808080; stroke-opacity: 0.5; stroke-width: 0.6; stroke-linecap: square"/>
   </g>
   <g id="line2d_15">
    <path d="M 62.918494 175.648998 
L 270.305594 118.676073 
L 271.661065 118.617487 
L 468.882131 118.617487 
L 468.882131 118.617487 
" clip-path="url(#p942f4022e0)" style="fill: none; stroke: #808080; stroke-opacity: 0.5; stroke-width: 0.6; stroke-linecap: square"/>
   </g>
   <g id="line2d_16">
    <path d="M 62.918494 118.617487 
L 268.272387 118.715705 
L 468.882131 128.115314 
L 468.882131 128.115314 
" clip-path="url(#p942f4022e0)" style="fill: none; stroke: #808080; stroke-opacity: 0.5; stroke-width: 0.6; stroke-linecap: square"/>
   </g>
   <g id="line2d_17">
    <path d="M 62.918494 118.617487 
L 267.594652 118.617487 
L 268.950123 119.089362 
L 468.882131 202.876182 
L 468.882131 202.876182 
" clip-path="url(#p942f4022e0)" style="fill: none; stroke: #808080; stroke-opacity: 0.5; stroke-width: 0.6; stroke-linecap: square"/>
   </g>
   <g id="line2d_18">
    <path d="M 62.918494 32.967216 
L 262.172767 118.617487 
L 468.882131 118.617487 
L 468.882131 118.617487 
" clip-path="url(#p942f4022e0)" style="fill: none; stroke: #808080; stroke-opacity: 0.5; stroke-width: 0.6; stroke-linecap: square"/>
   </g>
   <g id="line2d_19">
    <path d="M 62.918494 97.067711 
L 261.495031 118.617487 
L 468.882131 118.617487 
L 468.882131 118.617487 
" clip-path="url(#p942f4022e0)" style="fill: none; stroke: #808080; stroke-opacity: 0.5; stroke-width: 0.6; stroke-linecap: square"/>
   </g>
   <g id="line2d_20">
    <path d="M 62.918494 102.57361 
L 266.916916 118.617487 
L 468.882131 118.617487 
L 468.882131 118.617487 
" clip-path="url(#p942f4022e0)" style="fill: none; stroke: #808080; stroke-opacity: 0.5; stroke-width: 0.6; stroke-linecap: square"/>
   </g>
   <g id="line2d_21">
    <path d="M 62.918494 110.346937 
L 238.45202 118.617487 
L 468.882131 118.617487 
L 468.882131 118.617487 
" clip-path="url(#p942f4022e0)" style="fill: none; stroke: #808080; stroke-opacity: 0.5; stroke-width: 0.6; stroke-linecap: square"/>
   </g>
   <g id="line2d_22">
    <path d="M 62.918494 190.489644 
L 321.813501 118.634793 
L 326.55765 118.617487 
L 468.882131 118.617487 
L 468.882131 118.617487 
" clip-path="url(#p942f4022e0)" style="fill: none; stroke: #808080; stroke-opacity: 0.5; stroke-width: 0.6; stroke-linecap: square"/>
   </g>
   <g id="line2d_23">
    <path d="M 62.918494 118.617487 
L 195.754676 118.566097 
L 468.882131 84.746909 
L 468.882131 84.746909 
" clip-path="url(#p942f4022e0)" style="fill: none; stroke: #808080; stroke-opacity: 0.5; stroke-width: 0.6; stroke-linecap: square"/>
   </g>
   <g id="line2d_24">
    <path d="M 62.918494 118.617487 
L 189.655055 118.507899 
L 468.882131 117.562325 
L 468.882131 117.562325 
" clip-path="url(#p942f4022e0)" style="fill: none; stroke: #808080; stroke-opacity: 0.5; stroke-width: 0.6; stroke-linecap: square"/>
   </g>
   <g id="line2d_25">
    <path d="M 62.918494 133.375409 
L 272.338801 118.617487 
L 468.882131 118.617487 
L 468.882131 118.617487 
" clip-path="url(#p942f4022e0)" style="fill: none; stroke: #808080; stroke-opacity: 0.5; stroke-width: 0.6; stroke-linecap: square"/>
   </g>
   <g id="line2d_26">
    <path d="M 62.918494 92.820019 
L 263.528238 118.617487 
L 468.882131 118.617487 
L 468.882131 118.617487 
" clip-path="url(#p942f4022e0)" style="fill: none; stroke: #808080; stroke-opacity: 0.5; stroke-width: 0.6; stroke-linecap: square"/>
   </g>
   <g id="line2d_27">
    <path d="M 62.918494 118.617487 
L 257.428617 118.527976 
L 468.882131 74.869608 
L 468.882131 74.869608 
" clip-path="url(#p942f4022e0)" style="fill: none; stroke: #808080; stroke-opacity: 0.5; stroke-width: 0.6; stroke-linecap: square"/>
   </g>
   <g id="line2d_28">
    <path d="M 62.918494 118.617487 
L 265.561445 118.519858 
L 468.882131 105.042903 
L 468.882131 105.042903 
" clip-path="url(#p942f4022e0)" style="fill: none; stroke: #808080; stroke-opacity: 0.5; stroke-width: 0.6; stroke-linecap: square"/>
   </g>
   <g id="line2d_29">
    <path d="M 62.918494 118.617487 
L 257.428617 118.529681 
L 468.882131 97.010071 
L 468.882131 97.010071 
" clip-path="url(#p942f4022e0)" style="fill: none; stroke: #808080; stroke-opacity: 0.5; stroke-width: 0.6; stroke-linecap: square"/>
   </g>
   <g id="line2d_30">
    <path d="M 62.918494 118.617487 
L 263.528238 118.563446 
L 468.882131 80.392861 
L 468.882131 80.392861 
" clip-path="url(#p942f4022e0)" style="fill: none; stroke: #808080; stroke-opacity: 0.5; stroke-width: 0.6; stroke-linecap: square"/>
   </g>
   <g id="line2d_31">
    <path d="M 62.918494 118.617487 
L 262.172767 118.570101 
L 468.882131 95.567972 
L 468.882131 95.567972 
" clip-path="url(#p942f4022e0)" style="fill: none; stroke: #808080; stroke-opacity: 0.5; stroke-width: 0.6; stroke-linecap: square"/>
   </g>
   <g id="line2d_32">
    <path d="M 62.918494 109.933891 
L 245.229376 118.617487 
L 468.882131 118.617487 
L 468.882131 118.617487 
" clip-path="url(#p942f4022e0)" style="fill: none; stroke: #808080; stroke-opacity: 0.5; stroke-width: 0.6; stroke-linecap: square"/>
   </g>
   <g id="line2d_33">
    <path d="M 62.918494 118.617487 
L 264.883709 118.510342 
L 468.882131 103.280216 
L 468.882131 103.280216 
" clip-path="url(#p942f4022e0)" style="fill: none; stroke: #808080; stroke-opacity: 0.5; stroke-width: 0.6; stroke-linecap: square"/>
   </g>
   <g id="line2d_34">
    <path d="M 62.918494 118.617487 
L 271.661065 118.721775 
L 468.882131 126.765642 
L 468.882131 126.765642 
" clip-path="url(#p942f4022e0)" style="fill: none; stroke: #808080; stroke-opacity: 0.5; stroke-width: 0.6; stroke-linecap: square"/>
   </g>
   <g id="line2d_35">
    <path d="M 62.918494 118.617487 
L 292.670869 118.630139 
L 468.882131 203.270265 
L 468.882131 203.270265 
" clip-path="url(#p942f4022e0)" style="fill: none; stroke: #808080; stroke-opacity: 0.5; stroke-width: 0.6; stroke-linecap: square"/>
   </g>
   <g id="line2d_36">
    <path d="M 62.918494 42.894993 
L 258.106353 118.577148 
L 260.13956 118.617487 
L 468.882131 118.617487 
L 468.882131 118.617487 
" clip-path="url(#p942f4022e0)" style="fill: none; stroke: #808080; stroke-opacity: 0.5; stroke-width: 0.6; stroke-linecap: square"/>
   </g>
   <g id="line2d_37">
    <path d="M 62.918494 118.617487 
L 258.106353 118.515628 
L 468.882131 77.002912 
L 468.882131 77.002912 
" clip-path="url(#p942f4022e0)" style="fill: none; stroke: #808080; stroke-opacity: 0.5; stroke-width: 0.6; stroke-linecap: square"/>
   </g>
   <g id="line2d_38">
    <path d="M 62.918494 118.617487 
L 158.479217 118.513292 
L 468.882131 78.381883 
L 468.882131 78.381883 
" clip-path="url(#p942f4022e0)" style="fill: none; stroke: #808080; stroke-opacity: 0.5; stroke-width: 0.6; stroke-linecap: square"/>
   </g>
   <g id="line2d_39">
    <path d="M 62.918494 118.617487 
L 365.188581 118.625087 
L 468.882131 134.95356 
L 468.882131 134.95356 
" clip-path="url(#p942f4022e0)" style="fill: none; stroke: #808080; stroke-opacity: 0.5; stroke-width: 0.6; stroke-linecap: square"/>
   </g>
   <g id="line2d_40">
    <path d="M 62.918494 125.037699 
L 369.93273 118.617487 
L 468.882131 118.617487 
L 468.882131 118.617487 
" clip-path="url(#p942f4022e0)" style="fill: none; stroke: #808080; stroke-opacity: 0.5; stroke-width: 0.6; stroke-linecap: square"/>
   </g>
   <g id="line2d_41">
    <path d="M 62.918494 245.949034 
L 270.98333 118.617487 
L 468.882131 118.617487 
L 468.882131 118.617487 
" clip-path="url(#p942f4022e0)" style="fill: none; stroke: #808080; stroke-opacity: 0.5; stroke-width: 0.6; stroke-linecap: square"/>
   </g>
   <g id="line2d_42">
    <path d="M 62.918494 88.769645 
L 169.322987 118.617487 
L 468.882131 118.617487 
L 468.882131 118.617487 
" clip-path="url(#p942f4022e0)" style="fill: none; stroke: #808080; stroke-opacity: 0.5; stroke-width: 0.6; stroke-linecap: square"/>
   </g>
   <g id="line2d_43">
    <path d="M 62.918494 118.617487 
L 270.98333 118.715943 
L 468.882131 149.295644 
L 468.882131 149.295644 
" clip-path="url(#p942f4022e0)" style="fill: none; stroke: #808080; stroke-opacity: 0.5; stroke-width: 0.6; stroke-linecap: square"/>
   </g>
   <g id="line2d_44">
    <path d="M 62.918494 118.617487 
L 271.661065 118.705884 
L 468.882131 138.799279 
L 468.882131 138.799279 
" clip-path="url(#p942f4022e0)" style="fill: none; stroke: #808080; stroke-opacity: 0.5; stroke-width: 0.6; stroke-linecap: square"/>
   </g>
   <g id="line2d_45">
    <path d="M 62.918494 132.679656 
L 367.221788 118.617487 
L 468.882131 118.617487 
L 468.882131 118.617487 
" clip-path="url(#p942f4022e0)" style="fill: none; stroke: #808080; stroke-opacity: 0.5; stroke-width: 0.6; stroke-linecap: square"/>
   </g>
   <g id="line2d_46">
    <path d="M 62.918494 118.547225 
L 79.861885 129.880937 
L 88.672448 135.51571 
L 96.12754 140.041565 
L 102.904896 143.909443 
L 109.004516 147.153309 
L 115.104137 150.142417 
L 120.526022 152.563956 
L 125.947907 154.746096 
L 131.369792 156.673478 
L 136.113941 158.140248 
L 140.858091 159.393652 
L 145.60224 160.426935 
L 150.346389 161.234528 
L 155.090539 161.812081 
L 159.834688 162.15648 
L 164.578837 162.265869 
L 169.322987 162.139659 
L 174.067136 161.778529 
L 178.811285 161.184428 
L 183.555435 160.360554 
L 188.299584 159.31135 
L 193.043733 158.042468 
L 197.787883 156.560746 
L 203.209768 154.617025 
L 208.631653 152.419455 
L 214.053538 149.983502 
L 220.153158 146.979521 
L 226.252779 143.722329 
L 233.030135 139.841604 
L 240.485227 135.30416 
L 249.29579 129.659328 
L 260.817295 121.983077 
L 283.860306 106.550581 
L 292.670869 100.946913 
L 300.125961 96.45657 
L 306.903318 92.627871 
L 313.002938 89.424517 
L 319.102559 86.480521 
L 324.524444 84.102621 
L 329.946329 81.967131 
L 335.368214 80.089081 
L 340.112363 78.667406 
L 344.856512 77.460642 
L 349.600662 76.475294 
L 354.344811 75.71667 
L 359.08896 75.18886 
L 363.83311 74.894707 
L 368.577259 74.835797 
L 373.321408 75.012448 
L 378.065558 75.423706 
L 382.809707 76.067357 
L 387.553856 76.939931 
L 392.298006 78.036726 
L 397.042155 79.351832 
L 401.786304 80.878161 
L 407.208189 82.870576 
L 412.630074 85.114073 
L 418.051959 87.592863 
L 424.15158 90.640968 
L 430.2512 93.937598 
L 437.028557 97.856224 
L 444.483648 102.427684 
L 453.294211 108.101759 
L 465.493453 116.255344 
L 468.882131 118.547225 
L 468.882131 118.547225 
" clip-path="url(#p942f4022e0)" style="fill: none; stroke: #1f77b4; stroke-width: 2; stroke-linecap: square"/>
   </g>
   <g id="line2d_47">
    <path d="M 62.918494 129.148111 
L 158.479217 160.033285 
L 163.223366 160.868906 
L 169.322987 161.307379 
L 195.754676 155.836737 
L 239.129756 141.45857 
L 245.229376 139.059277 
L 256.750882 134.148056 
L 257.428617 133.701785 
L 258.106353 133.103235 
L 260.817295 129.557398 
L 262.172767 127.478064 
L 263.528238 124.714079 
L 268.950123 111.985428 
L 270.305594 109.273628 
L 270.98333 108.172198 
L 281.149364 100.212518 
L 292.670869 91.215511 
L 321.813501 82.424546 
L 326.55765 82.292864 
L 365.188581 81.375817 
L 446.516855 97.733293 
L 468.882131 102.23186 
L 468.882131 102.23186 
" clip-path="url(#p942f4022e0)" style="fill: none; stroke-dasharray: 7.4,3.2; stroke-dashoffset: 0; stroke: #d62728; stroke-width: 2"/>
   </g>
   <g id="patch_3">
    <path d="M 42.620313 256.598125 
L 42.620313 22.318125 
" style="fill: none; stroke: #000000; stroke-width: 0.8; stroke-linejoin: miter; stroke-linecap: square"/>
   </g>
   <g id="patch_4">
    <path d="M 489.180312 256.598125 
L 489.180312 22.318125 
" style="fill: none; stroke: #000000; stroke-width: 0.8; stroke-linejoin: miter; stroke-linecap: square"/>
   </g>
   <g id="patch_5">
    <path d="M 42.620313 256.598125 
L 489.180312 256.598125 
" style="fill: none; stroke: #000000; stroke-width: 0.8; stroke-linejoin: miter; stroke-linecap: square"/>
   </g>
   <g id="patch_6">
    <path d="M 42.620313 22.318125 
L 489.180312 22.318125 
" style="fill: none; stroke: #000000; stroke-width: 0.8; stroke-linejoin: miter; stroke-linecap: square"/>
   </g>
   <g id="text_16">
    <!-- A wide ReLU layer is a basis: the sum of bumps approximates the target -->
    <g transform="translate(49.055625 16.318125) scale(0.12 -0.12)">
     <defs>
      <path id="DejaVuSans-41" d="M 2188 4044 
L 1331 1722 
L 3047 1722 
L 2188 4044 
z
M 1831 4666 
L 2547 4666 
L 4325 0 
L 3669 0 
L 3244 1197 
L 1141 1197 
L 716 0 
L 50 0 
L 1831 4666 
z
" transform="scale(0.015625)"/>
      <path id="DejaVuSans-20" transform="scale(0.015625)"/>
      <path id="DejaVuSans-77" d="M 269 3500 
L 844 3500 
L 1563 769 
L 2278 3500 
L 2956 3500 
L 3675 769 
L 4391 3500 
L 4966 3500 
L 4050 0 
L 3372 0 
L 2619 2869 
L 1863 0 
L 1184 0 
L 269 3500 
z
" transform="scale(0.015625)"/>
      <path id="DejaVuSans-69" d="M 603 3500 
L 1178 3500 
L 1178 0 
L 603 0 
L 603 3500 
z
M 603 4863 
L 1178 4863 
L 1178 4134 
L 603 4134 
L 603 4863 
z
" transform="scale(0.015625)"/>
      <path id="DejaVuSans-64" d="M 2906 2969 
L 2906 4863 
L 3481 4863 
L 3481 0 
L 2906 0 
L 2906 525 
Q 2725 213 2448 61 
Q 2172 -91 1784 -91 
Q 1150 -91 751 415 
Q 353 922 353 1747 
Q 353 2572 751 3078 
Q 1150 3584 1784 3584 
Q 2172 3584 2448 3432 
Q 2725 3281 2906 2969 
z
M 947 1747 
Q 947 1113 1208 752 
Q 1469 391 1925 391 
Q 2381 391 2643 752 
Q 2906 1113 2906 1747 
Q 2906 2381 2643 2742 
Q 2381 3103 1925 3103 
Q 1469 3103 1208 2742 
Q 947 2381 947 1747 
z
" transform="scale(0.015625)"/>
      <path id="DejaVuSans-65" d="M 3597 1894 
L 3597 1613 
L 953 1613 
Q 991 1019 1311 708 
Q 1631 397 2203 397 
Q 2534 397 2845 478 
Q 3156 559 3463 722 
L 3463 178 
Q 3153 47 2828 -22 
Q 2503 -91 2169 -91 
Q 1331 -91 842 396 
Q 353 884 353 1716 
Q 353 2575 817 3079 
Q 1281 3584 2069 3584 
Q 2775 3584 3186 3129 
Q 3597 2675 3597 1894 
z
M 3022 2063 
Q 3016 2534 2758 2815 
Q 2500 3097 2075 3097 
Q 1594 3097 1305 2825 
Q 1016 2553 972 2059 
L 3022 2063 
z
" transform="scale(0.015625)"/>
      <path id="DejaVuSans-52" d="M 2841 2188 
Q 3044 2119 3236 1894 
Q 3428 1669 3622 1275 
L 4263 0 
L 3584 0 
L 2988 1197 
Q 2756 1666 2539 1819 
Q 2322 1972 1947 1972 
L 1259 1972 
L 1259 0 
L 628 0 
L 628 4666 
L 2053 4666 
Q 2853 4666 3247 4331 
Q 3641 3997 3641 3322 
Q 3641 2881 3436 2590 
Q 3231 2300 2841 2188 
z
M 1259 4147 
L 1259 2491 
L 2053 2491 
Q 2509 2491 2742 2702 
Q 2975 2913 2975 3322 
Q 2975 3731 2742 3939 
Q 2509 4147 2053 4147 
L 1259 4147 
z
" transform="scale(0.015625)"/>
      <path id="DejaVuSans-4c" d="M 628 4666 
L 1259 4666 
L 1259 531 
L 3531 531 
L 3531 0 
L 628 0 
L 628 4666 
z
" transform="scale(0.015625)"/>
      <path id="DejaVuSans-55" d="M 556 4666 
L 1191 4666 
L 1191 1831 
Q 1191 1081 1462 751 
Q 1734 422 2344 422 
Q 2950 422 3222 751 
Q 3494 1081 3494 1831 
L 3494 4666 
L 4128 4666 
L 4128 1753 
Q 4128 841 3676 375 
Q 3225 -91 2344 -91 
Q 1459 -91 1007 375 
Q 556 841 556 1753 
L 556 4666 
z
" transform="scale(0.015625)"/>
      <path id="DejaVuSans-6c" d="M 603 4863 
L 1178 4863 
L 1178 0 
L 603 0 
L 603 4863 
z
" transform="scale(0.015625)"/>
      <path id="DejaVuSans-61" d="M 2194 1759 
Q 1497 1759 1228 1600 
Q 959 1441 959 1056 
Q 959 750 1161 570 
Q 1363 391 1709 391 
Q 2188 391 2477 730 
Q 2766 1069 2766 1631 
L 2766 1759 
L 2194 1759 
z
M 3341 1997 
L 3341 0 
L 2766 0 
L 2766 531 
Q 2569 213 2275 61 
Q 1981 -91 1556 -91 
Q 1019 -91 701 211 
Q 384 513 384 1019 
Q 384 1609 779 1909 
Q 1175 2209 1959 2209 
L 2766 2209 
L 2766 2266 
Q 2766 2663 2505 2880 
Q 2244 3097 1772 3097 
Q 1472 3097 1187 3025 
Q 903 2953 641 2809 
L 641 3341 
Q 956 3463 1253 3523 
Q 1550 3584 1831 3584 
Q 2591 3584 2966 3190 
Q 3341 2797 3341 1997 
z
" transform="scale(0.015625)"/>
      <path id="DejaVuSans-72" d="M 2631 2963 
Q 2534 3019 2420 3045 
Q 2306 3072 2169 3072 
Q 1681 3072 1420 2755 
Q 1159 2438 1159 1844 
L 1159 0 
L 581 0 
L 581 3500 
L 1159 3500 
L 1159 2956 
Q 1341 3275 1631 3429 
Q 1922 3584 2338 3584 
Q 2397 3584 2469 3576 
Q 2541 3569 2628 3553 
L 2631 2963 
z
" transform="scale(0.015625)"/>
      <path id="DejaVuSans-73" d="M 2834 3397 
L 2834 2853 
Q 2591 2978 2328 3040 
Q 2066 3103 1784 3103 
Q 1356 3103 1142 2972 
Q 928 2841 928 2578 
Q 928 2378 1081 2264 
Q 1234 2150 1697 2047 
L 1894 2003 
Q 2506 1872 2764 1633 
Q 3022 1394 3022 966 
Q 3022 478 2636 193 
Q 2250 -91 1575 -91 
Q 1294 -91 989 -36 
Q 684 19 347 128 
L 347 722 
Q 666 556 975 473 
Q 1284 391 1588 391 
Q 1994 391 2212 530 
Q 2431 669 2431 922 
Q 2431 1156 2273 1281 
Q 2116 1406 1581 1522 
L 1381 1569 
Q 847 1681 609 1914 
Q 372 2147 372 2553 
Q 372 3047 722 3315 
Q 1072 3584 1716 3584 
Q 2034 3584 2315 3537 
Q 2597 3491 2834 3397 
z
" transform="scale(0.015625)"/>
      <path id="DejaVuSans-62" d="M 3116 1747 
Q 3116 2381 2855 2742 
Q 2594 3103 2138 3103 
Q 1681 3103 1420 2742 
Q 1159 2381 1159 1747 
Q 1159 1113 1420 752 
Q 1681 391 2138 391 
Q 2594 391 2855 752 
Q 3116 1113 3116 1747 
z
M 1159 2969 
Q 1341 3281 1617 3432 
Q 1894 3584 2278 3584 
Q 2916 3584 3314 3078 
Q 3713 2572 3713 1747 
Q 3713 922 3314 415 
Q 2916 -91 2278 -91 
Q 1894 -91 1617 61 
Q 1341 213 1159 525 
L 1159 0 
L 581 0 
L 581 4863 
L 1159 4863 
L 1159 2969 
z
" transform="scale(0.015625)"/>
      <path id="DejaVuSans-3a" d="M 750 794 
L 1409 794 
L 1409 0 
L 750 0 
L 750 794 
z
M 750 3309 
L 1409 3309 
L 1409 2516 
L 750 2516 
L 750 3309 
z
" transform="scale(0.015625)"/>
      <path id="DejaVuSans-74" d="M 1172 4494 
L 1172 3500 
L 2356 3500 
L 2356 3053 
L 1172 3053 
L 1172 1153 
Q 1172 725 1289 603 
Q 1406 481 1766 481 
L 2356 481 
L 2356 0 
L 1766 0 
Q 1100 0 847 248 
Q 594 497 594 1153 
L 594 3053 
L 172 3053 
L 172 3500 
L 594 3500 
L 594 4494 
L 1172 4494 
z
" transform="scale(0.015625)"/>
      <path id="DejaVuSans-68" d="M 3513 2113 
L 3513 0 
L 2938 0 
L 2938 2094 
Q 2938 2591 2744 2837 
Q 2550 3084 2163 3084 
Q 1697 3084 1428 2787 
Q 1159 2491 1159 1978 
L 1159 0 
L 581 0 
L 581 4863 
L 1159 4863 
L 1159 2956 
Q 1366 3272 1645 3428 
Q 1925 3584 2291 3584 
Q 2894 3584 3203 3211 
Q 3513 2838 3513 2113 
z
" transform="scale(0.015625)"/>
      <path id="DejaVuSans-75" d="M 544 1381 
L 544 3500 
L 1119 3500 
L 1119 1403 
Q 1119 906 1312 657 
Q 1506 409 1894 409 
Q 2359 409 2629 706 
Q 2900 1003 2900 1516 
L 2900 3500 
L 3475 3500 
L 3475 0 
L 2900 0 
L 2900 538 
Q 2691 219 2414 64 
Q 2138 -91 1772 -91 
Q 1169 -91 856 284 
Q 544 659 544 1381 
z
M 1991 3584 
L 1991 3584 
z
" transform="scale(0.015625)"/>
      <path id="DejaVuSans-6d" d="M 3328 2828 
Q 3544 3216 3844 3400 
Q 4144 3584 4550 3584 
Q 5097 3584 5394 3201 
Q 5691 2819 5691 2113 
L 5691 0 
L 5113 0 
L 5113 2094 
Q 5113 2597 4934 2840 
Q 4756 3084 4391 3084 
Q 3944 3084 3684 2787 
Q 3425 2491 3425 1978 
L 3425 0 
L 2847 0 
L 2847 2094 
Q 2847 2600 2669 2842 
Q 2491 3084 2119 3084 
Q 1678 3084 1418 2786 
Q 1159 2488 1159 1978 
L 1159 0 
L 581 0 
L 581 3500 
L 1159 3500 
L 1159 2956 
Q 1356 3278 1631 3431 
Q 1906 3584 2284 3584 
Q 2666 3584 2933 3390 
Q 3200 3197 3328 2828 
z
" transform="scale(0.015625)"/>
      <path id="DejaVuSans-6f" d="M 1959 3097 
Q 1497 3097 1228 2736 
Q 959 2375 959 1747 
Q 959 1119 1226 758 
Q 1494 397 1959 397 
Q 2419 397 2687 759 
Q 2956 1122 2956 1747 
Q 2956 2369 2687 2733 
Q 2419 3097 1959 3097 
z
M 1959 3584 
Q 2709 3584 3137 3096 
Q 3566 2609 3566 1747 
Q 3566 888 3137 398 
Q 2709 -91 1959 -91 
Q 1206 -91 779 398 
Q 353 888 353 1747 
Q 353 2609 779 3096 
Q 1206 3584 1959 3584 
z
" transform="scale(0.015625)"/>
      <path id="DejaVuSans-66" d="M 2375 4863 
L 2375 4384 
L 1825 4384 
Q 1516 4384 1395 4259 
Q 1275 4134 1275 3809 
L 1275 3500 
L 2222 3500 
L 2222 3053 
L 1275 3053 
L 1275 0 
L 697 0 
L 697 3053 
L 147 3053 
L 147 3500 
L 697 3500 
L 697 3744 
Q 697 4328 969 4595 
Q 1241 4863 1831 4863 
L 2375 4863 
z
" transform="scale(0.015625)"/>
      <path id="DejaVuSans-70" d="M 1159 525 
L 1159 -1331 
L 581 -1331 
L 581 3500 
L 1159 3500 
L 1159 2969 
Q 1341 3281 1617 3432 
Q 1894 3584 2278 3584 
Q 2916 3584 3314 3078 
Q 3713 2572 3713 1747 
Q 3713 922 3314 415 
Q 2916 -91 2278 -91 
Q 1894 -91 1617 61 
Q 1341 213 1159 525 
z
M 3116 1747 
Q 3116 2381 2855 2742 
Q 2594 3103 2138 3103 
Q 1681 3103 1420 2742 
Q 1159 2381 1159 1747 
Q 1159 1113 1420 752 
Q 1681 391 2138 391 
Q 2594 391 2855 752 
Q 3116 1113 3116 1747 
z
" transform="scale(0.015625)"/>
      <path id="DejaVuSans-67" d="M 2906 1791 
Q 2906 2416 2648 2759 
Q 2391 3103 1925 3103 
Q 1463 3103 1205 2759 
Q 947 2416 947 1791 
Q 947 1169 1205 825 
Q 1463 481 1925 481 
Q 2391 481 2648 825 
Q 2906 1169 2906 1791 
z
M 3481 434 
Q 3481 -459 3084 -895 
Q 2688 -1331 1869 -1331 
Q 1566 -1331 1297 -1286 
Q 1028 -1241 775 -1147 
L 775 -588 
Q 1028 -725 1275 -790 
Q 1522 -856 1778 -856 
Q 2344 -856 2625 -561 
Q 2906 -266 2906 331 
L 2906 616 
Q 2728 306 2450 153 
Q 2172 0 1784 0 
Q 1141 0 747 490 
Q 353 981 353 1791 
Q 353 2603 747 3093 
Q 1141 3584 1784 3584 
Q 2172 3584 2450 3431 
Q 2728 3278 2906 2969 
L 2906 3500 
L 3481 3500 
L 3481 434 
z
" transform="scale(0.015625)"/>
     </defs>
     <use xlink:href="#DejaVuSans-41"/>
     <use xlink:href="#DejaVuSans-20" transform="translate(68.408203 0)"/>
     <use xlink:href="#DejaVuSans-77" transform="translate(100.195312 0)"/>
     <use xlink:href="#DejaVuSans-69" transform="translate(181.982422 0)"/>
     <use xlink:href="#DejaVuSans-64" transform="translate(209.765625 0)"/>
     <use xlink:href="#DejaVuSans-65" transform="translate(273.242188 0)"/>
     <use xlink:href="#DejaVuSans-20" transform="translate(334.765625 0)"/>
     <use xlink:href="#DejaVuSans-52" transform="translate(366.552734 0)"/>
     <use xlink:href="#DejaVuSans-65" transform="translate(431.535156 0)"/>
     <use xlink:href="#DejaVuSans-4c" transform="translate(493.058594 0)"/>
     <use xlink:href="#DejaVuSans-55" transform="translate(543.771484 0)"/>
     <use xlink:href="#DejaVuSans-20" transform="translate(616.964844 0)"/>
     <use xlink:href="#DejaVuSans-6c" transform="translate(648.751953 0)"/>
     <use xlink:href="#DejaVuSans-61" transform="translate(676.535156 0)"/>
     <use xlink:href="#DejaVuSans-79" transform="translate(737.814453 0)"/>
     <use xlink:href="#DejaVuSans-65" transform="translate(796.994141 0)"/>
     <use xlink:href="#DejaVuSans-72" transform="translate(858.517578 0)"/>
     <use xlink:href="#DejaVuSans-20" transform="translate(899.630859 0)"/>
     <use xlink:href="#DejaVuSans-69" transform="translate(931.417969 0)"/>
     <use xlink:href="#DejaVuSans-73" transform="translate(959.201172 0)"/>
     <use xlink:href="#DejaVuSans-20" transform="translate(1011.300781 0)"/>
     <use xlink:href="#DejaVuSans-61" transform="translate(1043.087891 0)"/>
     <use xlink:href="#DejaVuSans-20" transform="translate(1104.367188 0)"/>
     <use xlink:href="#DejaVuSans-62" transform="translate(1136.154297 0)"/>
     <use xlink:href="#DejaVuSans-61" transform="translate(1199.630859 0)"/>
     <use xlink:href="#DejaVuSans-73" transform="translate(1260.910156 0)"/>
     <use xlink:href="#DejaVuSans-69" transform="translate(1313.009766 0)"/>
     <use xlink:href="#DejaVuSans-73" transform="translate(1340.792969 0)"/>
     <use xlink:href="#DejaVuSans-3a" transform="translate(1392.892578 0)"/>
     <use xlink:href="#DejaVuSans-20" transform="translate(1426.583984 0)"/>
     <use xlink:href="#DejaVuSans-74" transform="translate(1458.371094 0)"/>
     <use xlink:href="#DejaVuSans-68" transform="translate(1497.580078 0)"/>
     <use xlink:href="#DejaVuSans-65" transform="translate(1560.958984 0)"/>
     <use xlink:href="#DejaVuSans-20" transform="translate(1622.482422 0)"/>
     <use xlink:href="#DejaVuSans-73" transform="translate(1654.269531 0)"/>
     <use xlink:href="#DejaVuSans-75" transform="translate(1706.369141 0)"/>
     <use xlink:href="#DejaVuSans-6d" transform="translate(1769.748047 0)"/>
     <use xlink:href="#DejaVuSans-20" transform="translate(1867.160156 0)"/>
     <use xlink:href="#DejaVuSans-6f" transform="translate(1898.947266 0)"/>
     <use xlink:href="#DejaVuSans-66" transform="translate(1960.128906 0)"/>
     <use xlink:href="#DejaVuSans-20" transform="translate(1995.333984 0)"/>
     <use xlink:href="#DejaVuSans-62" transform="translate(2027.121094 0)"/>
     <use xlink:href="#DejaVuSans-75" transform="translate(2090.597656 0)"/>
     <use xlink:href="#DejaVuSans-6d" transform="translate(2153.976562 0)"/>
     <use xlink:href="#DejaVuSans-70" transform="translate(2251.388672 0)"/>
     <use xlink:href="#DejaVuSans-73" transform="translate(2314.865234 0)"/>
     <use xlink:href="#DejaVuSans-20" transform="translate(2366.964844 0)"/>
     <use xlink:href="#DejaVuSans-61" transform="translate(2398.751953 0)"/>
     <use xlink:href="#DejaVuSans-70" transform="translate(2460.03125 0)"/>
     <use xlink:href="#DejaVuSans-70" transform="translate(2523.507812 0)"/>
     <use xlink:href="#DejaVuSans-72" transform="translate(2586.984375 0)"/>
     <use xlink:href="#DejaVuSans-6f" transform="translate(2625.847656 0)"/>
     <use xlink:href="#DejaVuSans-78" transform="translate(2683.904297 0)"/>
     <use xlink:href="#DejaVuSans-69" transform="translate(2743.083984 0)"/>
     <use xlink:href="#DejaVuSans-6d" transform="translate(2770.867188 0)"/>
     <use xlink:href="#DejaVuSans-61" transform="translate(2868.279297 0)"/>
     <use xlink:href="#DejaVuSans-74" transform="translate(2929.558594 0)"/>
     <use xlink:href="#DejaVuSans-65" transform="translate(2968.767578 0)"/>
     <use xlink:href="#DejaVuSans-73" transform="translate(3030.291016 0)"/>
     <use xlink:href="#DejaVuSans-20" transform="translate(3082.390625 0)"/>
     <use xlink:href="#DejaVuSans-74" transform="translate(3114.177734 0)"/>
     <use xlink:href="#DejaVuSans-68" transform="translate(3153.386719 0)"/>
     <use xlink:href="#DejaVuSans-65" transform="translate(3216.765625 0)"/>
     <use xlink:href="#DejaVuSans-20" transform="translate(3278.289062 0)"/>
     <use xlink:href="#DejaVuSans-74" transform="translate(3310.076172 0)"/>
     <use xlink:href="#DejaVuSans-61" transform="translate(3349.285156 0)"/>
     <use xlink:href="#DejaVuSans-72" transform="translate(3410.564453 0)"/>
     <use xlink:href="#DejaVuSans-67" transform="translate(3449.927734 0)"/>
     <use xlink:href="#DejaVuSans-65" transform="translate(3513.404297 0)"/>
     <use xlink:href="#DejaVuSans-74" transform="translate(3574.927734 0)"/>
    </g>
   </g>
   <g id="legend_1">
    <g id="patch_7">
     <path d="M 394.480312 59.69625 
L 482.180312 59.69625 
Q 484.180312 59.69625 484.180312 57.69625 
L 484.180312 29.318125 
Q 484.180312 27.318125 482.180312 27.318125 
L 394.480312 27.318125 
Q 392.480312 27.318125 392.480312 29.318125 
L 392.480312 57.69625 
Q 392.480312 59.69625 394.480312 59.69625 
z
" style="fill: #ffffff; opacity: 0.8; stroke: #cccccc; stroke-linejoin: miter"/>
    </g>
    <g id="line2d_48">
     <path d="M 396.480312 35.418125 
L 406.480312 35.418125 
L 416.480312 35.418125 
" style="fill: none; stroke: #1f77b4; stroke-width: 2; stroke-linecap: square"/>
    </g>
    <g id="text_17">
     <!-- target $\sin x$ -->
     <g transform="translate(424.480312 38.918125) scale(0.1 -0.1)">
      <defs>
       <path id="DejaVuSans-6e" d="M 3513 2113 
L 3513 0 
L 2938 0 
L 2938 2094 
Q 2938 2591 2744 2837 
Q 2550 3084 2163 3084 
Q 1697 3084 1428 2787 
Q 1159 2491 1159 1978 
L 1159 0 
L 581 0 
L 581 3500 
L 1159 3500 
L 1159 2956 
Q 1366 3272 1645 3428 
Q 1925 3584 2291 3584 
Q 2894 3584 3203 3211 
Q 3513 2838 3513 2113 
z
" transform="scale(0.015625)"/>
       <path id="DejaVuSans-Oblique-78" d="M 3841 3500 
L 2234 1784 
L 3219 0 
L 2559 0 
L 1819 1388 
L 531 0 
L -166 0 
L 1556 1844 
L 641 3500 
L 1300 3500 
L 1972 2234 
L 3144 3500 
L 3841 3500 
z
" transform="scale(0.015625)"/>
      </defs>
      <use xlink:href="#DejaVuSans-74" transform="translate(0 0.015625)"/>
      <use xlink:href="#DejaVuSans-61" transform="translate(39.208984 0.015625)"/>
      <use xlink:href="#DejaVuSans-72" transform="translate(100.488281 0.015625)"/>
      <use xlink:href="#DejaVuSans-67" transform="translate(141.601562 0.015625)"/>
      <use xlink:href="#DejaVuSans-65" transform="translate(205.078125 0.015625)"/>
      <use xlink:href="#DejaVuSans-74" transform="translate(266.601562 0.015625)"/>
      <use xlink:href="#DejaVuSans-20" transform="translate(305.810547 0.015625)"/>
      <use xlink:href="#DejaVuSans-73" transform="translate(337.597656 0.015625)"/>
      <use xlink:href="#DejaVuSans-69" transform="translate(389.697266 0.015625)"/>
      <use xlink:href="#DejaVuSans-6e" transform="translate(417.480469 0.015625)"/>
      <use xlink:href="#DejaVuSans-Oblique-78" transform="translate(497.095051 0.015625)"/>
     </g>
    </g>
    <g id="line2d_49">
     <path d="M 396.480312 50.116563 
L 406.480312 50.116563 
L 416.480312 50.116563 
" style="fill: none; stroke-dasharray: 7.4,3.2; stroke-dashoffset: 0; stroke: #d62728; stroke-width: 2"/>
    </g>
    <g id="text_18">
     <!-- MLP fit -->
     <g transform="translate(424.480312 53.616563) scale(0.1 -0.1)">
      <defs>
       <path id="DejaVuSans-4d" d="M 628 4666 
L 1569 4666 
L 2759 1491 
L 3956 4666 
L 4897 4666 
L 4897 0 
L 4281 0 
L 4281 4097 
L 3078 897 
L 2444 897 
L 1241 4097 
L 1241 0 
L 628 0 
L 628 4666 
z
" transform="scale(0.015625)"/>
       <path id="DejaVuSans-50" d="M 1259 4147 
L 1259 2394 
L 2053 2394 
Q 2494 2394 2734 2622 
Q 2975 2850 2975 3272 
Q 2975 3691 2734 3919 
Q 2494 4147 2053 4147 
L 1259 4147 
z
M 628 4666 
L 2053 4666 
Q 2838 4666 3239 4311 
Q 3641 3956 3641 3272 
Q 3641 2581 3239 2228 
Q 2838 1875 2053 1875 
L 1259 1875 
L 1259 0 
L 628 0 
L 628 4666 
z
" transform="scale(0.015625)"/>
      </defs>
      <use xlink:href="#DejaVuSans-4d"/>
      <use xlink:href="#DejaVuSans-4c" transform="translate(86.279297 0)"/>
      <use xlink:href="#DejaVuSans-50" transform="translate(141.992188 0)"/>
      <use xlink:href="#DejaVuSans-20" transform="translate(202.294922 0)"/>
      <use xlink:href="#DejaVuSans-66" transform="translate(234.082031 0)"/>
      <use xlink:href="#DejaVuSans-69" transform="translate(269.287109 0)"/>
      <use xlink:href="#DejaVuSans-74" transform="translate(297.070312 0)"/>
     </g>
    </g>
   </g>
  </g>
 </g>
 <defs>
  <clipPath id="p942f4022e0">
   <rect x="42.620313" y="22.318125" width="446.56" height="234.28"/>
  </clipPath>
 </defs>
</svg>
